<svg width="150" height="44" viewBox="0 0 150 44" fill="none" xmlns="http://www.w3.org/2000/svg">
<path d="M143.907 0H6.09343C2.72812 0 0 2.36394 0 5.28V38.72C0 41.6361 2.72812 44 6.09343 44H143.907C147.272 44 150 41.6361 150 38.72V5.28C150 2.36394 147.272 0 143.907 0Z" fill="#333333"/>
<path fill-rule="evenodd" clip-rule="evenodd" d="M38.9292 20.9937C38.9009 17.8464 41.5063 16.3152 41.6254 16.2439C40.1499 14.0926 37.8628 13.7987 37.0591 13.7752C35.1383 13.5731 33.2751 14.9246 32.2966 14.9246C31.2986 14.9246 29.7918 13.7948 28.1679 13.828C26.0781 13.8602 24.1231 15.0701 23.0508 16.949C20.838 20.7799 22.4884 26.4096 24.6084 29.5062C25.6689 31.0237 26.9081 32.716 28.5301 32.6564C30.117 32.592 30.7098 31.6447 32.6247 31.6447C34.5221 31.6447 35.0787 32.6564 36.733 32.6174C38.4361 32.592 39.5083 31.095 40.5317 29.5638C41.7572 27.8275 42.2494 26.1137 42.2689 26.0258C42.2299 26.0131 38.9624 24.7661 38.9292 20.9937Z" fill="white"/>
<path fill-rule="evenodd" clip-rule="evenodd" d="M35.8026 11.7381C36.6561 10.6708 37.24 9.2187 37.0779 7.74512C35.8426 7.7998 34.2977 8.59958 33.4081 9.64349C32.621 10.5634 31.9179 12.0711 32.0996 13.4891C33.4872 13.5926 34.912 12.7889 35.8026 11.7381Z" fill="white"/>
<path d="M69.6516 10.5053C69.6516 10.1692 69.5284 9.90256 69.2821 9.7055C69.0387 9.50554 68.6953 9.40556 68.2519 9.40556C67.881 9.40556 67.5694 9.50844 67.3173 9.71419C67.0681 9.91705 66.9435 10.1692 66.9435 10.4706H66.1089C66.1089 10.1344 66.2001 9.83301 66.3827 9.5664C66.5682 9.29979 66.8261 9.09258 67.1565 8.94479C67.4868 8.7941 67.852 8.71875 68.2519 8.71875C68.959 8.71875 69.5081 8.87814 69.8994 9.19691C70.2906 9.51279 70.4862 9.95327 70.4862 10.5184C70.4862 10.8111 70.3964 11.0777 70.2167 11.3182C70.037 11.5587 69.7863 11.7485 69.4647 11.8876C70.2094 12.1369 70.5818 12.631 70.5818 13.3699C70.5818 13.9379 70.3703 14.3886 69.9472 14.7218C69.5241 15.0551 68.959 15.2217 68.2519 15.2217C67.8317 15.2217 67.4492 15.1478 67.1043 15C66.7623 14.8493 66.4957 14.6363 66.3045 14.361C66.1132 14.0857 66.0176 13.7583 66.0176 13.3786H66.8522C66.8522 13.7119 66.984 13.9901 67.2478 14.2132C67.5115 14.4335 67.8462 14.5436 68.2519 14.5436C68.7069 14.5436 69.0691 14.4378 69.3386 14.2263C69.611 14.0147 69.7472 13.7351 69.7472 13.3873C69.7472 12.6455 69.2879 12.2673 68.3693 12.2528H67.5868V11.566H68.3649C68.788 11.5573 69.1082 11.4616 69.3256 11.2791C69.5429 11.0965 69.6516 10.8386 69.6516 10.5053Z" fill="white"/>
<path d="M74.468 15.1348C74.4216 15.0421 74.3839 14.8769 74.3549 14.6392C73.9811 15.0276 73.5348 15.2217 73.0161 15.2217C72.5524 15.2217 72.1714 15.0913 71.8729 14.8305C71.5773 14.5668 71.4295 14.2335 71.4295 13.8307C71.4295 13.341 71.6149 12.9613 71.9859 12.6918C72.3597 12.4194 72.8842 12.2832 73.5595 12.2832H74.3419V11.9137C74.3419 11.6326 74.2579 11.4095 74.0898 11.2443C73.9217 11.0762 73.6739 10.9922 73.3465 10.9922C73.0596 10.9922 72.819 11.0646 72.6249 11.2095C72.4307 11.3544 72.3336 11.5298 72.3336 11.7355H71.5251C71.5251 11.5008 71.6077 11.2747 71.7729 11.0574C71.941 10.8371 72.167 10.6633 72.451 10.5358C72.7379 10.4082 73.0523 10.3445 73.3943 10.3445C73.9362 10.3445 74.3607 10.4807 74.6679 10.7531C74.9751 11.0226 75.1345 11.395 75.1461 11.8703V14.035C75.1461 14.4668 75.2011 14.8102 75.3113 15.0652V15.1348H74.468ZM73.1335 14.5219C73.3856 14.5219 73.6247 14.4567 73.8507 14.3263C74.0767 14.1959 74.2405 14.0263 74.3419 13.8177V12.8527H73.7116C72.7263 12.8527 72.2337 13.141 72.2337 13.7177C72.2337 13.9698 72.3177 14.1669 72.4858 14.3089C72.6539 14.4509 72.8698 14.5219 73.1335 14.5219Z" fill="white"/>
<path d="M79.4452 11.0965H77.2761V15.1348H76.4675V10.4314H79.4452V11.0965Z" fill="white"/>
<path d="M84.1181 12.8353C84.1181 13.5511 83.9544 14.1278 83.6269 14.5653C83.2994 15.0029 82.856 15.2217 82.2967 15.2217C81.7259 15.2217 81.2767 15.0406 80.9492 14.6784V16.9431H80.145V10.4314H80.8797L80.9188 10.9531C81.2462 10.5473 81.7012 10.3445 82.2837 10.3445C82.8488 10.3445 83.2951 10.5575 83.6226 10.9835C83.9529 11.4095 84.1181 12.0021 84.1181 12.7614V12.8353ZM83.3139 12.744C83.3139 12.2137 83.2009 11.7949 82.9749 11.4877C82.7488 11.1805 82.4387 11.027 82.0446 11.027C81.5578 11.027 81.1926 11.2429 80.9492 11.6746V13.922C81.1897 14.3509 81.5578 14.5653 82.0533 14.5653C82.4387 14.5653 82.7445 14.4132 82.9705 14.1089C83.1995 13.8017 83.3139 13.3468 83.3139 12.744Z" fill="white"/>
<path d="M86.6306 13.9568L87.726 10.4314H88.5867L86.6958 15.8607C86.4031 16.6432 85.938 17.0344 85.3005 17.0344L85.1483 17.0213L84.8484 16.9648V16.3128L85.0657 16.3302C85.3381 16.3302 85.5497 16.2751 85.7004 16.165C85.854 16.0549 85.98 15.8535 86.0786 15.5608L86.2568 15.0826L84.5789 10.4314H85.4569L86.6306 13.9568Z" fill="white"/>
<path d="M91.8947 11.7181C91.8947 11.4979 91.8107 11.324 91.6426 11.1965C91.4745 11.0661 91.2441 11.0009 90.9514 11.0009C90.6674 11.0009 90.4298 11.0748 90.2385 11.2226C90.0502 11.3704 89.956 11.5442 89.956 11.7442H89.1562C89.1562 11.3356 89.3271 11.0009 89.6691 10.7401C90.0111 10.4792 90.4385 10.3488 90.9514 10.3488C91.502 10.3488 91.9309 10.4677 92.2381 10.7053C92.5453 10.94 92.6989 11.2762 92.6989 11.7138C92.6989 11.9253 92.6351 12.1195 92.5076 12.2963C92.3801 12.473 92.199 12.6136 91.9643 12.7179C92.512 12.9034 92.7858 13.2685 92.7858 13.8133C92.7858 14.2451 92.6192 14.5871 92.2859 14.8392C91.9527 15.0913 91.5078 15.2174 90.9514 15.2174C90.4095 15.2174 89.9618 15.0855 89.6082 14.8218C89.2576 14.5552 89.0823 14.1959 89.0823 13.7438H89.8821C89.8821 13.9727 89.9835 14.1698 90.1864 14.335C90.3921 14.4972 90.6472 14.5784 90.9514 14.5784C91.2586 14.5784 91.5064 14.5074 91.6948 14.3654C91.8831 14.2234 91.9773 14.0394 91.9773 13.8133C91.9773 13.5496 91.8976 13.3612 91.7382 13.2482C91.5817 13.1323 91.3369 13.0744 91.0036 13.0744H90.1994V12.3962H91.0732C91.6209 12.3817 91.8947 12.1557 91.8947 11.7181Z" fill="white"/>
<path d="M96.8719 10.4314H97.6761V15.1348H96.8719V11.7051L94.7028 15.1348H93.8986V10.4314H94.7028V13.8655L96.8719 10.4314Z" fill="white"/>
<path d="M102.462 11.0835H100.884V15.1348H100.08V11.0835H98.5324V10.4314H102.462V11.0835Z" fill="white"/>
<path d="M104.849 15.2217C104.211 15.2217 103.692 15.0131 103.292 14.5958C102.892 14.1756 102.692 13.6148 102.692 12.9135V12.7657C102.692 12.2992 102.781 11.8833 102.958 11.5182C103.137 11.1501 103.386 10.8632 103.705 10.6575C104.027 10.4488 104.375 10.3445 104.749 10.3445C105.36 10.3445 105.835 10.5459 106.174 10.9487C106.513 11.3515 106.683 11.9282 106.683 12.6788V13.0135H103.497C103.508 13.4772 103.643 13.8524 103.901 14.1393C104.162 14.4233 104.492 14.5653 104.892 14.5653C105.176 14.5653 105.417 14.5074 105.614 14.3915C105.811 14.2755 105.983 14.122 106.131 13.9307L106.622 14.3132C106.228 14.9189 105.637 15.2217 104.849 15.2217ZM104.749 11.0052C104.424 11.0052 104.152 11.124 103.931 11.3617C103.711 11.5964 103.575 11.9268 103.523 12.3528H105.879V12.2919C105.856 11.8833 105.745 11.5674 105.548 11.3443C105.351 11.1182 105.085 11.0052 104.749 11.0052Z" fill="white"/>
<path d="M109.9 15.1348V10.4314H111.734C112.36 10.4314 112.84 10.5416 113.173 10.7618C113.509 10.9791 113.677 11.2994 113.677 11.7225C113.677 11.9398 113.612 12.1369 113.481 12.3136C113.351 12.4875 113.158 12.6208 112.903 12.7136C113.187 12.7802 113.415 12.9106 113.586 13.1048C113.76 13.2989 113.847 13.5308 113.847 13.8003C113.847 14.2321 113.687 14.5624 113.368 14.7914C113.053 15.0203 112.605 15.1348 112.025 15.1348H109.9ZM110.704 13.07V14.4871H112.034C112.37 14.4871 112.621 14.4248 112.786 14.3002C112.954 14.1756 113.038 14.0002 113.038 13.7742C113.038 13.3047 112.693 13.07 112.004 13.07H110.704ZM110.704 12.4267H111.743C112.496 12.4267 112.873 12.2064 112.873 11.7659C112.873 11.3254 112.516 11.098 111.804 11.0835H110.704V12.4267Z" fill="white"/>
<path fill-rule="evenodd" clip-rule="evenodd" d="M61.5065 32.4381H59.2888L58.074 28.6208H53.8514L52.6943 32.4381H50.5352L54.7196 19.4424H57.3035L61.5065 32.4381ZM57.7078 27.0193L56.6092 23.6268C56.493 23.2792 56.2742 22.4628 55.9539 21.1777H55.9149C55.786 21.7304 55.5799 22.5468 55.2977 23.6268L54.2176 27.0193H57.7078Z" fill="white"/>
<path fill-rule="evenodd" clip-rule="evenodd" d="M72.2458 27.6375C72.2458 29.2312 71.8132 30.4909 70.947 31.4157C70.1716 32.2389 69.2078 32.65 68.0584 32.65C66.8172 32.65 65.9247 32.2077 65.3827 31.32V36.2368H63.3008V26.1473C63.3008 25.1464 63.2744 24.1201 63.2236 23.0674H65.0546L65.1708 24.5536H65.2099C65.9042 23.4336 66.9579 22.874 68.3719 22.874C69.4773 22.874 70.4001 23.3105 71.1384 24.1845C71.8757 25.0605 72.2458 26.2108 72.2458 27.6375ZM70.1248 27.7137C70.1248 26.8016 69.9197 26.0497 69.5076 25.4579C69.0574 24.8417 68.4529 24.5322 67.6951 24.5322C67.1815 24.5322 66.7147 24.704 66.2977 25.0439C65.8798 25.3847 65.6064 25.8309 65.4784 26.3846C65.414 26.6415 65.3817 26.8514 65.3817 27.0174V28.5818C65.3817 29.2615 65.5907 29.8367 66.0087 30.3074C66.4266 30.7761 66.9696 31.0114 67.6375 31.0114C68.4217 31.0114 69.032 30.7077 69.4685 30.1052C69.906 29.5007 70.1248 28.7039 70.1248 27.7137Z" fill="white"/>
<path fill-rule="evenodd" clip-rule="evenodd" d="M83.0232 27.6375C83.0232 29.2312 82.5906 30.4909 81.7244 31.4157C80.9481 32.2389 79.9852 32.65 78.8349 32.65C77.5947 32.65 76.7021 32.2077 76.1592 31.32V36.2368H74.0772V26.1473C74.0772 25.1464 74.0508 24.1201 74.0001 23.0674H75.831L75.9473 24.5536H75.9863C76.6797 23.4336 77.7333 22.874 79.1483 22.874C80.2528 22.874 81.1766 23.3105 81.9158 24.1845C82.6521 25.0605 83.0232 26.2108 83.0232 27.6375ZM80.9012 27.7137C80.9012 26.8016 80.6951 26.0497 80.283 25.4579C79.8338 24.8417 79.2303 24.5322 78.4726 24.5322C77.9589 24.5322 77.4921 24.704 77.0732 25.0439C76.6562 25.3847 76.3828 25.8309 76.2549 26.3846C76.1914 26.6415 76.1572 26.8514 76.1572 27.0174V28.5818C76.1572 29.2615 76.3672 29.8367 76.7832 30.3074C77.2011 30.7751 77.7441 31.0114 78.414 31.0114C79.1991 31.0114 79.8094 30.7077 80.245 30.1052C80.6824 29.5007 80.9012 28.7039 80.9012 27.7137Z" fill="white"/>
<path fill-rule="evenodd" clip-rule="evenodd" d="M95.075 28.7936C95.075 29.899 94.6892 30.7984 93.9197 31.4927C93.0741 32.2505 91.8934 32.6304 90.3798 32.6304C88.9814 32.6304 87.8604 32.3609 87.0147 31.8209L87.4961 30.0856C88.4092 30.6256 89.4121 30.8961 90.5038 30.8961C91.289 30.8961 91.8993 30.7184 92.3348 30.3658C92.7723 30.0113 92.992 29.5397 92.992 28.9499C92.992 28.4216 92.8104 27.9782 92.451 27.6179C92.0907 27.2595 91.495 26.9236 90.6591 26.6169C88.3838 25.7683 87.2452 24.5262 87.2452 22.8944C87.2452 21.828 87.6475 20.955 88.4492 20.2724C89.2519 19.5908 90.3163 19.25 91.6405 19.25C92.8231 19.25 93.8084 19.456 94.5906 19.8672L94.0682 21.5644C93.3319 21.1659 92.5008 20.9667 91.5712 20.9667C90.8368 20.9667 90.2597 21.1474 89.8486 21.5068C89.5019 21.828 89.3252 22.2196 89.3252 22.6845C89.3252 23.1971 89.5253 23.6229 89.9247 23.9559C90.2704 24.2645 90.9013 24.5994 91.8134 24.9588C92.9325 25.4099 93.7537 25.9353 94.281 26.5388C94.8113 27.1423 95.075 27.8952 95.075 28.7936Z" fill="white"/>
<path fill-rule="evenodd" clip-rule="evenodd" d="M101.975 24.6295H99.6806V29.1791C99.6806 30.3363 100.085 30.9135 100.895 30.9135C101.267 30.9135 101.576 30.8822 101.82 30.8168L101.878 32.3978C101.468 32.5511 100.928 32.6282 100.26 32.6282C99.4364 32.6282 98.7949 32.3763 98.33 31.8753C97.8671 31.3734 97.6357 30.5326 97.6357 29.3491V24.6256H96.2695V23.0631H97.6357V21.3474L99.6806 20.7302V23.0631H101.975V24.6295Z" fill="white"/>
<path fill-rule="evenodd" clip-rule="evenodd" d="M112.309 27.6755C112.309 29.1159 111.898 30.2984 111.074 31.2232C110.214 32.1744 109.07 32.6499 107.643 32.6499C106.266 32.6499 105.171 32.1939 104.355 31.2818C103.539 30.3697 103.13 29.2194 103.13 27.8317C103.13 26.3796 103.553 25.1902 104.393 24.2654C105.235 23.3407 106.369 22.8768 107.796 22.8768C109.172 22.8768 110.276 23.3348 111.112 24.2459C111.911 25.1316 112.309 26.2732 112.309 27.6755ZM110.151 27.7233C110.151 26.865 109.965 26.1287 109.593 25.5125C109.157 24.7684 108.531 24.3973 107.722 24.3973C106.889 24.3973 106.247 24.7684 105.813 25.5125C105.439 26.1287 105.254 26.8777 105.254 27.7624C105.254 28.6217 105.439 29.36 105.813 29.9733C106.263 30.7184 106.891 31.0904 107.705 31.0904C108.5 31.0904 109.124 30.7096 109.576 29.9557C109.958 29.3248 110.151 28.5837 110.151 27.7233Z" fill="white"/>
<path fill-rule="evenodd" clip-rule="evenodd" d="M119.08 24.8984C118.874 24.8603 118.653 24.8417 118.423 24.8417C117.691 24.8417 117.125 25.1161 116.726 25.6708C116.38 26.1591 116.207 26.7762 116.207 27.5213V32.4381H114.125V26.0184C114.125 24.9394 114.104 23.9541 114.064 23.0683H115.878L115.954 24.8612H116.011C116.232 24.2451 116.578 23.748 117.052 23.3769C117.517 23.041 118.017 22.874 118.557 22.874C118.75 22.874 118.923 22.8887 119.078 22.9121L119.08 24.8984Z" fill="white"/>
<path fill-rule="evenodd" clip-rule="evenodd" d="M128.39 27.3092C128.39 27.6822 128.366 27.9967 128.314 28.2535H122.069C122.091 29.1792 122.395 29.8882 122.974 30.3765C123.501 30.812 124.182 31.0307 125.017 31.0307C125.942 31.0307 126.786 30.8843 127.544 30.5874L127.871 32.0327C126.984 32.4184 125.936 32.6117 124.729 32.6117C123.276 32.6117 122.135 32.184 121.305 31.3305C120.478 30.4761 120.062 29.3267 120.062 27.8893C120.062 26.4772 120.447 25.3005 121.22 24.362C122.029 23.3601 123.122 22.8592 124.497 22.8592C125.847 22.8592 126.87 23.3601 127.563 24.362C128.114 25.1559 128.39 26.1403 128.39 27.3092ZM126.405 26.7692C126.419 26.151 126.283 25.6198 126 25.1686C125.64 24.5886 125.085 24.2995 124.342 24.2995C123.661 24.2995 123.107 24.5817 122.685 25.1481C122.339 25.5983 122.132 26.1403 122.069 26.7672L126.405 26.7692Z" fill="white"/>
</svg>