<svg width="260" height="344" viewBox="0 0 260 344" fill="none" xmlns="http://www.w3.org/2000/svg">
<mask id="mask0" mask-type="alpha" maskUnits="userSpaceOnUse" x="0" y="0" width="260" height="344">
<rect y="0.352783" width="260" height="343.316" rx="10" fill="#F4F4F4"/>
</mask>
<g mask="url(#mask0)">
<path d="M621.649 -218.408C604.923 -221.416 597.345 -221.855 551.24 -218.614C493.608 -214.562 398.16 -210.396 275.231 -98.3584C176.888 -8.72795 207.923 111.875 268.581 110.688" stroke="#E4E4E4" stroke-dasharray="5 5"/>
<path d="M226.553 214.559C226.686 215.374 225.83 215.99 225.099 215.605L216.551 211.098C216.359 210.996 216.138 210.96 215.923 210.996L206.386 212.553C205.571 212.686 204.955 211.83 205.34 211.1L209.847 202.551C209.949 202.359 209.985 202.139 209.95 201.924L208.393 192.387C208.259 191.572 209.115 190.956 209.846 191.341L218.394 195.848C218.586 195.949 218.807 195.985 219.022 195.95L228.559 194.393C229.374 194.26 229.99 195.116 229.605 195.846L225.098 204.394C224.996 204.587 224.96 204.807 224.995 205.022L226.553 214.559Z" fill="#E4E4E4"/>
<path d="M26.2413 282.725C25.4584 282.988 24.7128 282.242 24.9753 281.459L26.9 275.719C26.9692 275.513 26.9692 275.29 26.9 275.083L24.9753 269.343C24.7128 268.56 25.4584 267.815 26.2413 268.077L31.9814 270.002C32.1877 270.071 32.4109 270.071 32.6172 270.002L38.3573 268.077C39.1402 267.815 39.8859 268.56 39.6234 269.343L37.6986 275.083C37.6294 275.29 37.6294 275.513 37.6986 275.719L39.6234 281.459C39.8859 282.242 39.1402 282.988 38.3573 282.725L32.6172 280.8C32.4109 280.731 32.1877 280.731 31.9814 280.8L26.2413 282.725Z" fill="#E4E4E4"/>
<path d="M193.874 11.7818C193.328 12.4005 192.309 12.1276 192.145 11.3184L191.103 6.17967C191.06 5.96642 190.948 5.77309 190.785 5.62902L186.856 2.15728C186.237 1.61056 186.51 0.591925 187.319 0.427835L192.458 -0.614159C192.671 -0.657401 192.864 -0.76902 193.008 -0.932081L196.48 -4.86132C197.027 -5.48009 198.046 -5.20714 198.21 -4.39792L199.252 0.740773C199.295 0.954026 199.406 1.14736 199.57 1.29143L203.499 4.76317C204.118 5.30989 203.845 6.32852 203.035 6.49261L197.897 7.53461C197.683 7.57785 197.49 7.68947 197.346 7.85253L193.874 11.7818Z" fill="#E4E4E4"/>
<path d="M175.345 77.2966C175.181 78.1058 174.162 78.3788 173.615 77.76L165.865 68.9889C165.721 68.8259 165.528 68.7142 165.315 68.671L153.844 66.345C153.035 66.1809 152.762 65.1623 153.381 64.6156L162.152 56.8657C162.315 56.7217 162.426 56.5283 162.47 56.3151L164.796 44.8442C164.96 44.035 165.978 43.762 166.525 44.3808L174.275 53.1519C174.419 53.3149 174.612 53.4265 174.825 53.4698L186.296 55.7958C187.106 55.9599 187.379 56.9785 186.76 57.5252L177.989 65.2751C177.826 65.4191 177.714 65.6125 177.671 65.8257L175.345 77.2966Z" fill="#DADADA" fill-opacity="0.58"/>
</g>
<g clip-path="url(#clip0)">
<path d="M237.587 29.1698L239.917 34.0232C240.364 34.9528 241.536 35.3254 242.522 34.8522L246.214 33.0794C247.201 32.6058 247.643 31.4579 247.197 30.5283L244.867 25.6748C244.421 24.7458 243.248 24.3732 242.262 24.8468L238.569 26.6196C237.583 27.0929 237.141 28.2408 237.587 29.1698Z" fill="#D8D8D8"/>
<path d="M237.587 29.1698L238.885 31.8739C239.331 32.8029 240.504 33.1755 241.489 32.7022L245.182 30.9294C246.168 30.4552 246.611 29.3079 246.165 28.3789L244.867 25.6748C244.421 24.7458 243.248 24.3732 242.262 24.8468L238.569 26.6196C237.583 27.0929 237.141 28.2408 237.587 29.1698Z" fill="#EAEAEA"/>
<path d="M197.838 51.2386C198.997 53.6555 200.66 55.7976 202.719 57.5256C208.752 62.5983 217.776 63.8924 225.686 60.0948L231.169 57.4626C231.498 57.3047 231.821 57.1402 232.138 56.969C235.923 54.9307 239.026 51.8337 241.055 48.0697C242.303 45.7595 243.1 43.2413 243.405 40.6483C243.778 37.5184 243.37 34.3549 242.217 31.4359C241.064 28.5168 239.202 25.9315 236.793 23.9072C230.763 18.8343 221.736 17.5407 213.826 21.3383L208.343 23.9705C201.15 27.4239 196.664 34.2305 196.053 41.3634C195.752 44.7642 196.368 48.1722 197.838 51.2386V51.2386Z" fill="#D8D8D8"/>
<path d="M218.76 53.9842L225.801 64.0652C226.445 64.7984 226.163 65.9544 225.234 66.4004L220.531 68.6583C219.524 69.1419 218.347 69.0552 217.48 68.4331L203.586 58.2138L218.76 53.9842Z" fill="#D8D8D8"/>
<path d="M235.459 61.492L240.16 59.2353C241.167 58.7517 241.836 57.7784 241.893 56.7125L242.803 47.0292L243.404 40.6484L229.551 49.0344L230.915 53.2189L232.136 56.9695L233.279 60.4749C233.452 61.4346 234.528 61.9389 235.459 61.492Z" fill="#D8D8D8"/>
<path d="M199.722 47.7649C208.627 56.3911 214.981 60.2375 230.051 53.6028C230.344 53.4741 230.632 53.3459 230.916 53.2182C235.205 51.2932 238.578 49.503 241.055 48.0695C241.697 47.6974 242.279 47.3509 242.802 47.0299L243.402 40.6492C243.776 37.5194 243.368 34.3558 242.216 31.4365C241.064 28.5172 239.201 25.9317 236.793 23.907C230.763 18.834 221.736 17.5405 213.826 21.3381L208.343 23.9703C201.15 27.4237 196.664 34.2303 196.053 41.3632C196.597 43.6623 198.384 46.4682 199.722 47.7649Z" fill="#EAEAEA"/>
<path d="M218.259 24.7766L225.801 21.1554C226.56 20.7911 226.969 20.0584 226.712 19.5229L222.056 9.82407C221.978 9.6634 221.849 9.53221 221.69 9.44956C221.08 9.12283 220.01 9.37899 219.474 10.1114C217.344 13.0148 214.248 18.5903 216.387 24.3996C216.604 24.9864 217.465 25.1579 218.259 24.7766Z" fill="#EAEAEA"/>
<path d="M225.495 21.3028L225.802 21.1556C226.56 20.7913 226.969 20.0586 226.712 19.5231L222.056 9.82425C221.978 9.66359 221.85 9.5324 221.69 9.44975C221.67 9.49207 221.653 9.53569 221.638 9.5803C220.825 12.0847 220.084 16.5932 223.017 21.0025C223.445 21.6425 224.515 21.773 225.495 21.3028Z" fill="#D8D8D8"/>
<path d="M232.583 25.8793C232.303 25.2946 231.569 25.0637 230.951 25.3605C230.333 25.6574 230.055 26.3738 230.336 26.9585C230.616 27.5431 231.35 27.7741 231.967 27.4775C232.585 27.1809 232.864 26.4633 232.583 25.8793Z" fill="#BAC0C7"/>
</g>
<path d="M135.833 10.0983C135.973 7.55101 135.022 5.06462 133.219 3.26118L132.336 2.37854C131.968 2.01074 131.372 2.0114 131.005 2.37854L120.298 13.0853C119.931 13.4531 119.931 14.0487 120.298 14.4165L121.181 15.2991C122.984 17.1026 125.471 18.0534 128.018 17.9139L129.691 17.8219C130.819 17.7602 131.921 18.1795 132.723 18.9765C133.525 19.7737 133.95 20.8732 133.895 22.0023L133.809 23.7585C133.685 26.2887 134.635 28.7529 136.426 30.5445L137.275 31.3931C137.643 31.7607 138.238 31.7607 138.606 31.3929L149.313 20.6862C149.68 20.319 149.68 19.7227 149.313 19.3552L148.464 18.5065C146.673 16.715 144.208 15.7649 141.678 15.8886L139.922 15.9753C138.793 16.031 137.693 15.6052 136.896 14.8032C136.099 14.0013 135.68 12.8992 135.742 11.7709L135.833 10.0983ZM140.505 17.7866C142.291 17.2927 144.205 17.7967 145.516 19.1074L146.234 19.8257C146.495 20.0863 146.495 20.5085 146.234 20.7693L138.689 28.314C138.428 28.5746 138.006 28.5746 137.746 28.314L137.027 27.5957C135.717 26.2855 135.212 24.3716 135.707 22.5848L136.572 19.4597C136.681 19.0675 136.988 18.7601 137.38 18.6512L140.505 17.7866Z" fill="#E4E4E4"/>
<defs>
<clipPath id="clip0">
<rect width="53.4586" height="53.4586" fill="white" transform="matrix(-0.901487 0.432806 0.432806 0.901487 233.941 2.92017)"/>
</clipPath>
</defs>
</svg>