<svg width="260" height="302" viewBox="0 0 260 302" fill="none" xmlns="http://www.w3.org/2000/svg">
<mask id="mask0" mask-type="alpha" maskUnits="userSpaceOnUse" x="0" y="0" width="260" height="302">
<rect width="260" height="302" rx="10" fill="#D8D8D8"/>
</mask>
<g mask="url(#mask0)">
<path d="M247.515 133.613C247.648 134.428 246.792 135.044 246.062 134.659L237.514 130.152C237.321 130.051 237.101 130.015 236.886 130.05L227.349 131.607C226.534 131.74 225.918 130.884 226.303 130.154L230.81 121.606C230.912 121.413 230.948 121.193 230.913 120.978L229.355 111.441C229.222 110.626 230.078 110.01 230.809 110.395L239.357 114.902C239.549 115.004 239.77 115.04 239.984 115.004L249.522 113.447C250.337 113.314 250.953 114.17 250.567 114.9L246.06 123.449C245.959 123.641 245.923 123.861 245.958 124.076L247.515 133.613Z" fill="#E4E4E4"/>
<path d="M30.331 241.581C29.9915 240.828 30.659 240.012 31.4641 240.195L34.5789 240.903C34.7911 240.951 35.0132 240.928 35.2116 240.839L38.1234 239.526C38.8761 239.186 39.6925 239.854 39.5096 240.659L38.8019 243.774C38.7537 243.986 38.776 244.208 38.8655 244.406L40.1786 247.318C40.518 248.071 39.8506 248.887 39.0454 248.704L35.9307 247.997C35.7185 247.949 35.4964 247.971 35.298 248.06L32.3862 249.373C31.6335 249.713 30.817 249.045 31 248.24L31.7077 245.125C31.7559 244.913 31.7336 244.691 31.6441 244.493L30.331 241.581Z" fill="#E4E4E4"/>
<path d="M32.0565 279.85C31.4378 279.304 31.7107 278.285 32.5199 278.121L40.1295 276.578C40.3427 276.535 40.536 276.423 40.6801 276.26L45.8212 270.441C46.3679 269.823 47.3865 270.095 47.5506 270.905L49.0936 278.514C49.1369 278.728 49.2485 278.921 49.4115 279.065L55.2301 284.206C55.8488 284.753 55.5759 285.771 54.7667 285.935L47.1572 287.478C46.9439 287.522 46.7506 287.633 46.6065 287.796L41.4654 293.615C40.9187 294.234 39.9001 293.961 39.736 293.151L38.193 285.542C38.1497 285.329 38.0381 285.135 37.8751 284.991L32.0565 279.85Z" fill="#E4E4E4"/>
<path d="M180.928 96.9844C181.061 97.7993 180.205 98.4152 179.475 98.0301L164.47 90.1189C164.278 90.0174 164.057 89.9815 163.843 90.0166L147.102 92.7501C146.287 92.8832 145.671 92.0272 146.056 91.2968L153.967 76.2923C154.069 76.0998 154.105 75.8795 154.07 75.6648L151.336 58.9241C151.203 58.1092 152.059 57.4933 152.79 57.8784L167.794 65.7896C167.987 65.8911 168.207 65.927 168.422 65.8919L185.162 63.1583C185.977 63.0253 186.593 63.8813 186.208 64.6117L178.297 79.6162C178.195 79.8086 178.159 80.029 178.194 80.2437L180.928 96.9844Z" fill="#DADADA" fill-opacity="0.58"/>
<path d="M255.992 72.1751L250.666 82.0171L220.781 28.56L226.108 18.718L255.992 72.1751ZM270.66 46.295C268.782 49.7661 265.944 52.0517 262.145 53.1517C258.37 54.2094 254.758 53.792 251.309 51.8994C247.817 49.9835 245.511 47.1532 244.389 43.4085C243.248 39.5982 243.617 35.9574 245.496 32.4863C247.351 29.0575 250.178 26.7931 253.976 25.693C257.732 24.5696 261.356 24.9659 264.847 26.8818C268.296 28.7744 270.591 31.6259 271.732 35.4362C272.873 39.2466 272.516 42.8662 270.66 46.295ZM259.553 44.3178C260.929 43.9196 261.948 43.1066 262.613 41.879C263.277 40.6514 263.391 39.369 262.955 38.0317C262.519 36.6944 261.684 35.687 260.449 35.0094C259.214 34.3318 257.921 34.171 256.568 34.5269C255.216 34.8829 254.208 35.6747 253.543 36.9023C252.879 38.1299 252.753 39.4335 253.166 40.8131C253.602 42.1504 254.438 43.1578 255.673 43.8354C256.907 44.513 258.201 44.6738 259.553 44.3178ZM231.278 68.2488C229.4 71.72 226.561 74.0056 222.763 75.1056C218.987 76.1633 215.375 75.7458 211.926 73.8533C208.435 71.9373 206.128 69.107 205.007 65.3624C203.866 61.552 204.235 57.9113 206.113 54.4401C207.969 51.0113 210.796 48.7469 214.594 47.6469C218.35 46.5235 221.973 46.9197 225.465 48.8357C228.914 50.7282 231.209 53.5797 232.35 57.3901C233.491 61.2004 233.134 64.82 231.278 68.2488ZM223.23 63.8329C223.895 62.6053 224.009 61.3228 223.573 59.9855C223.137 58.6482 222.301 57.6408 221.067 56.9632C219.832 56.2856 218.538 56.1248 217.186 56.4808C215.834 56.8367 214.825 57.6285 214.161 58.8561C213.474 60.126 213.348 61.4296 213.784 62.7669C214.177 64.0808 215.013 65.0883 216.29 65.7892C217.568 66.4902 218.883 66.6627 220.235 66.3067C221.545 65.9274 222.543 65.1028 223.23 63.8329Z" fill="#E4E4E4"/>
<path d="M19.1616 255.368L23.9421 258.128L20.8798 263.431L26.1712 266.486L23.4257 271.242L18.1344 268.187L15.0721 273.491L10.2917 270.731L13.3539 265.427L8.06258 262.372L10.808 257.617L16.0994 260.671L19.1616 255.368Z" fill="#E4E4E4"/>
<path d="M167.526 41.8106L163.769 35.3037L184.791 23.1665L188.548 29.6734L167.526 41.8106ZM161.515 31.3996L157.729 24.8427L178.752 12.7055L182.537 19.2624L161.515 31.3996Z" fill="#E4E4E4"/>
</g>
</svg>