<svg width="1920" height="432" viewBox="0 0 1920 432" fill="none" xmlns="http://www.w3.org/2000/svg">
<g clip-path="url(#clip0)">
<rect width="1920" height="432" fill="white"/>
<path d="M-20 10C-20 4.47716 -15.5228 0 -10 0H1920C1925.52 0 1930 4.47715 1930 10V431C1930 436.523 1925.52 441 1920 441H-10C-15.5228 441 -20 436.523 -20 431V10Z" fill="url(#paint0_linear)"/>
<mask id="mask0" mask-type="alpha" maskUnits="userSpaceOnUse" x="381" y="0" width="1539" height="441">
<path d="M381 10C381 4.47716 385.477 0 391 0H1910C1915.52 0 1920 4.47715 1920 10V431C1920 436.523 1915.52 441 1910 441H391C385.477 441 381 436.523 381 431V10Z" fill="url(#paint1_linear)"/>
</mask>
<g mask="url(#mask0)">
<path d="M4 515.99C24.4325 518.33 185.925 101.615 263.506 286.313C369.019 537.389 349.057 324.83 417.498 247.795C535.716 114.739 908.862 435.032 1007.8 480.326C1056.14 502.452 1502.23 204.67 1504 -203" stroke="url(#paint2_linear)" stroke-width="250" stroke-miterlimit="10"/>
</g>
</g>
<defs>
<linearGradient id="paint0_linear" x1="-20" y1="220.5" x2="1930" y2="220.5" gradientUnits="userSpaceOnUse">
<stop stop-color="#66A1E7"/>
<stop offset="1" stop-color="#66CAFE"/>
</linearGradient>
<linearGradient id="paint1_linear" x1="381" y1="220.5" x2="1920" y2="220.5" gradientUnits="userSpaceOnUse">
<stop stop-color="#66A1E7"/>
<stop offset="1" stop-color="#66CAFE"/>
</linearGradient>
<linearGradient id="paint2_linear" x1="1662.92" y1="-203" x2="831.45" y2="330.77" gradientUnits="userSpaceOnUse">
<stop stop-color="#67C4FB"/>
<stop offset="1" stop-color="white" stop-opacity="0"/>
</linearGradient>
<clipPath id="clip0">
<rect width="1920" height="432" fill="white"/>
</clipPath>
</defs>
</svg>