<svg width="375" height="507" viewBox="0 0 375 507" fill="none" xmlns="http://www.w3.org/2000/svg">
<mask id="mask0" mask-type="alpha" maskUnits="userSpaceOnUse" x="0" y="0" width="375" height="507">
<rect width="375" height="507" fill="#C4C4C4"/>
</mask>
<g mask="url(#mask0)">
<mask id="mask1" mask-type="alpha" maskUnits="userSpaceOnUse" x="-1355" y="-66" width="1753" height="766">
<rect width="1752.18" height="765.665" transform="matrix(-1 0 0 1 397.178 -66)" fill="url(#paint0_linear)"/>
</mask>
<g mask="url(#mask1)">
<path d="M-639 531.741C-623.64 533.499 -502.234 220.381 -443.911 359.162C-364.589 547.82 -379.596 388.104 -328.143 330.22C-239.271 230.242 41.2507 470.91 115.631 504.943C151.969 521.569 487.33 297.816 488.659 -8.50635" stroke="url(#paint1_linear)" stroke-width="221" stroke-miterlimit="10"/>
</g>
<path d="M-635 583.759C-619.64 585.517 -498.234 272.398 -439.911 411.18C-360.589 599.837 -375.596 440.121 -324.143 382.238C-235.271 282.26 45.2507 522.927 119.631 556.961C155.969 573.586 491.33 349.834 492.659 43.5112" stroke="url(#paint2_linear)" stroke-width="159" stroke-miterlimit="10"/>
</g>
<defs>
<linearGradient id="paint0_linear" x1="3.67588e-06" y1="382.833" x2="272.178" y2="1028" gradientUnits="userSpaceOnUse">
<stop stop-color="#DFE9F3"/>
<stop offset="1" stop-color="white"/>
</linearGradient>
<linearGradient id="paint1_linear" x1="509.649" y1="70.8892" x2="123.622" y2="553.651" gradientUnits="userSpaceOnUse">
<stop stop-color="#D1E3F5"/>
<stop offset="0.713669" stop-color="#DFE9F3" stop-opacity="0"/>
</linearGradient>
<linearGradient id="paint2_linear" x1="539.201" y1="60.3942" x2="181.365" y2="491" gradientUnits="userSpaceOnUse">
<stop offset="0.197111" stop-color="#58B1EA"/>
<stop offset="0.810051" stop-color="#B4DCF5" stop-opacity="0"/>
</linearGradient>
</defs>
</svg>