<svg width="1920" height="873" viewBox="0 0 1920 873" fill="none" xmlns="http://www.w3.org/2000/svg">
<rect width="1920" height="873" fill="url(#paint0_linear)"/>
<mask id="mask0" mask-type="alpha" maskUnits="userSpaceOnUse" x="0" y="0" width="1920" height="873">
<rect width="1920" height="873" fill="url(#paint1_linear)"/>
</mask>
<g mask="url(#mask0)">
<path d="M361 589.99C381.433 592.33 542.925 175.615 620.506 360.313C726.019 611.389 706.057 398.83 774.498 321.795C892.716 188.739 1265.86 509.032 1364.8 554.326C1413.14 576.452 1859.23 278.67 1861 -129" stroke="url(#paint2_linear)" stroke-width="250" stroke-miterlimit="10"/>
<path d="M1442 395.01C1421.57 392.67 1260.08 809.385 1182.49 624.687C1076.98 373.611 1096.94 586.17 1028.5 663.205C910.284 796.261 537.138 475.968 438.198 430.674C389.861 408.548 -56.2319 706.33 -58 1114" stroke="url(#paint3_linear)" stroke-width="250" stroke-miterlimit="10"/>
</g>
<defs>
<linearGradient id="paint0_linear" x1="0" y1="436.5" x2="1920" y2="436.5" gradientUnits="userSpaceOnUse">
<stop stop-color="#DFE9F3"/>
<stop offset="1" stop-color="white"/>
</linearGradient>
<linearGradient id="paint1_linear" x1="0" y1="436.5" x2="1920" y2="436.5" gradientUnits="userSpaceOnUse">
<stop stop-color="#DFE9F3"/>
<stop offset="1" stop-color="white"/>
</linearGradient>
<linearGradient id="paint2_linear" x1="2019.92" y1="-129" x2="1545.65" y2="643.285" gradientUnits="userSpaceOnUse">
<stop stop-color="#6EB4D2"/>
<stop offset="0.81546" stop-color="#3AEABB" stop-opacity="0"/>
</linearGradient>
<linearGradient id="paint3_linear" x1="-216.915" y1="1114" x2="257.351" y2="341.715" gradientUnits="userSpaceOnUse">
<stop stop-color="#6EB4D2"/>
<stop offset="0.864123" stop-color="#3AEABB" stop-opacity="0"/>
</linearGradient>
</defs>
</svg>