<svg width="1920" height="819" viewBox="0 0 1920 819" fill="none" xmlns="http://www.w3.org/2000/svg">
<rect width="1920" height="819" fill="url(#paint0_linear)"/>
<mask id="mask0" mask-type="alpha" maskUnits="userSpaceOnUse" x="0" y="0" width="1920" height="819">
<rect width="1920" height="819" fill="url(#paint1_linear)"/>
</mask>
<g mask="url(#mask0)">
<path d="M1500 632.165C1479.57 634.528 1318.08 213.702 1240.49 400.222C1134.98 653.775 1154.94 439.119 1086.5 361.325C968.284 226.956 595.138 550.409 496.198 596.149C447.861 618.493 1.76806 317.774 -4.29153e-06 -93.9175" stroke="url(#paint2_linear)" stroke-width="250" stroke-miterlimit="10"/>
<path d="M312 238.338C332.814 235.933 497.321 664.367 576.35 474.475C683.833 216.338 663.498 434.874 733.217 514.076C853.641 650.873 1233.75 321.573 1334.54 275.005C1383.78 252.257 1838.2 558.414 1840 977.549" stroke="url(#paint3_linear)" stroke-width="250" stroke-miterlimit="10"/>
</g>
<defs>
<linearGradient id="paint0_linear" x1="0" y1="409.5" x2="1920" y2="409.5" gradientUnits="userSpaceOnUse">
<stop stop-color="#DFE9F3"/>
<stop offset="1" stop-color="white"/>
</linearGradient>
<linearGradient id="paint1_linear" x1="0" y1="409.5" x2="1920" y2="409.5" gradientUnits="userSpaceOnUse">
<stop stop-color="#DFE9F3"/>
<stop offset="1" stop-color="white"/>
</linearGradient>
<linearGradient id="paint2_linear" x1="-158.915" y1="-93.9176" x2="1222.08" y2="620.418" gradientUnits="userSpaceOnUse">
<stop stop-color="#67C4FB"/>
<stop offset="0.761327" stop-color="white" stop-opacity="0"/>
</linearGradient>
<linearGradient id="paint3_linear" x1="2001.88" y1="977.549" x2="1223.38" y2="396.731" gradientUnits="userSpaceOnUse">
<stop stop-color="#67C4FB"/>
<stop offset="1" stop-color="white" stop-opacity="0"/>
</linearGradient>
</defs>
</svg>