<svg width="1920" height="908" viewBox="0 0 1920 908" fill="none" xmlns="http://www.w3.org/2000/svg">
<rect width="1920" height="908" fill="url(#paint0_linear)"/>
<mask id="mask0" mask-type="alpha" maskUnits="userSpaceOnUse" x="-19" y="0" width="1939" height="908">
<rect width="1939" height="908" transform="matrix(1 0 0 -1 -19 908)" fill="url(#paint1_linear)"/>
</mask>
<g mask="url(#mask0)">
<path d="M436 380.01C456.215 377.696 615.991 789.774 692.746 607.132C797.138 358.849 777.388 569.043 845.102 645.22C962.062 776.796 1331.24 460.067 1429.13 415.277C1476.95 393.397 1918.3 687.866 1920.05 1091" stroke="url(#paint2_linear)" stroke-width="250" stroke-miterlimit="10"/>
<path d="M1409.05 652.99C1388.84 655.304 1229.06 243.226 1152.3 425.868C1047.91 674.151 1067.66 463.957 999.95 387.78C882.989 256.204 513.81 572.933 415.922 617.723C368.099 639.603 -73.2507 345.134 -75 -58" stroke="url(#paint3_linear)" stroke-width="316" stroke-miterlimit="10"/>
</g>
<defs>
<linearGradient id="paint0_linear" x1="1214" y1="633.028" x2="1919.04" y2="450.285" gradientUnits="userSpaceOnUse">
<stop stop-color="#DFE9F3"/>
<stop offset="1" stop-color="white"/>
</linearGradient>
<linearGradient id="paint1_linear" x1="168.148" y1="-116.538" x2="188.687" y2="982.499" gradientUnits="userSpaceOnUse">
<stop stop-color="#DFE9F3"/>
<stop offset="0.931984" stop-color="white"/>
</linearGradient>
<linearGradient id="paint2_linear" x1="1947.67" y1="986.512" x2="1244" y2="283" gradientUnits="userSpaceOnUse">
<stop stop-color="#E0C3FC"/>
<stop offset="0.615892" stop-color="#8EC5FC" stop-opacity="0"/>
<stop offset="1" stop-color="white" stop-opacity="0"/>
</linearGradient>
<linearGradient id="paint3_linear" x1="-102.624" y1="46.4881" x2="601.051" y2="750" gradientUnits="userSpaceOnUse">
<stop stop-color="#E0C3FC"/>
<stop offset="0.615892" stop-color="#8EC5FC" stop-opacity="0"/>
<stop offset="1" stop-color="white" stop-opacity="0"/>
</linearGradient>
</defs>
</svg>