<svg width="18" height="18" viewBox="0 0 18 18" fill="none" xmlns="http://www.w3.org/2000/svg">
<path d="M8.40504 0.358399C8.66188 -0.119466 9.33812 -0.119466 9.59496 0.358398L12.0127 4.85674C12.1102 5.03809 12.2829 5.16537 12.483 5.20339L17.4464 6.14651C17.9737 6.2467 18.1827 6.89928 17.8141 7.2948L14.3449 11.0181C14.2051 11.1682 14.1391 11.3741 14.1653 11.5789L14.8151 16.6602C14.8842 17.2 14.3371 17.6033 13.8525 17.3699L9.29061 15.1726C9.1067 15.084 8.89329 15.084 8.70939 15.1726L4.14753 17.3699C3.66292 17.6033 3.11583 17.2 3.18486 16.6602L3.83466 11.5789C3.86086 11.3741 3.79491 11.1682 3.65505 11.0181L0.185867 7.2948C-0.182668 6.89928 0.0262997 6.2467 0.553573 6.14651L5.51703 5.20339C5.71713 5.16537 5.88978 5.03809 5.98725 4.85674L8.40504 0.358399Z" fill="#F2C94C"/>
</svg>