<svg width="14" height="14" viewBox="0 0 14 14" fill="none" xmlns="http://www.w3.org/2000/svg">
<path fill-rule="evenodd" clip-rule="evenodd" d="M7 14C10.866 14 14 10.866 14 7C14 3.13401 10.866 0 7 0C3.13401 0 0 3.13401 0 7C0 10.866 3.13401 14 7 14ZM7.63634 2.86362C7.63634 2.51216 7.35143 2.22725 6.99997 2.22725C6.64852 2.22725 6.36361 2.51216 6.36361 2.86362V6.73639L4.32272 8.77728C4.07421 9.02579 4.07421 9.42872 4.32272 9.67723C4.57124 9.92575 4.97416 9.92575 5.22268 9.67723L7.44995 7.44996C7.56929 7.33062 7.63634 7.16876 7.63634 6.99998V2.86362Z" fill="#BAC0C7"/>
</svg>