<svg width="18" height="12" viewBox="0 0 18 12" fill="none" xmlns="http://www.w3.org/2000/svg">
<path fill-rule="evenodd" clip-rule="evenodd" d="M0.962377 5.27099C0.515145 5.87104 0.515145 6.69105 0.962377 7.2911C2.94618 9.95275 5.81221 11.6246 8.99944 11.6246C12.1867 11.6246 15.0527 9.95275 17.0365 7.2911C17.4837 6.69105 17.4837 5.87104 17.0365 5.27099C15.0527 2.60934 12.1867 0.9375 8.99944 0.9375C5.81221 0.9375 2.94618 2.60934 0.962377 5.27099ZM6.52871 6.28131C6.52871 4.91667 7.63496 3.81041 8.9996 3.81041C10.3642 3.81041 11.4705 4.91667 11.4705 6.28131C11.4705 7.64594 10.3642 8.7522 8.9996 8.7522C7.63496 8.7522 6.52871 7.64594 6.52871 6.28131ZM8.9996 2.56493C6.9471 2.56493 5.28322 4.22881 5.28322 6.28131C5.28322 8.3338 6.9471 9.99768 8.9996 9.99768C11.0521 9.99768 12.716 8.3338 12.716 6.28131C12.716 4.22881 11.0521 2.56493 8.9996 2.56493Z" fill="#BAC0C7"/>
</svg>