<svg width="24" height="25" viewBox="0 0 24 25" fill="none" xmlns="http://www.w3.org/2000/svg">
<path fill-rule="evenodd" clip-rule="evenodd" d="M17.9629 5.12167C18.8865 5.12167 19.6346 4.37333 19.6346 3.44167V1.68333C19.6346 0.750833 18.8873 0 17.9629 0C17.0385 0 16.292 0.75 16.292 1.68333V3.4425C16.2928 4.37333 17.0393 5.12167 17.9629 5.12167Z" fill="#3990C8"/>
<path d="M23.9021 2.91164H20.5371V3.76747C20.5371 5.17997 19.3975 6.33081 17.9923 6.33081C16.5854 6.33081 15.4483 5.17997 15.4483 3.76747V2.91164H8.65794V3.76747C8.65794 5.17997 7.5167 6.33081 6.11229 6.33081C4.70788 6.33081 3.56746 5.18081 3.56746 3.76747V2.91164L0.171875 2.86914V24.2675H1.87008H22.232L23.9277 24.2625L23.9021 2.91164ZM22.2304 22.5633H1.87008V8.89331H22.232V22.5633H22.2304Z" fill="#3990C8"/>
<path fill-rule="evenodd" clip-rule="evenodd" d="M6.08608 5.12167C7.00967 5.12167 7.75864 4.37333 7.75864 3.44167V1.68333C7.75864 0.75 7.00967 0 6.08608 0C5.1625 0 4.41602 0.75 4.41602 1.68333V3.4425C4.41602 4.37333 5.16167 5.12167 6.08608 5.12167Z" fill="#3990C8"/>
<path d="M11.337 10.7275H8.66309V13.1042H11.337V10.7275Z" fill="#3990C8"/>
<path d="M15.6627 10.7275H12.9863V13.1042H15.6627V10.7275Z" fill="#3990C8"/>
<path d="M19.67 10.7275H16.9961V13.1042H19.67V10.7275Z" fill="#3990C8"/>
<path d="M11.337 14.6741H8.66309V17.0491H11.337V14.6741Z" fill="#3990C8"/>
<path d="M15.6627 14.6741H12.9863V17.0491H15.6627V14.6741Z" fill="#3990C8"/>
<path d="M19.67 14.6741H16.9961V17.0491H19.67V14.6741Z" fill="#3990C8"/>
<path d="M11.337 18.6992H8.66309V21.0742H11.337V18.6992Z" fill="#3990C8"/>
<path d="M7.08829 14.6741H4.41602V17.0491H7.08829V14.6741Z" fill="#3990C8"/>
<path d="M7.08829 18.6992H4.41602V21.0742H7.08829V18.6992Z" fill="#3990C8"/>
<path d="M15.6627 18.6992H12.9863V21.0742H15.6627V18.6992Z" fill="#3990C8"/>
<path d="M19.67 18.6992H16.9961V21.0742H19.67V18.6992Z" fill="#3990C8"/>
</svg>