<svg width="11" height="9" viewBox="0 0 11 9" fill="none" xmlns="http://www.w3.org/2000/svg">
<path fill-rule="evenodd" clip-rule="evenodd" d="M8.47733 0.27841C8.64965 0.100709 8.88228 0.000700075 9.12492 3.66146e-06C9.36756 -0.000692752 9.60072 0.0979797 9.77398 0.274689C9.94725 0.451398 10.0467 0.691946 10.0508 0.944325C10.055 1.1967 9.96345 1.44064 9.79608 1.62339L4.88062 8.01522C4.79614 8.10988 4.69418 8.18584 4.58083 8.23857C4.46749 8.2913 4.34508 8.31971 4.22094 8.3221C4.0968 8.32449 3.97347 8.30082 3.85832 8.25249C3.74318 8.20416 3.63858 8.13218 3.55079 8.04084L0.293928 4.6515C0.203196 4.56355 0.130421 4.45749 0.079947 4.33964C0.0294724 4.2218 0.00233152 4.09459 0.00014372 3.96559C-0.00204408 3.8366 0.0207661 3.70847 0.067213 3.58885C0.11366 3.46922 0.182792 3.36056 0.270486 3.26933C0.358179 3.1781 0.462638 3.10619 0.577629 3.05787C0.69262 3.00955 0.815789 2.98582 0.939787 2.9881C1.06379 2.99037 1.18607 3.01861 1.29935 3.07112C1.41264 3.12362 1.51459 3.19933 1.59913 3.29372L4.17753 5.9747L8.45393 0.306591C8.46156 0.296669 8.46979 0.287256 8.47856 0.27841H8.47733Z" fill="#3990C8"/>
</svg>