<svg width="39" height="40" viewBox="0 0 39 40" fill="none" xmlns="http://www.w3.org/2000/svg">
<path d="M38.9628 20.4295L38.8883 19.1223C38.851 18.6741 38.7393 18.2633 38.702 17.8524L38.5903 17.2175C38.553 16.9934 38.4785 16.8067 38.4413 16.5826L38.106 15.3128L37.659 14.0803C37.5845 13.8935 37.51 13.6694 37.4355 13.4827L37.1748 12.8851C36.9885 12.5116 36.8023 12.1008 36.616 11.7273L35.9456 10.6442C35.8338 10.4575 35.7221 10.2707 35.6103 10.1213L35.2378 9.59847C34.9771 9.26234 34.7536 8.9262 34.4556 8.59007C33.8596 7.95515 33.3381 7.32023 32.7049 6.76C32.3696 6.49857 32.0716 6.19978 31.7736 5.93834L30.7679 5.19138C30.5817 5.07933 30.4327 4.92994 30.2464 4.81789L29.6877 4.48176L28.6075 3.84684C26.2235 2.61434 23.616 1.90473 20.9713 1.75533C20.9713 1.68064 20.9713 1.64329 20.9713 1.56859C20.8596 0.634886 20.0401 -0.0747311 19.0716 -3.45693e-05L17.7307 0.11201L17.0602 0.186707C16.8367 0.224055 16.6132 0.261403 16.3897 0.298752L15.086 0.56019C14.639 0.672234 14.2292 0.821627 13.8195 0.933672C12.9628 1.15776 12.1805 1.53124 11.361 1.86738C10.9513 2.05412 10.5788 2.27821 10.2063 2.46495L9.64756 2.76374C9.46132 2.87578 9.27507 2.98783 9.08883 3.09987L8.0086 3.80949C7.67335 4.07093 7.33811 4.36971 7.00287 4.63115L6.51862 5.04198C6.36963 5.19138 6.22063 5.34077 6.07163 5.49016L5.1404 6.38652L4.32092 7.39492C4.17192 7.54432 4.06017 7.73106 3.91118 7.88045L3.53868 8.40333C3.31519 8.77681 3.05444 9.11294 2.83095 9.48643L2.19771 10.6069C2.08596 10.7936 1.97421 10.9804 1.89971 11.1671L1.63897 11.7647C1.48997 12.1755 1.30372 12.549 1.15473 12.9225C0.893983 13.7441 0.595989 14.5284 0.446991 15.3501C0.372493 15.7609 0.260745 16.1718 0.186246 16.5826L0.0744986 17.9271C0.0372493 18.1512 0 18.338 0 18.5621V19.197V20.4668C0.111748 23.1185 0.819484 25.7703 2.01146 28.1232C1.97421 28.1606 1.89971 28.1606 1.86246 28.1979C1.08023 28.7581 0.893983 29.8412 1.45272 30.6256L2.19771 31.746L2.5702 32.3062C2.7192 32.493 2.8682 32.6424 3.01719 32.8291L3.87393 33.8375C4.17192 34.1736 4.50716 34.4351 4.84241 34.7712C5.47565 35.4061 6.18338 35.8917 6.89112 36.4519C7.26361 36.7133 7.6361 36.9374 8.0086 37.1615L8.56734 37.4976C8.75358 37.6097 8.93983 37.6844 9.16332 37.7964L10.3181 38.3566C10.7278 38.5434 11.1375 38.6554 11.5473 38.8422L12.1433 39.0663C12.3668 39.141 12.553 39.1783 12.7765 39.253L14.0057 39.5891L15.2722 39.8132C15.4957 39.8506 15.6819 39.8879 15.9054 39.9253L16.5387 39.9626C16.9484 40 17.3954 40.0373 17.8052 40.0373L19.0716 40C19.2951 40 19.4814 40 19.7049 39.9626L20.3381 39.8879C20.7479 39.8506 21.1948 39.8132 21.6046 39.7385C22.4241 39.5518 23.2808 39.4024 24.063 39.1036C24.4728 38.9542 24.8825 38.8422 25.255 38.6928L26.4097 38.1699C26.596 38.0952 26.7822 38.0205 26.9685 37.9085L27.5272 37.6097L28.6075 36.9748C30.8797 35.5182 32.7794 33.6134 34.2321 31.4099C34.2693 31.4472 34.3438 31.4846 34.3811 31.4846C35.2751 31.8954 36.2808 31.5219 36.6905 30.6256L37.2493 29.4304L37.51 28.8328C37.5845 28.6461 37.659 28.422 37.7335 28.1979L38.1805 26.9281C38.2923 26.5172 38.404 26.0691 38.4785 25.6582C38.702 24.7992 38.7765 23.9029 38.8883 23.0439C38.9255 22.5957 38.9255 22.1848 38.9628 21.7367L39 21.0644C39 20.8777 39 20.6536 38.9628 20.4295ZM36.3553 20.4295C36.3553 20.6162 36.3553 20.803 36.3181 20.9897L36.2436 21.5499C36.2063 21.9234 36.1691 22.2969 36.0946 22.6704C35.9083 23.4173 35.7966 24.1643 35.5358 24.8366C35.4241 25.1727 35.3123 25.5462 35.1633 25.8823L34.7163 26.8907C34.6418 27.0775 34.5673 27.2269 34.4928 27.4136L34.2321 27.8991L33.6734 28.8702L33.5989 29.0196C33.5616 29.0569 33.5616 29.0943 33.5244 29.169C33.1519 29.9533 33.4126 30.8496 34.0831 31.3352C32.4814 33.3893 30.4327 35.07 28.1605 36.2278L27.0802 36.7133L26.5215 36.9748C26.3352 37.0495 26.149 37.1242 25.9628 37.1615L24.8453 37.535C24.4728 37.647 24.063 37.7217 23.6905 37.7964C22.9456 38.0205 22.1261 38.0579 21.3811 38.1699C21.0086 38.2072 20.5989 38.2073 20.2264 38.2073H19.6304C19.4441 38.2073 19.2579 38.1699 19.0344 38.1699L17.8797 38.0952C17.5072 38.0579 17.1347 37.9832 16.7249 37.9085L16.1662 37.7964C15.9799 37.7591 15.7937 37.6844 15.6075 37.647L14.49 37.3482L13.4097 36.9374C13.2235 36.8627 13.0372 36.8254 12.8883 36.7507L12.3668 36.4892C12.0315 36.3025 11.6963 36.1531 11.361 35.9664L10.3926 35.3688C10.2436 35.2567 10.0573 35.182 9.90831 35.07L9.46132 34.7339C9.16332 34.5098 8.86533 34.2857 8.56734 34.0616C8.0086 33.5387 7.44986 33.0905 6.96562 32.493C6.70487 32.1942 6.44413 31.9327 6.22063 31.634L5.58739 30.7749C5.47565 30.6256 5.3639 30.4762 5.25215 30.3268L4.9914 29.8412L4.43266 28.8702L4.35817 28.7581C4.32092 28.7208 4.32092 28.6834 4.28367 28.6461C3.79943 27.9365 2.90544 27.7124 2.16046 28.0485C1.19198 25.5835 0.744986 23.0065 0.856734 20.4295L0.968481 19.2343L1.04298 18.6368C1.08023 18.45 1.11748 18.2633 1.15473 18.0392L1.37822 16.8814C1.45272 16.5079 1.60172 16.1344 1.71347 15.7609C1.89971 15.014 2.27221 14.3044 2.5702 13.5574C2.7192 13.2213 2.94269 12.8851 3.12894 12.5116L3.38969 11.9888C3.46418 11.802 3.61318 11.6526 3.72493 11.5032L4.35817 10.5322C4.58166 10.2334 4.84241 9.93461 5.10315 9.63582L5.47564 9.18764C5.62464 9.03825 5.73639 8.9262 5.88539 8.77681L6.70487 7.95515L7.59885 7.20818C7.74785 7.09614 7.89685 6.94674 8.04585 6.8347L8.53009 6.49857C8.86533 6.27448 9.16332 6.05039 9.46132 5.86364L10.467 5.30342C10.6533 5.22872 10.8023 5.11668 10.9513 5.04198L11.4728 4.81789C11.808 4.6685 12.1433 4.51911 12.5158 4.36971C13.2235 4.14562 13.9312 3.88419 14.6762 3.77214C15.0487 3.69744 15.4212 3.62275 15.7564 3.54805L16.8739 3.43601C17.0602 3.43601 17.2464 3.39866 17.4327 3.39866H17.9914H19.1089H19.2579C19.2951 3.39866 19.3696 3.39866 19.4069 3.39866C20.2636 3.32396 20.8968 2.65169 20.9713 1.83003C23.5415 2.20351 26 3.13722 28.1605 4.51911L29.1289 5.22872L29.6132 5.56486C29.7622 5.6769 29.9112 5.8263 30.0602 5.93834L30.9542 6.72266C31.2521 6.98409 31.5129 7.28288 31.7736 7.58167C32.3324 8.14189 32.7794 8.81416 33.2636 9.41173C33.4871 9.74787 33.6734 10.084 33.8969 10.4201L34.1948 10.9057C34.3066 11.0551 34.3811 11.2418 34.4556 11.4285L34.9771 12.4743C35.1261 12.8478 35.2378 13.1839 35.3868 13.5574L35.5731 14.0803C35.6476 14.267 35.6848 14.4537 35.7221 14.6405L36.0201 15.7609L36.2063 16.8814C36.2436 17.0681 36.2808 17.2549 36.2808 17.4416L36.3181 18.0018C36.3553 18.3753 36.3926 18.7488 36.3926 19.1596L36.3553 20.4295Z" fill="#3990C8"/>
</svg>