<svg width="57" height="69" viewBox="0 0 57 69" fill="none" xmlns="http://www.w3.org/2000/svg">
<path d="M56.6938 44.887C56.2743 41.981 53.9914 39.6981 51.0855 39.2787V37.5588C51.0855 32.8135 47.4783 28.95 43.0442 28.95C38.7379 28.95 35.1326 32.6962 35.003 37.3015H35.0579L35.003 37.3109V55.9543C35.003 61.9143 30.5472 66.7542 25.0697 66.7542C19.5922 66.7542 15.1364 61.9077 15.1364 55.9543V54.3394C16.5082 54.3394 17.9745 53.3452 17.9745 50.5553V48.1761C24.0461 46.6236 28.3808 41.4101 28.3808 35.4993V33.5268H26.4888L26.449 21.2143C26.4353 18.9352 24.7999 16.9892 22.5571 16.5835C22.0733 15.1014 20.4796 14.2921 18.9974 14.776C17.5153 15.2598 16.706 16.8535 17.1899 18.3356C17.6737 19.8177 19.2674 20.627 20.7496 20.1432C21.5432 19.8841 22.1814 19.287 22.4927 18.5124C23.7047 18.8573 24.5443 19.9599 24.5541 21.22L24.5967 33.5268H22.7047V35.5267C22.6292 38.8174 20.4231 41.677 17.2593 42.5851C15.5665 43.1222 13.749 43.1222 12.0562 42.5851C8.89609 41.6739 6.69492 38.8148 6.62219 35.5267V33.5268H3.78411V21.2285C3.78955 19.9498 4.64949 18.8326 5.88429 18.5001C6.46007 19.9659 8.11502 20.6872 9.58077 20.1115C11.0465 19.5357 11.7679 17.8806 11.1921 16.415C10.6163 14.9493 8.96124 14.2279 7.49561 14.8037C6.70142 15.1157 6.08863 15.7669 5.82564 16.5788C3.55836 16.9662 1.89832 18.9283 1.89205 21.2285V33.5268H0V35.4946C0 41.412 4.33753 46.6274 10.4063 48.1761V50.5553C10.4063 53.3452 11.8726 54.3394 13.2444 54.3394V55.9543C13.2444 62.9549 18.5488 68.6462 25.0697 68.6462C31.5907 68.6462 36.8951 62.9483 36.8951 55.9543V37.3564C36.9897 33.7662 39.7502 30.8449 43.0442 30.8449C46.4348 30.8449 49.1934 33.857 49.1934 37.5616V39.2787C45.5736 39.8011 43.0627 43.1592 43.5851 46.779C44.1076 50.3989 47.4656 52.9098 51.0855 52.3873C54.7053 51.8649 57.2162 48.5067 56.6938 44.887ZM19.8666 18.3904C19.3441 18.3904 18.9205 17.9668 18.9205 17.4444C18.9205 16.9219 19.3441 16.4983 19.8666 16.4983C20.389 16.4983 20.8126 16.9219 20.8126 17.4444C20.8126 17.9668 20.389 18.3904 19.8666 18.3904ZM8.51425 16.4983C9.03669 16.4983 9.46027 16.9219 9.46027 17.4444C9.46027 17.9668 9.03669 18.3904 8.51425 18.3904C7.9918 18.3904 7.56822 17.9668 7.56822 17.4444C7.56822 16.9219 7.9918 16.4983 8.51425 16.4983ZM1.89205 35.4946V35.4189H4.73014V35.5267C4.80109 39.6385 7.53664 43.2269 11.4829 44.3844C13.5508 45.0392 15.7704 45.0392 17.8383 44.3844C21.7864 43.2285 24.5245 39.6399 24.5967 35.5267V35.4189H26.4888V35.4946C26.4888 40.7573 22.4322 45.3881 16.8393 46.5082C15.526 46.7712 14.1807 46.8372 12.848 46.7041C12.4093 46.6615 11.9732 46.5955 11.5415 46.5063C5.94862 45.3881 1.89205 40.7573 1.89205 35.4946ZM13.2444 52.4474C12.393 52.4474 12.2984 51.1229 12.2984 50.5553V48.5479C12.374 48.5573 12.4516 48.5611 12.5282 48.5687C12.6228 48.5791 12.7174 48.5866 12.812 48.5952C13.2595 48.6349 13.7108 48.6614 14.1658 48.6623H14.2131C14.6672 48.6623 15.1175 48.6349 15.5621 48.5952C15.6568 48.5866 15.757 48.5791 15.8545 48.5687C15.9292 48.5602 16.0068 48.5573 16.0815 48.5479V50.5553C16.0815 51.1229 15.9869 52.4474 15.1355 52.4474H13.2444ZM50.1394 50.5553C47.5271 50.5553 45.4093 48.4375 45.4093 45.8252C45.4093 43.2129 47.5271 41.0951 50.1394 41.0951C52.7518 41.0951 54.8696 43.2129 54.8696 45.8252C54.8665 48.4363 52.7505 50.5523 50.1394 50.5553Z" fill="#47ABEB"/>
<path d="M50.1389 42.9873C48.5714 42.9873 47.3008 44.2579 47.3008 45.8254C47.3008 47.3928 48.5714 48.6635 50.1389 48.6635C51.7063 48.6635 52.9769 47.3928 52.9769 45.8254C52.9769 44.2579 51.7063 42.9873 50.1389 42.9873ZM50.1389 46.7714C49.6164 46.7714 49.1928 46.3478 49.1928 45.8254C49.1928 45.3029 49.6164 44.8794 50.1389 44.8794C50.6613 44.8794 51.0849 45.3029 51.0849 45.8254C51.0849 46.3478 50.6613 46.7714 50.1389 46.7714Z" fill="#47ABEB"/>
<path d="M47.6689 6.2635L47.6616 6.36324L47.7613 6.3705L51.3676 6.63322L51.4674 6.64049L51.4746 6.54075L51.7374 2.93448L51.7446 2.83475L51.6449 2.82748L50.409 2.73746L50.3093 2.73019L50.302 2.82993L50.2152 4.02224C48.2277 1.96199 45.4818 0.773047 42.5715 0.773047C36.7108 0.773047 31.943 5.54093 31.943 11.4016C31.943 17.2622 36.7109 22.0301 42.5715 22.0301C46.1155 22.0301 49.4156 20.2672 51.3993 17.3147L51.4551 17.2317L51.3721 17.1759L50.3435 16.4849L50.2605 16.4291L50.2047 16.5121C48.4886 19.0663 45.6351 20.5909 42.5715 20.5909C37.5046 20.591 33.3821 16.4685 33.3821 11.4016C33.3821 6.33463 37.5045 2.2122 42.5715 2.2122C45.0912 2.2122 47.4684 3.24409 49.1879 5.03142L47.8659 4.93512L47.7661 4.92786L47.7589 5.02759L47.6689 6.2635Z" fill="#3990C8" stroke="white" stroke-width="0.2"/>
<path d="M37.3998 12.5651C37.3998 12.1668 37.7982 11.9082 38.3643 11.6217C39.0141 11.2932 39.4684 10.9158 39.4684 10.1051C39.4684 9.14771 38.8534 8.55371 37.7492 8.55371C36.7988 8.55371 36.093 9.00796 35.7855 9.35737L36.4773 10.0982C36.7289 9.83963 37.1483 9.54611 37.5955 9.54611C37.9589 9.54611 38.1965 9.74179 38.1965 10.1192C38.1965 10.7062 37.6164 10.9578 37.0224 11.2233C36.0161 11.6776 35.7715 12.2786 35.7715 13.5715H39.4754V12.5651H37.3998Z" fill="#3990C8"/>
<path d="M43.0515 11.5238V8.60254H42.2828L39.9766 11.5238V12.5231H41.9333V13.5644H43.0515V12.5231H43.6665V11.5238H43.0515ZM42.0592 11.5237H41.0877L42.0592 10.2797V11.5237Z" fill="#3990C8"/>
<path d="M46.6948 9.83247C46.1567 9.83247 45.6884 10.084 45.4228 10.5174V8.46973H44.3047V13.5714H45.4228V11.4678C45.5627 11.0765 45.9331 10.8179 46.1986 10.8179C46.5201 10.8179 46.7297 11.0346 46.7297 11.5098V13.5714H47.8479V11.2233C47.8479 10.5873 47.6801 9.83247 46.6948 9.83247Z" fill="#3990C8"/>
</svg>