<svg width="64" height="65" viewBox="0 0 64 65" fill="none" xmlns="http://www.w3.org/2000/svg">
<path d="M59.7284 5.69041L59.7211 5.79015L59.8209 5.79741L63.2276 6.0456L63.3274 6.05286L63.3346 5.95313L63.5828 2.54641L63.5901 2.44667L63.4903 2.43941L62.3229 2.35436L62.2231 2.34709L62.2159 2.44683L62.1347 3.56083C60.2568 1.61898 57.6652 0.498633 54.9186 0.498633C49.3791 0.498633 44.8727 5.00517 44.8727 10.5446C44.8727 16.084 49.3792 20.5905 54.9186 20.5905C58.2683 20.5905 61.3876 18.9242 63.2626 16.1336L63.3183 16.0506L63.2353 15.9948L62.2637 15.342L62.1807 15.2862L62.1249 15.3692C60.5048 17.7806 57.8109 19.2199 54.9186 19.2199C50.1351 19.22 46.2432 15.3281 46.2432 10.5446C46.2432 5.76107 50.1351 1.86922 54.9186 1.86922C57.2925 1.86922 59.5323 2.83938 61.1549 4.52034L59.9204 4.43042L59.8207 4.42316L59.8134 4.52289L59.7284 5.69041Z" fill="#3990C8" stroke="#3990C8" stroke-width="0.2"/>
<path d="M50.0343 11.6439C50.0343 11.2676 50.4107 11.0234 50.9454 10.7527C51.5593 10.4424 51.9884 10.0859 51.9884 9.32008C51.9884 8.41562 51.4075 7.85449 50.3644 7.85449C49.4666 7.85449 48.7998 8.28361 48.5093 8.61369L49.1629 9.31352C49.4005 9.06926 49.7967 8.79197 50.2192 8.79197C50.5624 8.79197 50.7869 8.97683 50.7869 9.33333C50.7869 9.88786 50.239 10.1255 49.6778 10.3764C48.7272 10.8055 48.4961 11.3733 48.4961 12.5946H51.9951V11.6439H50.0343Z" fill="#3990C8"/>
<path d="M55.3735 10.66V7.90039H54.6474L52.4688 10.66V11.604H54.3173V12.5877H55.3735V11.604H55.9545V10.66H55.3735ZM54.4361 10.6599H53.5184L54.4361 9.48479V10.6599Z" fill="#3990C8"/>
<path d="M58.8145 9.06273C58.3062 9.06273 57.8638 9.30038 57.6129 9.70972V7.77539H56.5566V12.5947H57.6129V10.6076C57.745 10.2379 58.0949 9.99365 58.3457 9.99365C58.6494 9.99365 58.8475 10.1983 58.8475 10.6472V12.5948H59.9038V10.3766C59.9038 9.77577 59.7453 9.06273 58.8145 9.06273Z" fill="#3990C8"/>
<path d="M30.6707 39.2275C30.1198 40.2962 30.2537 41.6418 31.0933 42.5433C31.429 42.9039 31.8526 43.174 32.3181 43.3244C32.8849 43.5075 33.3326 43.9553 33.5158 44.522C33.6663 44.9874 33.9363 45.411 34.2968 45.7468C34.8381 46.2509 35.5394 46.5008 36.2451 46.5008C37.0044 46.5008 37.7685 46.2113 38.3422 45.6376L46.52 37.4599C47.6268 36.3531 47.6759 34.5383 46.6293 33.4146C46.2936 33.054 45.87 32.7839 45.4045 32.6335C44.8377 32.4503 44.3899 32.0026 44.2068 31.4358C44.0563 30.9704 43.7862 30.5468 43.4258 30.2111C42.5244 29.3715 41.1787 29.2377 40.11 29.7885L31.166 20.8445C31.7169 19.7758 31.583 18.4301 30.7434 17.5287C30.4077 17.1683 29.9841 16.8981 29.5187 16.7477C28.9519 16.5646 28.5042 16.1168 28.321 15.55C28.1706 15.0846 27.9005 14.6611 27.54 14.3253C26.4163 13.2787 24.6015 13.3277 23.4946 14.4346L15.3168 22.6122C14.21 23.719 14.1609 25.5338 15.2075 26.6575C15.5434 27.0181 15.9669 27.2882 16.4324 27.4386C16.9991 27.6218 17.4469 28.0696 17.6301 28.6363C17.7805 29.1018 18.0507 29.5253 18.4113 29.8611C18.9524 30.3651 19.654 30.6151 20.3595 30.6151C20.8291 30.6151 21.3003 30.5041 21.7273 30.2839L24.2431 32.7997L0.899673 56.1431C-0.299891 57.3427 -0.299891 59.2945 0.899673 60.4942C1.49945 61.094 2.2873 61.3939 3.07527 61.3939C3.86312 61.3939 4.65097 61.0941 5.25075 60.4942L28.594 37.1508L30.6707 39.2275ZM45.5649 34.4057C46.084 34.9631 46.0511 35.8719 45.4915 36.4314L37.3137 44.6091C36.7542 45.1686 35.8454 45.2016 35.2881 44.6825C35.1058 44.5126 34.9751 44.3082 34.8996 44.0747C34.8132 43.8075 34.6931 43.5556 34.5454 43.3229L44.2052 33.6631C44.4379 33.8107 44.6898 33.9308 44.9569 34.0172C45.1907 34.0928 45.3952 34.2235 45.5649 34.4057ZM42.4343 31.2752C42.6166 31.445 42.7472 31.6494 42.8227 31.8829C42.9091 32.1502 43.0293 32.402 43.1768 32.6347L33.517 42.2945C33.2843 42.147 33.0325 42.0268 32.7653 41.9404C32.5317 41.8649 32.3272 41.7342 32.1575 41.5521C31.6385 40.9948 31.6712 40.0865 32.2303 39.5269L36.3197 35.4375L40.4085 31.3487C40.7021 31.0551 41.0918 30.9064 41.4764 30.9064C41.825 30.9064 42.1694 31.0285 42.4343 31.2752ZM16.2718 25.6663C15.7527 25.109 15.7856 24.2003 16.3452 23.6407L24.5229 15.463C24.8165 15.1693 25.2061 15.0207 25.5907 15.0207C25.9392 15.0207 26.2836 15.1428 26.5486 15.3895C26.7309 15.5593 26.8616 15.7637 26.9371 15.9973C27.0235 16.2646 27.1436 16.5163 27.2912 16.749L17.6314 26.4089C17.3986 26.2613 17.1468 26.141 16.8795 26.0547C16.646 25.9793 16.4416 25.8486 16.2718 25.6663ZM19.4023 28.7968C19.22 28.6271 19.0894 28.4227 19.014 28.1891C18.9276 27.9218 18.8073 27.6701 18.6597 27.4374L28.3196 17.7775C28.5523 17.9251 28.8041 18.0453 29.0713 18.1316C29.3049 18.2072 29.5094 18.3378 29.679 18.52C30.1981 19.0774 30.1652 19.986 29.6056 20.5457L21.428 28.7233C20.8685 29.283 19.9597 29.3159 19.4023 28.7968ZM30.2365 21.9719L38.9825 30.7179L35.2914 34.409L31.6003 38.1001L22.8543 29.3541L30.2365 21.9719ZM4.22236 59.4657C3.5898 60.0981 2.56062 60.0982 1.92817 59.4657C1.29572 58.8331 1.29572 57.8039 1.92817 57.1715L25.2714 33.8282L27.5656 36.1224L4.22236 59.4657Z" fill="#47ABEB"/>
<path d="M50.4367 60.7724C50.4367 60.6155 50.3874 60.4597 50.2884 60.3304L47.3294 56.4644V54.6969C47.3294 54.2953 47.0038 53.9697 46.6022 53.9697H26.2403C25.8386 53.9697 25.5131 54.2953 25.5131 54.6969V56.4644L22.5541 60.3304C22.4551 60.4597 22.4058 60.6155 22.4058 60.7724L22.4043 63.8711C22.4043 64.2727 22.7299 64.5983 23.1315 64.5983H49.7108C50.1124 64.5983 50.438 64.2727 50.438 63.8711L50.4367 60.7724ZM26.9675 55.4243H45.875V55.9837H26.9675V55.4243ZM26.5994 57.4381H46.243L48.2384 60.0452H24.6041L26.5994 57.4381ZM23.8588 63.1439V61.4996H48.9837V63.1439H23.8588Z" fill="#47ABEB"/>
</svg>