<svg width="150" height="44" viewBox="0 0 150 44" fill="none" xmlns="http://www.w3.org/2000/svg">
<path fill-rule="evenodd" clip-rule="evenodd" d="M144.442 44H5.5576C2.49457 44 0 41.5202 0 38.5V5.5C0 2.46883 2.49457 0 5.5576 0H144.442C147.503 0 150 2.46883 150 5.5V38.5C150 41.5202 147.503 44 144.442 44Z" fill="#333333"/>
<path fill-rule="evenodd" clip-rule="evenodd" d="M75.4168 23.9309C72.8772 23.9309 70.8187 25.8977 70.8187 28.6107C70.8187 31.2989 72.8906 33.2905 75.4168 33.2905C77.9563 33.2905 80.0149 31.3099 80.0149 28.6107C80.0149 25.8977 77.9563 23.9309 75.4168 23.9309ZM75.4168 31.4361C74.0274 31.4361 72.8315 30.262 72.8315 28.5997C72.8315 26.9127 74.0301 25.7633 75.4168 25.7633C76.8061 25.7633 78.002 26.9127 78.002 28.5997C78.0047 30.273 76.8061 31.4361 75.4168 31.4361ZM65.3848 23.9309C62.8452 23.9309 60.7867 25.8977 60.7867 28.6107C60.7867 31.2989 62.8587 33.2905 65.3848 33.2905C67.9244 33.2905 69.9829 31.3099 69.9829 28.6107C69.9829 25.8977 67.9217 23.9309 65.3848 23.9309ZM65.3848 31.4361C63.9954 31.4361 62.7996 30.262 62.7996 28.5997C62.7996 26.9127 63.9981 25.7633 65.3848 25.7633C66.7742 25.7633 67.9701 26.9127 67.9701 28.5997C67.9701 30.273 66.7742 31.4361 65.3848 31.4361ZM53.4475 25.36V27.3406H58.1047C57.9623 28.4516 57.6022 29.2718 57.0513 29.8341C56.3687 30.5309 55.3152 31.288 53.4583 31.288C50.5962 31.288 48.3576 28.9289 48.3576 26.0074C48.3576 23.086 50.5962 20.7269 53.4583 20.7269C55.0035 20.7269 56.1295 21.3496 56.9653 22.1451L58.3412 20.7406C57.1803 19.6049 55.635 18.7354 53.469 18.7354C49.5428 18.7354 46.248 21.9997 46.248 25.9965C46.248 30.0042 49.5401 33.2576 53.469 33.2576C55.5893 33.2576 57.1803 32.5498 58.438 31.2167C59.7198 29.9082 60.1256 28.062 60.1256 26.5725C60.1256 26.1089 60.0907 25.692 60.0181 25.3381H53.4448C53.4475 25.3354 53.4475 25.36 53.4475 25.36ZM102.274 26.9017C101.89 25.8511 100.729 23.9199 98.3481 23.9199C95.9886 23.9199 94.0268 25.8154 94.0268 28.5997C94.0268 31.2276 95.9671 33.2795 98.5765 33.2795C100.673 33.2795 101.893 31.971 102.395 31.2029L100.839 30.1386C100.323 30.9204 99.6058 31.4334 98.5873 31.4334C97.558 31.4334 96.8378 30.9561 96.3594 30.0152L102.489 27.4229C102.489 27.4256 102.274 26.9017 102.274 26.9017ZM96.0235 28.4653C95.9751 26.6575 97.3994 25.7386 98.418 25.7386C99.2215 25.7386 99.8906 26.1418 100.119 26.7289L96.0235 28.4653ZM91.0438 32.9997H93.0567V19.2511H91.0438V32.9997ZM87.7384 24.9705H87.6658C87.2116 24.4191 86.349 23.9199 85.2472 23.9199C82.9602 23.9199 80.8533 25.9745 80.8533 28.6134C80.8533 31.2413 82.9495 33.2713 85.2472 33.2713C86.3355 33.2713 87.2116 32.7693 87.6658 32.2069H87.7384V32.879C87.7384 34.6648 86.8031 35.6276 85.2955 35.6276C84.062 35.6276 83.2961 34.7224 82.9844 33.9653L81.2349 34.7114C81.7375 35.9458 83.0785 37.4738 85.2929 37.4738C87.6524 37.4738 89.6518 36.0556 89.6518 32.5965V24.1997H87.7491V24.9705C87.7518 24.9705 87.7384 24.9705 87.7384 24.9705ZM85.4272 31.4361C84.0378 31.4361 82.8769 30.2511 82.8769 28.6134C82.8769 26.962 84.0378 25.766 85.4272 25.766C86.8032 25.766 87.87 26.9758 87.87 28.6134C87.8835 30.2511 86.8058 31.4361 85.4272 31.4361ZM111.699 19.2511H106.886V32.9997H108.899V27.7932H111.702C113.929 27.7932 116.12 26.1446 116.12 23.5276C116.12 20.9107 113.938 19.2511 111.699 19.2511ZM111.758 25.873H108.896V21.1548H111.758C113.266 21.1548 114.118 22.4249 114.118 23.5139C114.118 24.592 113.255 25.873 111.758 25.873ZM124.187 23.9062C122.725 23.9062 121.218 24.5673 120.594 26.0074L122.379 26.7645C122.763 26.0074 123.467 25.7496 124.211 25.7496C125.254 25.7496 126.307 26.386 126.332 27.5216V27.667C125.972 27.4585 125.181 27.1403 124.236 27.1403C122.309 27.1403 120.355 28.2157 120.355 30.2319C120.355 32.078 121.935 33.263 123.695 33.263C125.047 33.263 125.792 32.6403 126.256 31.9189H126.329V32.9832H128.269V27.7164C128.269 25.264 126.485 23.9062 124.187 23.9062ZM123.935 31.4361C123.276 31.4361 122.354 31.1069 122.354 30.262C122.354 29.1977 123.505 28.7945 124.485 28.7945C125.372 28.7945 125.792 28.9892 126.318 29.258C126.173 30.4925 125.152 31.4251 123.935 31.4361ZM135.348 24.1997L133.037 30.1633H132.964L130.57 24.1997H128.404L131.997 32.5361L129.949 37.1693H132.045L137.573 24.1997H135.348ZM117.23 32.9997H119.242V19.2511H117.23V32.9997Z" fill="white"/>
<path fill-rule="evenodd" clip-rule="evenodd" d="M13.4918 8.28647C13.1801 8.62936 13 9.1533 13 9.83909V34.1625C13 34.8483 13.1801 35.3723 13.5025 35.7014L13.5858 35.7755L26.9367 22.1476V21.8431L13.5751 8.2124L13.4918 8.28647Z" fill="url(#paint0_linear)"/>
<path fill-rule="evenodd" clip-rule="evenodd" d="M31.3768 26.7049L26.9238 22.1595V21.8413L31.3768 17.2959L31.4735 17.3562L36.7408 20.4121C38.2484 21.2789 38.2484 22.7109 36.7408 23.5887L31.4735 26.6445L31.3768 26.7049Z" fill="url(#paint1_linear)"/>
<path fill-rule="evenodd" clip-rule="evenodd" d="M31.478 26.6441L26.9283 22L13.4941 35.713C13.9859 36.2506 14.811 36.311 15.7327 35.787L31.478 26.6441Z" fill="url(#paint2_linear)"/>
<path fill-rule="evenodd" clip-rule="evenodd" d="M31.478 17.3562L15.7327 8.227C14.811 7.68935 13.9832 7.76341 13.4941 8.30107L26.9283 22.0003L31.478 17.3562Z" fill="url(#paint3_linear)"/>
<path opacity="0.2" fill-rule="evenodd" clip-rule="evenodd" d="M31.3783 26.5459L15.7405 35.6147C14.8671 36.1277 14.0878 36.092 13.5853 35.6257L13.502 35.7107L13.5853 35.7848C14.0878 36.2484 14.8671 36.2868 15.7405 35.7738L31.4858 26.6447L31.3783 26.5459Z" fill="black"/>
<path opacity="0.12" fill-rule="evenodd" clip-rule="evenodd" d="M36.7466 23.4292L31.3691 26.5454L31.4659 26.6441L36.7331 23.5883C37.4883 23.1494 37.8591 22.5733 37.8591 22C37.8134 22.5267 37.4292 23.0259 36.7466 23.4292Z" fill="black"/>
<path opacity="0.25" fill-rule="evenodd" clip-rule="evenodd" d="M15.7304 8.3865L36.7429 20.5715C37.4255 20.9638 37.8098 21.4768 37.8689 22.0007C37.8689 21.4274 37.4981 20.8513 36.7429 20.4124L15.7304 8.2274C14.2228 7.34685 13 8.08201 13 9.84037V9.99947C13 8.23837 14.2228 7.51693 15.7304 8.3865Z" fill="white"/>
<path d="M72.184 10.3837C72.184 10.0514 72.0622 9.78786 71.8188 9.59307C71.5781 9.39541 71.2387 9.29658 70.8004 9.29658C70.4337 9.29658 70.1258 9.39827 69.8766 9.60166C69.6302 9.80218 69.507 10.0514 69.507 10.3493H68.682C68.682 10.017 68.7723 9.71911 68.9527 9.45557C69.1361 9.19202 69.391 8.98721 69.7176 8.84111C70.0441 8.69215 70.4051 8.61768 70.8004 8.61768C71.4993 8.61768 72.0422 8.77523 72.4289 9.09033C72.8156 9.40257 73.009 9.83799 73.009 10.3966C73.009 10.6859 72.9202 10.9494 72.7426 11.1872C72.565 11.425 72.3172 11.6126 71.9992 11.7501C72.7354 11.9965 73.1035 12.4849 73.1035 13.2153C73.1035 13.7768 72.8944 14.2222 72.4762 14.5517C72.0579 14.8811 71.4993 15.0458 70.8004 15.0458C70.385 15.0458 70.0069 14.9728 69.666 14.8267C69.328 14.6777 69.0645 14.4672 68.8754 14.195C68.6863 13.9229 68.5918 13.5992 68.5918 13.2239H69.4168C69.4168 13.5534 69.5471 13.8284 69.8078 14.0489C70.0685 14.2666 70.3993 14.3755 70.8004 14.3755C71.2501 14.3755 71.6082 14.2709 71.8746 14.0618C72.1439 13.8527 72.2785 13.5763 72.2785 13.2325C72.2785 12.4992 71.8245 12.1254 70.9164 12.111H70.143V11.4321H70.9121C71.3303 11.4235 71.6469 11.329 71.8617 11.1485C72.0766 10.9681 72.184 10.7131 72.184 10.3837Z" fill="white"/>
<path d="M76.9449 14.9599C76.8991 14.8682 76.8618 14.7049 76.8332 14.47C76.4637 14.8539 76.0225 15.0458 75.5098 15.0458C75.0514 15.0458 74.6747 14.9169 74.3797 14.6591C74.0875 14.3984 73.9414 14.069 73.9414 13.6708C73.9414 13.1867 74.1247 12.8114 74.4914 12.545C74.8609 12.2757 75.3794 12.1411 76.0469 12.1411H76.8203V11.7759C76.8203 11.498 76.7372 11.2774 76.5711 11.1142C76.4049 10.948 76.16 10.8649 75.8363 10.8649C75.5527 10.8649 75.315 10.9366 75.123 11.0798C74.9311 11.223 74.8352 11.3963 74.8352 11.5997H74.0359C74.0359 11.3677 74.1176 11.1442 74.2809 10.9294C74.447 10.7117 74.6704 10.5398 74.9512 10.4138C75.2348 10.2877 75.5456 10.2247 75.8836 10.2247C76.4193 10.2247 76.8389 10.3593 77.1426 10.6286C77.4462 10.895 77.6038 11.2631 77.6152 11.7329V13.8728C77.6152 14.2996 77.6697 14.639 77.7785 14.8911V14.9599H76.9449ZM75.6258 14.354C75.875 14.354 76.1113 14.2896 76.3348 14.1606C76.5582 14.0317 76.7201 13.8642 76.8203 13.6579V12.704H76.1973C75.2233 12.704 74.7363 12.989 74.7363 13.5591C74.7363 13.8083 74.8194 14.0031 74.9855 14.1435C75.1517 14.2838 75.3651 14.354 75.6258 14.354Z" fill="white"/>
<path d="M81.8648 10.9681H79.7207V14.9599H78.9215V10.3106H81.8648V10.9681Z" fill="white"/>
<path d="M86.484 12.6868C86.484 13.3944 86.3221 13.9644 85.9984 14.397C85.6747 14.8295 85.2365 15.0458 84.6836 15.0458C84.1193 15.0458 83.6753 14.8668 83.3516 14.5087V16.7474H82.5566V10.3106H83.2828L83.3215 10.8263C83.6452 10.4252 84.0949 10.2247 84.6707 10.2247C85.2293 10.2247 85.6704 10.4353 85.9941 10.8563C86.3207 11.2774 86.484 11.8632 86.484 12.6138V12.6868ZM85.6891 12.5966C85.6891 12.0724 85.5773 11.6584 85.3539 11.3548C85.1305 11.0511 84.824 10.8993 84.4344 10.8993C83.9531 10.8993 83.5922 11.1127 83.3516 11.5396V13.761C83.5893 14.185 83.9531 14.397 84.443 14.397C84.824 14.397 85.1262 14.2466 85.3496 13.9458C85.5759 13.6422 85.6891 13.1924 85.6891 12.5966Z" fill="white"/>
<path d="M88.9676 13.7954L90.0504 10.3106H90.9012L89.032 15.6774C88.7427 16.4509 88.2829 16.8376 87.6527 16.8376L87.5023 16.8247L87.2059 16.7688V16.1243L87.4207 16.1415C87.69 16.1415 87.8991 16.0871 88.048 15.9782C88.1999 15.8694 88.3245 15.6703 88.4219 15.381L88.598 14.9083L86.9395 10.3106H87.8074L88.9676 13.7954Z" fill="white"/>
<path d="M94.1711 11.5825C94.1711 11.3648 94.088 11.1929 93.9219 11.0669C93.7557 10.938 93.528 10.8735 93.2387 10.8735C92.9579 10.8735 92.723 10.9466 92.534 11.0927C92.3478 11.2388 92.2547 11.4106 92.2547 11.6083H91.4641C91.4641 11.2044 91.6331 10.8735 91.9711 10.6157C92.3091 10.3579 92.7316 10.229 93.2387 10.229C93.7829 10.229 94.2069 10.3465 94.5105 10.5813C94.8142 10.8134 94.966 11.1457 94.966 11.5782C94.966 11.7873 94.903 11.9793 94.777 12.154C94.6509 12.3287 94.4719 12.4677 94.2398 12.5708C94.7813 12.7541 95.052 13.1151 95.052 13.6536C95.052 14.0804 94.8872 14.4185 94.5578 14.6677C94.2284 14.9169 93.7887 15.0415 93.2387 15.0415C92.703 15.0415 92.2604 14.9112 91.9109 14.6505C91.5643 14.3869 91.391 14.0317 91.391 13.5849H92.1816C92.1816 13.8112 92.2819 14.006 92.4824 14.1692C92.6858 14.3297 92.9379 14.4099 93.2387 14.4099C93.5423 14.4099 93.7872 14.3397 93.9734 14.1993C94.1596 14.059 94.2527 13.8771 94.2527 13.6536C94.2527 13.3929 94.174 13.2067 94.0164 13.095C93.8617 12.9804 93.6197 12.9231 93.2902 12.9231H92.4953V12.2528H93.359C93.9004 12.2385 94.1711 12.0151 94.1711 11.5825Z" fill="white"/>
<path d="M99.091 10.3106H99.8859V14.9599H99.091V11.5696L96.9469 14.9599H96.152V10.3106H96.9469V13.7052L99.091 10.3106Z" fill="white"/>
<path d="M104.617 10.9552H103.057V14.9599H102.262V10.9552H100.732V10.3106H104.617V10.9552Z" fill="white"/>
<path d="M106.976 15.0458C106.346 15.0458 105.833 14.8396 105.438 14.4271C105.042 14.0117 104.845 13.4574 104.845 12.7642V12.6181C104.845 12.1569 104.932 11.7458 105.107 11.3849C105.284 11.0211 105.531 10.7375 105.846 10.5341C106.164 10.3278 106.507 10.2247 106.877 10.2247C107.481 10.2247 107.951 10.4238 108.286 10.822C108.621 11.2201 108.789 11.7902 108.789 12.5321V12.863H105.639C105.651 13.3213 105.784 13.6923 106.039 13.9759C106.297 14.2566 106.623 14.397 107.019 14.397C107.299 14.397 107.537 14.3397 107.732 14.2251C107.927 14.1105 108.097 13.9587 108.243 13.7696L108.729 14.1478C108.339 14.7465 107.755 15.0458 106.976 15.0458ZM106.877 10.8778C106.556 10.8778 106.287 10.9953 106.069 11.2302C105.851 11.4622 105.717 11.7888 105.665 12.2099H107.994V12.1497C107.971 11.7458 107.862 11.4336 107.668 11.213C107.473 10.9896 107.209 10.8778 106.877 10.8778Z" fill="white"/>
<path d="M111.969 14.9599V10.3106H113.782C114.401 10.3106 114.875 10.4195 115.204 10.6372C115.537 10.8521 115.703 11.1686 115.703 11.5868C115.703 11.8017 115.638 11.9965 115.509 12.1712C115.38 12.3431 115.19 12.4748 114.938 12.5665C115.219 12.6324 115.443 12.7613 115.613 12.9532C115.784 13.1451 115.87 13.3743 115.87 13.6407C115.87 14.0675 115.713 14.3941 115.398 14.6204C115.085 14.8467 114.643 14.9599 114.07 14.9599H111.969ZM112.764 12.9188V14.3196H114.079C114.411 14.3196 114.659 14.258 114.822 14.1349C114.988 14.0117 115.071 13.8384 115.071 13.6149C115.071 13.1509 114.73 12.9188 114.048 12.9188H112.764ZM112.764 12.2829H113.791C114.535 12.2829 114.908 12.0652 114.908 11.6298C114.908 11.1944 114.555 10.9695 113.851 10.9552H112.764V12.2829Z" fill="white"/>
<defs>
<linearGradient id="paint0_linear" x1="25.7392" y1="9.57666" x2="4.29617" y2="15.174" gradientUnits="userSpaceOnUse">
<stop stop-color="#00A0FF"/>
<stop offset="0.00657" stop-color="#00A1FF"/>
<stop offset="0.2601" stop-color="#00BEFF"/>
<stop offset="0.5122" stop-color="#00D2FF"/>
<stop offset="0.7604" stop-color="#00DFFF"/>
<stop offset="1" stop-color="#00E3FF"/>
</linearGradient>
<linearGradient id="paint1_linear" x1="38.7069" y1="22.0004" x2="12.6315" y2="22.0004" gradientUnits="userSpaceOnUse">
<stop stop-color="#FFE000"/>
<stop offset="0.4087" stop-color="#FFBD00"/>
<stop offset="0.7754" stop-color="#FFA500"/>
<stop offset="1" stop-color="#FF9C00"/>
</linearGradient>
<linearGradient id="paint2_linear" x1="29.0041" y1="24.5271" x2="11.3093" y2="53.7033" gradientUnits="userSpaceOnUse">
<stop stop-color="#FF3A44"/>
<stop offset="1" stop-color="#C31162"/>
</linearGradient>
<linearGradient id="paint3_linear" x1="10.1113" y1="0.196989" x2="18.0058" y2="13.2278" gradientUnits="userSpaceOnUse">
<stop stop-color="#32A071"/>
<stop offset="0.0685" stop-color="#2DA771"/>
<stop offset="0.4762" stop-color="#15CF74"/>
<stop offset="0.8009" stop-color="#06E775"/>
<stop offset="1" stop-color="#00F076"/>
</linearGradient>
</defs>
</svg>