<svg width="36" height="36" viewBox="0 0 36 36" fill="none" xmlns="http://www.w3.org/2000/svg">
<path d="M13.7867 2.32422H12.6245V5.81083H13.7867V2.32422Z" fill="#3990C8"/>
<path d="M17.273 2.32422H16.1108V5.81083H17.273V2.32422Z" fill="#3990C8"/>
<path d="M20.7594 2.32422H19.5972V5.81083H20.7594V2.32422Z" fill="#3990C8"/>
<path d="M10.3072 2.32422H9.14502V5.81083H10.3072V2.32422Z" fill="#3990C8"/>
<path d="M6.82041 2.32422H5.6582V5.81083H6.82041V2.32422Z" fill="#3990C8"/>
<path d="M7.40116 22.6415V20.3242H6.23896V22.6415H3.91455V23.8037H6.23896V26.1282H7.40116V23.8037H9.72557V22.6415H7.40116Z" fill="#3990C8"/>
<path d="M33.7211 24.2646C32.977 23.4496 31.9778 22.9323 30.9148 22.663C29.8802 21.2528 27.9385 20.3315 25.9755 20.3315V13.3583C25.9755 11.7567 24.6715 10.4528 23.07 10.4528H22.4889V8.12835H23.07C24.0337 8.12835 24.8133 7.34882 24.8133 6.38504V1.74331C24.8133 0.779528 24.0337 0 23.07 0H3.33373C2.37704 0 1.59751 0.779528 1.59751 1.74331V6.38504C1.59751 7.34882 2.37704 8.12835 3.34082 8.12835H3.92192V10.4528H3.33373C1.73216 10.4528 0.428223 11.7567 0.428223 13.3583V33.0945C0.428223 34.6961 1.73216 36 3.33373 36H23.077C24.4731 36 25.6424 35.0079 25.9188 33.6969C26.8613 34.5472 30.8085 35.8795 33.7211 32.9598C35.2589 31.4291 36.9739 27.8362 33.7211 24.2646ZM30.2487 23.6976C30.8723 24.5764 32.1266 27.1063 30.0644 29.9693L22.7227 22.6276C27.1731 19.6299 30.0786 23.4567 30.2487 23.6976ZM3.33373 6.96614C3.01484 6.96614 2.75263 6.70394 2.75263 6.38504V1.74331C2.75263 1.42441 3.01484 1.1622 3.33373 1.1622H23.077C23.3959 1.1622 23.6581 1.42441 23.6581 1.74331V6.38504C23.6581 6.70394 23.3959 6.96614 23.077 6.96614H3.33373ZM21.3337 8.12835V10.4528H5.07704V8.12835H21.3337ZM1.59751 19.1622H12.0503V27.2906H1.59751V19.1622ZM23.077 34.8378H3.33373C2.36995 34.8378 1.59043 34.0583 1.59043 33.0945V28.4528H13.2054V18H1.59751V13.3583C1.59751 12.3945 2.37704 11.615 3.34082 11.615H23.0841C24.0479 11.615 24.8274 12.3945 24.8274 13.3583V20.4378C23.5944 20.6646 22.418 21.2457 21.4755 22.1953C18.3007 25.3701 19.6755 29.4661 21.4755 31.2307C23.0912 32.811 24.8274 32.9882 24.8274 32.9882C24.87 33.9874 24.0408 34.8378 23.077 34.8378ZM22.2904 30.4016C21.1424 29.2535 19.6967 26.3551 21.9007 23.4425L29.2424 30.7843C27.1944 32.4283 24.1826 32.3008 22.2904 30.4016ZM32.8849 32.152C30.5747 34.4409 27.7046 33.378 26.9889 32.9882C28.2644 32.7898 29.4975 32.2087 30.4896 31.2307C31.7015 30.0331 32.3747 28.4315 32.3818 26.7236C32.3889 25.8945 32.2329 25.0866 31.9353 24.3425C32.2896 24.5551 32.6369 24.7961 32.9274 25.1008C35.6629 28.0276 33.8345 31.2095 32.8849 32.152Z" fill="#3990C8"/>
</svg>