<svg width="36" height="36" viewBox="0 0 36 36" fill="none" xmlns="http://www.w3.org/2000/svg">
<path d="M16.7803 9.84666C16.7803 9.55542 16.5442 9.31931 16.2529 9.31931C15.9616 9.31931 15.7256 9.55542 15.7256 9.84666C15.7256 10.9193 16.4722 11.8203 17.4729 12.0588V12.1764C17.4729 12.4676 17.709 12.7037 18.0002 12.7037C18.2915 12.7037 18.5275 12.4676 18.5275 12.1764V12.0588C19.5282 11.8203 20.2748 10.9193 20.2748 9.84666C20.2748 8.77404 19.5282 7.87298 18.5275 7.63441V5.2537C18.9365 5.45093 19.2201 5.86845 19.2201 6.35206C19.2201 6.64329 19.4562 6.8794 19.7475 6.8794C20.0388 6.8794 20.2748 6.64329 20.2748 6.35206C20.2748 5.27944 19.5282 4.37838 18.5275 4.13981V4.02246C18.5275 3.73123 18.2915 3.49512 18.0002 3.49512C17.7089 3.49512 17.4729 3.73123 17.4729 4.02246V4.13981C16.4722 4.37838 15.7256 5.27937 15.7256 6.35206C15.7256 7.42474 16.4722 8.32573 17.4729 8.5643V10.945C17.0639 10.7478 16.7803 10.3303 16.7803 9.84666ZM18.5275 8.74837C18.9365 8.94546 19.2201 9.36305 19.2201 9.84666C19.2201 10.3303 18.9365 10.7478 18.5275 10.945V8.74837ZM16.7803 6.35206C16.7803 5.86845 17.0639 5.45093 17.4729 5.2537V7.45034C17.0639 7.25318 16.7803 6.83566 16.7803 6.35206Z" fill="#3990C8"/>
<path d="M30.9212 15.0343C30.8922 14.8902 30.8044 14.7649 30.679 14.6884C28.5224 13.3723 25.7927 13.4577 23.7246 14.9058C21.7525 16.2867 20.7401 18.6569 21.083 21.0215L18.5273 22.811V16.1809C20.5302 16.0516 22.3371 15.1913 23.683 13.8642C23.6982 13.8521 23.713 13.8392 23.7271 13.8251C23.7412 13.811 23.7541 13.7962 23.7662 13.781C25.2047 12.3214 26.0949 10.3203 26.099 8.11498C26.0991 8.10956 26.0998 8.10436 26.0998 8.09888C26.0998 8.09325 26.0991 8.08777 26.099 8.08221C26.0943 5.88234 25.2077 3.88589 23.775 2.42761C23.7605 2.40827 23.7449 2.3895 23.7273 2.37192C23.7098 2.35434 23.6909 2.3388 23.6716 2.32418C22.216 0.894656 20.2245 0.00935156 18.0298 0.00147656C18.0199 0.000984375 18.0101 0 18 0C17.9898 0 17.9799 0.000984375 17.9698 0.00154687C15.7753 0.00970312 13.7842 0.895219 12.3288 2.32474C12.3095 2.33937 12.2907 2.35491 12.273 2.37255C12.2554 2.3902 12.2398 2.40905 12.2252 2.42838C10.7934 3.8861 9.90735 5.88129 9.90201 8.07982C9.90173 8.0865 9.90102 8.09304 9.90102 8.09986C9.90102 8.10661 9.9018 8.11315 9.90201 8.1199C9.90735 10.3198 10.7945 12.316 12.2277 13.7739C12.2415 13.7919 12.2562 13.8094 12.2727 13.8258C12.289 13.8422 12.3065 13.8568 12.3243 13.8705C13.6694 15.1938 15.4733 16.0516 17.4726 16.1809V22.811L14.9169 21.0215C15.2599 18.6569 14.2475 16.2867 12.2753 14.9058C10.2073 13.4577 7.47742 13.3724 5.32101 14.6883C5.19557 14.7649 5.10775 14.8902 5.07871 15.0343C4.5797 17.5109 5.59354 20.0469 7.66164 21.4949C8.75233 22.2586 10.027 22.6432 11.3045 22.6432C12.3371 22.6432 13.3714 22.391 14.3121 21.8855L16.3274 23.2966H11.0113C10.0782 23.2966 9.31919 24.0557 9.31919 24.9889V26.1538C9.31919 26.445 9.55523 26.6811 9.84653 26.6811H10.5589L11.655 33.8056C11.6947 34.0629 11.916 34.2527 12.1763 34.2527H12.2314V35.4727C12.2314 35.7639 12.4674 36 12.7587 36H23.2422C23.5335 36 23.7695 35.7639 23.7695 35.4727V34.2527H23.8247C24.085 34.2527 24.3063 34.0628 24.3459 33.8056L25.4421 26.6811H26.1545C26.4457 26.6811 26.6818 26.445 26.6818 26.1538V24.9889C26.6818 24.0558 25.9226 23.2966 24.9896 23.2966H19.6725L21.6878 21.8855C22.6286 22.3911 23.6626 22.6432 24.6953 22.6432C25.9728 22.6432 27.2477 22.2585 28.3383 21.4949C30.4064 20.0468 31.4202 17.5109 30.9212 15.0343ZM13.9242 20.3264L12.4105 19.2665L12.452 17.4494C12.4587 17.1582 12.228 16.9168 11.9369 16.9101C11.9327 16.91 11.9287 16.9099 11.9246 16.9099C11.6389 16.9099 11.4042 17.1382 11.3976 17.4253L11.3722 18.5394L10.269 17.7669C10.2689 17.7668 10.2688 17.7668 10.2686 17.7667L8.36273 16.4322C8.12408 16.2651 7.79537 16.3232 7.62831 16.5617C7.46125 16.8003 7.51919 17.1291 7.75783 17.2961L8.85899 18.0671L7.82062 18.4721C7.54928 18.578 7.41512 18.8838 7.52094 19.1551C7.60223 19.3635 7.80142 19.4909 8.01236 19.4909C8.07606 19.4909 8.14089 19.4792 8.20389 19.4547L9.8973 18.7941L11.57 19.9653C11.5716 19.9665 11.5733 19.9676 11.5749 19.9688L13.3193 21.1901C11.6669 21.8697 9.75991 21.6766 8.26661 20.631C6.60562 19.468 5.76004 17.4634 6.07166 15.4718C7.83672 14.4978 10.0095 14.6068 11.6704 15.7698C13.1637 16.8154 13.9974 18.5413 13.9242 20.3264ZM18.5273 15.1241V14.4295C19.8835 14.3175 21.1201 13.7777 22.1016 12.9457L22.5927 13.4367C21.4835 14.3925 20.0741 15.0093 18.5273 15.1241ZM23.3384 12.6908L22.8474 12.1998C23.6788 11.2183 24.2183 9.98205 24.33 8.62636H25.0249C24.9101 10.1727 24.2938 11.5817 23.3384 12.6908ZM23.3374 3.50761C24.2929 4.61658 24.9096 6.02529 25.0247 7.5716H24.3298C24.2176 6.21605 23.6779 4.98002 22.8462 3.99881L23.3374 3.50761ZM18.5274 1.0755C20.0736 1.19039 21.4825 1.80668 22.5916 2.76195L22.1003 3.25315C21.119 2.42177 19.8829 1.88241 18.5274 1.77054V1.0755ZM18.0004 2.80322C20.9211 2.80322 23.2972 5.17936 23.2972 8.1C23.2972 11.014 20.9319 13.3854 18.0205 13.3964C18.0136 13.3961 18.0069 13.3953 18 13.3953C17.9931 13.3953 17.9865 13.3961 17.9797 13.3964C15.0686 13.3851 12.7035 11.0138 12.7035 8.1C12.7035 5.17929 15.0797 2.80322 18.0004 2.80322ZM17.4726 1.07557V1.77061C16.1171 1.88262 14.8811 2.4222 13.8998 3.25371L13.4087 2.76251C14.5177 1.8071 15.9264 1.1906 17.4726 1.07557ZM12.663 3.50831L13.1541 3.99945C12.3225 4.9808 11.7829 6.21682 11.671 7.57245H10.9762C11.0911 6.0262 11.7076 4.61735 12.663 3.50831ZM12.6623 12.6905C11.7073 11.5816 11.0911 10.1731 10.9762 8.6272H11.6709C11.7828 9.98248 12.3221 11.2183 13.1533 12.1995L12.6623 12.6905ZM13.4079 13.4364L13.8989 12.9454C14.8803 13.7775 16.1167 14.3173 17.4727 14.4294V15.1241C15.9261 15.009 14.517 14.3922 13.4079 13.4364ZM22.7148 34.9453H13.2861V34.2527H22.7148V34.9453ZM24.9896 24.3513C25.3412 24.3514 25.6271 24.6374 25.6271 24.9889V25.6264H15.0755C14.7842 25.6264 14.5481 25.8626 14.5481 26.1538C14.5481 26.445 14.7842 26.6811 15.0755 26.6811H24.3749L23.3723 33.198H23.2422H12.7587H12.6287L11.6261 26.6811H12.966C13.2573 26.6811 13.4934 26.445 13.4934 26.1538C13.4934 25.8626 13.2573 25.6264 12.966 25.6264H10.3739V24.9889C10.3739 24.6373 10.6598 24.3513 11.0113 24.3513H17.999C17.9991 24.3513 17.9993 24.3514 17.9995 24.3514C17.9997 24.3514 17.9998 24.3513 18 24.3513C18.0001 24.3513 18.0003 24.3514 18.0005 24.3514C18.0006 24.3514 18.0007 24.3513 18.001 24.3513H24.9896ZM27.7334 20.631C26.24 21.6767 24.333 21.8696 22.6807 21.1903L24.4251 19.9689C24.4267 19.9678 24.4284 19.9666 24.43 19.9654L26.1026 18.7942L27.7961 19.4548C27.859 19.4794 27.9239 19.491 27.9876 19.491C28.1986 19.491 28.3978 19.3636 28.4791 19.1552C28.5849 18.8839 28.4507 18.5782 28.1794 18.4723L27.141 18.0672L28.2422 17.2962C28.4808 17.1292 28.5388 16.8003 28.3717 16.5618C28.2047 16.3232 27.8759 16.2652 27.6373 16.4322L25.7316 17.7666C25.7313 17.7668 25.731 17.7671 25.7307 17.7673L24.6278 18.5395L24.6024 17.4254C24.5957 17.1343 24.3569 16.9046 24.0631 16.9102C23.7719 16.9169 23.5413 17.1583 23.548 17.4495L23.5895 19.2666L22.0758 20.3265C22.0026 18.5414 22.8363 16.8155 24.3295 15.7699C25.9905 14.6069 28.1633 14.4979 29.9283 15.4719C30.24 17.4634 29.3944 19.4679 27.7334 20.631Z" fill="#3990C8"/>
</svg>