<svg width="34" height="34" viewBox="0 0 34 34" fill="none" xmlns="http://www.w3.org/2000/svg">
<path d="M20.0547 0C12.3653 0 6.10942 6.25584 6.10942 13.9453C6.10942 16.832 6.99116 19.5166 8.49937 21.744L0.775622 29.4679C0.275452 29.968 0 30.6351 0 31.3461C0 32.0572 0.275452 32.7242 0.775556 33.2244C1.27566 33.7245 1.94271 34 2.65378 34C3.36486 34 4.03191 33.7245 4.53208 33.2244L12.256 25.5006C14.4834 27.0088 17.168 27.8905 20.0547 27.8905C27.7442 27.8905 34 21.6347 34 13.9453C34 6.25584 27.7442 0 20.0547 0ZM3.5929 32.2853C3.34361 32.5345 3.01012 32.6719 2.65378 32.6719C2.29745 32.6719 1.96396 32.5346 1.71467 32.2853C1.46538 32.036 1.32812 31.7024 1.32812 31.3461C1.32812 30.9898 1.46538 30.6563 1.71474 30.407L7.41562 24.7061C7.99043 25.3811 8.61877 26.0095 9.29385 26.5843L3.5929 32.2853ZM10.2358 25.6425C9.55655 25.0722 8.92775 24.4434 8.35753 23.7642L9.29989 22.8219C9.86534 23.5065 10.4937 24.1349 11.1781 24.7002L10.2358 25.6425ZM20.0547 26.5624C13.0976 26.5624 7.43754 20.9023 7.43754 13.9453C7.43754 6.98817 13.0976 1.32812 20.0547 1.32812C27.0118 1.32812 32.6718 6.98817 32.6718 13.9453C32.6718 20.9023 27.0118 26.5624 20.0547 26.5624Z" fill="#3990C8"/>
<path d="M20.0547 17.2656C18.9562 17.2656 18.0625 18.1593 18.0625 19.2578C18.0625 20.3563 18.9562 21.25 20.0547 21.25C21.1532 21.25 22.0469 20.3563 22.0469 19.2578C22.0469 18.1593 21.1532 17.2656 20.0547 17.2656ZM20.0547 19.9219C19.6885 19.9219 19.3906 19.624 19.3906 19.2578C19.3906 18.8916 19.6885 18.5937 20.0547 18.5937C20.4208 18.5937 20.7187 18.8916 20.7187 19.2578C20.7187 19.624 20.4208 19.9219 20.0547 19.9219Z" fill="#3990C8"/>
<path d="M20.0547 6.64062C18.9562 6.64062 18.0625 7.53432 18.0625 8.6328V13.9453C18.0625 15.0438 18.9562 15.9375 20.0547 15.9375C21.1532 15.9375 22.0469 15.0438 22.0469 13.9453V8.6328C22.0469 7.53432 21.1532 6.64062 20.0547 6.64062ZM20.7187 13.9453C20.7187 14.3114 20.4208 14.6093 20.0547 14.6093C19.6885 14.6093 19.3906 14.3114 19.3906 13.9453V8.6328C19.3906 8.26664 19.6885 7.96874 20.0547 7.96874C20.4208 7.96874 20.7187 8.26664 20.7187 8.6328V13.9453Z" fill="#3990C8"/>
</svg>