<svg width="15" height="23" viewBox="0 0 15 23" fill="none" xmlns="http://www.w3.org/2000/svg">
<path d="M12.5 0H2.49998C1.122 0 0 1.0743 0 2.39581V22.5208C0 22.7143 0.122016 22.8897 0.309 22.9626C0.495985 23.0383 0.711 22.9961 0.854016 22.8591L7.5 16.49L14.146 22.8601C14.242 22.9511 14.37 23 14.5 23C14.564 23 14.629 22.9885 14.691 22.9636C14.878 22.8898 15 22.7144 15 22.5208V2.39586C15 1.07525 13.878 0 12.5 0ZM14 21.3631L7.854 15.4732C7.75598 15.3803 7.62802 15.3333 7.5 15.3333C7.37198 15.3333 7.24402 15.3802 7.146 15.4742L0.999984 21.3641V2.39581C0.999984 1.60326 1.67297 0.958317 2.49998 0.958317H12.5C13.327 0.958317 14 1.60326 14 2.39581V21.3631H14Z" fill="#828282"/>
</svg>