<svg width="36" height="36" viewBox="0 0 36 36" fill="none" xmlns="http://www.w3.org/2000/svg">
<path d="M29.7078 19.0273C29.4185 19.0273 29.1839 19.2619 29.1839 19.5512C29.1839 19.9181 28.8855 20.2165 28.5187 20.2165C28.1519 20.2165 27.8535 19.9181 27.8535 19.5512C27.8535 19.2618 27.6189 19.0273 27.3296 19.0273C27.0402 19.0273 26.8057 19.2619 26.8057 19.5512C26.8057 20.4958 27.5742 21.2643 28.5187 21.2643C29.4632 21.2643 30.2317 20.4957 30.2317 19.5512C30.2317 19.2618 29.9971 19.0273 29.7078 19.0273Z" fill="#3990C8"/>
<path d="M34.625 19.1133L33.1504 18.6409C32.9615 18.5804 32.8127 18.4296 32.7523 18.2376C32.4415 17.2495 31.9725 16.3218 31.3583 15.4803C31.0784 15.0968 30.7671 14.7305 30.4271 14.3819C30.6446 13.4275 30.7629 12.3474 30.7476 11.4143C30.7256 10.0794 30.4589 9.29651 29.9321 9.0206C29.6484 8.87182 28.785 8.41985 24.1115 10.5592C24.0008 10.6098 23.8975 10.6722 23.8018 10.7436C23.4867 10.659 23.1647 10.5806 22.8407 10.5103C22.8016 10.5018 22.7614 10.4943 22.7221 10.486C23.1008 9.65869 23.322 8.76016 23.3635 7.8326C23.3764 7.54348 23.1526 7.29865 22.8635 7.28578C22.5752 7.27144 22.3296 7.49658 22.3167 7.7857C22.2484 9.31085 21.6158 10.7459 20.5353 11.8263C19.8898 12.4719 19.1339 12.9408 18.3284 13.2361C16.9313 13.0401 15.5083 13.0401 14.1113 13.2361C13.3057 12.9408 12.5499 12.4719 11.9043 11.8263C10.7516 10.6736 10.1168 9.14105 10.1168 7.51085C10.1168 5.88059 10.7516 4.34806 11.9043 3.19535C13.057 2.04258 14.5897 1.40773 16.2198 1.40773C17.85 1.40773 19.3826 2.04258 20.5353 3.19535C20.9985 3.65857 21.3813 4.18718 21.6731 4.76635C21.8032 5.02481 22.1183 5.12888 22.3767 4.99866C22.6351 4.86858 22.7391 4.55351 22.609 4.29511C22.2671 3.61596 21.8187 2.99672 21.2764 2.45433C19.9257 1.1037 18.1299 0.359863 16.2199 0.359863C14.3099 0.359863 12.5141 1.1037 11.1634 2.45433C9.81281 3.80503 9.06898 5.60074 9.06898 7.51078C9.06898 9.42082 9.81281 11.2166 11.1634 12.5672C11.553 12.9568 11.9769 13.2919 12.4252 13.5726C12.4253 13.5726 12.4255 13.5725 12.4256 13.5725C12.0999 13.6571 11.7766 13.7522 11.4569 13.8591C11.1824 13.9508 11.0344 14.2476 11.1261 14.5221C11.2178 14.7966 11.5147 14.9446 11.7891 14.8529C14.6463 13.8978 17.7935 13.8978 20.6507 14.8529C20.7058 14.8714 20.7618 14.8801 20.8169 14.8801C21.036 14.8801 21.2404 14.7414 21.3137 14.5221C21.4054 14.2477 21.2574 13.9508 20.9829 13.8591C20.6632 13.7522 20.3399 13.6571 20.0142 13.5725C20.0143 13.5725 20.0145 13.5726 20.0146 13.5726C20.463 13.2919 20.8867 12.9568 21.2764 12.5672C21.621 12.2226 21.9253 11.8462 22.1894 11.4462C22.3339 11.4742 22.4772 11.5036 22.6185 11.5343C22.8066 11.5751 22.9939 11.619 23.1796 11.6651C23.1737 11.6878 23.1678 11.7105 23.1629 11.7337C22.9074 12.9462 22.924 14.0186 23.2122 14.9209C23.4712 15.732 23.9387 16.3891 24.6016 16.874C25.3828 17.4455 26.326 17.6924 27.1804 17.6924C27.8234 17.6924 28.4162 17.5525 28.8515 17.3059C29.344 17.0269 29.7566 16.4392 30.0832 15.5568C30.2342 15.733 30.3773 15.9135 30.5121 16.0983C31.0589 16.8474 31.4764 17.673 31.7528 18.552C31.9152 19.0683 32.3182 19.4746 32.8309 19.6389L34.3055 20.1113C34.6924 20.2352 34.9523 20.5914 34.9523 20.9976V23.4427C34.9523 23.849 34.6924 24.2051 34.3055 24.3291L31.9297 25.0901C31.5496 25.2119 31.2279 25.4732 31.0239 25.8257C30.0905 27.4388 28.623 28.7737 26.6619 29.7933C26.4354 29.9112 26.2785 30.1221 26.2312 30.372L25.4703 34.4011C25.4493 34.5121 25.352 34.5926 25.239 34.5926H22.7649C22.6519 34.5926 22.5547 34.512 22.5337 34.4011L22.1122 32.1744C22.0293 31.7362 21.6184 31.4452 21.1761 31.5122C20.1104 31.6734 19.0122 31.755 17.9123 31.755C17.094 31.755 16.2862 31.7094 15.5111 31.6193C15.0826 31.57 14.6834 31.8622 14.6033 32.2853L14.2028 34.4011C14.1817 34.5121 14.0845 34.5926 13.9715 34.5926H11.4974C11.3844 34.5926 11.2872 34.512 11.2659 34.3994L10.5332 30.5939C10.4861 30.3488 10.3321 30.1403 10.1105 30.022C6.76758 28.2374 5.00063 25.2558 5.00063 21.3999C5.00063 19.4517 5.42686 17.7289 6.26745 16.2794C7.05185 14.9266 8.19752 13.8082 9.67261 12.9549C9.92306 12.81 10.0086 12.4895 9.86379 12.239C9.71895 11.9886 9.39846 11.9031 9.14794 12.0478C6.2877 13.7024 4.56258 16.2551 4.08762 19.4972V19.4971C4.0372 19.4925 3.98672 19.4882 3.93645 19.483C3.94559 19.1332 3.8823 18.7802 3.74449 18.4376C3.44053 17.682 2.81616 17.1367 2.15374 17.0483C1.63174 16.9784 1.13498 17.2001 0.790242 17.6555C0.290391 18.316 0.371883 18.8388 0.528188 19.1609C0.79207 19.7047 1.47038 20.0893 2.59601 20.3311C2.56507 20.3774 2.53104 20.4239 2.49377 20.4707C1.82869 21.3048 1.04513 21.4893 0.536344 21.5066C0.2385 21.5167 0 21.7558 0 22.0539V22.0564C0 22.3504 0.231961 22.5901 0.525656 22.6036C0.563273 22.6053 0.602578 22.6062 0.6435 22.6062C1.28728 22.6062 2.32052 22.3688 3.3132 21.124C3.46992 20.9276 3.59761 20.7203 3.69577 20.5061C3.79463 20.5173 3.88962 20.5269 3.9806 20.5353C3.9806 20.5351 3.9806 20.535 3.98067 20.5348C3.96281 20.8187 3.9529 21.1068 3.9529 21.3999C3.9529 23.5815 4.473 25.5267 5.49865 27.1817C6.44435 28.7075 7.79836 29.9568 9.52439 30.8963L10.2367 34.5958C10.3512 35.2011 10.8814 35.6404 11.4974 35.6404H13.9715C14.5875 35.6404 15.1177 35.2011 15.2323 34.5958L15.5944 32.6828C16.3465 32.7624 17.1251 32.8028 17.9123 32.8028C18.9923 32.8028 20.071 32.7276 21.1223 32.5791L21.504 34.596C21.6186 35.2012 22.1489 35.6405 22.7648 35.6405H25.2389C25.8549 35.6405 26.3851 35.2012 26.4997 34.5957L27.2406 30.6729C29.3337 29.5661 30.9113 28.1122 31.9307 26.3504C32.0042 26.2235 32.1173 26.1303 32.2493 26.088L34.625 25.327C35.4474 25.0634 36 24.3063 36 23.4426V20.9975C36 20.1339 35.4474 19.3767 34.625 19.1133ZM29.6211 12.8866C29.4195 14.6111 28.8785 16.0862 28.335 16.3941C27.7173 16.744 26.291 16.8116 25.2201 16.0282C24.148 15.244 23.7911 13.8336 24.1881 11.9497C24.1881 11.9496 24.1881 11.9496 24.1881 11.9496C24.2279 11.7604 24.3624 11.5967 24.5476 11.5119C27.1706 10.3113 28.6828 9.91856 29.2446 9.91856C29.3294 9.91856 29.3925 9.92749 29.4346 9.94394C29.6033 10.1238 29.8247 11.1462 29.6211 12.8866ZM1.47101 18.7034C1.4168 18.5916 1.54477 18.3951 1.62591 18.2878C1.75451 18.1179 1.87298 18.0832 1.96249 18.0832C1.98141 18.0832 1.99905 18.0847 2.01523 18.0869C2.25612 18.119 2.59362 18.3841 2.77242 18.8286C2.81454 18.9332 2.86924 19.1065 2.88204 19.3226C2.15677 19.1724 1.59328 18.9558 1.47101 18.7034Z" fill="#3990C8"/>
<path d="M16.7288 6.91005V5.03524C17.3753 5.08144 17.6155 5.37696 17.8371 5.37696C18.1142 5.37696 18.2435 5.02603 18.2435 4.85053C18.2435 4.39793 17.3568 4.20401 16.7288 4.18552V3.93605C16.7288 3.82523 16.5902 3.72363 16.4517 3.72363C16.2946 3.72363 16.1838 3.82523 16.1838 3.93605V4.20387C15.3063 4.29626 14.4289 4.75807 14.4289 5.92181C14.4289 7.10405 15.3525 7.43655 16.1838 7.73208V9.90255C15.2417 9.82866 14.9923 9.18213 14.6875 9.18213C14.4566 9.18213 14.2627 9.48694 14.2627 9.70863C14.2627 10.1612 15.0385 10.78 16.1838 10.7985V11.0848C16.1838 11.1956 16.2947 11.2972 16.4517 11.2972C16.5903 11.2972 16.7288 11.1956 16.7288 11.0848V10.7708C17.7263 10.6322 18.4097 10.0042 18.4097 8.86812C18.4097 7.61205 17.5323 7.20558 16.7288 6.91005ZM16.2392 6.73462C15.7497 6.54991 15.3525 6.35599 15.3525 5.82956C15.3525 5.34926 15.722 5.11835 16.2392 5.05373V6.73462ZM16.6733 9.88406V7.93528C17.1258 8.1292 17.486 8.38781 17.486 8.96965C17.486 9.49622 17.172 9.79174 16.6733 9.88406Z" fill="#3990C8"/>
</svg>