<svg width="36" height="40" viewBox="0 0 36 40" fill="none" xmlns="http://www.w3.org/2000/svg">
<path d="M34.0581 18.8033L28.036 13.0937C28.0452 13.0532 28.0514 13.0119 28.0547 12.9702V5.50441C28.0518 5.29142 27.9754 5.08779 27.8412 4.93571C27.7069 4.78362 27.5252 4.69473 27.3336 4.68746H23.9739C23.5856 4.68746 23.2734 5.07292 23.2734 5.50441V8.59574L18.457 4.03714C18.3297 3.91672 18.1679 3.85059 18.0007 3.85059C17.8335 3.85059 17.6717 3.91672 17.5444 4.03714L1.94229 18.8032C1.87052 18.8692 1.81128 18.9504 1.76799 19.0421C1.72471 19.1338 1.69825 19.2341 1.69016 19.3372C1.68206 19.4403 1.69249 19.5442 1.72084 19.6428C1.74919 19.7414 1.79489 19.8327 1.85528 19.9116C1.91568 19.9904 1.98957 20.0551 2.07266 20.1019C2.15575 20.1487 2.24639 20.1767 2.3393 20.1842C2.43221 20.1918 2.52555 20.1788 2.61389 20.1459C2.70223 20.113 2.78381 20.061 2.85389 19.9928L18 5.65816L23.4202 10.79L26.6595 13.8518L33.1461 19.9925C33.2881 20.1268 33.4723 20.1931 33.6581 20.1766C33.844 20.1601 34.0164 20.0622 34.1374 19.9044C34.2583 19.7467 34.3179 19.5421 34.303 19.3355C34.2882 19.129 34.2001 18.9375 34.0581 18.8031L34.0581 18.8033ZM26.6484 6.24996V11.7734L24.6797 9.92691V6.24996H26.6484Z" fill="#3990C8"/>
<path d="M30.9604 20.3794L28.9827 18.5051L18.4565 8.51821C18.3292 8.39742 18.1673 8.33105 17.9999 8.33105C17.8325 8.33105 17.6706 8.39742 17.5433 8.51821L7.01708 18.5048L5.0394 20.3794C4.96912 20.446 4.91134 20.5273 4.86935 20.6187C4.82736 20.7101 4.80199 20.8098 4.79468 20.9121C4.78738 21.0143 4.79828 21.1172 4.82677 21.2148C4.85526 21.3125 4.90077 21.4029 4.96072 21.4809C5.01942 21.5589 5.09151 21.6231 5.17279 21.6698C5.25406 21.7165 5.34289 21.7447 5.43409 21.7529C5.52529 21.761 5.61704 21.7489 5.70397 21.7172C5.79091 21.6855 5.8713 21.6349 5.94045 21.5684L6.8202 20.7235V35.3683C6.82463 35.5804 6.90264 35.7825 7.03796 35.9323C7.17327 36.082 7.35543 36.1679 7.54639 36.172H28.4534C28.6444 36.1679 28.8265 36.082 28.9618 35.9323C29.0971 35.7825 29.1752 35.5804 29.1796 35.3683V20.7235L30.0593 21.5682C30.1841 21.6887 30.344 21.7551 30.5093 21.755C30.6107 21.7551 30.7108 21.7306 30.8028 21.6833C30.8948 21.6359 30.9763 21.5668 31.0417 21.4808C31.1015 21.4025 31.1468 21.312 31.1751 21.2143C31.2033 21.1166 31.214 21.0136 31.2064 20.9114C31.1989 20.8091 31.1733 20.7094 31.131 20.6182C31.0888 20.5269 31.0308 20.4457 30.9604 20.3794ZM20.8124 34.6095H15.1874V26.172H20.8124V34.6095ZM22.2186 34.6095V25.4138C22.2186 24.9823 21.9333 24.6095 21.545 24.6095H14.4548C14.0665 24.6095 13.7811 24.9823 13.7811 25.4138V34.6095H8.22645V19.3908L17.9999 10.14L27.7733 19.3908V34.6095H22.2186Z" fill="#3990C8"/>
</svg>