<svg width="36" height="36" viewBox="0 0 36 36" fill="none" xmlns="http://www.w3.org/2000/svg">
<g clip-path="url(#clip0)">
<path d="M9.99609 32.0887C13.7502 34.8364 17.4473 35.9366 17.6031 35.982C17.6853 36.006 17.7726 36.0066 17.8548 35.9832C18.0156 35.9377 21.8392 34.8388 25.723 32.0934C28.0149 30.4731 29.843 28.615 31.1571 26.5703C32.7982 24.0344 33.663 21.0742 33.6449 18.0537V9.23908C33.6449 9.05716 33.5363 8.89245 33.3692 8.82063L33.2692 8.7776C27.9428 6.48567 22.9072 3.56993 18.2679 0.0915217C18.1058 -0.0298562 17.883 -0.0298562 17.7209 0.0915217C13.0816 3.56993 8.04603 6.48567 2.71965 8.77731L2.61964 8.82034C2.45256 8.89216 2.34394 9.05716 2.34424 9.23908V18.0537C2.34424 21.1335 3.15204 23.9967 4.74568 26.5638C6.01495 28.6091 7.78161 30.4674 9.99609 32.0887ZM3.25591 9.53911C8.47901 7.27566 13.4243 4.41898 17.9946 1.02515C22.5645 4.41898 27.5098 7.27566 32.7332 9.53911V18.0537C32.7504 20.8943 31.9388 23.6783 30.3979 26.0646C29.1512 28.0087 27.4086 29.7813 25.2182 31.3334C21.8457 33.723 18.4261 34.8534 17.7334 35.0676C17.0562 34.8504 13.7618 33.7206 10.5128 31.337C8.39829 29.7858 6.71592 28.0135 5.51223 26.0702C4.01504 23.6528 3.25591 20.9557 3.25591 18.0537V9.53911Z" fill="#3990C8"/>
<path d="M11.1926 29.9658C14.3761 32.2954 17.5123 33.2287 17.6443 33.2673C17.7266 33.2913 17.8138 33.2919 17.8963 33.2685C18.0328 33.2299 21.2759 32.2978 24.5685 29.9699C26.5135 28.595 28.0647 27.018 29.18 25.2825C30.5745 23.1276 31.3093 20.6125 31.2939 18.0458V10.5943C31.2939 10.4121 31.1855 10.2476 31.0182 10.1755L30.9339 10.1393C26.437 8.2044 22.1855 5.74242 18.2684 2.80561C18.1064 2.68394 17.8835 2.68394 17.7215 2.80561C13.8045 5.74242 9.55299 8.20411 5.05578 10.139L4.9715 10.1752C4.80412 10.2473 4.6958 10.4121 4.6958 10.594V18.0449C4.6958 20.6615 5.38222 23.0944 6.73637 25.2756C7.81393 27.012 9.3135 28.5899 11.1926 29.9658ZM5.60747 10.894C9.99577 8.98876 14.1517 6.58821 17.9951 3.73894C21.8383 6.58821 25.9945 8.98876 30.3825 10.8943V18.0452C30.397 20.4318 29.7157 22.7712 28.4212 24.7768C28.1413 25.2121 27.8371 25.6315 27.5101 26.0327V25.9754C27.5101 25.7238 27.3059 25.5196 27.0542 25.5196C26.8026 25.5196 26.5984 25.7238 26.5984 25.9754V26.9046C26.5984 26.9491 26.6049 26.9933 26.618 27.0361C25.8351 27.8376 24.9798 28.5656 24.0634 29.2102C22.133 30.5611 20.014 31.6199 17.7746 32.3527C15.6067 31.6164 13.5623 30.5584 11.7093 29.2135C10.8561 28.5917 10.0599 27.8952 9.32982 27.1328C9.37018 27.0634 9.39155 26.9844 9.39155 26.9043V25.9751C9.39155 25.7235 9.18737 25.5193 8.93571 25.5193C8.68406 25.5193 8.47988 25.7235 8.47988 25.9751V26.1597C8.12673 25.7205 7.80028 25.2605 7.50263 24.7818C6.24493 22.7505 5.60747 20.4837 5.60747 18.0449V10.894Z" fill="#3990C8"/>
<path d="M17.9944 25.5195C17.7425 25.5195 17.5386 25.7237 17.5386 25.9754V26.9045C17.5386 27.1562 17.7425 27.3604 17.9944 27.3604C18.2461 27.3604 18.4502 27.1562 18.4502 26.9045V25.9754C18.4502 25.7237 18.2461 25.5195 17.9944 25.5195Z" fill="#3990C8"/>
<path d="M21.0139 25.5195C20.7623 25.5195 20.5581 25.7237 20.5581 25.9754V26.9045C20.5581 27.1562 20.7623 27.3604 21.0139 27.3604C21.2656 27.3604 21.4698 27.1562 21.4698 26.9045V25.9754C21.4698 25.7237 21.2656 25.5195 21.0139 25.5195Z" fill="#3990C8"/>
<path d="M24.0344 25.5195C23.7825 25.5195 23.5786 25.7237 23.5786 25.9754V26.9045C23.5786 27.1562 23.7825 27.3604 24.0344 27.3604C24.2861 27.3604 24.4903 27.1562 24.4903 26.9045V25.9754C24.4903 25.7237 24.2861 25.5195 24.0344 25.5195Z" fill="#3990C8"/>
<path d="M14.9749 25.5195C14.7232 25.5195 14.519 25.7237 14.519 25.9754V26.9045C14.519 27.1562 14.7232 27.3604 14.9749 27.3604C15.2265 27.3604 15.4307 27.1562 15.4307 26.9045V25.9754C15.4307 25.7237 15.2265 25.5195 14.9749 25.5195Z" fill="#3990C8"/>
<path d="M11.9549 25.5195C11.7029 25.5195 11.499 25.7237 11.499 25.9754V26.9045C11.499 27.1562 11.7029 27.3604 11.9549 27.3604C12.2065 27.3604 12.4107 27.1562 12.4107 26.9045V25.9754C12.4107 25.7237 12.2065 25.5195 11.9549 25.5195Z" fill="#3990C8"/>
<path d="M11.858 18.7649C12.0853 18.7946 12.299 18.6506 12.3575 18.429C12.4124 18.22 12.5516 17.8509 12.6795 17.7057C12.8839 17.5119 13.1543 17.403 13.4362 17.4013C13.7167 17.3995 13.987 17.5075 14.1894 17.7022C14.3868 17.9072 14.4978 18.1803 14.4998 18.4649C14.4998 18.7168 14.7037 18.9207 14.9557 18.9207C15.2073 18.9207 15.4115 18.7168 15.4115 18.4649C15.4062 18.1812 15.5163 17.9075 15.7169 17.7069C15.9178 17.5063 16.1914 17.3959 16.4751 17.4013C16.7556 17.3995 17.0259 17.5075 17.2283 17.7022C17.4257 17.9072 17.5367 18.1803 17.5387 18.4649V22.8098C17.5408 22.9897 17.4461 23.1568 17.2909 23.2473C17.1357 23.3378 16.9437 23.3378 16.7885 23.2473C16.633 23.1568 16.5386 22.9897 16.5407 22.8098C16.5407 22.5582 16.3365 22.354 16.0849 22.354C15.8332 22.354 15.629 22.5582 15.629 22.8098C15.6252 23.3164 15.8935 23.7859 16.3315 24.0402C16.7692 24.2946 17.3099 24.2946 17.748 24.0402C18.186 23.7859 18.454 23.3164 18.4504 22.8098V18.4649C18.4451 18.1812 18.5552 17.9075 18.7558 17.7069C18.9567 17.5063 19.2303 17.3959 19.514 17.4013C19.7945 17.3995 20.0648 17.5075 20.2672 17.7022C20.4646 17.9072 20.5756 18.1803 20.5776 18.4649C20.5776 18.7168 20.7815 18.9207 21.0335 18.9207C21.2851 18.9207 21.4893 18.7168 21.4893 18.4649C21.484 18.1812 21.5941 17.9075 21.7947 17.7069C21.9956 17.5063 22.2692 17.3959 22.5529 17.4013C22.8331 17.3995 23.1031 17.5072 23.3055 17.7013C23.4346 17.8431 23.5735 18.2108 23.6314 18.429C23.6898 18.6506 23.9035 18.7943 24.1308 18.7649C24.3579 18.7355 24.5279 18.542 24.5282 18.3129C24.5282 14.7045 21.603 11.7793 17.9946 11.7793C14.3859 11.7793 11.4609 14.7045 11.4609 18.3129C11.4609 18.542 11.631 18.7355 11.858 18.7649ZM17.9946 12.691C20.4625 12.6942 22.6414 14.3039 23.3693 16.6623C22.6221 16.3308 21.7484 16.4851 21.1599 17.0526C21.1534 17.0588 21.1468 17.0653 21.1403 17.0721C21.1029 17.1119 21.0673 17.1526 21.0335 17.1944C20.9993 17.1526 20.9637 17.1119 20.9263 17.0721C20.9231 17.0689 20.9201 17.0653 20.9168 17.0621C20.1411 16.3026 18.9018 16.2982 18.121 17.0526C18.1142 17.0588 18.1076 17.0653 18.1014 17.0721C18.064 17.1119 18.0281 17.1526 17.9943 17.1944C17.9604 17.1526 17.9248 17.1119 17.8874 17.0721C17.8842 17.0689 17.8809 17.0653 17.8776 17.0621C17.1022 16.3026 15.8629 16.2982 15.0821 17.0526C15.0753 17.0588 15.0687 17.0653 15.0625 17.0721C15.0248 17.1119 14.9892 17.1526 14.9554 17.1944C14.9215 17.1526 14.8859 17.1119 14.8482 17.0721C14.8453 17.0689 14.842 17.0653 14.8387 17.0621C14.4648 16.6941 13.9609 16.4884 13.4362 16.4896C13.1546 16.4887 12.8759 16.548 12.6192 16.6638C13.3466 14.3048 15.5258 12.6942 17.9946 12.691Z" fill="#3990C8"/>
</g>
<defs>
<clipPath id="clip0">
<rect width="36" height="36" fill="white"/>
</clipPath>
</defs>
</svg>