<svg width="48" height="32" viewBox="0 0 48 32" fill="none" xmlns="http://www.w3.org/2000/svg">
<path fill-rule="evenodd" clip-rule="evenodd" d="M13.1613 0C20.5161 0 23.5161 5.12915 23.5161 10.5483C23.5161 21.2903 13.8387 29.4194 2.32263 31.7419L0 27.6775C7.16125 25.7419 11.3226 22.1614 11.3226 18.7742C11.3226 17.0322 10.6451 16.1614 8.70972 15.2903C6.29028 14.2258 3.87097 12.7742 3.87097 8.51611C3.87097 3.87085 7.64514 0 13.1613 0ZM37.6451 0C45 0 48 5.12915 48 10.5483C48 21.2903 38.3226 29.4194 26.8064 31.7419L24.4839 27.6775C31.6451 25.7419 35.8064 22.1614 35.8064 18.7742C35.8064 17.0322 35.129 16.1614 33.1936 15.2903C30.7742 14.2258 28.3549 12.7742 28.3549 8.51611C28.3549 3.87085 32.129 0 37.6451 0Z" fill="#B4D3E7"/>
</svg>