<svg width="190" height="314" viewBox="0 0 190 314" fill="none" xmlns="http://www.w3.org/2000/svg">
<mask id="mask0" mask-type="alpha" maskUnits="userSpaceOnUse" x="20" y="0" width="170" height="314">
<path d="M20 0H180C185.523 0 190 4.47715 190 10V304C190 309.523 185.523 314 180 314H20V0Z" fill="url(#paint0_linear)"/>
</mask>
<g mask="url(#mask0)">
<path d="M30.6507 154.328C30.6507 154.237 30.6507 154.147 30.6507 154.056C30.6507 153.965 30.6507 153.796 30.6507 153.663V153.355C30.6507 153.216 30.6507 153.078 30.6507 152.939V152.697C30.6507 152.54 30.6507 152.383 30.6507 152.226V151.924C30.6507 151.773 30.6507 151.622 30.6507 151.465V150.716C30.6507 150.577 30.6507 150.438 30.6507 150.299V148.964C30.6507 148.825 30.6507 148.686 30.6507 148.541V144.047C30.6507 142.386 30.6507 140.525 30.6507 138.423V138.036C30.6507 137.312 30.6507 136.569 30.6507 135.789C30.6507 134.618 30.6507 133.524 30.6507 132.479V131.67C30.6507 131.41 30.6507 131.144 30.6507 130.89V129.568C30.6507 129.235 30.6507 128.909 30.6507 128.589V128.293C30.6507 127.991 30.6507 127.689 30.6507 127.405V126.801C30.6507 126.602 30.6507 126.402 30.6507 126.197C30.6507 125.992 30.6507 125.774 30.6507 125.593V125.043C30.6507 124.82 30.6507 124.608 30.6507 124.397V123.92C30.6507 123.587 30.6507 123.261 30.6507 122.947V122.44C30.6507 122.283 30.6507 122.126 30.6507 121.975C30.6507 121.824 30.6507 121.703 30.6507 121.564V121.02C30.6507 120.918 30.6507 120.827 30.6507 120.73C30.6507 120.537 30.6507 120.344 30.6507 120.126C30.6507 119.909 30.6507 119.897 30.6507 119.788C30.6507 119.679 30.6507 119.48 30.6507 119.329V119.009C30.6507 118.834 30.6507 118.664 30.6507 118.501V118.272C30.6507 118.103 30.6507 117.946 30.6507 117.782V117.553C30.6507 117.384 30.6507 117.221 30.6507 117.058V116.907C30.6507 116.441 30.6507 115.994 30.6507 115.56C30.6537 115.529 30.6537 115.499 30.6507 115.469C30.6507 115.064 30.6507 114.666 30.6507 114.261V114.152C30.6507 113.749 30.6628 113.369 30.687 113.01C30.684 112.974 30.684 112.938 30.687 112.902C30.687 112.509 30.687 112.116 30.7293 111.694V111.591C30.7293 111.186 30.7595 110.769 30.7776 110.34V110.153C30.7776 109.7 30.8199 109.241 30.838 108.746C30.838 108.401 30.8682 108.069 30.8924 107.749V107.671C30.8924 107.266 30.9467 106.867 30.9769 106.462C30.9769 106.462 30.9769 106.414 30.9769 106.39C31.0071 106.046 31.0313 105.707 31.0675 105.381C31.0648 105.359 31.0648 105.337 31.0675 105.315C31.0675 105.218 31.0676 105.127 31.0978 105.031L31.1702 104.384C31.1702 104.348 31.1702 104.306 31.1702 104.27L31.2065 104.016L31.279 103.46C31.2761 103.41 31.2761 103.36 31.279 103.309C31.279 103.237 31.279 103.17 31.3092 103.104C31.3394 102.929 31.3635 102.766 31.3937 102.602C31.3937 102.542 31.3937 102.476 31.3937 102.421C31.3966 102.369 31.3966 102.317 31.3937 102.264L31.4843 101.781L31.5206 101.588C31.5178 101.558 31.5178 101.527 31.5206 101.497C31.5568 101.31 31.5931 101.129 31.6354 100.953L31.6716 100.802V100.821C31.726 100.579 31.7864 100.355 31.8407 100.132V100.096L31.8709 99.993C31.9193 99.8057 31.9736 99.6245 32.028 99.4493C32.028 99.4191 32.028 99.3889 32.028 99.3587C32.0298 99.3326 32.0298 99.3063 32.028 99.2802C32.1005 99.0506 32.173 98.8271 32.2455 98.6218V98.5795C32.3421 98.3016 32.4448 98.0419 32.5414 97.8002C32.5837 97.6975 32.626 97.5888 32.6743 97.4861C32.771 97.2505 32.8737 97.021 32.9824 96.8035C32.9949 96.7696 33.0111 96.7372 33.0307 96.7069C33.1274 96.5076 33.224 96.3203 33.3267 96.1028L33.4596 95.8491V95.8129C33.6634 95.4601 33.8873 95.1192 34.1301 94.792L34.2026 94.6893C34.2388 94.635 34.2872 94.5927 34.3234 94.5444C34.4382 94.3994 34.559 94.2605 34.6798 94.1276C34.8006 93.9947 34.8369 93.9524 34.9214 93.8678C35.006 93.7833 35.1872 93.6081 35.3262 93.4812L35.4953 93.3181L35.5497 93.2819C35.8842 92.9997 36.2396 92.7433 36.6128 92.5147C36.6435 92.4887 36.6758 92.4645 36.7094 92.4423L37.0477 92.2429L58.8119 79.8477C58.6609 79.9322 58.522 80.0289 58.377 80.1195C58.0048 80.3495 57.6495 80.6059 57.3138 80.8866L57.0903 81.086C56.9514 81.2128 56.8125 81.3397 56.6856 81.4726C56.5588 81.6055 56.5225 81.6477 56.444 81.7323C56.3655 81.8169 56.2024 82.0041 56.0876 82.1491L55.8943 82.4028C55.6522 82.7271 55.4302 83.066 55.2298 83.4176C55.1755 83.5082 55.1272 83.6109 55.0728 83.7076C54.9701 83.8948 54.8734 84.0821 54.7768 84.3116C54.6801 84.5412 54.5352 84.819 54.4204 85.0969C54.3721 85.1996 54.3298 85.3144 54.2815 85.4231C54.1848 85.6647 54.0821 85.9245 53.9855 86.2023C53.9879 86.2224 53.9879 86.2427 53.9855 86.2627C53.913 86.4681 53.8405 86.6916 53.768 86.9212C53.768 86.9755 53.7378 87.0359 53.7197 87.0903C53.6653 87.2655 53.617 87.4467 53.5626 87.634L53.5264 87.7729C53.466 87.9964 53.4056 88.2259 53.3512 88.4615C53.3512 88.5219 53.321 88.5884 53.3089 88.6488C53.2727 88.8179 53.2304 88.9991 53.1942 89.1864C53.1942 89.277 53.1519 89.3736 53.1338 89.4703C53.1156 89.5669 53.0733 89.7904 53.0431 89.9596L52.9888 90.2858C52.9586 90.4489 52.9344 90.618 52.9042 90.7932L52.8498 91.1496L52.7774 91.7053C52.7774 91.8261 52.7774 91.9469 52.729 92.0738L52.6566 92.7201L52.6203 93.0705C52.6203 93.3967 52.5599 93.7349 52.5297 94.0792C52.5297 94.0792 52.5297 94.1276 52.5297 94.1578C52.4995 94.5323 52.4753 94.931 52.4512 95.3659C52.427 95.8008 52.4089 96.0726 52.3908 96.4411C52.3908 96.9364 52.3545 97.3955 52.3304 97.8486C52.3304 97.909 52.3304 97.9694 52.3304 98.0298C52.3304 98.4828 52.2941 98.9177 52.276 99.3466C52.276 99.7634 52.276 100.174 52.2337 100.585V100.633C52.2337 101.026 52.2337 101.413 52.1975 101.811C52.2005 101.847 52.2005 101.884 52.1975 101.92C52.1975 102.319 52.1975 102.723 52.1975 103.128V103.17C52.1975 103.611 52.1975 104.064 52.1673 104.535C52.1641 104.586 52.1641 104.636 52.1673 104.686C52.1673 104.85 52.1673 105.013 52.1673 105.182C52.1673 105.351 52.1673 105.399 52.1673 105.514C52.1673 105.629 52.1673 105.768 52.1673 105.901C52.1673 106.034 52.1673 106.106 52.1673 106.209C52.1673 106.311 52.1673 106.517 52.1673 106.68C52.1673 106.843 52.1673 106.891 52.1673 107C52.1673 107.109 52.1673 107.284 52.1673 107.429C52.1673 107.574 52.1673 107.707 52.1673 107.846C52.1673 107.985 52.1673 108.142 52.1673 108.293V108.661C52.1673 108.891 52.1673 109.126 52.1673 109.368V109.555C52.1673 110.504 52.1673 111.543 52.1673 112.69V113.041C52.1673 113.337 52.1673 113.645 52.1673 113.947V114.285C52.1673 114.539 52.1673 114.798 52.1673 115.064V115.723C52.1673 115.97 52.1673 116.224 52.1673 116.478V116.949C52.1673 117.764 52.1673 118.622 52.1673 119.528V120.054C52.1673 121.099 52.1673 122.204 52.1673 123.382C52.1673 124.077 52.1673 124.735 52.1673 125.381V126.3C52.1673 126.723 52.1673 127.139 52.1673 127.55C52.1673 129.628 52.1673 131.464 52.1673 133.089V135.675C52.1673 135.826 52.1673 135.977 52.1673 136.122V137.487C52.1673 137.626 52.1673 137.765 52.1673 137.904V138.761C52.1673 138.864 52.1673 138.967 52.1673 139.075V139.831C52.1673 139.988 52.1673 140.145 52.1673 140.302V140.543C52.1673 140.682 52.1673 140.821 52.1673 140.96C52.1673 141.099 52.1673 141.166 52.1673 141.268V141.661C52.1673 141.751 52.1673 141.842 52.1673 141.933C52.1673 142.023 52.1673 142.162 52.1673 142.277V142.567C52.1673 142.658 52.1673 142.748 52.1673 142.839C52.1673 143.25 52.1673 143.648 52.1673 144.047V144.186C52.1673 144.603 52.1673 145.013 52.1975 145.394V145.436C52.1975 145.841 52.1975 146.24 52.1975 146.644V146.741L52.2337 147.907C52.2307 147.961 52.2307 148.016 52.2337 148.07C52.2337 148.438 52.2337 148.813 52.27 149.206C52.27 149.278 52.27 149.35 52.27 149.423C52.27 149.846 52.3001 150.281 52.3183 150.74C52.3364 151.199 52.3183 151.495 52.3666 151.857L52.4028 152.546C52.4028 152.721 52.4028 152.89 52.433 153.059C52.4632 153.229 52.4331 153.434 52.4753 153.621C52.5176 153.808 52.4753 153.996 52.5176 154.177L52.5539 154.63L52.6082 155.234C52.6082 155.373 52.6384 155.5 52.6505 155.633C52.6626 155.766 52.6928 156.025 52.7109 156.237C52.729 156.448 52.7411 156.484 52.7592 156.605C52.7774 156.726 52.8015 156.98 52.8257 157.161C52.8499 157.342 52.8257 157.39 52.868 157.505C52.9102 157.62 52.9163 157.862 52.9465 158.031C52.9767 158.2 52.9767 158.248 52.9948 158.357C53.013 158.466 53.0431 158.701 53.0733 158.864C53.1035 159.027 53.0733 159.058 53.1156 159.154C53.1519 159.342 53.1821 159.529 53.2123 159.71L53.2485 159.909C53.2908 160.157 53.3391 160.393 53.3875 160.628C53.3875 160.677 53.3875 160.719 53.3875 160.767C53.4237 160.954 53.466 161.136 53.5022 161.311L53.5566 161.565L53.6472 161.969C53.6472 162.066 53.6895 162.157 53.7137 162.253C53.7378 162.35 53.768 162.489 53.7922 162.597C53.8163 162.706 53.8465 162.809 53.8707 162.912C53.8949 163.014 53.9251 163.117 53.9492 163.214C53.9734 163.31 54.0157 163.473 54.0519 163.606C54.0882 163.739 54.0882 163.763 54.1123 163.842C54.1667 164.047 54.2211 164.253 54.2754 164.446C54.4083 164.911 54.5412 165.364 54.6801 165.805C54.813 166.24 54.952 166.663 55.0969 167.08C55.1097 167.109 55.1198 167.139 55.1272 167.17C55.2661 167.557 55.405 167.943 55.55 168.324L55.5983 168.445C55.7433 168.819 55.8943 169.194 56.0514 169.562C56.0701 169.603 56.0862 169.646 56.0997 169.689C56.2567 170.052 56.4198 170.408 56.5829 170.77L56.6675 170.952C56.8366 171.308 57.0118 171.664 57.193 172.027L57.338 172.317L57.6461 173.126C57.7427 173.313 57.8454 173.501 57.9481 173.688C58.1353 174.02 58.3166 174.352 58.5099 174.691C58.7032 175.029 58.975 175.482 59.2106 175.863L59.4884 176.31C59.6395 176.551 59.7905 176.793 59.9415 177.022C60.0925 177.252 60.1408 177.33 60.2435 177.481L60.6784 178.128L60.9986 178.581L61.4395 179.185L61.7718 179.626C61.9228 179.825 62.0798 180.018 62.2369 180.23L62.5691 180.647L63.0765 181.251C63.1853 181.378 63.294 181.51 63.4088 181.637C63.6021 181.861 63.8014 182.078 64.0128 182.302L64.3028 182.622C64.6048 182.954 64.9068 183.28 65.2451 183.613C68.4965 186.92 72.1493 189.808 76.1181 192.208C82.2856 196.098 84.14 197.234 99.7791 206.259C115.418 215.283 117.267 216.292 123.44 219.548C129.154 222.568 132.259 223.245 134.313 223.511C137.055 223.873 139.007 223.541 141.06 222.363L141.181 222.296L119.864 234.668L119.743 234.734C117.689 235.912 115.738 236.244 112.996 235.882C110.936 235.616 107.831 234.921 102.123 231.919C95.9493 228.681 94.1009 227.691 78.4619 218.63C62.8228 209.569 60.9442 208.47 54.7949 204.579C50.8257 202.18 47.1729 199.292 43.9219 195.984C43.5957 195.651 43.2816 195.325 42.9796 194.993L42.6896 194.673C42.4903 194.449 42.2909 194.232 42.0856 194.008C41.9708 193.882 41.862 193.749 41.7533 193.622C41.6446 193.495 41.409 193.217 41.2459 193.018L40.9137 192.601C40.7566 192.402 40.5996 192.208 40.4485 191.997C40.2975 191.786 40.2251 191.707 40.1163 191.562C40.0076 191.417 39.8203 191.157 39.6754 190.958L39.3552 190.505L38.9203 189.859C38.8176 189.708 38.7149 189.557 38.6183 189.399C38.5216 189.242 38.3102 188.922 38.1592 188.681L37.8874 188.24C37.859 188.199 37.8328 188.156 37.8088 188.113C37.6034 187.775 37.3981 187.424 37.2048 187.068L36.8242 186.397L36.643 186.065C36.5403 185.878 36.4376 185.691 36.341 185.503L36.1718 185.195C36.0812 185.026 36.0027 184.863 35.9181 184.7L35.7671 184.41L35.7007 184.271C35.5678 184.017 35.447 183.758 35.3262 183.498C35.296 183.443 35.2718 183.383 35.2476 183.329C35.2235 183.274 35.1933 183.214 35.1691 183.16C35.1449 183.105 35.0604 182.936 35.012 182.827C34.9154 182.616 34.8248 182.411 34.7342 182.223L34.6798 182.09C34.6798 182.054 34.6798 182.012 34.6315 181.97L34.4865 181.637C34.414 181.45 34.3355 181.263 34.263 181.07L34.1784 180.852C34.1784 180.816 34.1482 180.774 34.1301 180.731C34.112 180.689 34.0757 180.586 34.0455 180.514L33.8462 179.964C33.7979 179.831 33.7556 179.704 33.7073 179.578C33.6999 179.546 33.6898 179.516 33.6771 179.487C33.6796 179.459 33.6796 179.43 33.6771 179.402L33.4838 178.798C33.4234 178.599 33.3569 178.4 33.2965 178.194L33.1153 177.59C33.0428 177.367 32.9764 177.137 32.916 176.908V176.835C32.8616 176.642 32.8072 176.436 32.7529 176.231V176.171C32.7529 176.11 32.7227 176.05 32.7046 175.989C32.6864 175.929 32.6381 175.736 32.6079 175.603L32.5777 175.5C32.5777 175.44 32.5777 175.367 32.5294 175.301C32.481 175.234 32.481 175.095 32.4508 174.987C32.4206 174.878 32.4508 174.914 32.4508 174.872C32.4508 174.83 32.4146 174.715 32.3904 174.636C32.3663 174.558 32.3481 174.455 32.33 174.358C32.3119 174.262 32.33 174.292 32.33 174.256C32.33 174.22 32.2817 174.05 32.2636 173.948L32.2092 173.7V173.634L32.1186 173.181L32.0824 173.011L31.9555 172.353V172.311L31.9193 172.105C31.9193 171.96 31.8649 171.815 31.8407 171.664V171.562C31.8407 171.465 31.8105 171.362 31.7924 171.266C31.7743 171.169 31.7622 171.054 31.7441 170.946C31.726 170.837 31.7441 170.819 31.7139 170.758C31.6837 170.698 31.6837 170.541 31.6656 170.432L31.6293 170.184L31.5931 169.913C31.5931 169.798 31.5629 169.677 31.5508 169.556C31.5387 169.435 31.5508 169.435 31.5508 169.375C31.5508 169.315 31.5206 169.133 31.5085 169.013C31.4964 168.892 31.4783 168.765 31.4602 168.638C31.4575 168.594 31.4575 168.549 31.4602 168.505C31.4602 168.36 31.43 168.209 31.4119 168.064C31.3937 167.919 31.3817 167.798 31.3696 167.659C31.3696 167.623 31.3696 167.593 31.3696 167.563C31.3696 167.406 31.3696 167.237 31.3213 167.074L31.285 166.614C31.2818 166.588 31.2818 166.562 31.285 166.536L31.2488 166.059C31.2488 165.871 31.2186 165.69 31.2065 165.497C31.2065 165.497 31.2065 165.443 31.2065 165.418C31.2065 165.273 31.2065 165.122 31.2065 164.977L31.1702 164.301C31.1674 164.263 31.1674 164.224 31.1702 164.186C31.1702 163.854 31.14 163.522 31.128 163.177C31.128 162.718 31.0917 162.283 31.0796 161.861C31.0796 161.788 31.0796 161.71 31.0796 161.643C31.0796 161.25 31.0494 160.876 31.0373 160.507V160.344C31.0373 159.964 31.0373 159.589 31.0011 159.221C31.0011 159.166 31.0011 159.112 31.0011 159.058C31.0011 158.659 31.0011 158.272 30.9709 157.85V157.807C30.9709 157.403 30.9709 156.992 30.9709 156.599C30.9739 156.551 30.9739 156.502 30.9709 156.454C30.9709 156.051 30.9709 155.649 30.9709 155.246V155.186C30.9709 155.131 30.9709 155.071 30.9709 155.011V154.702C30.6507 154.557 30.6507 154.443 30.6507 154.328Z" fill="url(#paint1_linear)"/>
<path d="M42.4962 100.96L63.8134 88.5582C65.094 87.8152 66.8337 87.9179 68.821 89.0475C69.0566 89.1864 69.2861 89.3374 69.5157 89.4945L69.7452 89.6636C69.8962 89.7724 70.0472 89.8811 70.1983 90.0019L70.458 90.2254C70.5909 90.3402 70.7238 90.455 70.8506 90.5758L71.1225 90.8355C71.2433 90.9563 71.3641 91.0711 71.4849 91.1979C71.6057 91.3248 71.6601 91.3912 71.7507 91.4879C71.8413 91.5845 71.9742 91.7356 72.0829 91.8684L72.3366 92.1826L72.6507 92.5812C72.7353 92.69 72.8138 92.8047 72.8924 92.9195C72.9709 93.0343 73.0857 93.1913 73.1823 93.3363L73.4118 93.6867L73.5689 93.9283L73.7199 94.188L73.8105 94.3451L73.8709 94.4478L74.0944 94.8585C74.1367 94.931 74.1729 95.0095 74.2152 95.0881V95.1364V95.1908C74.2696 95.2935 74.3179 95.3961 74.3662 95.4988C74.4146 95.6015 74.4569 95.6861 74.4991 95.7827L74.5716 95.9579V96.0062L74.6864 96.266L74.777 96.4895C74.777 96.568 74.8314 96.6405 74.8616 96.713C74.8918 96.7855 74.8616 96.7734 74.8918 96.7976L74.928 96.9063L75.0005 97.1117C75.0005 97.1781 75.0488 97.2446 75.067 97.311C75.0851 97.3775 75.1153 97.4439 75.1334 97.5103C75.1515 97.5768 75.1334 97.607 75.1757 97.6493V97.6916L75.2301 97.8728C75.2301 97.9332 75.2301 97.9996 75.2784 98.06C75.3267 98.1204 75.3086 98.1808 75.3267 98.2413C75.3448 98.3017 75.3267 98.3621 75.369 98.4225C75.3717 98.4526 75.3717 98.4829 75.369 98.5131V98.5795L75.4052 98.7547L75.4415 98.9299L75.4777 99.099C75.4777 99.1534 75.4777 99.2077 75.4777 99.2621V99.3769V99.4312C75.4777 99.4856 75.4777 99.54 75.4777 99.6004C75.4748 99.6547 75.4748 99.7092 75.4777 99.7635V99.9266V100.096C75.4747 100.144 75.4747 100.192 75.4777 100.241C75.4777 100.295 75.4777 100.349 75.4777 100.404C75.4807 100.458 75.4807 100.513 75.4777 100.567C75.4777 100.627 75.4777 100.682 75.4777 100.736V101.068V101.231C75.4807 101.288 75.4807 101.344 75.4777 101.4C75.4777 101.455 75.4777 101.515 75.4777 101.57C75.4777 101.624 75.4777 101.678 75.4777 101.733C75.4777 101.787 75.4777 101.817 75.4777 101.86V101.914V102.083C75.4807 102.141 75.4807 102.2 75.4777 102.258C75.4777 102.319 75.4777 102.379 75.4475 102.439C75.4504 102.49 75.4504 102.54 75.4475 102.59V102.627L75.4113 102.808C75.4113 102.874 75.3811 102.941 75.3629 103.007C75.3448 103.074 75.3207 103.146 75.3025 103.213V103.261C75.2857 103.302 75.2716 103.345 75.2603 103.388C75.2603 103.472 75.1938 103.557 75.1636 103.635C75.1334 103.714 75.1092 103.768 75.079 103.829C75.0247 103.944 74.9703 104.046 74.9099 104.149C74.8495 104.252 74.8676 104.215 74.8495 104.246C74.8067 104.316 74.7604 104.385 74.7106 104.451C74.6804 104.499 74.6502 104.554 74.6139 104.602C74.5881 104.627 74.5639 104.653 74.5414 104.681C74.4448 104.795 74.3421 104.898 74.2394 105.001C74.1367 105.103 74.179 105.073 74.1427 105.103L74.0944 105.14C74.022 105.201 73.9453 105.258 73.8649 105.309C73.8111 105.354 73.7546 105.397 73.6958 105.436L73.5991 105.496L52.451 118.085C52.5444 118.029 52.6332 117.966 52.7168 117.897C52.7954 117.843 52.8739 117.789 52.9464 117.728L53.0914 117.589C53.194 117.487 53.2967 117.384 53.3934 117.269L53.5625 117.04C53.6123 116.973 53.6587 116.905 53.7015 116.834C53.786 116.695 53.8706 116.55 53.9431 116.399C54.0216 116.224 54.1001 116.031 54.1666 115.831C54.233 115.62 54.2874 115.403 54.3357 115.173C54.3855 114.936 54.4218 114.696 54.4444 114.454C54.4444 114.2 54.4807 113.941 54.4807 113.669C54.4807 113.397 54.4807 113.107 54.4807 112.823C54.4807 112.539 54.4203 112.255 54.378 111.971C54.3357 111.688 54.2753 111.404 54.2089 111.114C54.1424 110.83 54.0639 110.54 53.9793 110.256C53.8947 109.97 53.7981 109.686 53.6894 109.404C53.5806 109.12 53.4719 108.842 53.3451 108.559C53.2242 108.281 53.0974 108.009 52.9585 107.737V107.689C52.8256 107.441 52.6927 107.187 52.5477 106.94L52.4631 106.789L52.1551 106.287L51.9255 105.937C51.8289 105.792 51.7322 105.653 51.6356 105.52C51.557 105.405 51.4785 105.291 51.3939 105.182L51.0798 104.783L50.8261 104.469C50.7174 104.336 50.6026 104.209 50.4879 104.089L50.2281 103.799L49.8657 103.436L49.5939 103.17L49.2012 102.826L48.9415 102.603C48.7905 102.482 48.6395 102.373 48.4824 102.264L48.2589 102.095C48.0294 101.938 47.7938 101.787 47.5582 101.648C45.8487 100.664 44.2782 100.44 43.058 100.917C42.8852 100.986 42.7176 101.066 42.5566 101.159L42.4962 100.96Z" fill="url(#paint2_linear)"/>
<path d="M77.2775 136.382C76.9152 138.339 76.8137 140.336 76.9755 142.32C77.3619 147.156 78.599 151.886 80.6301 156.292C83.1094 161.889 86.6783 166.936 91.1286 171.139C93.6653 173.494 96.5556 175.437 99.6941 176.896C100.824 179.645 99.7485 183.106 97.9182 185.19C95.7134 187.709 96.8732 187.703 93.865 188.035C90.9957 188.349 87.1539 189.032 83.9403 188.168C82.6355 187.817 79.7119 187.147 75.4291 183.837C71.1053 180.682 67.478 176.67 64.7736 172.052C62.6314 168.303 61.0617 164.255 60.1163 160.043C59.4403 157.492 59.0991 154.865 59.1015 152.226C59.0095 149.917 59.3898 147.613 60.219 145.455C60.8702 143.764 61.8658 142.228 63.1426 140.943C64.7896 139.262 66.8874 138.094 69.1832 137.578C69.7268 137.451 75.2902 133.627 77.2775 136.382Z" fill="url(#paint3_linear)"/>
<path d="M78.6487 114.447C84.0852 111.27 91.6842 111.717 100.044 116.544C100.552 116.834 101.053 117.148 101.555 117.456L102.044 117.782C102.376 117.999 102.708 118.217 103.041 118.446C103.24 118.579 103.433 118.724 103.645 118.863C103.941 119.075 104.249 119.286 104.526 119.503C104.804 119.721 104.937 119.818 105.131 119.981C105.324 120.144 105.686 120.403 105.958 120.627L106.574 121.177L107.366 121.841L107.97 122.403C108.229 122.632 108.483 122.856 108.731 123.092L109.335 123.696C109.582 123.931 109.83 124.167 110.078 124.414C110.325 124.662 110.489 124.825 110.682 125.018L111.407 125.761L112.011 126.402C112.252 126.662 112.482 126.915 112.717 127.181C112.953 127.447 113.11 127.622 113.322 127.839C113.533 128.057 113.781 128.371 114.004 128.643C114.228 128.915 114.391 129.096 114.608 129.325L115.279 130.153L115.834 130.842L116.487 131.699L117.012 132.412C117.23 132.702 117.441 133.016 117.616 133.294C117.792 133.572 117.961 133.777 118.124 134.019C118.287 134.261 118.541 134.623 118.728 134.937C118.915 135.251 119.048 135.42 119.205 135.662C119.362 135.904 119.616 136.302 119.809 136.622C120.002 136.943 120.105 137.1 120.256 137.335C120.28 137.379 120.306 137.421 120.335 137.462C120.413 137.589 120.48 137.722 120.558 137.849C120.866 138.362 121.162 138.876 121.464 139.395L121.639 139.691C121.742 139.872 121.833 140.053 121.935 140.235L122.394 141.074C122.455 141.195 122.521 141.316 122.588 141.431C122.721 141.684 122.848 141.938 122.974 142.192C123.059 142.349 123.144 142.506 123.222 142.669L123.313 142.85C123.536 143.291 123.754 143.738 123.965 144.185C123.965 144.221 123.965 144.258 124.013 144.288L124.122 144.53L124.581 145.339C124.672 145.55 124.762 145.762 124.859 145.973C124.901 146.064 124.944 146.154 124.98 146.251C125.016 146.348 125.04 146.378 125.064 146.438C125.221 146.807 125.379 147.175 125.53 147.544L125.668 147.882L125.765 148.136C125.82 148.257 125.868 148.383 125.916 148.51C126.043 148.824 126.164 149.145 126.285 149.465L126.393 149.755L126.484 149.996C126.532 150.141 126.587 150.28 126.641 150.419C126.744 150.709 126.846 151.023 126.943 151.295L127.064 151.639C127.064 151.706 127.106 151.772 127.13 151.839C127.154 151.905 127.197 152.044 127.233 152.147L127.505 153.004L127.668 153.53C127.668 153.578 127.668 153.627 127.71 153.681C127.73 153.732 127.746 153.785 127.759 153.838C127.837 154.098 127.916 154.364 127.988 154.623L128.206 155.409V155.469V155.554C128.266 155.765 128.32 155.982 128.375 156.194C128.429 156.405 128.502 156.701 128.562 156.961C128.562 157.076 128.616 157.185 128.64 157.299L128.677 157.45C128.677 157.529 128.719 157.613 128.737 157.698C128.791 157.946 128.846 158.193 128.894 158.441C128.942 158.689 128.997 158.93 129.045 159.178C129.048 159.196 129.048 159.214 129.045 159.232V159.293C129.087 159.498 129.124 159.703 129.16 159.897C129.196 160.09 129.251 160.374 129.287 160.61L129.359 161.032V161.159C129.359 161.214 129.359 161.268 129.359 161.322L129.468 162.035L129.559 162.742V162.905V163.032C129.559 163.171 129.559 163.31 129.607 163.449L129.679 164.149L129.734 164.753V164.832L129.788 165.533L129.824 166.245C129.824 166.342 129.824 166.439 129.824 166.529C129.827 166.578 129.827 166.626 129.824 166.674C129.824 166.771 129.824 166.862 129.824 166.958V167.665C129.824 167.901 129.824 168.136 129.824 168.372V168.402C129.824 168.643 129.824 168.879 129.824 169.109V169.84C129.824 169.918 129.824 169.997 129.824 170.075C129.824 170.154 129.824 170.178 129.824 170.226C129.824 170.274 129.824 170.45 129.824 170.552C129.824 170.794 129.794 171.036 129.776 171.271C129.758 171.507 129.746 171.585 129.734 171.736V171.881C129.737 171.932 129.737 171.982 129.734 172.032C129.734 172.28 129.679 172.528 129.649 172.775C129.619 173.023 129.595 173.186 129.565 173.379C129.565 173.379 129.565 173.422 129.565 173.446C129.562 173.462 129.562 173.478 129.565 173.494L129.528 174.334C129.492 174.533 129.45 174.738 129.414 174.938C129.414 174.974 129.414 175.016 129.414 175.059C129.414 175.101 129.414 175.107 129.414 175.131C129.359 175.397 129.299 175.657 129.238 175.916C129.208 176.061 129.166 176.206 129.13 176.351L129.075 176.581C129.075 176.641 129.075 176.702 129.027 176.762C128.942 177.064 128.858 177.366 128.767 177.65C128.755 177.701 128.739 177.752 128.719 177.801C128.719 177.886 128.665 177.964 128.64 178.043C128.616 178.121 128.538 178.363 128.483 178.514C128.429 178.665 128.369 178.804 128.314 178.949C128.26 179.094 128.212 179.233 128.157 179.372C128.103 179.51 128.103 179.51 128.079 179.577C127.988 179.794 127.891 180 127.801 180.181L127.656 180.513L127.62 180.592C127.571 180.694 127.511 180.785 127.463 180.888C127.305 181.202 127.148 181.492 126.979 181.806C126.979 181.854 126.925 181.909 126.901 181.957C126.81 182.114 126.714 182.259 126.617 182.41C126.52 182.561 126.448 182.694 126.357 182.833C126.267 182.972 126.067 183.25 125.916 183.437L125.662 183.799C125.643 183.819 125.627 183.841 125.614 183.866C125.554 183.938 125.487 184.005 125.427 184.083C125.209 184.349 124.992 184.615 124.762 184.862L124.436 185.207C124.225 185.424 124.013 185.636 123.796 185.811C123.729 185.871 123.669 185.938 123.597 185.998L123.403 186.161L122.938 186.536L122.473 186.892L121.984 187.224L121.706 187.418L121.283 187.671L99.9296 200.139C100.171 200 100.401 199.843 100.63 199.692L101.12 199.36L101.585 199.003L102.05 198.629L102.436 198.279C102.66 198.079 102.871 197.868 103.077 197.674C103.192 197.566 103.3 197.451 103.409 197.33C103.639 197.083 103.856 196.817 104.073 196.551C104.152 196.454 104.23 196.364 104.303 196.267L104.563 195.905C104.714 195.699 104.859 195.494 104.998 195.301C105.137 195.107 105.179 195.017 105.263 194.872C105.348 194.727 105.511 194.479 105.626 194.268C105.795 193.972 105.952 193.664 106.109 193.349L106.296 192.975C106.351 192.866 106.399 192.751 106.447 192.643C106.568 192.371 106.689 192.093 106.804 191.809C106.858 191.67 106.913 191.525 106.961 191.386C107.074 191.092 107.182 190.79 107.287 190.48C107.287 190.402 107.341 190.323 107.366 190.239C107.492 189.84 107.607 189.435 107.716 189.03C107.716 188.952 107.758 188.879 107.776 188.801C107.885 188.378 107.982 187.949 108.072 187.508C108.069 187.468 108.069 187.428 108.072 187.387C108.163 186.916 108.247 186.439 108.32 185.95C108.32 185.95 108.32 185.901 108.32 185.883C108.392 185.388 108.453 184.887 108.501 184.373C108.504 184.325 108.504 184.276 108.501 184.228C108.55 183.733 108.586 183.231 108.61 182.718C108.613 182.668 108.613 182.617 108.61 182.567C108.61 182.023 108.652 181.462 108.652 180.894C108.652 180.326 108.652 179.746 108.652 179.166V179.021C108.652 178.417 108.592 177.867 108.55 177.288V177.245C108.501 176.641 108.441 176.085 108.374 175.5V175.379C108.308 174.775 108.223 174.213 108.133 173.627C108.136 173.589 108.136 173.55 108.133 173.512C108.044 172.928 107.941 172.342 107.825 171.754C107.825 171.754 107.825 171.712 107.825 171.694C107.71 171.09 107.583 170.486 107.444 169.882L107.408 169.737C107.275 169.133 107.13 168.571 106.973 167.985V167.913C106.81 167.309 106.641 166.704 106.459 166.1C106.459 166.046 106.459 165.998 106.417 165.949C106.242 165.382 106.067 164.82 105.88 164.258C105.88 164.192 105.831 164.125 105.813 164.059C105.626 163.509 105.433 162.965 105.209 162.416L105.118 162.174C104.919 161.63 104.708 161.093 104.514 160.555C104.514 160.471 104.448 160.386 104.412 160.301C104.194 159.752 103.965 159.208 103.729 158.671C103.687 158.574 103.645 158.483 103.608 158.393C103.391 157.891 103.161 157.402 102.932 156.907L102.823 156.665C102.563 156.121 102.304 155.584 102.032 155.046C101.947 154.883 101.863 154.726 101.784 154.563L101.18 153.451C101.029 153.168 100.872 152.89 100.715 152.606C100.558 152.322 100.407 152.05 100.25 151.772C99.9538 151.253 99.6457 150.739 99.3437 150.226C99.241 150.057 99.1443 149.881 99.0356 149.712C98.9269 149.543 98.7457 149.241 98.5946 149.006C98.4436 148.77 98.1899 148.359 97.9906 148.039C97.7912 147.719 97.6765 147.556 97.5134 147.32C97.3503 147.085 97.1026 146.716 96.9093 146.396C96.716 146.076 96.571 145.913 96.4019 145.671C96.2328 145.43 95.9851 145.067 95.7677 144.789L95.2361 144.07L94.5897 143.219C94.4085 142.983 94.2213 142.748 94.034 142.518C93.8467 142.288 93.593 141.962 93.3695 141.69L92.7655 141.002C92.542 140.736 92.3124 140.47 92.0829 140.211C91.8534 139.951 91.6903 139.764 91.4788 139.54L90.7721 138.773L90.168 138.127L89.4432 137.377C89.2378 137.172 89.0385 136.967 88.8391 136.773C88.6398 136.58 88.3438 136.29 88.0901 136.049L87.486 135.445C87.2323 135.207 86.9786 134.977 86.7249 134.756L86.1209 134.194L85.3295 133.53L84.7255 133.01C84.4476 132.787 84.1758 132.575 83.8979 132.364C83.6201 132.152 83.4872 132.038 83.2939 131.887C83.1006 131.736 82.6898 131.458 82.418 131.283C82.2247 131.138 82.0314 130.993 81.8139 130.86C81.4817 130.63 81.1495 130.413 80.8172 130.195L80.3219 129.869C79.8266 129.555 79.3252 129.265 78.8178 128.957C70.4577 124.124 62.8888 123.684 57.4221 126.861L78.6487 114.447Z" fill="url(#paint4_linear)"/>
<path d="M51.255 67.0355L51.3758 66.9691C54.6256 65.1086 57.9117 64.6978 61.7656 65.1932C65.4987 65.6824 69.7573 67.0053 75.9972 70.2733C82.2371 73.5412 84.2305 74.6285 100.159 83.8102C116.088 92.9919 118.052 94.2181 124.28 98.1505C129.462 101.334 134.233 105.142 138.487 109.489C138.946 109.96 139.399 110.437 139.84 110.914L140.275 111.398C140.571 111.724 140.879 112.05 141.151 112.382L141.652 112.986C141.912 113.288 142.172 113.59 142.425 113.904L142.951 114.533C143.193 114.841 143.434 115.137 143.67 115.457C143.845 115.68 144.02 115.916 144.195 116.145C144.37 116.375 144.66 116.749 144.89 117.1L145.409 117.831C145.639 118.157 145.862 118.489 146.092 118.827L146.599 119.595C146.829 119.945 147.059 120.301 147.282 120.664L147.777 121.455C147.838 121.558 147.898 121.648 147.965 121.751C148.255 122.234 148.569 122.724 148.834 123.231C149.016 123.545 149.197 123.835 149.372 124.173C149.547 124.512 149.608 124.608 149.728 124.832C149.849 125.055 150.012 125.345 150.145 125.599L150.345 125.961C150.562 126.372 150.767 126.783 150.949 127.169L151.039 127.333V127.375C151.245 127.778 151.446 128.18 151.643 128.583L151.879 129.096C151.927 129.193 151.976 129.296 152.018 129.392C152.06 129.489 152.108 129.592 152.157 129.688C152.308 130.027 152.453 130.365 152.598 130.697C152.658 130.83 152.712 130.963 152.767 131.096L152.87 131.331L153.002 131.658C153.129 131.96 153.25 132.262 153.371 132.57L153.552 133.047C153.552 133.113 153.6 133.174 153.631 133.24L153.709 133.458C153.824 133.748 153.927 134.062 154.035 134.334L154.295 135.071L154.331 135.167C154.331 135.167 154.331 135.215 154.331 135.246C154.434 135.536 154.531 135.85 154.627 136.122C154.724 136.393 154.815 136.726 154.911 137.01C154.914 137.028 154.914 137.046 154.911 137.064V137.124C154.996 137.39 155.08 137.662 155.159 137.934C155.237 138.206 155.346 138.538 155.437 138.888L155.479 139.045C155.564 139.341 155.648 139.649 155.727 139.933C155.805 140.217 155.89 140.537 155.974 140.882C155.977 140.904 155.977 140.926 155.974 140.948V141.051L156.156 141.8C156.228 142.102 156.301 142.404 156.367 142.706C156.367 142.772 156.367 142.839 156.409 142.899L156.446 143.062C156.488 143.243 156.524 143.425 156.566 143.6L156.748 144.5C156.748 144.639 156.802 144.784 156.826 144.923L156.862 145.116C156.862 145.213 156.905 145.309 156.923 145.412L157.086 146.342C157.128 146.59 157.164 146.844 157.207 147.097V147.206C157.204 147.236 157.204 147.267 157.207 147.297C157.255 147.623 157.309 147.955 157.352 148.287C157.394 148.62 157.448 148.976 157.491 149.326C157.494 149.346 157.494 149.367 157.491 149.387C157.491 149.417 157.491 149.447 157.491 149.477C157.527 149.785 157.569 150.081 157.599 150.42C157.63 150.758 157.684 151.187 157.72 151.579C157.723 151.626 157.723 151.672 157.72 151.718V151.912C157.75 152.214 157.774 152.516 157.799 152.83C157.835 153.277 157.871 153.73 157.901 154.189V154.255C157.901 154.298 157.901 154.346 157.901 154.388C157.926 154.791 157.95 155.22 157.974 155.675C157.974 156.092 158.01 156.521 158.028 156.949C158.028 157.554 158.064 158.085 158.089 158.617V158.695C158.089 159.215 158.125 159.716 158.137 160.205V160.32L158.173 161.413V161.571C158.173 161.921 158.173 162.277 158.203 162.634C158.203 162.682 158.203 162.736 158.203 162.791C158.203 163.159 158.203 163.528 158.203 163.908V164.029C158.203 164.416 158.203 164.82 158.203 165.237V165.394C158.203 165.479 158.203 165.569 158.203 165.654C158.203 165.739 158.203 165.932 158.203 166.071V166.3C158.203 166.445 158.203 166.59 158.203 166.735V167.46C158.203 167.563 158.203 167.665 158.203 167.774V168.149C158.203 168.269 158.203 168.402 158.203 168.529V169C158.203 169.103 158.203 169.206 158.203 169.308V170.184C158.203 170.335 158.203 170.486 158.203 170.643V171.997C158.203 172.184 158.203 172.377 158.203 172.601V177.506C158.203 178.327 158.203 179.197 158.203 180.109V180.9C158.203 181.341 158.203 181.788 158.203 182.247V182.882C158.203 183.546 158.203 184.223 158.203 184.935C158.203 185.539 158.203 186.144 158.203 186.675V187.122C158.203 187.551 158.203 187.98 158.203 188.391V188.886C158.203 189.218 158.203 189.55 158.203 189.865V191.248C158.203 191.544 158.203 191.852 158.203 192.124V192.673C158.203 192.867 158.203 193.06 158.203 193.277C158.203 193.573 158.203 193.882 158.203 194.135V194.582C158.203 194.806 158.203 195.029 158.203 195.247V195.821C158.203 196.032 158.203 196.231 158.203 196.425C158.203 196.618 158.203 196.745 158.203 196.896V197.584C158.203 197.711 158.203 197.838 158.203 197.959C158.203 198.08 158.203 198.261 158.203 198.412C158.203 198.811 158.203 199.197 158.203 199.572C158.203 199.662 158.203 199.759 158.203 199.844C158.203 199.928 158.203 200.134 158.203 200.272V200.738C158.203 200.858 158.203 200.979 158.203 201.1C158.203 201.221 158.203 201.414 158.203 201.565C158.203 201.716 158.203 201.795 158.203 201.909C158.203 202.024 158.203 202.218 158.203 202.369V202.677C158.203 202.822 158.203 202.967 158.203 203.112C158.203 203.257 158.203 203.317 158.203 203.42C158.203 203.522 158.203 203.685 158.203 203.818C158.2 203.877 158.2 203.935 158.203 203.993V204.066C158.203 204.489 158.203 204.9 158.203 205.274V205.389C158.203 205.812 158.203 206.216 158.167 206.597L158.131 207.805V207.872C158.131 208.252 158.131 208.633 158.089 209.019V209.086C158.089 209.593 158.046 210.107 158.022 210.644V210.729C158.022 211.266 157.974 211.828 157.95 212.42C157.95 212.855 157.907 213.278 157.883 213.695C157.853 214.172 157.823 214.631 157.787 215.084C157.784 215.126 157.784 215.169 157.787 215.211C157.787 215.313 157.787 215.41 157.756 215.513C157.756 215.809 157.708 216.117 157.678 216.389V216.6C157.678 216.685 157.678 216.763 157.678 216.842L157.587 217.615C157.587 217.7 157.587 217.796 157.557 217.887V218.044L157.448 218.811C157.448 218.902 157.448 218.998 157.412 219.083C157.415 219.109 157.415 219.135 157.412 219.161C157.358 219.518 157.303 219.874 157.243 220.212H157.315C157.315 220.212 157.315 220.243 157.315 220.261C157.255 220.587 157.195 220.907 157.134 221.221V221.3C157.134 221.378 157.104 221.451 157.086 221.529L156.941 222.206L156.905 222.357C156.905 222.417 156.874 222.478 156.862 222.538C156.808 222.768 156.748 222.991 156.693 223.215C156.674 223.278 156.657 223.343 156.645 223.408L156.615 223.498C156.53 223.819 156.44 224.133 156.349 224.435V224.465C156.351 224.495 156.351 224.525 156.349 224.556C156.258 224.858 156.156 225.16 156.059 225.444C156.042 225.485 156.028 225.527 156.017 225.57C156.014 225.599 156.014 225.627 156.017 225.655C155.884 226.017 155.751 226.368 155.612 226.712C155.612 226.712 155.612 226.766 155.582 226.791C155.533 226.917 155.479 227.044 155.425 227.171C155.28 227.509 155.135 227.842 154.978 228.168L154.917 228.289C154.76 228.609 154.597 228.893 154.428 229.219C154.374 229.322 154.325 229.436 154.265 229.539L154.229 229.587C154.18 229.678 154.126 229.763 154.072 229.847C153.915 230.113 153.751 230.373 153.582 230.62C153.504 230.741 153.419 230.856 153.335 230.971C153.25 231.085 153.159 231.23 153.063 231.357L152.918 231.526C152.725 231.774 152.513 232.016 152.314 232.251C152.211 232.372 152.108 232.493 152 232.602C151.704 232.91 151.396 233.206 151.075 233.484L150.979 233.574L150.852 233.677C150.58 233.9 150.302 234.118 150.012 234.323C149.898 234.408 149.777 234.48 149.656 234.559C149.535 234.637 149.336 234.782 149.167 234.891L148.786 235.121L127.469 247.51C127.771 247.329 128.073 247.141 128.339 246.948C128.46 246.869 128.58 246.797 128.695 246.712C128.985 246.507 129.263 246.29 129.535 246.066L129.662 245.963C129.698 245.963 129.728 245.897 129.77 245.867C130.091 245.583 130.374 245.293 130.695 244.985C130.803 244.87 130.906 244.749 131.009 244.634C131.218 244.401 131.419 244.159 131.613 243.91C131.758 243.728 131.897 243.541 132.03 243.354C132.162 243.167 132.199 243.124 132.277 243.003C132.446 242.756 132.609 242.496 132.767 242.23C132.821 242.146 132.875 242.061 132.924 241.971C132.972 241.88 133.056 241.723 133.123 241.602C133.292 241.3 133.455 240.998 133.612 240.672C133.769 240.346 133.957 239.941 134.12 239.554C134.186 239.403 134.246 239.246 134.307 239.095C134.446 238.751 134.579 238.401 134.706 238.038C134.706 237.966 134.76 237.893 134.784 237.827C134.881 237.537 134.983 237.223 135.074 236.933L135.11 236.818C135.207 236.516 135.298 236.202 135.382 235.876L135.455 235.598C135.515 235.374 135.569 235.151 135.63 234.921L135.702 234.589C135.757 234.365 135.805 234.142 135.853 233.912C135.853 233.81 135.896 233.707 135.92 233.604C135.98 233.284 136.041 232.958 136.101 232.62C136.161 232.275 136.216 231.925 136.27 231.563C136.27 231.448 136.306 231.327 136.318 231.212L136.427 230.445C136.427 230.3 136.427 230.155 136.475 230.01C136.506 229.763 136.536 229.503 136.56 229.243C136.56 229.092 136.596 228.941 136.608 228.784C136.639 228.5 136.663 228.21 136.687 227.914L136.596 227.491C136.632 227.038 136.663 226.579 136.693 226.096C136.723 225.613 136.735 225.256 136.753 224.821C136.753 224.217 136.808 223.68 136.826 223.148V223.039C136.826 222.514 136.868 222.012 136.892 221.517V221.39C136.892 221.028 136.892 220.671 136.935 220.315C136.932 220.273 136.932 220.23 136.935 220.188L136.971 218.98C136.971 218.575 136.971 218.165 137.007 217.736V217.669C137.007 217.265 137.007 216.848 137.037 216.413C137.037 216.328 137.037 216.244 137.037 216.159C137.037 216.075 137.037 215.899 137.037 215.767C137.037 215.634 137.037 215.561 137.037 215.458C137.037 215.356 137.037 215.169 137.037 215.018V214.715C137.037 214.564 137.037 214.407 137.037 214.256C137.037 214.105 137.037 214.027 137.037 213.912C137.037 213.797 137.037 213.604 137.037 213.447V213.085C137.037 212.849 137.037 212.607 137.037 212.36V212.239C137.037 211.635 137.037 210.988 137.037 210.3V209.974C137.037 209.75 137.037 209.521 137.037 209.285C137.037 209.049 137.037 208.971 137.037 208.814C137.037 208.657 137.037 208.409 137.037 208.21V207.606C137.037 207.388 137.037 207.165 137.037 206.935V206.494C137.037 206.216 137.037 205.926 137.037 205.636V205.111C137.037 204.845 137.037 204.573 137.037 204.295V203.788C137.037 203.48 137.037 203.184 137.037 202.84V202.236C137.037 201.915 137.037 201.589 137.037 201.257V200.756C137.037 200.351 137.037 199.922 137.037 199.493V199.046C137.037 198.484 137.037 197.905 137.037 197.307C137.037 196.594 137.037 195.917 137.037 195.253V194.649C137.037 194.129 137.037 193.634 137.037 193.145V190.553C137.037 190.366 137.037 190.185 137.037 190.003V185.322C137.037 185.195 137.037 185.074 137.037 184.954V183.141C137.037 182.918 137.037 182.7 137.037 182.489V181.716C137.037 181.589 137.037 181.468 137.037 181.347V180.918C137.037 180.804 137.037 180.695 137.037 180.58V180.139C137.037 180.043 137.037 179.952 137.037 179.861C137.037 179.68 137.037 179.499 137.037 179.318V179.167C137.037 178.992 137.037 178.828 137.037 178.659V178.454C137.037 178.315 137.037 178.176 137.037 178.037C137.037 177.898 137.037 177.862 137.037 177.777V177.62C137.037 177.216 137.037 176.823 137.037 176.412V176.243C137.037 175.875 137.037 175.512 137.037 175.156C137.034 175.103 137.034 175.051 137.037 174.999C137.037 174.642 137.037 174.286 137.007 173.936C137.01 173.881 137.01 173.827 137.007 173.772C137.007 173.422 137.007 173.066 137.007 172.703C137.01 172.657 137.01 172.611 137.007 172.564C137.007 172.087 137.007 171.604 136.959 171.103C136.959 171.036 136.959 170.97 136.959 170.903C136.959 170.396 136.922 169.87 136.898 169.315C136.898 168.433 136.826 167.581 136.771 166.753C136.774 166.709 136.774 166.665 136.771 166.62C136.723 165.817 136.657 165.038 136.59 164.277V164.083C136.518 163.316 136.439 162.567 136.349 161.842C136.349 161.842 136.349 161.782 136.349 161.752C136.258 161.009 136.155 160.278 136.047 159.571V159.462C135.938 158.786 135.823 158.127 135.702 157.481L135.666 157.288C135.545 156.684 135.418 156.037 135.285 155.427L135.249 155.264C135.11 154.66 134.965 154.026 134.808 153.416C134.811 153.382 134.811 153.347 134.808 153.313C134.651 152.673 134.482 152.038 134.301 151.41C134.12 150.764 133.932 150.13 133.739 149.495C133.736 149.471 133.736 149.447 133.739 149.423C133.54 148.819 133.334 148.16 133.135 147.532C133.138 147.5 133.138 147.468 133.135 147.436C132.93 146.836 132.712 146.231 132.483 145.623L132.41 145.442C132.193 144.87 131.963 144.296 131.721 143.721C131.721 143.642 131.655 143.564 131.625 143.491C131.389 142.923 131.136 142.355 130.876 141.782C130.827 141.685 130.785 141.588 130.737 141.486C130.465 140.882 130.181 140.277 129.879 139.673C129.879 139.619 129.825 139.565 129.795 139.51C129.529 138.985 129.251 138.447 128.967 137.916C128.834 137.662 128.695 137.408 128.556 137.155C128.26 136.623 127.952 136.091 127.656 135.548C127.36 135.004 126.949 134.34 126.599 133.772C126.436 133.5 126.267 133.24 126.104 132.98C125.874 132.618 125.651 132.262 125.421 131.911L124.914 131.144C124.684 130.806 124.461 130.474 124.231 130.147C124.002 129.821 123.887 129.652 123.712 129.41C123.537 129.169 123.247 128.776 123.017 128.468L122.491 127.767L121.767 126.849C121.597 126.632 121.422 126.414 121.247 126.203C120.993 125.889 120.734 125.599 120.474 125.279C120.305 125.079 120.142 124.88 119.973 124.675C119.683 124.336 119.369 124.01 119.091 123.684L118.662 123.207C118.221 122.73 117.768 122.252 117.309 121.781C113.002 117.459 108.18 113.683 102.95 110.54C96.7043 106.607 94.7109 105.387 78.7879 96.1994C62.865 87.0117 60.8958 85.9304 54.6256 82.6625C48.3555 79.3945 44.1271 78.0717 40.3941 77.5824C36.5402 77.081 33.2722 77.4978 30.0043 79.3523L29.8835 79.4247L51.255 67.0355Z" fill="url(#paint5_linear)"/>
<path d="M40.4479 105.472C40.4479 109.924 43.5648 115.354 47.4549 117.595C51.3451 119.836 54.4862 118.036 54.4983 113.584C54.5103 109.132 51.3753 103.69 47.4972 101.449C43.6192 99.2078 40.46 101.008 40.4479 105.472ZM48.5845 146.125C48.5302 165.213 61.9463 188.451 78.5518 198.044C95.1574 207.636 108.67 199.94 108.724 180.846C108.779 161.752 95.3567 138.52 78.7512 128.933C62.1456 119.347 48.5845 127.043 48.5845 146.125ZM59.1314 152.214C59.1676 139.831 67.9385 134.835 78.7149 141.057C89.4913 147.279 98.1897 162.374 98.1535 174.757C98.1172 187.14 89.3463 192.142 78.5639 185.92C67.7815 179.698 59.077 164.603 59.1072 152.214H59.1314ZM20.369 157.65C20.5079 163.701 21.3986 169.711 23.0208 175.543C24.5616 181.086 26.8197 186.404 29.7379 191.363C32.5807 196.372 36.0587 200.993 40.0854 205.111C44.34 209.46 49.1137 213.268 54.2989 216.449C60.5388 220.382 62.5322 221.602 78.4612 230.784C94.3902 239.965 96.3594 241.053 102.624 244.327C108.888 247.601 113.116 248.923 116.843 249.407C120.697 249.902 123.977 249.491 127.233 247.631C130.489 245.77 132.482 243.161 133.986 239.573C135.448 236.129 136.451 231.804 136.753 224.809C137.055 217.814 137.133 215.549 137.188 197.276C137.242 179.004 137.188 176.666 136.91 169.327C136.764 163.271 135.865 157.256 134.234 151.423C131.049 140.31 125.19 130.148 117.169 121.824C112.908 117.495 108.133 113.706 102.95 110.54C96.7037 106.607 94.7104 105.387 78.7874 96.1996C62.8644 87.0119 60.8952 85.9306 54.6251 82.6627C48.355 79.3947 44.1266 78.0718 40.3935 77.5825C36.5396 77.0812 33.2717 77.498 30.0037 79.3524C26.7358 81.2069 24.7243 83.8164 23.2141 87.3803C21.7523 90.8174 20.7496 95.1425 20.4475 102.144C20.1455 109.145 20.067 111.404 20.0126 129.682C19.9583 147.961 20.0791 150.287 20.3449 157.626L20.369 157.65ZM30.638 135.802C30.6863 117.825 30.7528 115.735 31.0488 108.794C31.3327 102.397 32.2931 99.3769 33.1086 97.4741C34.1778 94.9492 35.4523 93.439 37.5061 92.2611C39.5599 91.0832 41.5171 90.7631 44.2534 91.1195C46.3193 91.3853 49.4242 92.0799 55.1265 95.0821C61.306 98.3198 63.1544 99.3105 78.7874 108.371C94.4204 117.432 96.2749 118.489 102.448 122.385C106.415 124.786 110.068 127.672 113.321 130.975C115.944 133.641 118.201 136.643 120.032 139.903C121.94 143.115 123.407 146.569 124.394 150.172C125.62 154.62 126.285 159.204 126.375 163.818C126.635 171.066 126.689 173.241 126.635 191.218C126.58 209.195 126.52 211.272 126.218 218.201C125.934 224.61 124.98 227.63 124.17 229.539C123.095 232.064 121.82 233.574 119.761 234.74C117.701 235.906 115.756 236.25 113.013 235.888C110.953 235.622 107.849 234.927 102.14 231.925C95.9668 228.687 94.1184 227.697 78.4793 218.636C62.8403 209.575 60.9617 208.476 54.8124 204.586C50.8431 202.186 47.1903 199.298 43.9393 195.99C38.7413 190.601 34.9437 184.02 32.879 176.823C31.6501 172.367 30.9845 167.775 30.8977 163.153C30.6259 155.899 30.5715 153.736 30.6259 135.777L30.638 135.802Z" fill="white"/>
</g>
<defs>
<linearGradient id="paint0_linear" x1="31.4141" y1="293.543" x2="257.343" y2="187.657" gradientUnits="userSpaceOnUse">
<stop stop-color="#FFDD55"/>
<stop offset="0.5" stop-color="#FF543E"/>
<stop offset="1" stop-color="#C837AB"/>
</linearGradient>
<linearGradient id="paint1_linear" x1="85.9159" y1="79.8477" x2="109.06" y2="230.3" gradientUnits="userSpaceOnUse">
<stop stop-color="#CAD1D6"/>
<stop offset="1" stop-color="#EAEAEB" stop-opacity="0"/>
</linearGradient>
<linearGradient id="paint2_linear" x1="50.9816" y1="106.548" x2="68.8519" y2="113.25" gradientUnits="userSpaceOnUse">
<stop stop-color="#EAEAEA"/>
<stop offset="1" stop-color="#EAEAEA" stop-opacity="0"/>
</linearGradient>
<linearGradient id="paint3_linear" x1="79.6221" y1="135.387" x2="79.6221" y2="188.589" gradientUnits="userSpaceOnUse">
<stop stop-color="#EAEAEA"/>
<stop offset="1" stop-color="#EAEAEA" stop-opacity="0"/>
</linearGradient>
<linearGradient id="paint4_linear" x1="93.6244" y1="112.418" x2="93.6244" y2="200.139" gradientUnits="userSpaceOnUse">
<stop stop-color="#EAEAEA"/>
<stop offset="1" stop-color="#EAEAEA" stop-opacity="0"/>
</linearGradient>
<linearGradient id="paint5_linear" x1="94.0434" y1="65" x2="94.0434" y2="247.51" gradientUnits="userSpaceOnUse">
<stop stop-color="#EAEBEB"/>
<stop offset="1" stop-color="#B9C0C6" stop-opacity="0"/>
</linearGradient>
</defs>
</svg>