<svg width="29" height="29" viewBox="0 0 29 29" fill="none" xmlns="http://www.w3.org/2000/svg">
<circle cx="14.5" cy="14.5" r="14.5" fill="#3FA4E6"/>
<path d="M13.9178 20.8615C13.9828 20.9558 14.0697 21.033 14.1711 21.0863C14.2726 21.1396 14.3854 21.1675 14.5 21.1675C14.6146 21.1675 14.7275 21.1396 14.8289 21.0863C14.9303 21.033 15.0173 20.9558 15.0823 20.8615L21.4573 11.6531C21.5311 11.5469 21.5743 11.4225 21.5824 11.2934C21.5905 11.1644 21.563 11.0355 21.503 10.921C21.4429 10.8064 21.3527 10.7105 21.242 10.6436C21.1313 10.5768 21.0044 10.5415 20.875 10.5417H8.12503C7.996 10.5423 7.86956 10.578 7.75931 10.645C7.64905 10.712 7.55915 10.8078 7.49927 10.9221C7.43939 11.0364 7.4118 11.1649 7.41947 11.2937C7.42713 11.4225 7.46977 11.5467 7.54278 11.6531L13.9178 20.8615Z" fill="white"/>
</svg>