<svg width="24" height="36" viewBox="0 0 24 36" fill="none" xmlns="http://www.w3.org/2000/svg">
<path d="M22.4286 9.65647C22.4286 9.65647 22.2303 2.5756 22.2214 2.49037C22.2075 2.35903 22.1733 2.22923 22.1185 2.10489C21.9789 1.78826 21.7243 1.54495 21.4017 1.41975L19.3036 0.605897C18.9808 0.480706 18.6288 0.488699 18.3122 0.628261C17.9956 0.7679 17.7523 1.02251 17.6271 1.34521L16.1874 5.05606C15.9677 5.00326 15.7453 4.95792 15.5204 4.91995V3.52057C15.5204 1.5793 13.9411 0 11.9998 0C10.0585 0 8.47916 1.5793 8.47916 3.52057V4.92003C8.2536 4.95807 8.03058 5.00357 7.8104 5.05652L6.37059 1.34521C6.2454 1.02251 6.00208 0.7679 5.68546 0.628261C5.3689 0.488622 5.01685 0.480629 4.69407 0.605897L2.59603 1.41975C2.27341 1.54495 2.0188 1.78818 1.87916 2.10489C1.82628 2.22477 1.79262 2.34973 1.77779 2.47631C1.76734 2.56553 1.56937 9.65908 1.56937 9.65908C0.677507 11.1527 0.164062 12.8972 0.164062 14.7596V33.8163C0.164062 35.0203 1.14361 35.9999 2.34772 35.9999H21.6518C22.8559 35.9999 23.8355 35.0203 23.8355 33.8163V14.7597C23.8355 12.8961 23.3215 11.1506 22.4286 9.65647ZM21.2271 8.03959C20.9977 7.78821 20.7554 7.54889 20.5017 7.32202L21.1556 5.63644L21.2271 8.03959ZM18.7018 1.7622C18.7303 1.68873 18.8134 1.65223 18.8866 1.68067L20.9847 2.49452C21.0303 2.5122 21.0529 2.5454 21.0637 2.56999C21.0747 2.59466 21.0839 2.6337 21.0661 2.67935L19.5558 6.57311C18.8609 6.08787 18.102 5.68832 17.294 5.39082L18.7018 1.7622ZM11.9999 1.15277C13.1772 1.15277 14.1563 2.01666 14.3373 3.14384C13.7102 2.58628 12.8871 2.24937 11.9998 2.24937C11.1298 2.24937 10.3085 2.5633 9.6636 3.13685C9.8475 2.01312 10.8249 1.15277 11.9999 1.15277ZM14.1524 4.78523C14.054 4.78239 9.94549 4.78239 9.84704 4.78523C9.96301 4.53185 10.1229 4.29861 10.3255 4.09549C10.7727 3.64837 11.3673 3.40214 11.9997 3.40214C12.9408 3.40214 13.7746 3.96454 14.1524 4.78523ZM2.93394 2.56999C2.94486 2.54532 2.96745 2.5122 3.01302 2.49452L5.11107 1.68067C5.18446 1.65215 5.26746 1.68881 5.2959 1.7622L6.70389 5.39152C5.89588 5.68908 5.13704 6.08879 4.44223 6.57418L2.93148 2.67935C2.91381 2.6337 2.92303 2.59474 2.93394 2.56999ZM2.84218 5.6366L3.49642 7.32325C3.24266 7.55035 3.00027 7.78982 2.77079 8.04136L2.84218 5.6366ZM22.6827 33.8163C22.6827 34.3847 22.2202 34.8472 21.6518 34.8472H2.3478C1.7794 34.8472 1.31691 34.3847 1.31691 33.8163V14.7597C1.31691 9.89278 5.27637 5.93332 10.1434 5.93332H13.8564C18.7232 5.93332 22.6828 9.89278 22.6828 14.7597V33.8163H22.6827Z" fill="#3990C8"/>
<path d="M4.17913 19.4995C3.24869 19.4995 2.4917 20.2565 2.4917 21.1869V32.0483C2.4917 32.9787 3.24869 33.7357 4.17913 33.7357H19.8209C20.7514 33.7357 21.5084 32.9787 21.5084 32.0483V21.1869C21.5084 20.2565 20.7514 19.4995 19.8209 19.4995H4.17913ZM19.8209 32.5829H4.17913C3.88432 32.5829 3.64447 32.3431 3.64447 32.0483V24.8037H18.1541V26.1144H19.3069V24.8037H20.3556V32.0483C20.3556 32.3431 20.1157 32.5829 19.8209 32.5829ZM20.3556 21.1869V23.651H3.64447V21.1869C3.64447 20.8921 3.88432 20.6523 4.17913 20.6523H19.8209C20.1157 20.6523 20.3556 20.8921 20.3556 21.1869Z" fill="#3990C8"/>
<path d="M15.6584 8.30273H8.34131V11.5941H15.6584V8.30273ZM14.5056 10.4414H9.49408V9.45551H14.5056V10.4414Z" fill="#3990C8"/>
</svg>