<svg width="26" height="15" viewBox="0 0 26 15" fill="none" xmlns="http://www.w3.org/2000/svg">
<path d="M25.6186 7.19572C25.4161 6.90106 20.5497 0 12.8569 0C6.25578 0 0.373648 6.86144 0.126148 7.15394C-0.0420493 7.35322 -0.0420493 7.64572 0.126148 7.84606C0.373648 8.13856 6.25578 15 12.8569 15C19.4579 15 25.34 8.13856 25.5875 7.84606C25.7429 7.66179 25.7568 7.39501 25.6186 7.19572ZM12.8569 13.9286C7.5651 13.9286 2.53365 8.88217 1.25547 7.50003C2.53154 6.11683 7.55762 1.07146 12.8569 1.07146C19.0486 1.07146 23.419 6.1104 24.4861 7.4711C23.254 8.80929 18.1936 13.9286 12.8569 13.9286Z" fill="#828282"/>
<path d="M12.8566 3.21387C10.4931 3.21387 8.57094 5.13601 8.57094 7.49956C8.57094 9.86311 10.4931 11.7853 12.8566 11.7853C15.2202 11.7853 17.1423 9.86311 17.1423 7.49956C17.1423 5.13601 15.2202 3.21387 12.8566 3.21387ZM12.8566 10.7139C11.0845 10.7139 9.64235 9.27173 9.64235 7.49961C9.64235 5.72749 11.0845 4.28533 12.8566 4.28533C14.6288 4.28533 16.0709 5.72749 16.0709 7.49961C16.0709 9.27173 14.6288 10.7139 12.8566 10.7139Z" fill="#828282"/>
</svg>