<svg xmlns="http://www.w3.org/2000/svg" xmlns:xlink="http://www.w3.org/1999/xlink"><defs>
<clipPath id="clip0">
<rect x="0.0678711" y="0.2771" width="36.1286" height="39.0361" fill="currentColor"/>
</clipPath>

<clipPath id="clip0">
<rect width="62" height="62" fill="#ffffff"/>
</clipPath>

<clipPath id="clip0">
<rect width="29" height="29" fill="white"/>
</clipPath>

<clipPath id="clip0">
<rect width="36" height="36" fill="currentColor"/>
</clipPath>
</defs><symbol id="arrow-right" viewBox="0 0 15 31">
<path d="M0.207648 30.6791C0.377718 30.8628 0.656796 30.8628 0.826085 30.6791L14.7905 15.6202C14.9608 15.4373 14.9608 15.1374 14.7905 14.9531L1.22276 0.321508C1.13655 0.227531 1.02505 0.183237 0.91354 0.183237C0.802503 0.183237 0.688966 0.229383 0.603072 0.321508C0.432377 0.504076 0.432377 0.804369 0.603072 0.988956L13.8627 15.2864L0.207648 30.012C0.0383596 30.1971 0.0383596 30.496 0.207648 30.6791Z" fill="currentColor"/>
</symbol><symbol id="arrow-up" viewBox="0 0 24 28">
<path d="M12.5763 0.70874C12.549 0.692041 12.5204 0.67666 12.4914 0.663037C12.4558 0.635791 12.4185 0.611621 12.3789 0.590088C12.3539 0.579102 12.3284 0.569434 12.3025 0.561084C12.2598 0.547461 12.2163 0.536914 12.172 0.529883C12.1285 0.518897 12.0845 0.511865 12.0397 0.50791C12.0252 0.50791 12.0146 0.5 12.0001 0.5C11.9856 0.5 11.9742 0.507031 11.9597 0.50791C11.9162 0.511865 11.8731 0.518897 11.8309 0.529004C11.7852 0.536035 11.7404 0.547021 11.6969 0.561084C11.6705 0.571191 11.6455 0.578223 11.6204 0.590088C11.5818 0.611621 11.5449 0.635791 11.5097 0.662158C11.4825 0.681055 11.4504 0.687207 11.424 0.70874L0.624009 9.70874C0.368247 9.91177 0.242564 10.2378 0.295298 10.56C0.348472 10.8825 0.572154 11.1506 0.879771 11.2609C1.18695 11.3712 1.53016 11.3062 1.77626 11.0913L11.1001 3.32129V26.6C11.1001 27.097 11.5031 27.5 12.0001 27.5C12.4972 27.5 12.9001 27.097 12.9001 26.6V3.32129L22.224 11.0913C22.4701 11.3062 22.8133 11.3712 23.1205 11.2609C23.4281 11.1506 23.6518 10.8825 23.705 10.56C23.7577 10.2378 23.632 9.91177 23.3763 9.70874L12.5763 0.70874Z" fill="currentColor"/>
</symbol><symbol id="backpack" viewBox="0 0 36 36">
<path d="M28.4287 9.65647C28.4287 9.65647 28.2305 2.5756 28.2215 2.49037C28.2076 2.35903 28.1734 2.22923 28.1187 2.10489C27.979 1.78826 27.7244 1.54495 27.4018 1.41975L25.3037 0.605897C24.981 0.480706 24.6289 0.488699 24.3124 0.628261C23.9957 0.7679 23.7524 1.02251 23.6272 1.34521L22.1875 5.05606C21.9678 5.00326 21.7454 4.95792 21.5205 4.91995V3.52057C21.5205 1.5793 19.9412 0 17.9999 0C16.0587 0 14.4793 1.5793 14.4793 3.52057V4.92003C14.2537 4.95807 14.0307 5.00357 13.8105 5.05652L12.3707 1.34521C12.2455 1.02251 12.0022 0.7679 11.6856 0.628261C11.369 0.488622 11.017 0.480629 10.6942 0.605897L8.59615 1.41975C8.27353 1.54495 8.01892 1.78818 7.87928 2.10489C7.82641 2.22477 7.79274 2.34973 7.77791 2.47631C7.76746 2.56553 7.56949 9.65908 7.56949 9.65908C6.67763 11.1527 6.16418 12.8972 6.16418 14.7596V33.8163C6.16418 35.0203 7.14373 35.9999 8.34784 35.9999H27.6519C28.856 35.9999 29.8356 35.0203 29.8356 33.8163V14.7597C29.8356 12.8961 29.3216 11.1506 28.4287 9.65647ZM27.2273 8.03959C26.9978 7.78821 26.7555 7.54889 26.5019 7.32202L27.1557 5.63644L27.2273 8.03959ZM24.7019 1.7622C24.7304 1.68873 24.8135 1.65223 24.8867 1.68067L26.9848 2.49452C27.0304 2.5122 27.053 2.5454 27.0639 2.56999C27.0748 2.59466 27.084 2.6337 27.0662 2.67935L25.556 6.57311C24.8611 6.08787 24.1022 5.68832 23.2941 5.39082L24.7019 1.7622ZM18 1.15277C19.1774 1.15277 20.1565 2.01666 20.3374 3.14384C19.7103 2.58628 18.8873 2.24937 17.9999 2.24937C17.13 2.24937 16.3087 2.5633 15.6637 3.13685C15.8476 2.01312 16.825 1.15277 18 1.15277ZM20.1525 4.78523C20.0542 4.78239 15.9456 4.78239 15.8472 4.78523C15.9631 4.53185 16.123 4.29861 16.3256 4.09549C16.7728 3.64837 17.3674 3.40214 17.9998 3.40214C18.9409 3.40214 19.7747 3.96454 20.1525 4.78523ZM8.93407 2.56999C8.94498 2.54532 8.96757 2.5122 9.01315 2.49452L11.1112 1.68067C11.1846 1.65215 11.2676 1.68881 11.296 1.7622L12.704 5.39152C11.896 5.68908 11.1372 6.08879 10.4424 6.57418L8.93161 2.67935C8.91393 2.6337 8.92315 2.59474 8.93407 2.56999ZM8.8423 5.6366L9.49654 7.32325C9.24278 7.55035 9.00039 7.78982 8.77091 8.04136L8.8423 5.6366ZM28.6828 33.8163C28.6828 34.3847 28.2203 34.8472 27.6519 34.8472H8.34792C7.77953 34.8472 7.31703 34.3847 7.31703 33.8163V14.7597C7.31703 9.89278 11.2765 5.93332 16.1435 5.93332H19.8565C24.7234 5.93332 28.6829 9.89278 28.6829 14.7597V33.8163H28.6828Z" fill="currentColor"/>
<path d="M10.1792 19.4994C9.24881 19.4994 8.49182 20.2564 8.49182 21.1868V32.0482C8.49182 32.9786 9.24881 33.7356 10.1792 33.7356H25.8211C26.7515 33.7356 27.5085 32.9786 27.5085 32.0482V21.1868C27.5085 20.2564 26.7515 19.4994 25.8211 19.4994H10.1792ZM25.8211 32.5828H10.1792C9.88445 32.5828 9.64459 32.343 9.64459 32.0482V24.8036H24.1542V26.1143H25.307V24.8036H26.3557V32.0482C26.3557 32.343 26.1159 32.5828 25.8211 32.5828ZM26.3557 21.1868V23.6508H9.64459V21.1868C9.64459 20.892 9.88445 20.6522 10.1792 20.6522H25.8211C26.1159 20.6522 26.3557 20.892 26.3557 21.1868Z" fill="currentColor"/>
<path d="M21.6587 8.30292H14.3416V11.5943H21.6587V8.30292ZM20.5059 10.4415H15.4943V9.45569H20.5059V10.4415Z" fill="currentColor"/>
</symbol><symbol id="case" viewBox="0 0 62 62">
<path d="M3.86163 53.4125C3.32614 53.4125 2.89282 52.9792 2.89282 52.4437V32.084C2.89282 31.5481 3.32614 31.1152 3.86163 31.1152C4.3976 31.1152 4.83044 31.5481 4.83044 32.084V52.4437C4.83044 52.9782 4.3976 53.4125 3.86163 53.4125Z" fill="white"/>
<path d="M41.6393 56.3026H6.76788C6.23239 56.3026 5.79907 55.8693 5.79907 55.3338C5.79907 54.7978 6.23239 54.365 6.76788 54.365H41.6393C42.1753 54.365 42.6081 54.7978 42.6081 55.3338C42.6081 55.8693 42.1753 56.3026 41.6393 56.3026Z" fill="white"/>
<path d="M33.9008 7.86779H19.3687C18.8327 7.86779 18.3999 7.43495 18.3999 6.89898C18.3999 6.36349 18.8327 5.93018 19.3687 5.93018H33.9008C34.4363 5.93018 34.8696 6.36349 34.8696 6.89898C34.8696 7.43495 34.4363 7.86779 33.9008 7.86779Z" fill="white"/>
<path d="M18.3997 8.8366C17.8637 8.8366 17.4309 8.40376 17.4309 7.86779C17.4309 6.79917 18.2999 5.93018 19.3685 5.93018C19.904 5.93018 20.3373 6.36349 20.3373 6.89898C20.3373 7.43495 19.904 7.86779 19.3685 7.86779C19.3685 8.40376 18.9352 8.8366 18.3997 8.8366Z" fill="white"/>
<path d="M34.8695 8.8366C34.3335 8.8366 33.9007 8.40376 33.9007 7.86779V7.8659C33.3647 7.8659 32.9319 7.434 32.9319 6.89804C32.9319 6.36349 33.3647 5.93018 33.9007 5.93018C34.9693 5.93018 35.8383 6.79917 35.8383 7.86779C35.8383 8.40376 35.405 8.8366 34.8695 8.8366Z" fill="white"/>
<path d="M34.8694 11.743C34.3335 11.743 33.9006 11.3101 33.9006 10.7742V7.86773C33.9006 7.33224 34.3335 6.89893 34.8694 6.89893C35.4049 6.89893 35.8382 7.33224 35.8382 7.86773V10.7742C35.8382 11.3101 35.4049 11.743 34.8694 11.743Z" fill="white"/>
<path d="M18.3997 11.743C17.8638 11.743 17.4309 11.3101 17.4309 10.7742V7.86773C17.4309 7.33224 17.8638 6.89893 18.3997 6.89893C18.9352 6.89893 19.3685 7.33224 19.3685 7.86773V10.7742C19.3685 11.3101 18.9352 11.743 18.3997 11.743Z" fill="white"/>
<path d="M34.8695 11.743H18.3997C17.8637 11.743 17.4309 11.3102 17.4309 10.7742C17.4309 10.2387 17.8637 9.80542 18.3997 9.80542H34.8695C35.405 9.80542 35.8383 10.2387 35.8383 10.7742C35.8383 11.3102 35.405 11.743 34.8695 11.743Z" fill="white"/>
<path d="M34.8694 15.6183C34.3335 15.6183 33.9006 15.1854 33.9006 14.6495V10.7742C33.9006 10.2387 34.3335 9.80542 34.8694 9.80542C35.4049 9.80542 35.8382 10.2387 35.8382 10.7742V14.6495C35.8382 15.1854 35.4049 15.6183 34.8694 15.6183Z" fill="white"/>
<path d="M30.9942 15.6183C30.4582 15.6183 30.0254 15.1854 30.0254 14.6495V10.7742C30.0254 10.2387 30.4582 9.80542 30.9942 9.80542C31.5297 9.80542 31.963 10.2387 31.963 10.7742V14.6495C31.963 15.1854 31.5297 15.6183 30.9942 15.6183Z" fill="white"/>
<path d="M22.275 15.6183C21.739 15.6183 21.3062 15.1854 21.3062 14.6495V10.7742C21.3062 10.2387 21.739 9.80542 22.275 9.80542C22.8104 9.80542 23.2438 10.2387 23.2438 10.7742V14.6495C23.2438 15.1854 22.8104 15.6183 22.275 15.6183Z" fill="white"/>
<path d="M18.3997 15.6183C17.8638 15.6183 17.4309 15.1854 17.4309 14.6495V10.7742C17.4309 10.2387 17.8638 9.80542 18.3997 9.80542C18.9352 9.80542 19.3685 10.2387 19.3685 10.7742V14.6495C19.3685 15.1854 18.9352 15.6183 18.3997 15.6183Z" fill="white"/>
<path d="M45.5183 12.7118H38.7366C38.2011 12.7118 37.7678 12.2789 37.7678 11.743C37.7678 11.2075 38.2011 10.7742 38.7366 10.7742H45.5183C46.0543 10.7742 46.4871 11.2075 46.4871 11.743C46.4871 12.2789 46.0543 12.7118 45.5183 12.7118Z" fill="white"/>
<path d="M38.7366 15.6182C38.2011 15.6182 37.7678 15.1854 37.7678 14.6494V11.743C37.7678 11.2075 38.2011 10.7742 38.7366 10.7742C39.2726 10.7742 39.7054 11.2075 39.7054 11.743V14.6494C39.7054 15.1854 39.2726 15.6182 38.7366 15.6182Z" fill="white"/>
<path d="M14.5322 12.7118H7.75055C7.21458 12.7118 6.78174 12.2789 6.78174 11.743C6.78174 11.2075 7.21458 10.7742 7.75055 10.7742H14.5322C15.0682 10.7742 15.501 11.2075 15.501 11.743C15.501 12.2789 15.0682 12.7118 14.5322 12.7118Z" fill="white"/>
<path d="M7.75055 15.6182C7.21458 15.6182 6.78174 15.1854 6.78174 14.6494V11.743C6.78174 11.2075 7.21458 10.7742 7.75055 10.7742C8.28651 10.7742 8.71936 11.2075 8.71936 11.743V14.6494C8.71936 15.1854 8.28651 15.6182 7.75055 15.6182Z" fill="white"/>
<path d="M14.5396 15.6182C14.0041 15.6182 13.5708 15.1854 13.5708 14.6494V11.743C13.5708 11.2075 14.0041 10.7742 14.5396 10.7742C15.0756 10.7742 15.5084 11.2075 15.5084 11.743V14.6494C15.5084 15.1854 15.0756 15.6182 14.5396 15.6182Z" fill="white"/>
<path d="M30.0256 38.8668H23.244C22.708 38.8668 22.2751 38.4335 22.2751 37.898V26.2723C22.2751 25.7363 22.708 25.3035 23.244 25.3035H30.0256C30.5611 25.3035 30.9944 25.7363 30.9944 26.2723V37.898C30.9944 38.4335 30.5611 38.8668 30.0256 38.8668ZM24.2128 36.9292H29.0568V27.2411H24.2128V36.9292Z" fill="white"/>
<path d="M26.6346 34.9916C26.0986 34.9916 25.6658 34.5583 25.6658 34.0228V30.1475C25.6658 29.6116 26.0986 29.1787 26.6346 29.1787C27.1701 29.1787 27.6034 29.6116 27.6034 30.1475V34.0228C27.6034 34.5583 27.1701 34.9916 26.6346 34.9916Z" fill="white"/>
<path d="M52.3001 33.054C51.7646 33.054 51.3313 32.6206 51.3313 32.0851V19.4935C51.3313 18.958 51.7646 18.5247 52.3001 18.5247C52.8361 18.5247 53.2689 18.958 53.2689 19.4935V32.0851C53.2689 32.6206 52.8361 33.054 52.3001 33.054Z" fill="white"/>
<path d="M52.3001 33.0541H30.0052C29.4692 33.0541 29.0364 32.6208 29.0364 32.0853C29.0364 31.5493 29.4692 31.1165 30.0052 31.1165H52.301C52.837 31.1165 53.2698 31.5493 53.2698 32.0853C53.2698 32.6208 52.8361 33.0541 52.3001 33.0541Z" fill="white"/>
<path d="M45.5184 15.6182C44.9829 15.6182 44.5496 15.1854 44.5496 14.6494V11.743C44.5496 11.2075 44.9829 10.7742 45.5184 10.7742C46.0543 10.7742 46.4872 11.2075 46.4872 11.743V14.6494C46.4872 15.1854 46.0543 15.6182 45.5184 15.6182Z" fill="white"/>
<path d="M52.2999 20.4623C51.7644 20.4623 51.3311 20.0295 51.3311 19.4935C51.3311 17.3563 49.5931 15.6183 47.4559 15.6183C46.9204 15.6183 46.4871 15.1854 46.4871 14.6495C46.4871 14.114 46.9204 13.6807 47.4559 13.6807C50.6617 13.6807 53.2687 16.2876 53.2687 19.4935C53.2687 20.0295 52.8359 20.4623 52.2999 20.4623Z" fill="white"/>
<path d="M0.968808 33.054C0.432842 33.054 0 32.6206 0 32.0851V19.4935C0 18.958 0.432842 18.5247 0.968808 18.5247C1.50478 18.5247 1.93762 18.958 1.93762 19.4935V32.0851C1.93762 32.6206 1.50478 33.054 0.968808 33.054Z" fill="white"/>
<path d="M23.2632 33.0541H0.968808C0.432842 33.0541 0 32.6208 0 32.0853C0 31.5493 0.432842 31.1165 0.968808 31.1165H23.2632C23.7987 31.1165 24.232 31.5493 24.232 32.0853C24.232 32.6208 23.7978 33.0541 23.2632 33.0541Z" fill="white"/>
<path d="M0.968808 20.4623C0.432842 20.4623 0 20.0295 0 19.4935C0 16.2876 2.60698 13.6807 5.81285 13.6807C6.34882 13.6807 6.78166 14.114 6.78166 14.6495C6.78166 15.1854 6.34882 15.6183 5.81285 15.6183C3.67561 15.6183 1.93762 17.3563 1.93762 19.4935C1.93762 20.0295 1.50478 20.4623 0.968808 20.4623Z" fill="white"/>
<path d="M6.76806 56.3025C4.63081 56.3025 2.89282 54.5645 2.89282 52.4273C2.89282 51.8913 3.32614 51.4585 3.86163 51.4585C4.3976 51.4585 4.83044 51.8913 4.83044 52.4273C4.83044 53.4959 5.69943 54.3649 6.76806 54.3649C7.30402 54.3649 7.73686 54.7978 7.73686 55.3337C7.73686 55.8692 7.30402 56.3025 6.76806 56.3025Z" fill="white"/>
<path d="M47.456 15.6183H5.8128C5.27684 15.6183 4.84399 15.1854 4.84399 14.6495C4.84399 14.114 5.27684 13.6807 5.8128 13.6807H47.456C47.9919 13.6807 48.4248 14.114 48.4248 14.6495C48.4248 15.1854 47.9919 15.6183 47.456 15.6183Z" fill="white"/>
<path d="M58.1247 38.8568H42.6275C42.0915 38.8568 41.6587 38.424 41.6587 37.888C41.6587 37.3525 42.0915 36.9192 42.6275 36.9192H58.1247C58.6601 36.9192 59.0935 37.3525 59.0935 37.888C59.0935 38.424 58.6601 38.8568 58.1247 38.8568Z" fill="white"/>
<path d="M50.376 56.2989C49.8401 56.2989 49.4072 55.8655 49.4072 55.33V34.9817C49.4072 34.4463 49.8401 34.0129 50.376 34.0129C50.9115 34.0129 51.3448 34.4463 51.3448 34.9817V55.33C51.3448 55.8655 50.9115 56.2989 50.376 56.2989Z" fill="white"/>
<path d="M56.1869 56.2987H44.565C44.029 56.2987 43.5962 55.8654 43.5962 55.3299C43.5962 54.7939 44.029 54.3611 44.565 54.3611H56.1869C56.7224 54.3611 57.1557 54.7939 57.1557 55.3299C57.1557 55.8654 56.7224 56.2987 56.1869 56.2987Z" fill="white"/>
<path d="M42.6274 51.4537C40.4902 51.4537 38.7522 49.7152 38.7522 47.5784C38.7522 47.0425 39.185 46.6096 39.721 46.6096C40.257 46.6096 40.6898 47.0425 40.6898 47.5784C40.6898 48.6466 41.5588 49.516 42.6274 49.516C43.696 49.516 44.565 48.6466 44.565 47.5784C44.565 47.0425 44.9979 46.6096 45.5338 46.6096C46.0698 46.6096 46.5027 47.0425 46.5027 47.5784C46.5027 49.7152 44.7647 51.4537 42.6274 51.4537Z" fill="white"/>
<path d="M45.5338 48.5472H39.721C39.185 48.5472 38.7522 48.1139 38.7522 47.5784C38.7522 47.0425 39.185 46.6096 39.721 46.6096H45.5338C46.0698 46.6096 46.5027 47.0425 46.5027 47.5784C46.5027 48.1139 46.0698 48.5472 45.5338 48.5472Z" fill="white"/>
<path d="M39.7212 48.5474C39.629 48.5474 39.5363 48.5337 39.4431 48.5067C38.9307 48.3525 38.6398 47.8128 38.7931 47.3005L41.6995 37.6105C41.8528 37.0977 42.3902 36.8082 42.9058 36.96C43.4181 37.1143 43.7091 37.654 43.5558 38.1663L40.6493 47.8563C40.5235 48.2768 40.1389 48.5474 39.7212 48.5474Z" fill="white"/>
<path d="M45.5339 48.5474C45.1162 48.5474 44.7316 48.2768 44.6058 47.8563L41.6993 38.1663C41.5461 37.654 41.837 37.1143 42.3493 36.96C42.8621 36.8082 43.4023 37.0977 43.5556 37.6105L46.462 47.3005C46.6153 47.8128 46.3244 48.3525 45.8121 48.5067C45.7189 48.5347 45.6261 48.5474 45.5339 48.5474Z" fill="white"/>
<path d="M58.1247 51.4537C55.9875 51.4537 54.2495 49.7152 54.2495 47.5784C54.2495 47.0425 54.6824 46.6096 55.2183 46.6096C55.7538 46.6096 56.1871 47.0425 56.1871 47.5784C56.1871 48.6466 57.0561 49.516 58.1247 49.516C59.1934 49.516 60.0624 48.6466 60.0624 47.5784C60.0624 47.0425 60.4952 46.6096 61.0312 46.6096C61.5667 46.6096 62 47.0425 62 47.5784C62 49.7152 60.262 51.4537 58.1247 51.4537Z" fill="white"/>
<path d="M61.0312 48.5472H55.2183C54.6824 48.5472 54.2495 48.1139 54.2495 47.5784C54.2495 47.0425 54.6824 46.6096 55.2183 46.6096H61.0312C61.5667 46.6096 62 47.0425 62 47.5784C62 48.1139 61.5667 48.5472 61.0312 48.5472Z" fill="white"/>
<path d="M55.2183 48.5474C55.126 48.5474 55.0333 48.5337 54.9401 48.5067C54.4278 48.3525 54.1369 47.8128 54.2902 47.3005L57.1966 37.6105C57.3494 37.0977 57.8891 36.8082 58.4029 36.96C58.9152 37.1143 59.2056 37.654 59.0528 38.1663L56.1464 47.8563C56.0206 48.2768 55.6355 48.5474 55.2183 48.5474Z" fill="white"/>
<path d="M61.0312 48.5474C60.6135 48.5474 60.2289 48.2768 60.1031 47.8563L57.1967 38.1663C57.0434 37.654 57.3343 37.1143 57.8466 36.96C58.3613 36.8082 58.8987 37.0977 59.0529 37.6105L61.9593 47.3005C62.1121 47.8128 61.8217 48.3525 61.3094 48.5067C61.2162 48.5347 61.123 48.5474 61.0312 48.5474Z" fill="white"/>
</symbol><symbol id="discount" viewBox="0 0 37 40">
<g clip-path="url(#clip0)">
<path d="M18.1322 0.2771C8.17145 0.2771 0.0678711 9.03284 0.0678711 19.7952C0.0678711 30.5575 8.17145 39.3132 18.1322 39.3132C28.0929 39.3132 36.1964 30.5575 36.1964 19.7952C36.1964 9.03284 28.0929 0.2771 18.1322 0.2771ZM18.1322 37.5728C9.05956 37.5728 1.6787 29.5979 1.6787 19.7952C1.6787 9.99243 9.05956 2.01756 18.1322 2.01756C27.2048 2.01756 34.5856 9.99243 34.5856 19.7952C34.5856 29.5979 27.2048 37.5728 18.1322 37.5728Z" fill="currentColor"/>
<path d="M17.0147 14.4368C17.0147 12.4468 15.5212 10.8331 13.6789 10.8331C11.837 10.8331 10.3435 12.4468 10.3435 14.4368C10.3435 16.4274 11.837 18.0411 13.6789 18.0411C15.5203 18.0387 17.0124 16.4264 17.0147 14.4368ZM11.9543 14.4368C11.9543 13.4078 12.7265 12.5735 13.6789 12.5735C14.6317 12.5735 15.4039 13.4078 15.4039 14.4368C15.4039 15.4664 14.6317 16.3007 13.6793 16.3007C12.7269 16.2997 11.9557 15.4659 11.9543 14.4368Z" fill="currentColor"/>
<path d="M22.3827 21.7677C20.5404 21.7682 19.0474 23.3814 19.0474 25.372C19.0474 27.3626 20.5409 28.9758 22.3827 28.9758C24.225 28.9758 25.7185 27.3626 25.7185 25.372C25.7163 23.3824 24.2241 21.7702 22.3827 21.7677ZM22.3827 27.2353C21.4303 27.2353 20.6582 26.401 20.6582 25.372C20.6582 24.3425 21.4303 23.5082 22.3827 23.5082C23.3356 23.5087 24.1077 24.343 24.1077 25.372C24.1064 26.4006 23.3351 27.2344 22.3827 27.2353Z" fill="currentColor"/>
<path d="M24.2646 9.63502C23.892 9.3723 23.3927 9.48593 23.15 9.88851L11.7645 28.751C11.6068 29.0118 11.5897 29.3435 11.7196 29.6212C11.8499 29.899 12.1075 30.0806 12.3951 30.0971C12.6828 30.1137 12.9569 29.9631 13.1138 29.7018L24.4992 10.8394C24.7424 10.4363 24.6372 9.89725 24.2646 9.63502Z" fill="currentColor"/>
</g>

</symbol><symbol id="document" viewBox="0 0 62 62">
<path d="M9.1094 24.4824H37.3906C38.0893 24.4824 38.661 23.9107 38.661 23.2119C38.661 22.5131 38.0893 21.9414 37.3906 21.9414H9.1094C8.41063 21.9414 7.83891 22.5131 7.83891 23.2119C7.83891 23.9107 8.41063 24.4824 9.1094 24.4824Z" fill="white"/>
<path d="M23.25 37.4414H9.1094C8.41063 37.4414 7.83891 38.0131 7.83891 38.7119C7.83891 39.4107 8.41063 39.9824 9.1094 39.9824H23.25C23.9487 39.9824 24.5205 39.4107 24.5205 38.7119C24.5205 38.0131 23.9487 37.4414 23.25 37.4414Z" fill="white"/>
<path d="M23.25 45.1914H9.1094C8.41063 45.1914 7.83891 45.7631 7.83891 46.4619C7.83891 47.1607 8.41063 47.7324 9.1094 47.7324H23.25C23.9487 47.7324 24.5205 47.1607 24.5205 46.4619C24.5205 45.7631 23.9487 45.1914 23.25 45.1914Z" fill="white"/>
<path d="M9.1094 32.2324H37.3906C38.0893 32.2324 38.661 31.6607 38.661 30.9619C38.661 30.2631 38.0893 29.6914 37.3906 29.6914H9.1094C8.41063 29.6914 7.83891 30.2631 7.83891 30.9619C7.83891 31.6607 8.41063 32.2324 9.1094 32.2324Z" fill="white"/>
<path d="M61.6316 28.1287L55.8254 22.3225C55.584 22.0811 55.2664 21.9541 54.9234 21.9541C54.5803 21.9541 54.2627 22.0939 54.0213 22.3225L50.375 25.9689V15.4619C50.375 15.4238 50.375 15.3857 50.375 15.3475C50.375 15.3348 50.375 15.3221 50.375 15.2967C50.375 15.2713 50.375 15.2459 50.3623 15.2332C50.3623 15.2205 50.3496 15.1951 50.3496 15.1824C50.3496 15.1697 50.3369 15.1443 50.3369 15.1316C50.3369 15.1062 50.3242 15.0934 50.3242 15.068C50.3242 15.0553 50.3115 15.0299 50.3115 15.0172C50.2988 14.9918 50.2988 14.9791 50.2861 14.9664C50.2734 14.9537 50.2734 14.9283 50.2607 14.9156C50.248 14.9029 50.2479 14.8775 50.2352 14.8648C50.2225 14.852 50.2098 14.8266 50.1971 14.8139C50.1844 14.8012 50.1844 14.7885 50.1717 14.7758C50.1463 14.7504 50.1336 14.7123 50.1082 14.6869L38.4959 0.457382C38.4705 0.419267 38.4324 0.393851 38.407 0.355736C38.3943 0.343031 38.3943 0.343037 38.3816 0.330333C38.3561 0.304923 38.3307 0.292218 38.3053 0.266808C38.2926 0.254103 38.2799 0.254101 38.2672 0.241397C38.2418 0.228692 38.2164 0.203279 38.191 0.190574C38.1783 0.177869 38.1656 0.177867 38.1529 0.165162C38.1275 0.152457 38.1021 0.139754 38.0766 0.127049C38.0639 0.114344 38.0512 0.114347 38.0385 0.114347C38.0131 0.101642 37.975 0.0889391 37.9496 0.0762342C37.9369 0.0762342 37.9242 0.0635246 37.9115 0.0635246C37.8861 0.0508197 37.8479 0.0508181 37.8225 0.0381132C37.8098 0.0381132 37.7971 0.0254114 37.7844 0.0254114C37.7463 0.0127065 37.7209 0.0127096 37.6828 0.0127096C37.6701 0.0127096 37.6574 0.0127096 37.6447 0.0127096C37.5938 0.0127096 37.5557 0 37.5049 0H1.27049C0.571721 0 0 0.571721 0 1.27049V60.7295C0 61.4283 0.571721 62 1.27049 62H49.1045C49.8033 62 50.375 61.4283 50.375 60.7295V41.1512L61.6189 29.9582C61.8602 29.6914 62 29.3611 62 29.0307C62 28.6877 61.8602 28.3701 61.6316 28.1287ZM38.7627 4.78976L46.4365 14.1914H38.7627V4.78976ZM47.8848 59.4209H47.834H2.54098V2.50287H36.2217V15.4619C36.2217 16.1607 36.7934 16.7324 37.4922 16.7324H47.834V28.4971L34.8369 41.4943C34.8115 41.5197 34.7988 41.5324 34.7861 41.5578C34.7734 41.5705 34.7607 41.5832 34.7607 41.5959C34.7098 41.6721 34.659 41.7357 34.6209 41.8119V41.8246C34.6082 41.8627 34.5828 41.9008 34.5701 41.9389L31.0889 51.1373C30.9111 51.6074 31.0254 52.1283 31.3811 52.484C31.6225 52.7254 31.9529 52.8525 32.2832 52.8525C32.4357 52.8525 32.5881 52.8271 32.7279 52.7762L42.0279 49.2951H42.0406C42.066 49.2824 42.0914 49.2697 42.1295 49.257C42.1422 49.257 42.1549 49.2443 42.1676 49.2443C42.193 49.2316 42.2184 49.2189 42.2439 49.1934C42.2566 49.1807 42.2693 49.1807 42.282 49.168C42.3074 49.1553 42.3328 49.1299 42.3582 49.1172C42.3709 49.1045 42.3836 49.1045 42.3963 49.0918C42.4217 49.0791 42.4344 49.0537 42.4598 49.041C42.4725 49.0283 42.4852 49.0156 42.498 49.0156L47.8848 43.6541V59.4209ZM36.2471 44.6578L39.2455 47.6053L34.443 49.4094L36.2471 44.6578ZM41.5451 46.3094L37.543 42.3709L54.9107 25.0033L58.9254 29.018L41.5451 46.3094Z" fill="white"/>
</symbol><symbol id="fb" viewBox="0 0 17 30">
<path d="M10.5006 30H5.70414C4.90298 30 4.25126 29.3472 4.25126 28.5448V17.7086H1.45289C0.651719 17.7086 0 17.0556 0 16.2534V11.61C0 10.8076 0.651719 10.1548 1.45289 10.1548H4.25126V7.82959C4.25126 5.52406 4.97404 3.56255 6.34124 2.15744C7.7146 0.745926 9.63388 0 11.8916 0L15.5496 0.0059509C16.3494 0.00732422 17 0.660095 17 1.46118V5.7724C17 6.57486 16.3485 7.22763 15.5476 7.22763L13.0847 7.22855C12.3335 7.22855 12.1423 7.37938 12.1014 7.42561C12.034 7.50229 11.9537 7.71904 11.9537 8.31757V10.1546H15.3625C15.6191 10.1546 15.8677 10.218 16.0814 10.3374C16.5423 10.5954 16.8288 11.0831 16.8288 11.6103L16.827 16.2536C16.827 17.0556 16.1753 17.7084 15.3741 17.7084H11.9537V28.5448C11.9537 29.3472 11.3018 30 10.5006 30ZM6.00715 28.2413H10.1976V16.9212C10.1976 16.3854 10.6329 15.9496 11.1677 15.9496H15.0711L15.0727 11.9135H11.1674C10.6327 11.9135 10.1976 11.4777 10.1976 10.9419V8.31757C10.1976 7.63046 10.2673 6.84906 10.7851 6.26175C11.4108 5.55176 12.3968 5.46982 13.0842 5.46982L15.2441 5.4689V1.76422L11.8902 1.75873C8.26189 1.75873 6.00715 4.08508 6.00715 7.82959V10.9419C6.00715 11.4775 5.57206 11.9135 5.03734 11.9135H1.75589V15.9496H5.03734C5.57206 15.9496 6.00715 16.3854 6.00715 16.9212V28.2413ZM15.5462 1.76468H15.5464H15.5462Z" fill="currentColor"/>
</symbol><symbol id="flower" viewBox="0 0 36 36">
<path d="M16.7805 9.84675C16.7805 9.55551 16.5445 9.3194 16.2532 9.3194C15.9619 9.3194 15.7258 9.55551 15.7258 9.84675C15.7258 10.9194 16.4724 11.8204 17.4731 12.0589V12.1765C17.4731 12.4677 17.7092 12.7038 18.0004 12.7038C18.2917 12.7038 18.5278 12.4677 18.5278 12.1765V12.0589C19.5285 11.8203 20.275 10.9194 20.275 9.84675C20.275 8.77413 19.5285 7.87308 18.5278 7.63451V5.25379C18.9367 5.45102 19.2204 5.86854 19.2204 6.35215C19.2204 6.64338 19.4564 6.87949 19.7477 6.87949C20.039 6.87949 20.275 6.64338 20.275 6.35215C20.275 5.27953 19.5285 4.37847 18.5278 4.1399V4.02255C18.5278 3.73132 18.2917 3.49521 18.0004 3.49521C17.7091 3.49521 17.4731 3.73132 17.4731 4.02255V4.1399C16.4724 4.37847 15.7258 5.27946 15.7258 6.35215C15.7258 7.42483 16.4724 8.32582 17.4731 8.56439V10.9451C17.0642 10.7479 16.7805 10.3304 16.7805 9.84675ZM18.5278 8.74847C18.9368 8.94555 19.2204 9.36314 19.2204 9.84675C19.2204 10.3304 18.9368 10.7479 18.5278 10.9451V8.74847ZM16.7806 6.35215C16.7806 5.86854 17.0642 5.45102 17.4732 5.25379V7.45043C17.0642 7.25327 16.7806 6.83576 16.7806 6.35215Z" fill="currentColor"/>
<path d="M30.9215 15.0343C30.8924 14.8902 30.8046 14.7649 30.6792 14.6884C28.5227 13.3723 25.7929 13.4577 23.7248 14.9058C21.7527 16.2867 20.7404 18.6569 21.0833 21.0215L18.5276 22.811V16.1809C20.5305 16.0516 22.3373 15.1913 23.6833 13.8642C23.6985 13.8521 23.7132 13.8392 23.7273 13.8251C23.7414 13.811 23.7543 13.7962 23.7665 13.781C25.2049 12.3214 26.0951 10.3203 26.0992 8.11498C26.0994 8.10956 26.1001 8.10436 26.1001 8.09888C26.1001 8.09325 26.0994 8.08777 26.0992 8.08221C26.0945 5.88234 25.2079 3.88589 23.7753 2.42761C23.7607 2.40827 23.7452 2.3895 23.7276 2.37192C23.71 2.35434 23.6912 2.3388 23.6718 2.32418C22.2162 0.894656 20.2248 0.00935156 18.0301 0.00147656C18.0202 0.000984375 18.0103 0 18.0002 0C17.99 0 17.9801 0.000984375 17.97 0.00154687C15.7756 0.00970312 13.7845 0.895219 12.3291 2.32474C12.3098 2.33937 12.2909 2.35491 12.2733 2.37255C12.2556 2.3902 12.2401 2.40905 12.2254 2.42838C10.7937 3.8861 9.90759 5.88129 9.90225 8.07982C9.90197 8.0865 9.90127 8.09304 9.90127 8.09986C9.90127 8.10661 9.90204 8.11315 9.90225 8.1199C9.90759 10.3198 10.7947 12.316 12.228 13.7739C12.2418 13.7919 12.2565 13.8094 12.2729 13.8258C12.2893 13.8422 12.3067 13.8568 12.3246 13.8705C13.6697 15.1938 15.4735 16.0516 17.4729 16.1809V22.811L14.9171 21.0215C15.2601 18.6569 14.2478 16.2867 12.2756 14.9058C10.2075 13.4577 7.47767 13.3724 5.32125 14.6883C5.19581 14.7649 5.10799 14.8902 5.07895 15.0343C4.57995 17.5109 5.59378 20.0469 7.66188 21.4949C8.75257 22.2586 10.0272 22.6432 11.3048 22.6432C12.3374 22.6432 13.3716 22.391 14.3123 21.8855L16.3277 23.2966H11.0116C10.0785 23.2966 9.31943 24.0557 9.31943 24.9889V26.1538C9.31943 26.445 9.55547 26.6811 9.84677 26.6811H10.5592L11.6553 33.8056C11.6949 34.0629 11.9162 34.2527 12.1765 34.2527H12.2316V35.4727C12.2316 35.7639 12.4677 36 12.759 36H23.2424C23.5337 36 23.7698 35.7639 23.7698 35.4727V34.2527H23.8249C24.0852 34.2527 24.3065 34.0628 24.3461 33.8056L25.4423 26.6811H26.1547C26.4459 26.6811 26.682 26.445 26.682 26.1538V24.9889C26.682 24.0558 25.9229 23.2966 24.9898 23.2966H19.6727L21.688 21.8855C22.6288 22.3911 23.6628 22.6432 24.6956 22.6432C25.9731 22.6432 27.248 22.2585 28.3385 21.4949C30.4066 20.0468 31.4205 17.5109 30.9215 15.0343ZM13.9244 20.3264L12.4107 19.2665L12.4523 17.4494C12.459 17.1582 12.2283 16.9168 11.9372 16.9101C11.9329 16.91 11.9289 16.9099 11.9249 16.9099C11.6392 16.9099 11.4045 17.1382 11.3979 17.4253L11.3724 18.5394L10.2692 17.7669C10.2691 17.7668 10.269 17.7668 10.2689 17.7667L8.36297 16.4322C8.12433 16.2651 7.79562 16.3232 7.62856 16.5617C7.46149 16.8003 7.51943 17.1291 7.75807 17.2961L8.85924 18.0671L7.82086 18.4721C7.54952 18.578 7.41537 18.8838 7.52119 19.1551C7.60247 19.3635 7.80167 19.4909 8.0126 19.4909C8.07631 19.4909 8.14113 19.4792 8.20413 19.4547L9.89754 18.7941L11.5702 19.9653C11.5718 19.9665 11.5735 19.9676 11.5751 19.9688L13.3195 21.1901C11.6671 21.8697 9.76015 21.6766 8.26685 20.631C6.60586 19.468 5.76028 17.4634 6.07191 15.4718C7.83696 14.4978 10.0098 14.6068 11.6707 15.7698C13.164 16.8154 13.9977 18.5413 13.9244 20.3264ZM18.5276 15.1241V14.4295C19.8837 14.3175 21.1203 13.7777 22.1019 12.9457L22.593 13.4367C21.4837 14.3925 20.0744 15.0093 18.5276 15.1241ZM23.3387 12.6908L22.8476 12.1998C23.6791 11.2183 24.2185 9.98205 24.3302 8.62636H25.0251C24.9103 10.1727 24.294 11.5817 23.3387 12.6908ZM23.3376 3.50761C24.2932 4.61658 24.9098 6.02529 25.025 7.5716H24.33C24.2179 6.21605 23.6782 4.98002 22.8464 3.99881L23.3376 3.50761ZM18.5276 1.0755C20.0739 1.19039 21.4827 1.80668 22.5918 2.76195L22.1006 3.25315C21.1192 2.42177 19.8832 1.88241 18.5276 1.77054V1.0755ZM18.0006 2.80322C20.9213 2.80322 23.2975 5.17936 23.2975 8.1C23.2975 11.014 20.9322 13.3854 18.0207 13.3964C18.0139 13.3961 18.0072 13.3953 18.0002 13.3953C17.9934 13.3953 17.9867 13.3961 17.98 13.3964C15.0688 13.3851 12.7038 11.0138 12.7038 8.1C12.7038 5.17929 15.0799 2.80322 18.0006 2.80322ZM17.4729 1.07557V1.77061C16.1174 1.88262 14.8814 2.4222 13.9001 3.25371L13.4089 2.76251C14.5179 1.8071 15.9266 1.1906 17.4729 1.07557ZM12.6632 3.50831L13.1543 3.99945C12.3228 4.9808 11.7832 6.21682 11.6712 7.57245H10.9764C11.0914 6.0262 11.7078 4.61735 12.6632 3.50831ZM12.6625 12.6905C11.7075 11.5816 11.0914 10.1731 10.9764 8.6272H11.6712C11.783 9.98248 12.3223 11.2183 13.1535 12.1995L12.6625 12.6905ZM13.4082 13.4364L13.8992 12.9454C14.8806 13.7775 16.117 14.3173 17.4729 14.4294V15.1241C15.9263 15.009 14.5173 14.3922 13.4082 13.4364ZM22.7151 34.9453H13.2863V34.2527H22.7151V34.9453ZM24.9898 24.3513C25.3414 24.3514 25.6274 24.6374 25.6274 24.9889V25.6264H15.0757C14.7844 25.6264 14.5484 25.8626 14.5484 26.1538C14.5484 26.445 14.7844 26.6811 15.0757 26.6811H24.3752L23.3725 33.198H23.2424H12.759H12.6289L11.6263 26.6811H12.9663C13.2576 26.6811 13.4936 26.445 13.4936 26.1538C13.4936 25.8626 13.2576 25.6264 12.9663 25.6264H10.3741V24.9889C10.3741 24.6373 10.6601 24.3513 11.0116 24.3513H17.9992C17.9994 24.3513 17.9995 24.3514 17.9997 24.3514C17.9999 24.3514 18.0001 24.3513 18.0002 24.3513C18.0004 24.3513 18.0006 24.3514 18.0007 24.3514C18.0008 24.3514 18.001 24.3513 18.0012 24.3513H24.9898ZM27.7336 20.631C26.2403 21.6767 24.3333 21.8696 22.6809 21.1903L24.4253 19.9689C24.427 19.9678 24.4286 19.9666 24.4302 19.9654L26.1029 18.7942L27.7964 19.4548C27.8593 19.4794 27.9241 19.491 27.9879 19.491C28.1988 19.491 28.398 19.3636 28.4793 19.1552C28.5851 18.8839 28.451 18.5782 28.1796 18.4723L27.1413 18.0672L28.2424 17.2962C28.4811 17.1292 28.539 16.8003 28.3719 16.5618C28.2049 16.3232 27.8762 16.2652 27.6375 16.4322L25.7318 17.7666C25.7316 17.7668 25.7313 17.7671 25.7309 17.7673L24.6281 18.5395L24.6026 17.4254C24.5959 17.1343 24.3572 16.9046 24.0633 16.9102C23.7722 16.9169 23.5415 17.1583 23.5482 17.4495L23.5898 19.2666L22.0761 20.3265C22.0029 18.5414 22.8365 16.8155 24.3297 15.7699C25.9907 14.6069 28.1635 14.4979 29.9285 15.4719C30.2402 17.4634 29.3946 19.4679 27.7336 20.631Z" fill="currentColor"/>
</symbol><symbol id="house" viewBox="0 0 36 40">
<path d="M34.0582 18.8033L28.0361 13.0937C28.0453 13.0531 28.0515 13.0118 28.0548 12.9702V5.5044C28.052 5.29141 27.9755 5.08778 27.8413 4.9357C27.7071 4.78361 27.5253 4.69473 27.3337 4.68745H23.9741C23.5857 4.68745 23.2735 5.07292 23.2735 5.5044V8.59573L18.4571 4.03713C18.3298 3.91671 18.168 3.85058 18.0008 3.85058C17.8336 3.85058 17.6719 3.91671 17.5445 4.03713L1.94241 18.8032C1.87064 18.8692 1.8114 18.9504 1.76812 19.0421C1.72483 19.1337 1.69838 19.2341 1.69028 19.3372C1.68219 19.4403 1.69262 19.5442 1.72096 19.6428C1.74931 19.7414 1.79501 19.8327 1.85541 19.9116C1.9158 19.9904 1.98969 20.0551 2.07278 20.1019C2.15587 20.1487 2.24651 20.1767 2.33942 20.1842C2.43233 20.1918 2.52567 20.1787 2.61401 20.1459C2.70235 20.113 2.78393 20.061 2.85401 19.9928L18.0001 5.65815L23.4203 10.7899L26.6596 13.8518L33.1462 19.9925C33.2882 20.1268 33.4724 20.1931 33.6583 20.1765C33.8442 20.16 34.0165 20.0622 34.1375 19.9044C34.2584 19.7467 34.318 19.5421 34.3032 19.3355C34.2883 19.129 34.2002 18.9375 34.0583 18.8031L34.0582 18.8033ZM26.6485 6.24995V11.7734L24.6798 9.9269V6.24995H26.6485Z" fill="currentColor"/>
<path d="M30.9605 20.3792L28.9828 18.5049L18.4566 8.51804C18.3293 8.39725 18.1674 8.33089 18 8.33089C17.8326 8.33089 17.6707 8.39725 17.5434 8.51804L7.0172 18.5047L5.03952 20.3792C4.96924 20.4458 4.91146 20.5271 4.86947 20.6185C4.82748 20.7099 4.80211 20.8096 4.79481 20.9119C4.7875 21.0142 4.7984 21.1171 4.82689 21.2147C4.85538 21.3123 4.90089 21.4027 4.96084 21.4808C5.01954 21.5588 5.09163 21.623 5.17291 21.6696C5.25418 21.7163 5.34301 21.7446 5.43421 21.7527C5.52541 21.7608 5.61716 21.7487 5.7041 21.717C5.79103 21.6854 5.87142 21.6348 5.94057 21.5682L6.82032 20.7234V35.3681C6.82475 35.5803 6.90276 35.7823 7.03808 35.9321C7.1734 36.0819 7.35555 36.1678 7.54651 36.1719H28.4535C28.6445 36.1678 28.8266 36.0819 28.9619 35.9321C29.0973 35.7823 29.1753 35.5803 29.1797 35.3681V20.7234L30.0595 21.568C30.1843 21.6886 30.3441 21.7549 30.5094 21.7548C30.6108 21.755 30.711 21.7305 30.8029 21.6831C30.8949 21.6357 30.9764 21.5666 31.0419 21.4806C31.1016 21.4024 31.1469 21.3118 31.1752 21.2141C31.2034 21.1164 31.2141 21.0135 31.2065 20.9112C31.199 20.8089 31.1734 20.7093 31.1312 20.618C31.0889 20.5267 31.031 20.4456 30.9605 20.3792ZM20.8125 34.6094H15.1875V26.1719H20.8125V34.6094ZM22.2188 34.6094V25.4136C22.2188 24.9821 21.9334 24.6094 21.5451 24.6094H14.4549C14.0666 24.6094 13.7813 24.9821 13.7813 25.4136V34.6094H8.22657V19.3906L18 10.1398L27.7735 19.3906V34.6094H22.2188Z" fill="currentColor"/>
</symbol><symbol id="insta" viewBox="0 0 30 30">
<path d="M21.8792 0H8.12071C3.64288 0 0 3.64288 0 8.12071V21.8795C0 26.3571 3.64288 29.9999 8.12071 29.9999H21.8795C26.3571 29.9999 29.9999 26.3571 29.9999 21.8795V8.12071C29.9999 3.64288 26.3571 0 21.8792 0V0ZM28.2412 21.8795C28.2412 25.3873 25.3873 28.2412 21.8792 28.2412H8.12071C4.61265 28.2412 1.75872 25.3873 1.75872 21.8795V8.12071C1.75872 4.61265 4.61265 1.75872 8.12071 1.75872H21.8795C25.3873 1.75872 28.2412 4.61265 28.2412 8.12071V21.8795Z" fill="currentColor"/>
<path d="M14.9999 6.79712C10.4768 6.79712 6.79706 10.4768 6.79706 15C6.79706 19.5232 10.4768 23.2029 14.9999 23.2029C19.5231 23.2029 23.2028 19.5232 23.2028 15C23.2028 10.4768 19.5231 6.79712 14.9999 6.79712ZM14.9999 21.4442C11.4468 21.4442 8.55578 18.5534 8.55578 15C8.55578 11.4468 11.4468 8.55584 14.9999 8.55584C18.5533 8.55584 21.4441 11.4468 21.4441 15C21.4441 18.5534 18.5533 21.4442 14.9999 21.4442Z" fill="currentColor"/>
<path d="M23.399 3.88403C22.0623 3.88403 20.9751 4.97145 20.9751 6.30789C20.9751 7.64456 22.0623 8.73197 23.399 8.73197C24.7357 8.73197 25.8231 7.64456 25.8231 6.30789C25.8231 4.97122 24.7357 3.88403 23.399 3.88403ZM23.399 6.97302C23.0323 6.97302 22.7339 6.67456 22.7339 6.30789C22.7339 5.94099 23.0323 5.64276 23.399 5.64276C23.7659 5.64276 24.0644 5.94099 24.0644 6.30789C24.0644 6.67456 23.7659 6.97302 23.399 6.97302Z" fill="currentColor"/>
</symbol><symbol id="key" viewBox="0 0 62 62">
<g clip-path="url(#clip0)">
<path d="M29.1357 59.8228H11.1528C9.49203 59.8228 7.90886 59.2998 6.57442 58.3105C5.2407 57.3216 4.28007 55.959 3.79666 54.3701C3.47214 53.3021 3.3835 52.1536 3.54043 51.0492L4.09419 47.1609C4.17896 46.5658 3.76518 46.0148 3.17025 45.9299C2.57593 45.8454 2.02411 46.2589 1.93922 46.8538L1.38546 50.7424C1.1842 52.1597 1.29779 53.6328 1.71411 55.0032C2.33435 57.042 3.56683 58.7901 5.27812 60.0589C6.99037 61.3285 9.02195 61.9995 11.1529 61.9995H29.1359C29.737 61.9995 30.2243 61.5122 30.2243 60.9111C30.2243 60.3102 29.7369 59.8228 29.1357 59.8228Z" fill="white"/>
<path d="M60.2754 53.3171L56.8015 50.7165L56.5214 46.3862C56.5008 46.0686 56.3423 45.7758 56.0876 45.5852L52.6137 42.9846L52.3336 38.6543C52.3234 38.4973 52.2795 38.3445 52.2044 38.2062L49.4335 33.09L49.533 33.0361C50.0615 32.7497 50.2578 32.0893 49.9716 31.5607L47.0633 26.1907C48.0216 24.3092 48.5538 22.2193 48.6073 20.1089C48.6225 19.5079 48.1478 19.0084 47.5468 18.9932C46.9393 18.9757 46.4462 19.4527 46.431 20.0536C46.3814 22.0121 45.8447 23.9498 44.8794 25.6573C44.6949 25.9835 44.6912 26.3818 44.8698 26.7113L47.5392 31.64L42.4431 34.4006L40.4216 30.668C40.1352 30.1394 39.475 29.943 38.9462 30.2293C38.4176 30.5157 38.2213 31.1761 38.5076 31.7047L40.5291 35.4372L37.405 37.1292C37.4045 37.1294 37.4042 37.1296 37.4036 37.1299C37.403 37.1301 37.4027 37.1305 37.4022 37.1306L37.3043 37.1835L34.6346 32.2548C34.4563 31.9252 34.1206 31.7106 33.7467 31.687C29.6073 31.4242 25.9595 29.095 23.9889 25.4562C22.4696 22.6509 22.1336 19.4221 23.0428 16.3642C23.8989 13.4851 25.7628 11.083 28.3192 9.5438C28.7619 10.544 29.1242 11.4959 29.392 12.2869C28.7098 12.8576 28.209 13.6157 27.9497 14.4878C27.6013 15.6598 27.73 16.8974 28.3124 17.9726C29.1402 19.501 30.718 20.3695 32.3453 20.3694C33.0809 20.3694 33.8267 20.1919 34.5177 19.8177C36.7371 18.6156 37.5646 15.8319 36.3628 13.6124C35.3697 11.7789 33.2974 10.8967 31.3552 11.3224C31.1108 10.6328 30.7455 9.67119 30.2677 8.59758C32.7015 7.67182 35.3568 7.56575 37.8948 8.32052C40.9526 9.22981 43.4733 11.2753 44.9926 14.0806C45.3566 14.7523 45.6565 15.4587 45.8846 16.1802C46.0658 16.7533 46.6767 17.0712 47.2504 16.8902C47.8235 16.709 48.1414 16.0975 47.9603 15.5245C47.6909 14.6715 47.3363 13.8368 46.9067 13.0439C45.1105 9.72738 42.1304 7.30891 38.5153 6.23409C35.4507 5.32274 32.2409 5.46987 29.3141 6.62982C29.1724 6.3616 29.0252 6.09277 28.8718 5.82467C27.0758 2.68618 24.1245 -0.841017 20.2604 0.179434C18.2782 0.70304 17.4705 1.90852 17.1421 2.82762C16.1974 5.47132 17.9556 9.14201 19.236 11.3004H14.0997C10.0557 11.3004 6.57472 14.3202 6.00255 18.3251L2.39822 43.6308C2.31345 44.2259 2.72723 44.777 3.3224 44.8618C3.37447 44.8692 3.42618 44.8728 3.47728 44.8728C4.01033 44.8728 4.47618 44.4808 4.55355 43.9379L8.15777 18.6332C8.5776 15.6941 11.1322 13.4779 14.0999 13.4779H21.8507C21.4931 14.2002 21.1911 14.9562 20.9566 15.7445C19.8816 19.3596 20.2788 23.1771 22.075 26.4936C24.3079 30.6163 28.3611 33.3173 33.0005 33.8085L35.9088 39.1779C36.1057 39.5417 36.4802 39.7483 36.8669 39.7483C37.0419 39.7483 37.2195 39.7059 37.3842 39.6168L37.4835 39.5629L41.59 47.1449L42.1457 51.0483C42.1968 51.4098 42.2226 51.7746 42.2226 52.1323C42.2226 52.8901 42.1107 53.6433 41.8897 54.3703C40.8978 57.6319 37.9415 59.8232 34.5334 59.8232H32.7641C32.1629 59.8232 31.6757 60.3105 31.6757 60.9116C31.6757 61.5127 32.1629 62 32.7641 62H34.5334C38.9066 62 42.6997 59.1884 43.9724 55.0032C44.237 54.1323 44.378 53.2322 44.3958 52.3252L48.6297 60.1427C48.7811 60.4221 49.0471 60.6216 49.3579 60.6883L55.3344 61.9747C55.4109 61.9913 55.4877 61.999 55.5635 61.999C55.9391 61.999 56.2952 61.8039 56.4951 61.4732L60.555 54.751C60.8438 54.2725 60.723 53.6524 60.2754 53.3171ZM30.0363 15.1086C30.219 14.4938 30.6302 13.9873 31.194 13.6818C31.5566 13.4855 31.9475 13.3924 32.3335 13.3924C33.1869 13.3924 34.0144 13.8479 34.4486 14.6494C35.0791 15.8135 34.6451 17.2735 33.481 17.9039C32.3168 18.5344 30.8569 18.1002 30.2265 16.9363C29.9211 16.3725 29.8535 15.7234 30.0363 15.1086ZM21.8073 11.3006V11.3007C20.3315 9.1115 18.5207 5.43717 19.1926 3.55963C19.3361 3.15844 19.6608 2.58979 20.8165 2.28439C23.3859 1.60591 25.7097 4.47109 27.3669 7.58173C25.7163 8.5449 24.3027 9.80778 23.1858 11.3006H21.8073ZM55.6145 58.7202L49.5894 47.5955C49.303 47.0669 48.6426 46.8705 48.114 47.1568C47.5854 47.4431 47.3891 48.1036 47.6754 48.6322L53.4795 59.349L50.3053 58.6658L39.3976 38.5261L41.5659 37.3517L45.8371 45.238C46.034 45.6018 46.4085 45.8084 46.7952 45.8084C46.9701 45.8084 47.1478 45.766 47.3125 45.6769C47.8411 45.3905 48.0373 44.73 47.7511 44.2015L43.4799 36.3152L47.5198 34.1271L50.1769 39.0332L50.4739 43.6258C50.4944 43.9434 50.653 44.2362 50.9076 44.4268L54.3815 47.0274L54.6616 51.3577C54.6822 51.6753 54.8407 51.9681 55.0954 52.1587L58.182 54.4693L55.6145 58.7202Z" fill="white"/>
</g>

</symbol><symbol id="letter" viewBox="0 0 34 25">
<path d="M30.8335 0.68457H3.16646C1.54171 0.68457 0.216187 1.9223 0.216187 3.44244V21.8282C0.216187 23.3432 1.53581 24.5861 3.16646 24.5861H30.8335C32.4542 24.5861 33.7838 23.3525 33.7838 21.8282V3.44244C33.7838 1.92745 32.4641 0.68457 30.8335 0.68457ZM30.4261 2.52315L17.0625 15.0152L3.58337 2.52315H30.4261ZM2.18304 21.4475V3.81438L11.6553 12.593L2.18304 21.4475ZM3.5738 22.7475L13.052 13.8874L16.3732 16.9653C16.7577 17.3216 17.3781 17.3204 17.7609 16.9625L20.9992 13.9354L30.4261 22.7475H3.5738ZM31.8169 21.4474L22.39 12.6353L31.8169 3.82314V21.4474Z" fill="currentColor"/>
</symbol>

<symbol id="logo" viewBox="0 0 238 49">
<path d="M24.3291 48.7537C37.7659 48.7537 48.6585 37.8399 48.6585 24.3768C48.6585 10.9139 37.7659 0 24.3291 0C10.8925 0 0 10.9139 0 24.3768C0 37.8399 10.8925 48.7537 24.3291 48.7537Z" fill="#3990C8"/>
<path d="M8.35547 27.0856C10.5672 29.3017 18.1855 36.6886 21.1344 39.6433C21.6259 40.1358 22.6089 40.1358 22.8547 39.3972C25.0665 35.4574 31.7016 22.6534 38.3369 14.5277C38.5826 14.0353 38.5826 13.5428 38.3369 13.0504C37.1081 11.8192 35.6337 10.3418 34.4049 9.35689C33.9134 8.86444 33.1761 8.86444 32.9304 9.35689C27.5239 15.2664 22.6089 23.8846 20.8888 27.0856C20.6429 27.8242 19.66 27.8242 19.1685 27.3317C16.9567 25.3619 14.2535 22.8997 12.2875 20.9297C11.796 20.6836 10.813 20.6836 10.5672 21.4222C9.82998 22.6534 9.09272 24.377 8.10973 25.8544C7.86397 26.3468 8.10973 26.8393 8.35547 27.0856Z" fill="white"/>
<path d="M86.0123 40.1357H80.1143V25.6081H67.5811V40.1357H61.929V8.61816H67.5811V21.1759H80.1143V8.61816H86.0123V40.1357Z" fill="black"/>
<path d="M112.062 24.8695V40.1358H107.638L107.147 36.6885C105.426 38.4121 102.723 40.6283 98.5455 40.6283C94.3678 40.6283 91.4187 38.4121 91.4187 34.2262V32.0101C91.4187 28.3167 93.8763 26.3469 98.054 26.3469H106.409V24.8695C106.409 22.4071 105.426 21.6685 102.232 21.6685C100.266 21.6685 96.3337 21.9147 92.8932 22.161L92.4017 18.2212C95.5964 17.7288 100.757 17.2363 103.706 17.2363C109.113 16.99 112.062 18.96 112.062 24.8695ZM96.8252 33.4875C96.8252 35.4574 97.8082 36.196 99.7741 36.196C101.494 36.196 103.952 35.4574 106.409 33.4875V30.0403H99.2826C97.3167 30.0403 96.8252 31.0252 96.8252 32.5026V33.4875Z" fill="black"/>
<path d="M138.357 40.1356H132.705V21.9146H129.018C127.298 21.9146 126.807 22.4071 126.561 24.3769C126.069 28.0703 125.578 32.2562 124.595 35.2111C123.612 39.397 120.663 40.8743 116.239 40.628L115.748 36.4421C118.205 35.9497 118.943 35.4572 119.68 33.7336C120.417 31.2713 120.909 27.0854 121.4 23.6381C121.646 19.9447 123.612 17.9749 127.79 17.9749H138.602L138.357 40.1356Z" fill="black"/>
<path d="M165.389 28.8091C165.389 37.4271 162.44 40.6281 154.331 40.6281C146.221 40.6281 143.272 37.4271 143.272 28.8091C143.272 20.191 146.221 16.99 154.331 16.99C162.44 16.99 165.389 20.191 165.389 28.8091ZM148.924 28.8091C148.924 34.7185 150.153 36.196 154.085 36.196C158.263 36.196 159.491 34.4724 159.491 28.8091C159.491 22.8996 158.263 21.422 154.085 21.422C150.153 21.422 148.924 23.1457 148.924 28.8091Z" fill="black"/>
<path d="M187.753 17.9749L187.506 21.9146H177.677C175.957 21.9146 175.465 22.6532 175.465 24.3769V40.3819H169.813V22.6532C169.813 19.2061 171.533 17.4824 175.219 17.4824C179.397 17.4824 184.067 17.4824 187.753 17.9749Z" fill="black"/>
<path d="M207.166 40.1356V27.0854C207.166 26.1005 207.412 25.1156 207.412 23.6381H207.166C206.921 24.6232 206.183 25.8542 205.446 26.593L195.863 39.8895H191.192V17.7286H196.109V30.7789C196.109 31.7638 196.109 32.7487 195.863 33.9799H196.109C196.599 32.995 197.092 32.0101 197.829 31.0252L207.412 17.4824H212.081V39.8895L207.166 40.1356Z" fill="black"/>
<path d="M237.394 17.7288V40.382H231.988V32.5026H226.827C225.106 32.5026 224.123 33.2414 223.878 34.4724L222.157 40.382H216.505L218.471 33.4875C218.963 31.5177 221.174 31.0253 222.895 30.7789V30.5328C219.208 29.794 217.98 27.8242 217.98 24.3769C217.98 19.6986 219.946 17.4825 227.073 17.4825C232.233 17.2363 234.445 17.2363 237.394 17.7288ZM231.742 21.6684H226.827C223.632 21.6684 223.14 22.4071 223.14 24.8694C223.14 27.5779 223.632 28.3167 226.827 28.3167H231.742V21.6684Z" fill="black"/>
</symbol>
    <symbol id="logo_new" viewBox="0 0 189 32" fill="none" xmlns="http://www.w3.org/2000/svg">
        <g clip-path="url(#clip0)">
            <path d="M12.9093 28.3113C20.039 28.3113 25.8188 22.5203 25.8188 15.3766C25.8188 8.233 20.039 2.44196 12.9093 2.44196C5.77972 2.44196 0 8.233 0 15.3766C0 22.5203 5.77972 28.3113 12.9093 28.3113Z" fill="#3990C8"/>
            <path d="M4.43441 16.8139C5.60799 17.9898 9.65035 21.9094 11.2151 23.4772C11.4759 23.7385 11.9974 23.7385 12.1279 23.3466C13.3015 21.2561 16.8222 14.4621 20.3429 10.1506C20.4733 9.88927 20.4733 9.62796 20.3429 9.36665C19.6909 8.71339 18.9086 7.92947 18.2565 7.40685C17.9958 7.14555 17.6045 7.14555 17.4742 7.40685C14.6054 10.5425 11.9974 15.1154 11.0847 16.8139C10.9543 17.2058 10.4327 17.2058 10.1719 16.9445C8.99833 15.8993 7.56395 14.5928 6.52077 13.5475C6.25998 13.4169 5.73839 13.4169 5.60799 13.8088C5.2168 14.4621 4.8256 15.3767 4.30401 16.1606C4.17361 16.4219 4.30401 16.6832 4.43441 16.8139Z" fill="white"/>
            <path d="M45.6383 23.7383H42.5087V16.0299H35.8585V23.7383H32.8594V7.01477H35.8585V13.6781H42.5087V7.01477H45.6383V23.7383Z" fill="black"/>
            <path d="M59.4612 15.638V23.7385H57.1141L56.8532 21.9093C55.9405 22.8239 54.5061 23.9998 52.2894 23.9998C50.0726 23.9998 48.5078 22.8239 48.5078 20.6028V19.4269C48.5078 17.4671 49.8118 16.4219 52.0286 16.4219H56.4621V15.638C56.4621 14.3315 55.9405 13.9396 54.2453 13.9396C53.2021 13.9396 51.1158 14.0702 49.2902 14.2009L49.0294 12.1104C50.7246 11.8491 53.463 11.5878 55.0277 11.5878C57.8965 11.4571 59.4612 12.5024 59.4612 15.638ZM51.3766 20.2108C51.3766 21.2561 51.8982 21.648 52.9413 21.648C53.8541 21.648 55.1581 21.2561 56.4621 20.2108V18.3817H52.6805C51.6374 18.3817 51.3766 18.9043 51.3766 19.6882V20.2108Z" fill="black"/>
            <path d="M73.4146 23.7383H70.4155V14.07H68.4594C67.5467 14.07 67.2859 14.3313 67.1555 15.3765C66.8947 17.3363 66.6339 19.5574 66.1123 21.1253C65.5908 23.3464 64.0259 24.1303 61.6788 23.9996L61.418 21.7785C62.722 21.5172 63.1131 21.2559 63.5044 20.3413C63.8956 19.0348 64.1564 16.8137 64.4172 14.9845C64.5475 13.0248 65.5908 11.9796 67.8075 11.9796H73.5449L73.4146 23.7383Z" fill="black"/>
            <path d="M87.757 17.7284C87.757 22.3012 86.1925 23.9997 81.8894 23.9997C77.5862 23.9997 76.0215 22.3012 76.0215 17.7284C76.0215 13.1555 77.5862 11.457 81.8894 11.457C86.1925 11.457 87.757 13.1555 87.757 17.7284ZM79.0206 17.7284C79.0206 20.864 79.6726 21.648 81.7589 21.648C83.9757 21.648 84.6277 20.7334 84.6277 17.7284C84.6277 14.5927 83.9757 13.8087 81.7589 13.8087C79.6726 13.8087 79.0206 14.7233 79.0206 17.7284Z" fill="black"/>
            <path d="M99.6245 11.9796L99.4938 14.0701H94.2781C93.3655 14.0701 93.1043 14.462 93.1043 15.3766V23.8691H90.1055V14.462C90.1055 12.6329 91.018 11.7183 92.9737 11.7183C95.1906 11.7183 97.6688 11.7183 99.6245 11.9796Z" fill="black"/>
            <path d="M109.925 23.7384V16.8138C109.925 16.2912 110.056 15.7686 110.056 14.9846H109.925C109.795 15.5073 109.403 16.1605 109.013 16.5525L103.927 23.6078H101.449V11.8489H104.058V18.7736C104.058 19.2962 104.058 19.8188 103.927 20.4721H104.058C104.318 19.9495 104.58 19.4269 104.971 18.9043L110.056 11.7183H112.533V23.6078L109.925 23.7384Z" fill="black"/>
            <path d="M125.965 11.849V23.869H123.096V19.6882H120.358C119.444 19.6882 118.923 20.0801 118.793 20.7334L117.88 23.869H114.881L115.924 20.2108C116.185 19.1656 117.358 18.9043 118.272 18.7736V18.643C116.315 18.251 115.664 17.2058 115.664 15.3766C115.664 12.8942 116.707 11.7183 120.488 11.7183C123.226 11.5877 124.4 11.5877 125.965 11.849ZM122.966 13.9394H120.358C118.663 13.9394 118.401 14.3314 118.401 15.6379C118.401 17.0751 118.663 17.4671 120.358 17.4671H122.966V13.9394Z" fill="black"/>
        </g>
        <line x1="137.5" y1="1.44196" x2="137.5" y2="31.442" stroke="black"/>
        <path d="M153.124 27H148.338V11.7637L143.637 13.1372V9.51221L152.685 6.38281H153.124V27ZM172.567 27H158.18V23.8848L164.807 16.918C166.44 15.0583 167.257 13.5809 167.257 12.4858C167.257 11.5985 167.063 10.9235 166.676 10.4609C166.289 9.99837 165.728 9.76709 164.991 9.76709C164.264 9.76709 163.674 10.0786 163.221 10.7017C162.768 11.3153 162.542 12.0846 162.542 13.0098H157.755C157.755 11.7448 158.072 10.5789 158.704 9.51221C159.337 8.43604 160.215 7.59587 161.338 6.9917C162.461 6.38753 163.717 6.08545 165.105 6.08545C167.332 6.08545 169.046 6.59993 170.245 7.62891C171.453 8.65788 172.057 10.1353 172.057 12.061C172.057 12.8729 171.906 13.6659 171.604 14.4399C171.302 15.2046 170.83 16.0117 170.188 16.8613C169.556 17.7015 168.531 18.8296 167.115 20.2456L164.453 23.3184H172.567V27Z" fill="#3FA4E6"/>
        <path d="M178.891 20.8998L186 20.8998L186 22.6136L180.214 22.6136L180.214 24.2103L182.602 24.3275C183.425 24.3763 184.083 24.4903 184.574 24.6693C185.066 24.8483 185.425 25.1039 185.653 25.4359C185.878 25.7647 185.993 26.2139 186 26.7836L186 27.2425L184.682 27.2425L184.657 27.0033C184.608 26.6615 184.4 26.4141 184.032 26.2611C183.661 26.1081 183.038 26.0088 182.162 25.9632L178.891 25.8412L178.891 20.8998ZM182.987 14.4713L182.987 17.1666L184.682 17.1666L184.682 13.983L186 13.983L186 18.8804L178.891 18.8804L178.891 13.9732L180.214 13.9732L180.214 17.1666L181.713 17.1666L181.713 14.4713L182.987 14.4713ZM180.214 6.65602L180.214 8.78981L186 8.78981L186 10.5037L180.214 10.5037L180.214 12.5984L178.891 12.5984L178.891 6.65602L180.214 6.65602Z" fill="#3FA4E6"/>
        <defs>
            <clipPath id="clip0">
                <rect width="126.286" height="26" fill="white" transform="translate(0 2.44196)"/>
            </clipPath>
        </defs>
    </symbol>



    <symbol id="logo_ng" viewBox="0 0 189 45">
    <path d="M12.9093 37.8693C20.039 37.8693 25.8188 32.0783 25.8188 24.9347C25.8188 17.791 20.039 12 12.9093 12C5.77972 12 0 17.791 0 24.9347C0 32.0783 5.77972 37.8693 12.9093 37.8693Z" fill="#3990C8"/>
    <path d="M4.43441 26.372C5.60799 27.5479 9.65035 31.4674 11.2151 33.0352C11.4759 33.2965 11.9974 33.2965 12.1279 32.9046C13.3015 30.8142 16.8222 24.0202 20.3429 19.7086C20.4733 19.4473 20.4733 19.186 20.3429 18.9247C19.6909 18.2714 18.9086 17.4875 18.2565 16.9649C17.9958 16.7036 17.6045 16.7036 17.4742 16.9649C14.6054 20.1006 11.9974 24.6735 11.0847 26.372C10.9543 26.7639 10.4327 26.7639 10.1719 26.5026C8.99833 25.4574 7.56395 24.1509 6.52077 23.1056C6.25998 22.975 5.73839 22.975 5.60799 23.3669C5.2168 24.0202 4.8256 24.9348 4.30401 25.7187C4.17361 25.98 4.30401 26.2413 4.43441 26.372Z" fill="white"/>
    <path d="M45.6383 33.2964H42.5087V25.5879H35.8585V33.2964H32.8594V16.5728H35.8585V23.2361H42.5087V16.5728H45.6383V33.2964Z" fill="black"/>
    <path d="M59.4612 25.1961V33.2966H57.1141L56.8532 31.4674C55.9405 32.382 54.5061 33.5579 52.2894 33.5579C50.0726 33.5579 48.5078 32.382 48.5078 30.1609V28.985C48.5078 27.0252 49.8118 25.98 52.0286 25.98H56.4621V25.1961C56.4621 23.8895 55.9405 23.4976 54.2453 23.4976C53.2021 23.4976 51.1158 23.6282 49.2902 23.7589L49.0294 21.6684C50.7246 21.4071 53.463 21.1458 55.0277 21.1458C57.8965 21.0151 59.4612 22.0604 59.4612 25.1961ZM51.3766 29.7689C51.3766 30.8142 51.8982 31.2061 52.9413 31.2061C53.8541 31.2061 55.1581 30.8142 56.4621 29.7689V27.9398H52.6805C51.6374 27.9398 51.3766 28.4624 51.3766 29.2463V29.7689Z" fill="black"/>
    <path d="M73.4146 33.2964H70.4155V23.6281H68.4594C67.5467 23.6281 67.2859 23.8894 67.1555 24.9346C66.8947 26.8944 66.6339 29.1155 66.1123 30.6834C65.5908 32.9045 64.0259 33.6884 61.6788 33.5577L61.418 31.3366C62.722 31.0753 63.1131 30.814 63.5044 29.8994C63.8956 28.5929 64.1564 26.3718 64.4172 24.5426C64.5475 22.5828 65.5908 21.5376 67.8075 21.5376H73.5449L73.4146 33.2964Z" fill="black"/>
    <path d="M87.757 27.2865C87.757 31.8592 86.1925 33.5577 81.8894 33.5577C77.5862 33.5577 76.0215 31.8592 76.0215 27.2865C76.0215 22.7136 77.5862 21.0151 81.8894 21.0151C86.1925 21.0151 87.757 22.7136 87.757 27.2865ZM79.0206 27.2865C79.0206 30.4221 79.6726 31.206 81.7589 31.206C83.9757 31.206 84.6277 30.2914 84.6277 27.2865C84.6277 24.1508 83.9757 23.3668 81.7589 23.3668C79.6726 23.3668 79.0206 24.2814 79.0206 27.2865Z" fill="black"/>
    <path d="M99.6245 21.5377L99.4938 23.6282H94.2781C93.3655 23.6282 93.1043 24.0201 93.1043 24.9347V33.4271H90.1055V24.0201C90.1055 22.191 91.018 21.2764 92.9737 21.2764C95.1906 21.2764 97.6688 21.2764 99.6245 21.5377Z" fill="black"/>
    <path d="M109.925 33.2964V26.3718C109.925 25.8492 110.056 25.3266 110.056 24.5427H109.925C109.795 25.0653 109.403 25.7186 109.013 26.1105L103.927 33.1658H101.449V21.407H104.058V28.3316C104.058 28.8542 104.058 29.3768 103.927 30.0301H104.058C104.318 29.5075 104.58 28.9849 104.971 28.4623L110.056 21.2764H112.533V33.1658L109.925 33.2964Z" fill="black"/>
    <path d="M125.965 21.407V33.4271H123.096V29.2462H120.358C119.444 29.2462 118.923 29.6382 118.793 30.2914L117.88 33.4271H114.881L115.924 29.7688C116.185 28.7236 117.358 28.4623 118.272 28.3316V28.201C116.315 27.809 115.664 26.7638 115.664 24.9346C115.664 22.4522 116.707 21.2763 120.488 21.2763C123.226 21.1457 124.4 21.1457 125.965 21.407ZM122.966 23.4974H120.358C118.663 23.4974 118.401 23.8894 118.401 25.1959C118.401 26.6331 118.663 27.0251 120.358 27.0251H122.966V23.4974Z" fill="black"/>
    <line x1="137.5" y1="11" x2="137.5" y2="41" stroke="black"/>
    <path d="M153.124 37H148.338V21.7637L143.637 23.1372V19.5122L152.685 16.3828H153.124V37ZM172.567 37H158.18V33.8848L164.807 26.918C166.44 25.0583 167.257 23.5809 167.257 22.4858C167.257 21.5985 167.063 20.9235 166.676 20.4609C166.289 19.9984 165.728 19.7671 164.991 19.7671C164.264 19.7671 163.674 20.0786 163.221 20.7017C162.768 21.3153 162.542 22.0846 162.542 23.0098H157.755C157.755 21.7448 158.072 20.5789 158.704 19.5122C159.337 18.436 160.215 17.5959 161.338 16.9917C162.461 16.3875 163.717 16.0854 165.105 16.0854C167.332 16.0854 169.046 16.5999 170.245 17.6289C171.453 18.6579 172.057 20.1353 172.057 22.061C172.057 22.8729 171.906 23.6659 171.604 24.4399C171.302 25.2046 170.83 26.0117 170.188 26.8613C169.556 27.7015 168.531 28.8296 167.115 30.2456L164.453 33.3184H172.567V37Z" fill="#3FA4E6"/>
    <path d="M178.891 30.4578L186 30.4578L186 32.1717L180.214 32.1717L180.214 33.7684L182.602 33.8855C183.425 33.9344 184.083 34.0483 184.574 34.2273C185.066 34.4064 185.425 34.6619 185.653 34.9939C185.878 35.3227 185.993 35.7719 186 36.3416L186 36.8006L184.682 36.8006L184.657 36.5613C184.608 36.2195 184.4 35.9721 184.032 35.8191C183.661 35.6661 183.038 35.5669 182.162 35.5213L178.891 35.3992L178.891 30.4578ZM182.987 24.0293L182.987 26.7246L184.682 26.7246L184.682 23.541L186 23.541L186 28.4385L178.891 28.4385L178.891 23.5312L180.214 23.5312L180.214 26.7246L181.713 26.7246L181.713 24.0293L182.987 24.0293ZM180.214 16.2141L180.214 18.3479L186 18.3479L186 20.0617L180.214 20.0617L180.214 22.1564L178.891 22.1564L178.891 16.2141L180.214 16.2141Z" fill="#3FA4E6"/>
    <g clip-path="url(#clip0)">
        <path d="M9.04412 10.2601C9.04412 10.2601 10.658 6.5873 15.761 5.48928C15.761 5.48928 17.9285 3.4752 23.8621 5.43337C23.8621 5.43337 25.5666 6.55446 25.8136 7.11377C25.8136 7.11377 28.4378 7.73207 28.1975 10.1457C28.1975 10.1457 28.6603 10.8162 28.3584 12.332L28.4452 15.6405L26.3394 16.6497L26.2857 16.05C26.2857 16.05 24.6009 13.5928 24.5588 12.8757C24.5588 12.8757 24.0668 12.4997 23.9876 13.2945L24.3889 14.5828L9.90551 12.2451L9.04412 10.2601Z" fill="#E14B4B"/>
        <path d="M25.6137 10.1548C25.3346 8.62519 24.8546 7.11114 24.1738 5.64453C24.5348 5.89785 25.1311 6.33536 25.5021 6.71131C25.6653 7.85843 25.7 9.01082 25.6137 10.1548Z" fill="#D03F3E"/>
        <path d="M20.4218 6.34824C20.5887 6.35762 20.7276 6.42504 20.8451 6.52225C20.7063 6.46206 20.5618 6.40492 20.4218 6.34824Z" fill="#D03F3E"/>
        <path d="M24.5533 12.8709C24.5023 12.837 24.0683 12.5481 23.9902 13.2858C23.8087 13.054 23.6619 12.7967 23.4899 12.5616C23.0109 11.9003 22.2733 11.374 21.5529 10.8597C20.1748 9.87709 18.7543 8.87579 17.0591 8.30058C17.9169 8.35045 18.7246 8.67352 19.4955 8.99594C21.0213 9.63317 22.5883 10.3492 23.5233 11.4948C23.5884 10.795 23.1752 10.1113 22.7718 9.46839C22.2428 8.62389 21.7139 7.77879 21.185 6.93428C21.0952 6.78985 20.9836 6.63242 20.8444 6.52222C21.4989 6.7909 22.1261 7.10263 22.5943 7.54907C23.2164 8.14271 23.4809 8.90368 23.7068 9.64336C24.0327 10.7109 24.316 11.7911 24.5533 12.8709Z" fill="#D03F3E"/>
        <path d="M6.11204 13.9535C6.1578 13.4938 6.09996 14.0209 6.11382 13.8278C6.04112 14.3426 6.3383 11.4957 6.92817 11.2509C7.36031 10.9742 7.82234 10.0507 8.10667 10.4505C8.39844 10.2983 8.56329 10.5821 8.74883 10.2808C8.90915 10.2329 9.05442 9.95893 9.14859 10.2754C9.28003 10.2174 9.38533 10.5067 9.57965 10.4406C9.74382 10.6773 9.99536 10.5674 10.315 10.7817C10.2944 10.9886 10.465 10.5455 10.632 10.7844C10.8028 10.9929 11.0712 10.8678 11.3413 10.7713C11.6204 10.5847 11.8949 10.491 12.0806 10.7118C12.2212 10.8697 12.4331 10.9269 12.6913 10.7419C12.9453 10.5925 13.1979 10.6797 13.4168 10.8978C13.6298 11.1827 13.8471 11.2242 14.024 11.0714C14.1657 11.2722 14.2895 11.037 14.2779 11.1533C14.2771 11.1617 14.3209 11.337 14.4484 11.1649C14.5624 11.1286 14.7044 11.2873 14.9068 11.2021C15.0771 11.4388 15.3295 11.205 15.5736 11.269C15.8422 11.0959 16.1282 10.9629 16.3698 11.3694C16.6654 11.2326 16.9476 11.3149 17.215 11.5071C17.5059 11.4644 17.7799 11.5446 18.0309 11.6865C18.2973 11.6654 18.5088 12.0279 18.7366 11.9103C18.9677 11.7671 19.1657 11.6404 19.2534 12.1833C19.2643 12.0736 19.3044 12.3413 19.4344 12.2362C19.5469 12.3065 19.7283 12.2083 19.9209 12.3828C20.13 12.391 20.3665 12.5024 20.6283 12.6044C20.9195 12.4045 21.1741 12.8105 21.471 12.8834C21.7602 13.0344 22.0415 13.3569 22.3643 13.2005C22.6926 12.9977 22.957 13.3745 23.2235 13.5377C23.4615 13.9872 23.7542 13.6869 23.9636 13.877C24.181 13.9871 24.3796 13.9479 24.4993 14.1995C24.4988 14.2048 24.5903 14.5253 24.61 14.5423C24.6447 14.5939 24.6519 14.9607 24.6962 14.9387C24.8298 15.3138 24.7684 16.9312 24.4231 17.5363C24.4233 17.5345 24.4008 17.4221 24.3122 17.6192C24.2402 17.6494 24.1489 17.5199 23.983 17.7858C23.8297 17.9241 23.664 17.819 23.4426 17.9108C23.2047 18.1683 22.9695 18.0215 22.698 17.8698C22.4266 17.717 22.1146 17.5877 21.7563 17.5382C21.7844 17.2562 21.7437 17.4491 21.6958 17.5153C21.6401 17.6591 21.6074 17.3638 21.5175 17.4506C21.473 17.0825 21.3337 17.4727 21.228 17.3495C21.1202 17.2395 20.9749 17.3286 20.8318 17.2186C20.65 17.4985 20.522 17.0679 20.3355 17.0632C20.1714 16.8325 19.9864 16.6443 19.7436 16.8887C19.5245 16.8964 19.3293 16.509 19.0627 16.7016C18.8369 16.4835 18.5386 16.847 18.2973 16.5074C18.0163 16.5668 17.7568 16.2796 17.454 16.3121C17.1654 16.193 16.8428 16.3012 16.5373 16.1215C16.2154 16.1075 15.8797 16.1229 15.5538 15.9411C15.2163 15.8756 14.8835 15.6546 14.508 15.7774C14.16 15.6247 13.7829 15.6727 13.4065 15.6358C13.0405 15.494 12.6492 15.5225 12.2539 15.5217C11.5837 15.3183 10.9734 15.3605 10.4435 15.3493C9.91304 15.3435 9.4699 15.2151 9.08253 15.1729C8.70211 15.061 8.38122 14.9977 8.1072 15.0023C7.8111 15.2288 7.62949 14.844 7.45308 14.8457C7.28248 14.789 7.17331 14.5463 7.05658 14.7105C6.95796 14.6928 6.91198 14.4697 6.85262 14.6041C6.81125 14.5578 6.78031 14.63 6.77755 14.5346C6.75324 14.6556 6.73563 14.8249 6.76703 14.5094C6.72975 14.8839 6.62494 14.582 6.48961 14.3789C6.33158 14.3884 6.13596 14.5677 6.11204 13.9535Z" fill="#DAE5EF"/>
        <path d="M30.0658 16.3475C30.6522 17.2459 30.0228 18.4652 28.912 18.8858C27.8012 19.3063 26.4253 18.9183 25.8389 18.0199C25.2525 17.1215 25.6784 16.0523 26.7892 15.6317C27.8993 15.2111 29.4794 15.4485 30.0658 16.3475Z" fill="#DAE5EF"/>
        <path d="M29.7894 18.278C29.5642 18.5386 29.2598 18.7491 28.9093 18.8829C27.8018 19.3085 26.4231 18.9184 25.8385 18.0172C25.2533 17.1219 25.6741 16.0498 26.7886 15.6308C26.8441 15.6122 26.892 15.5929 26.9469 15.5803C26.5287 16.0867 26.4686 16.7672 26.8611 17.3662C27.4189 18.2287 28.713 18.6225 29.7894 18.278Z" fill="#CBD6E0"/>
        <path d="M27.0475 15.6267C27.0587 15.6038 27.0567 15.5791 27.0494 15.555C27.0456 15.5559 27.0425 15.5573 27.0386 15.5582L27.0475 15.6267Z" fill="#CBD6E0"/>
    </g>
    <defs>
        <clipPath id="clip0">
            <rect width="24.3932" height="19.1694" fill="white" transform="translate(7.42969 0.558044) rotate(5.68455)"/>
        </clipPath>
    </defs>
</symbol>
<symbol id="medicine" viewBox="0 0 36 36">
<path d="M13.7867 2.3244H12.6245V5.81101H13.7867V2.3244Z" fill="currentColor"/>
<path d="M17.273 2.3244H16.1108V5.81101H17.273V2.3244Z" fill="currentColor"/>
<path d="M20.7596 2.3244H19.5974V5.81101H20.7596V2.3244Z" fill="currentColor"/>
<path d="M10.307 2.3244H9.14478V5.81101H10.307V2.3244Z" fill="currentColor"/>
<path d="M6.82041 2.3244H5.6582V5.81101H6.82041V2.3244Z" fill="currentColor"/>
<path d="M7.40116 22.6417V20.3244H6.23896V22.6417H3.91455V23.8039H6.23896V26.1283H7.40116V23.8039H9.72557V22.6417H7.40116Z" fill="currentColor"/>
<path d="M33.7209 24.2646C32.9768 23.4496 31.9776 22.9323 30.9146 22.663C29.8799 21.2528 27.9382 20.3315 25.9752 20.3315V13.3583C25.9752 11.7567 24.6713 10.4528 23.0697 10.4528H22.4886V8.12835H23.0697C24.0335 8.12835 24.813 7.34882 24.813 6.38504V1.74331C24.813 0.779528 24.0335 0 23.0697 0H3.33349C2.3768 0 1.59727 0.779528 1.59727 1.74331V6.38504C1.59727 7.34882 2.3768 8.12835 3.34058 8.12835H3.92168V10.4528H3.33349C1.73192 10.4528 0.427979 11.7567 0.427979 13.3583V33.0945C0.427979 34.6961 1.73192 36 3.33349 36H23.0768C24.4729 36 25.6422 35.0079 25.9185 33.6969C26.861 34.5472 30.8083 35.8795 33.7209 32.9598C35.2587 31.4291 36.9736 27.8362 33.7209 24.2646ZM30.2485 23.6976C30.8721 24.5764 32.1264 27.1063 30.0642 29.9693L22.7225 22.6276C27.1729 19.6299 30.0784 23.4567 30.2485 23.6976ZM3.33349 6.96614C3.01459 6.96614 2.75239 6.70394 2.75239 6.38504V1.74331C2.75239 1.42441 3.01459 1.1622 3.33349 1.1622H23.0768C23.3957 1.1622 23.6579 1.42441 23.6579 1.74331V6.38504C23.6579 6.70394 23.3957 6.96614 23.0768 6.96614H3.33349ZM21.3335 8.12835V10.4528H5.0768V8.12835H21.3335ZM1.59727 19.1622H12.05V27.2906H1.59727V19.1622ZM23.0768 34.8378H3.33349C2.36971 34.8378 1.59018 34.0583 1.59018 33.0945V28.4528H13.2051V18H1.59727V13.3583C1.59727 12.3945 2.3768 11.615 3.34058 11.615H23.0839C24.0477 11.615 24.8272 12.3945 24.8272 13.3583V20.4378C23.5941 20.6646 22.4177 21.2457 21.4752 22.1953C18.3004 25.3701 19.6752 29.4661 21.4752 31.2307C23.091 32.811 24.8272 32.9882 24.8272 32.9882C24.8697 33.9874 24.0406 34.8378 23.0768 34.8378ZM22.2902 30.4016C21.1422 29.2535 19.6965 26.3551 21.9004 23.4425L29.2422 30.7843C27.1941 32.4283 24.1823 32.3008 22.2902 30.4016ZM32.8847 32.152C30.5744 34.4409 27.7044 33.378 26.9886 32.9882C28.2642 32.7898 29.4973 32.2087 30.4894 31.2307C31.7012 30.0331 32.3744 28.4315 32.3815 26.7236C32.3886 25.8945 32.2327 25.0866 31.9351 24.3425C32.2894 24.5551 32.6366 24.7961 32.9272 25.1008C35.6626 28.0276 33.8343 31.2095 32.8847 32.152Z" fill="currentColor"/>
</symbol><symbol id="menu" viewBox="0 0 24 22">
<rect width="24" height="2" rx="1" fill="currentColor"/>
<rect y="10" width="24" height="2" rx="1" fill="currentColor"/>
<rect y="20" width="24" height="2" rx="1" fill="currentColor"/>
</symbol><symbol id="ok" viewBox="0 0 29 29">
<g clip-path="url(#clip0)">
<path d="M23.2276 15.0848C22.4954 13.6553 20.7131 13.1128 18.9682 14.4843C18.9513 14.4976 17.2234 15.8231 14.5034 15.8231C11.7835 15.8231 10.0556 14.4963 10.0387 14.4843C8.30107 13.1116 6.50428 13.6493 5.77686 15.0884C5.77444 15.0921 5.77324 15.0957 5.77082 15.1005C4.68936 17.313 6.47528 18.4657 7.91199 19.3925C8.80011 19.9641 9.93594 20.3954 11.3002 20.6806L7.42744 24.5618C5.08932 26.8951 8.75299 30.5768 11.1153 28.2677L14.5155 24.8506C15.8242 26.1616 17.0434 27.3856 17.923 28.281C20.2551 30.5708 23.9429 26.9531 21.6181 24.5666C18.845 21.7959 18.2481 21.1978 17.7237 20.6818C20.6188 20.0619 24.6462 18.0307 23.2276 15.0848ZM15.9474 19.1388C15.3215 18.8379 14.4902 19.981 15.1741 20.6915L15.1813 20.6987C15.1825 20.6999 15.1849 20.7023 15.1862 20.7036C15.1886 20.706 15.1898 20.7084 15.1922 20.7096C15.5402 21.0564 20.2225 25.7338 20.3264 25.839C20.9765 26.5072 19.831 27.6116 19.2014 26.9978C18.0777 25.8547 16.2954 24.07 15.1535 22.9257C14.8007 22.5716 14.2243 22.5692 13.8703 22.9257L9.83686 26.9784C9.19765 27.6031 8.05819 26.4878 8.70586 25.8414L13.834 20.7036C13.8364 20.7011 13.8389 20.6987 13.8401 20.6963C14.4769 20.0704 13.834 18.9104 13.0849 19.1315C11.3002 18.9225 9.85378 18.4863 8.89074 17.8676C7.0299 16.6653 7.12294 16.4538 7.3924 15.9016C8.1754 14.4021 9.56257 17.6356 14.501 17.6356C17.8832 17.6356 20.005 15.9741 20.0884 15.9077C20.6394 15.4751 21.2858 15.2733 21.6036 15.8908C21.8731 16.4502 21.9734 16.6593 20.1077 17.8712C18.8341 18.682 17.0337 19.0095 15.9474 19.1388Z" fill="currentColor"/>
<path d="M14.4988 12.0798C16.8599 12.0798 18.78 10.1561 18.78 7.79261C18.78 5.41944 16.8599 3.48853 14.4988 3.48853C12.1389 3.48853 10.2189 5.41944 10.2189 7.79261C10.2177 10.1561 12.1377 12.0798 14.4988 12.0798ZM14.4988 5.30103C15.8594 5.30103 16.9675 6.41873 16.9675 7.79261C16.9675 9.15682 15.8594 10.2673 14.4988 10.2673C13.1382 10.2673 12.0302 9.15682 12.0302 7.7914C12.0302 6.41873 13.137 5.30103 14.4988 5.30103Z" fill="currentColor"/>
<path d="M14.499 15.567C18.7874 15.567 22.2771 12.0785 22.2771 7.79133C22.2758 3.49571 18.7874 0 14.499 0C10.2106 0 6.72097 3.49571 6.72097 7.79133C6.72097 12.0785 10.2094 15.567 14.499 15.567ZM14.499 1.8125C17.7881 1.8125 20.4646 4.495 20.4646 7.79133C20.4646 11.0792 17.7893 13.7545 14.499 13.7545C11.2087 13.7545 8.53347 11.0792 8.53347 7.79133C8.53347 4.495 11.2087 1.8125 14.499 1.8125Z" fill="currentColor"/>
</g>

</symbol><symbol id="papper" viewBox="0 0 62 62">
<path d="M54.4639 8.56943L46.1973 0.302767C46.0035 0.109017 45.7408 0 45.4667 0H12.4C11.8294 0 11.3667 0.462675 11.3667 1.03333V13.4333H13.4334V2.06667H45.0389L52.7 9.7278V59.9333H13.4334V57.8667H11.3667V60.9667C11.3667 61.5373 11.8294 62 12.4 62H53.7334C54.304 62 54.7667 61.5373 54.7667 60.9667V9.3C54.7667 9.02591 54.6577 8.76318 54.4639 8.56943Z" fill="white"/>
<path d="M44.4334 10.3333V4.1333H42.3667V11.3666C42.3667 11.9373 42.8294 12.4 43.4 12.4H50.6334V10.3333H44.4334Z" fill="white"/>
<path d="M9.29994 22.7333V15.5H7.23328V23.7667C7.23328 24.3373 7.69595 24.8 8.26661 24.8H16.5333V22.7333H9.29994Z" fill="white"/>
<path d="M16.8361 14.7695L13.4333 18.1723L12.0972 16.8362L10.6361 18.2973L12.7028 20.364C13.1063 20.7674 13.7604 20.7674 14.1639 20.364L18.2972 16.2307L16.8361 14.7695Z" fill="white"/>
<path d="M9.29994 38.2333V31H7.23328V39.2667C7.23328 39.8373 7.69595 40.3 8.26661 40.3H16.5333V38.2333H9.29994Z" fill="white"/>
<path d="M16.8361 30.2695L13.4333 33.6723L12.0972 32.3362L10.6361 33.7973L12.7028 35.864C13.1063 36.2674 13.7604 36.2674 14.1639 35.864L18.2972 31.7307L16.8361 30.2695Z" fill="white"/>
<path d="M9.29994 53.7333V46.5H7.23328V54.7667C7.23328 55.3373 7.69595 55.8 8.26661 55.8H16.5333V53.7333H9.29994Z" fill="white"/>
<path d="M16.8361 45.7695L13.4333 49.1723L12.0972 47.8362L10.6361 49.2973L12.7028 51.364C13.1063 51.7674 13.7604 51.7674 14.1639 51.364L18.2972 47.2307L16.8361 45.7695Z" fill="white"/>
<path d="M42.3667 18.6001H25.8334V20.6668H42.3667V18.6001Z" fill="white"/>
<path d="M42.3667 34.1001H25.8334V36.1668H42.3667V34.1001Z" fill="white"/>
<path d="M42.3667 49.6001H25.8334V51.6668H42.3667V49.6001Z" fill="white"/>
</symbol><symbol id="protection" viewBox="0 0 36 36">
<g clip-path="url(#clip0)">
<path d="M9.99609 32.0887C13.7502 34.8365 17.4473 35.9366 17.6031 35.982C17.6853 36.0061 17.7726 36.0066 17.8548 35.9832C18.0156 35.9378 21.8392 34.8389 25.723 32.0935C28.0149 30.4731 29.843 28.6151 31.1571 26.5703C32.7982 24.0345 33.663 21.0742 33.6449 18.0537V9.23912C33.6449 9.0572 33.5363 8.8925 33.3692 8.82068L33.2692 8.77765C27.9428 6.48572 22.9072 3.56998 18.2679 0.0915675C18.1058 -0.0298104 17.883 -0.0298104 17.7209 0.0915675C13.0816 3.56998 8.04603 6.48572 2.71965 8.77735L2.61964 8.82038C2.45256 8.8922 2.34394 9.0572 2.34424 9.23912V18.0537C2.34424 21.1336 3.15204 23.9968 4.74568 26.5638C6.01495 28.6091 7.78161 30.4675 9.99609 32.0887ZM3.25591 9.53916C8.47901 7.27571 13.4243 4.41903 17.9946 1.0252C22.5645 4.41903 27.5098 7.27571 32.7332 9.53916V18.0537C32.7504 20.8944 31.9388 23.6783 30.3979 26.0646C29.1512 28.0088 27.4086 29.7814 25.2182 31.3334C21.8457 33.723 18.4261 34.8534 17.7334 35.0677C17.0562 34.8504 13.7618 33.7206 10.5128 31.337C8.39829 29.7858 6.71592 28.0135 5.51223 26.0703C4.01504 23.6528 3.25591 20.9558 3.25591 18.0537V9.53916Z" fill="currentColor"/>
<path d="M11.1926 29.9658C14.3761 32.2954 17.5123 33.2288 17.6443 33.2673C17.7266 33.2914 17.8138 33.292 17.8963 33.2685C18.0328 33.2299 21.2759 32.2978 24.5685 29.97C26.5135 28.595 28.0647 27.018 29.18 25.2825C30.5745 23.1277 31.3093 20.6126 31.2939 18.0458V10.5943C31.2939 10.4121 31.1855 10.2477 31.0182 10.1756L30.9339 10.1394C26.437 8.20445 22.1855 5.74247 18.2684 2.80566C18.1064 2.68398 17.8835 2.68398 17.7215 2.80566C13.8045 5.74247 9.55299 8.20415 5.05578 10.1391L4.9715 10.1753C4.80412 10.2474 4.6958 10.4121 4.6958 10.594V18.045C4.6958 20.6616 5.38222 23.0945 6.73637 25.2757C7.81393 27.0121 9.3135 28.59 11.1926 29.9658ZM5.60747 10.8941C9.99577 8.9888 14.1517 6.58825 17.9951 3.73899C21.8383 6.58825 25.9945 8.9888 30.3825 10.8943V18.0453C30.397 20.4319 29.7157 22.7713 28.4212 24.7768C28.1413 25.2122 27.8371 25.6315 27.5101 26.0327V25.9755C27.5101 25.7238 27.3059 25.5196 27.0542 25.5196C26.8026 25.5196 26.5984 25.7238 26.5984 25.9755V26.9046C26.5984 26.9492 26.6049 26.9934 26.618 27.0361C25.8351 27.8377 24.9798 28.5657 24.0634 29.2102C22.133 30.5611 20.014 31.62 17.7746 32.3527C15.6067 31.6164 13.5623 30.5584 11.7093 29.2135C10.8561 28.5918 10.0599 27.8953 9.32982 27.1329C9.37018 27.0634 9.39155 26.9845 9.39155 26.9044V25.9752C9.39155 25.7235 9.18737 25.5193 8.93571 25.5193C8.68406 25.5193 8.47988 25.7235 8.47988 25.9752V26.1598C8.12673 25.7205 7.80028 25.2606 7.50263 24.7819C6.24493 22.7505 5.60747 20.4838 5.60747 18.045V10.8941Z" fill="currentColor"/>
<path d="M17.9947 25.5196C17.7427 25.5196 17.5388 25.7238 17.5388 25.9755V26.9046C17.5388 27.1563 17.7427 27.3605 17.9947 27.3605C18.2463 27.3605 18.4505 27.1563 18.4505 26.9046V25.9755C18.4505 25.7238 18.2463 25.5196 17.9947 25.5196Z" fill="currentColor"/>
<path d="M21.0139 25.5196C20.7623 25.5196 20.5581 25.7238 20.5581 25.9755V26.9046C20.5581 27.1563 20.7623 27.3605 21.0139 27.3605C21.2656 27.3605 21.4698 27.1563 21.4698 26.9046V25.9755C21.4698 25.7238 21.2656 25.5196 21.0139 25.5196Z" fill="currentColor"/>
<path d="M24.0342 25.5196C23.7822 25.5196 23.5784 25.7238 23.5784 25.9755V26.9046C23.5784 27.1563 23.7822 27.3605 24.0342 27.3605C24.2859 27.3605 24.49 27.1563 24.49 26.9046V25.9755C24.49 25.7238 24.2859 25.5196 24.0342 25.5196Z" fill="currentColor"/>
<path d="M14.9746 25.5196C14.723 25.5196 14.5188 25.7238 14.5188 25.9755V26.9046C14.5188 27.1563 14.723 27.3605 14.9746 27.3605C15.2263 27.3605 15.4305 27.1563 15.4305 26.9046V25.9755C15.4305 25.7238 15.2263 25.5196 14.9746 25.5196Z" fill="currentColor"/>
<path d="M11.9549 25.5196C11.7029 25.5196 11.499 25.7238 11.499 25.9755V26.9046C11.499 27.1563 11.7029 27.3605 11.9549 27.3605C12.2065 27.3605 12.4107 27.1563 12.4107 26.9046V25.9755C12.4107 25.7238 12.2065 25.5196 11.9549 25.5196Z" fill="currentColor"/>
<path d="M11.858 18.7649C12.0853 18.7945 12.299 18.6506 12.3575 18.4289C12.4124 18.22 12.5516 17.8508 12.6795 17.7057C12.8839 17.5119 13.1543 17.403 13.4362 17.4012C13.7167 17.3994 13.987 17.5075 14.1894 17.7021C14.3868 17.9072 14.4978 18.1802 14.4998 18.4648C14.4998 18.7168 14.7037 18.9207 14.9557 18.9207C15.2073 18.9207 15.4115 18.7168 15.4115 18.4648C15.4062 18.1811 15.5163 17.9075 15.7169 17.7069C15.9178 17.5063 16.1914 17.3959 16.4751 17.4012C16.7556 17.3994 17.0259 17.5075 17.2283 17.7021C17.4257 17.9072 17.5367 18.1802 17.5387 18.4648V22.8098C17.5408 22.9896 17.4461 23.1567 17.2909 23.2472C17.1357 23.3378 16.9437 23.3378 16.7885 23.2472C16.633 23.1567 16.5386 22.9896 16.5407 22.8098C16.5407 22.5581 16.3365 22.354 16.0849 22.354C15.8332 22.354 15.629 22.5581 15.629 22.8098C15.6252 23.3164 15.8935 23.7859 16.3315 24.0402C16.7692 24.2945 17.3099 24.2945 17.748 24.0402C18.186 23.7859 18.454 23.3164 18.4504 22.8098V18.4648C18.4451 18.1811 18.5552 17.9075 18.7558 17.7069C18.9567 17.5063 19.2303 17.3959 19.514 17.4012C19.7945 17.3994 20.0648 17.5075 20.2672 17.7021C20.4646 17.9072 20.5756 18.1802 20.5776 18.4648C20.5776 18.7168 20.7815 18.9207 21.0335 18.9207C21.2851 18.9207 21.4893 18.7168 21.4893 18.4648C21.484 18.1811 21.5941 17.9075 21.7947 17.7069C21.9956 17.5063 22.2692 17.3959 22.5529 17.4012C22.8331 17.3994 23.1031 17.5072 23.3055 17.7013C23.4346 17.8431 23.5735 18.2108 23.6314 18.4289C23.6898 18.6506 23.9035 18.7943 24.1308 18.7649C24.3579 18.7355 24.5279 18.542 24.5282 18.3129C24.5282 14.7045 21.603 11.7793 17.9946 11.7793C14.3859 11.7793 11.4609 14.7045 11.4609 18.3129C11.4609 18.542 11.631 18.7355 11.858 18.7649ZM17.9946 12.6909C20.4625 12.6942 22.6414 14.3039 23.3693 16.6623C22.6221 16.3308 21.7484 16.4851 21.1599 17.0525C21.1534 17.0588 21.1468 17.0653 21.1403 17.0721C21.1029 17.1119 21.0673 17.1525 21.0335 17.1944C20.9993 17.1525 20.9637 17.1119 20.9263 17.0721C20.9231 17.0688 20.9201 17.0653 20.9168 17.062C20.1411 16.3026 18.9018 16.2981 18.121 17.0525C18.1142 17.0588 18.1076 17.0653 18.1014 17.0721C18.064 17.1119 18.0281 17.1525 17.9943 17.1944C17.9604 17.1525 17.9248 17.1119 17.8874 17.0721C17.8842 17.0688 17.8809 17.0653 17.8776 17.062C17.1022 16.3026 15.8629 16.2981 15.0821 17.0525C15.0753 17.0588 15.0687 17.0653 15.0625 17.0721C15.0248 17.1119 14.9892 17.1525 14.9554 17.1944C14.9215 17.1525 14.8859 17.1119 14.8482 17.0721C14.8453 17.0688 14.842 17.0653 14.8387 17.062C14.4648 16.694 13.9609 16.4884 13.4362 16.4896C13.1546 16.4887 12.8759 16.548 12.6192 16.6638C13.3466 14.3048 15.5258 12.6942 17.9946 12.6909Z" fill="currentColor"/>
</g>

</symbol><symbol id="search-mobile" viewBox="0 0 22 22">
<path d="M21.7306 20.4376L16.4416 15.1486C17.7527 13.5502 18.5429 11.5029 18.5429 9.27143C18.5429 4.15306 14.3898 0 9.27143 0C4.14857 0 0 4.15306 0 9.27143C0 14.3898 4.14857 18.5429 9.27143 18.5429C11.5029 18.5429 13.5457 17.7571 15.1441 16.4461L20.4331 21.7306C20.7922 22.0898 21.3714 22.0898 21.7306 21.7306C22.0898 21.3759 22.0898 20.7922 21.7306 20.4376ZM9.27143 16.6975C5.17224 16.6975 1.84082 13.3661 1.84082 9.27143C1.84082 5.17673 5.17224 1.84082 9.27143 1.84082C13.3661 1.84082 16.702 5.17673 16.702 9.27143C16.702 13.3661 13.3661 16.6975 9.27143 16.6975Z" fill="currentColor"/>
</symbol><symbol id="search" viewBox="0 0 36 36">
<path d="M35.1423 34.8493L25.0429 24.3462C27.6189 21.7627 29.2148 18.2012 29.2148 14.2733C29.2148 6.4026 22.8122 0 14.9415 0C7.07081 0 0.668213 6.4026 0.668213 14.2733C0.668213 22.144 7.07081 28.5466 14.9415 28.5466C18.3963 28.5466 21.5671 27.3116 24.0384 25.2624L34.1622 35.7913C34.2954 35.9307 34.4735 36 34.6523 36C34.8222 36 34.9914 35.9368 35.1233 35.8104C35.3938 35.5501 35.402 35.1198 35.1423 34.8493ZM14.9415 27.1873C7.8205 27.1873 2.02758 21.3943 2.02758 14.2733C2.02758 7.15229 7.8205 1.35936 14.9415 1.35936C22.0625 1.35936 27.8555 7.15229 27.8555 14.2733C27.8555 21.3943 22.0619 27.1873 14.9415 27.1873Z" fill="currentColor"/>
</symbol><symbol id="unvis-reg-passw" viewBox="0 0 27 108">
<path d="M9.20447 60.4208C9.27303 60.4752 9.35499 60.502 9.43659 60.502C9.54612 60.502 9.65454 60.454 9.72831 60.3616C9.85648 60.2006 9.83002 59.9663 9.66907 59.8381C9.37064 59.6004 9.08153 59.3422 8.81029 59.0706L6.05401 56.3143L8.89636 53.472C11.6288 50.7399 15.6038 49.8074 19.2684 51.0376C19.4632 51.102 19.6745 50.9977 19.7404 50.8029C19.8056 50.608 19.7009 50.3964 19.5057 50.3308C15.5706 49.0101 11.3032 50.0115 8.36954 52.9448L5 56.3143L8.2831 59.5974C8.57408 59.8888 8.88443 60.1656 9.20447 60.4208Z" fill="#3990C8"/>
<path d="M23.7168 52.9452C23.2146 52.443 22.6639 51.9899 22.0797 51.598C21.9091 51.4836 21.677 51.5291 21.5626 51.6997C21.4479 51.8703 21.4937 52.1021 21.6643 52.2168C22.2083 52.5816 22.7217 53.0041 23.1896 53.472L25.9459 56.2283L23.1036 59.0707C20.3521 61.8221 16.2061 62.7524 12.5404 61.4387C12.3467 61.3691 12.1332 61.47 12.0639 61.6638C11.9946 61.8575 12.0952 62.0706 12.2889 62.1403C13.4745 62.565 14.7069 62.771 15.9312 62.771C18.7706 62.771 21.566 61.6619 23.6304 59.5975L26.9996 56.2283L23.7168 52.9452Z" fill="#3990C8"/>
<path d="M16.378 60.5639C15.5758 60.5639 14.7942 60.3411 14.1165 59.9194C13.9425 59.8113 13.7126 59.8642 13.6034 60.039C13.4946 60.2137 13.5483 60.4432 13.723 60.552C14.5185 61.0475 15.4369 61.3091 16.378 61.3091C19.1514 61.3091 21.4077 59.0528 21.4077 56.2793C21.4077 55.279 21.1145 54.3125 20.5601 53.4843C20.4453 53.3133 20.2136 53.2675 20.0433 53.3818C19.8723 53.4966 19.8265 53.728 19.9409 53.8986C20.4129 54.6039 20.6625 55.4269 20.6625 56.2793C20.6625 58.6422 18.7404 60.5639 16.378 60.5639Z" fill="#3990C8"/>
<path d="M16.378 51.9947C17.1474 51.9947 17.9014 52.2007 18.5594 52.5908C18.736 52.6955 18.9648 52.6374 19.0698 52.4601C19.1745 52.2831 19.1164 52.0547 18.9391 51.9496C18.1663 51.4917 17.2807 51.2496 16.3776 51.2496C13.6042 51.2496 11.3479 53.5059 11.3479 56.2793C11.3479 57.0557 11.52 57.8005 11.8598 58.4927C11.9246 58.6246 12.0569 58.7014 12.1948 58.7014C12.2495 58.7014 12.3058 58.6891 12.3583 58.6634C12.5431 58.5725 12.6195 58.3493 12.529 58.1649C12.2398 57.5755 12.093 56.9414 12.093 56.2797C12.0934 53.9168 14.0155 51.9947 16.378 51.9947Z" fill="#3990C8"/>
<path d="M25.3503 47.0742C25.2046 46.9285 24.9692 46.9285 24.8235 47.0742L7.49891 64.3988C7.35323 64.5444 7.35323 64.7799 7.49891 64.9256C7.57156 64.9982 7.66694 65.0347 7.76231 65.0347C7.85769 65.0347 7.95307 64.9982 8.02572 64.9256L25.3503 47.601C25.496 47.4557 25.496 47.2198 25.3503 47.0742Z" fill="#3990C8"/>
<line x1="0.952393" y1="0.5" x2="15.9524" y2="0.5" stroke="#3990C8"/>
<line x1="1" y1="107.5" x2="16" y2="107.5" stroke="#3990C8"/>
<line x1="16.5" x2="16.5" y2="33" stroke="#3990C8"/>
<line x1="16.5" y1="75" x2="16.5" y2="108" stroke="#3990C8"/>
</symbol><symbol id="unvisible" viewBox="0 0 22 20">
<path d="M4.20447 14.4208C4.27303 14.4752 4.35499 14.502 4.43659 14.502C4.54612 14.502 4.65454 14.454 4.72831 14.3616C4.85648 14.2006 4.83002 13.9663 4.66907 13.8381C4.37064 13.6004 4.08153 13.3422 3.81029 13.0706L1.05401 10.3143L3.89636 7.47198C6.6288 4.73991 10.6038 3.80736 14.2684 5.03759C14.4632 5.10205 14.6745 4.99773 14.7404 4.80287C14.8056 4.60802 14.7009 4.39639 14.5057 4.33082C10.5706 3.01005 6.30317 4.01153 3.36954 6.94479L0 10.3143L3.2831 13.5974C3.57408 13.8888 3.88443 14.1656 4.20447 14.4208Z" fill="#3990C8"/>
<path d="M18.7168 6.94518C18.2146 6.44295 17.6639 5.9899 17.0797 5.59796C16.9091 5.48358 16.677 5.52903 16.5626 5.69967C16.4479 5.87031 16.4937 6.10205 16.6643 6.2168C17.2083 6.58155 17.7217 7.00404 18.1896 7.47199L20.9459 10.2283L18.1036 13.0706C15.3521 15.8221 11.2061 16.7524 7.54041 15.4387C7.34668 15.369 7.13319 15.47 7.06389 15.6637C6.99459 15.8575 7.09519 16.0706 7.28893 16.1403C8.47445 16.565 9.70692 16.771 10.9312 16.771C13.7706 16.771 16.566 15.6619 18.6304 13.5975L21.9996 10.2283L18.7168 6.94518Z" fill="#3990C8"/>
<path d="M11.378 14.564C10.5758 14.564 9.79417 14.3412 9.11646 13.9194C8.94247 13.8114 8.71259 13.8643 8.60343 14.039C8.49463 14.2137 8.54829 14.4432 8.72302 14.552C9.51846 15.0476 10.4369 15.3091 11.378 15.3091C14.1514 15.3091 16.4077 13.0528 16.4077 10.2794C16.4077 9.27902 16.1145 8.31256 15.5601 7.48434C15.4453 7.31333 15.2136 7.2675 15.0433 7.38188C14.8723 7.49663 14.8265 7.728 14.9409 7.89864C15.4129 8.60392 15.6625 9.42693 15.6625 10.2794C15.6625 12.6422 13.7404 14.564 11.378 14.564Z" fill="#3990C8"/>
<path d="M11.378 5.99472C12.1474 5.99472 12.9014 6.20075 13.5594 6.59083C13.736 6.69552 13.9648 6.6374 14.0698 6.46006C14.1745 6.28309 14.1164 6.0547 13.9391 5.94964C13.1663 5.49174 12.2807 5.24957 11.3776 5.24957C8.6042 5.24957 6.3479 7.50587 6.3479 10.2793C6.3479 11.0557 6.52003 11.8005 6.85981 12.4927C6.92464 12.6246 7.05691 12.7014 7.19476 12.7014C7.24952 12.7014 7.30578 12.6891 7.35832 12.6634C7.54311 12.5725 7.61949 12.3493 7.52895 12.1649C7.23984 11.5755 7.09304 10.9414 7.09304 10.2797C7.09342 7.91682 9.01552 5.99472 11.378 5.99472Z" fill="#3990C8"/>
<path d="M20.3503 1.07416C20.2046 0.928486 19.9692 0.928486 19.8235 1.07416L2.49891 18.3988C2.35323 18.5444 2.35323 18.7799 2.49891 18.9256C2.57156 18.9982 2.66694 19.0347 2.76231 19.0347C2.85769 19.0347 2.95307 18.9982 3.02572 18.9256L20.3503 1.60098C20.496 1.45568 20.496 1.21984 20.3503 1.07416Z" fill="#3990C8"/>
</symbol><symbol id="user-mobile" viewBox="0 0 24 24">
<path d="M23 12C23 5.92 18.08 1 12 1C5.92 1 1 5.92 1 12C1 15.2 2.36 18.08 4.56 20.12L4.92 20.44C4.96 20.44 4.96 20.48 5 20.48C5.2 20.64 5.4 20.8 5.6 20.92C5.68 20.96 5.72 21 5.8 21.04C6 21.2 6.24 21.32 6.44 21.44C6.48 21.48 6.52 21.48 6.6 21.52C6.84 21.64 7.08 21.8 7.36 21.92C7.36 21.92 7.4 21.92 7.4 21.96C8.24 22.36 9.12 22.64 10.08 22.8C10.12 22.8 10.12 22.8 10.16 22.8C10.44 22.84 10.76 22.88 11.04 22.92C11.08 22.92 11.12 22.92 11.16 22.92C11.4 23 11.68 23 12 23C12.28 23 12.6 23 12.88 22.96C12.92 22.96 12.96 22.96 13 22.96C13.28 22.92 13.6 22.88 13.88 22.84C13.92 22.84 13.92 22.84 13.96 22.84C14.88 22.68 15.76 22.4 16.6 22C16.64 22 16.68 21.96 16.68 21.96C16.92 21.84 17.16 21.72 17.4 21.6C17.44 21.56 17.52 21.52 17.56 21.48C17.76 21.36 18 21.24 18.2 21.08C18.28 21.04 18.36 20.96 18.4 20.92C18.56 20.8 18.76 20.68 18.92 20.52C18.96 20.48 19 20.48 19.04 20.44L19.4 20.12C21.6 18.12 23 15.2 23 12ZM1.8 12C1.8 6.36 6.36 1.8 12 1.8C17.64 1.8 22.2 6.36 22.2 12C22.2 15.04 20.88 17.76 18.76 19.64C18.64 19.56 18.52 19.48 18.4 19.44L15 17.76C14.68 17.6 14.52 17.32 14.52 16.96V15.76C14.6 15.68 14.68 15.56 14.76 15.44C15.2 14.84 15.56 14.12 15.8 13.4C16.32 13.16 16.64 12.64 16.64 12.08V10.68C16.64 10.32 16.52 10 16.28 9.72V7.8C16.32 7.6 16.36 6.44 15.52 5.44C14.8 4.64 13.6 4.2 12 4.2C10.4 4.2 9.2 4.64 8.44 5.48C7.6 6.44 7.68 7.6 7.68 7.84V9.72C7.44 10 7.32 10.32 7.32 10.68V12.08C7.32 12.52 7.52 12.92 7.84 13.2C8.16 14.48 8.84 15.44 9.08 15.76V16.92C9.08 17.24 8.92 17.56 8.6 17.72L5.48 19.4C5.36 19.44 5.28 19.52 5.16 19.6C3.12 17.72 1.8 15 1.8 12ZM18 20.24C17.88 20.36 17.72 20.44 17.56 20.52C17.48 20.56 17.44 20.6 17.36 20.64C17.16 20.76 16.96 20.88 16.8 20.96C16.76 21 16.72 21 16.68 21.04C16.24 21.28 15.76 21.48 15.28 21.64H15.24C15 21.72 14.72 21.8 14.48 21.88C14.24 21.96 13.96 22 13.68 22.04C13.68 22.04 13.68 22.04 13.64 22.04C13.4 22.08 13.16 22.12 12.88 22.12C12.84 22.12 12.8 22.12 12.76 22.12C12.52 22.12 12.28 22.16 12 22.16C11.76 22.16 11.48 22.16 11.24 22.12C11.2 22.12 11.16 22.12 11.12 22.12C10.88 22.08 10.6 22.08 10.36 22.04H10.32C9.8 21.96 9.28 21.84 8.76 21.64H8.72C8.48 21.56 8.2 21.44 7.96 21.36C7.72 21.28 7.52 21.16 7.28 21.04C7.24 21.04 7.24 21 7.2 21C7 20.88 6.8 20.76 6.6 20.64C6.56 20.6 6.48 20.56 6.44 20.52C6.24 20.4 6.08 20.28 5.92 20.16L5.88 20.12C5.88 20.12 5.92 20.12 5.92 20.08L9.08 18.36C9.64 18.08 9.96 17.48 9.96 16.88V15.44L9.88 15.32C9.88 15.32 9 14.24 8.68 12.84L8.6 12.68L8.44 12.6C8.24 12.48 8.12 12.28 8.12 12.04V10.64C8.12 10.44 8.2 10.28 8.36 10.16L8.48 10.04V7.8V7.76C8.48 7.76 8.36 6.8 9.04 6C9.6 5.36 10.6 5 12 5C13.36 5 14.36 5.32 14.92 6C15.6 6.76 15.48 7.76 15.48 7.76V10.04L15.6 10.16C15.76 10.28 15.84 10.48 15.84 10.64V12.04C15.84 12.32 15.64 12.6 15.36 12.68L15.16 12.76L15.08 12.96C14.84 13.68 14.52 14.36 14.08 14.96C13.96 15.12 13.88 15.24 13.8 15.32L13.72 15.44V16.92C13.72 17.56 14.08 18.16 14.64 18.44L18.04 20.12C18.08 20.12 18.08 20.16 18.12 20.16C18.08 20.2 18.04 20.24 18 20.24Z" fill="currentColor" stroke="currentColor" stroke-miterlimit="10"/>
</symbol><symbol id="user" viewBox="0 0 36 36">
<path d="M36 18C36 8.07513 27.9249 0 18 0C8.07513 0 0 8.07513 0 18C0 23.2423 2.25425 27.9674 5.84247 31.2598L5.82545 31.2748L6.40931 31.7671C6.44727 31.7991 6.48851 31.8253 6.52647 31.8567C6.83673 32.114 7.15811 32.3581 7.48538 32.5944C7.59142 32.671 7.69745 32.7476 7.80545 32.8222C8.15498 33.0631 8.51367 33.2915 8.88022 33.5081C8.96007 33.5553 9.04058 33.6011 9.12109 33.6469C9.52233 33.8753 9.93207 34.0907 10.3516 34.2884C10.3824 34.3028 10.4138 34.3159 10.4446 34.3303C11.8119 34.9658 13.2716 35.4325 14.798 35.7081C14.8379 35.7153 14.8778 35.7225 14.9184 35.7297C15.3923 35.8115 15.8714 35.8769 16.3564 35.9208C16.4153 35.926 16.4743 35.9293 16.5338 35.9345C17.0169 35.9745 17.5052 36 18 36C18.4903 36 18.974 35.9745 19.4544 35.9359C19.5153 35.9306 19.5761 35.9273 19.637 35.9221C20.1181 35.8783 20.5933 35.8148 21.0626 35.7343C21.1032 35.7271 21.1444 35.7199 21.185 35.712C22.6885 35.4423 24.1272 34.9861 25.4769 34.3669C25.5266 34.344 25.577 34.3224 25.6268 34.2988C26.0306 34.109 26.4253 33.9041 26.8121 33.6862C26.9084 33.6319 27.0039 33.5769 27.0995 33.5206C27.4516 33.3131 27.7979 33.0964 28.1343 32.866C28.2554 32.7836 28.3739 32.6965 28.4937 32.6101C28.781 32.4033 29.0631 32.1899 29.3374 31.9667C29.3983 31.9176 29.4637 31.8751 29.5233 31.8247L30.1222 31.3246L30.1045 31.3095C33.7241 28.0159 36 23.2691 36 18ZM1.30909 18C1.30909 8.79644 8.79644 1.30909 18 1.30909C27.2036 1.30909 34.6909 8.79644 34.6909 18C34.6909 22.9595 32.5145 27.4183 29.069 30.4776C28.8766 30.3447 28.6828 30.2256 28.4845 30.1261L22.9425 27.3554C22.445 27.1067 22.1361 26.6066 22.1361 26.0509V24.1154C22.2644 23.957 22.3999 23.7777 22.5399 23.5807C23.2573 22.5674 23.8327 21.4403 24.2522 20.2274C25.0815 19.8334 25.6169 19.0073 25.6169 18.0746V15.7543C25.6169 15.1868 25.4088 14.6363 25.0364 14.2036V11.1489C25.0704 10.8092 25.1908 8.892 23.8039 7.31062C22.5975 5.93345 20.645 5.23636 18 5.23636C15.355 5.23636 13.4025 5.93345 12.1961 7.30996C10.8092 8.89135 10.9296 10.8085 10.9636 11.1482V14.203C10.5919 14.6356 10.3831 15.1861 10.3831 15.7536V18.074C10.3831 18.7946 10.7064 19.4668 11.2601 19.9204C11.7903 21.9973 12.8815 23.5695 13.2847 24.1023V25.9966C13.2847 26.5307 12.9934 27.0216 12.5241 27.2782L7.34858 30.1012C7.18364 30.1909 7.02 30.2956 6.85636 30.4128C3.45338 27.3548 1.30909 22.9235 1.30909 18ZM27.7913 31.5046C27.5623 31.6708 27.3292 31.8319 27.0929 31.9857C26.9843 32.0564 26.8763 32.1271 26.7657 32.1958C26.4567 32.3869 26.1425 32.5689 25.8218 32.7391C25.7511 32.7764 25.6798 32.8117 25.6084 32.8484C24.8714 33.226 24.1089 33.5507 23.3254 33.8145C23.2979 33.8236 23.2704 33.8335 23.2423 33.8426C22.8319 33.9788 22.4162 34.0999 21.996 34.2039C21.9947 34.2039 21.9934 34.2046 21.9921 34.2046C21.5679 34.3093 21.1385 34.3964 20.7065 34.4677C20.6948 34.4697 20.683 34.4723 20.6712 34.4743C20.2647 34.5404 19.855 34.5881 19.4439 34.6241C19.3713 34.6307 19.2986 34.6353 19.2253 34.6405C18.8188 34.6713 18.4104 34.6909 18 34.6909C17.585 34.6909 17.1713 34.6706 16.7596 34.6399C16.6883 34.6346 16.6169 34.63 16.5463 34.6235C16.1313 34.5868 15.7183 34.5377 15.3092 34.471C15.2908 34.4677 15.2725 34.4644 15.2542 34.4612C14.3889 34.3165 13.5373 34.1038 12.708 33.8256C12.6825 33.8171 12.6563 33.8079 12.6308 33.7994C12.2191 33.6593 11.8119 33.5042 11.412 33.3327C11.4094 33.3314 11.4061 33.3301 11.4035 33.3288C11.0252 33.1658 10.654 32.9852 10.2875 32.7947C10.2397 32.7698 10.1913 32.7463 10.1441 32.7207C9.80967 32.542 9.4824 32.3489 9.15971 32.1473C9.06415 32.0871 8.96924 32.0263 8.87498 31.9647C8.57782 31.7703 8.28458 31.5681 7.9992 31.354C7.96975 31.3318 7.9416 31.3082 7.91215 31.286C7.93309 31.2742 7.95404 31.2624 7.97498 31.2506L13.1505 28.4276C14.0407 27.9419 14.5937 27.0105 14.5937 25.9966L14.5931 23.6389L14.4425 23.4569C14.4281 23.4406 13.013 21.7191 12.4783 19.3883L12.4187 19.1291L12.1955 18.9844C11.8807 18.7809 11.6921 18.4405 11.6921 18.0733V15.7529C11.6921 15.4486 11.8211 15.1652 12.0567 14.9524L12.2727 14.7574V11.1116L12.2668 11.0258C12.2649 11.0101 12.0718 9.43593 13.1806 8.172C14.1271 7.09331 15.749 6.54545 18 6.54545C20.2425 6.54545 21.8592 7.08873 22.8083 8.15956C23.9158 9.4104 23.7345 11.014 23.7332 11.0271L23.7273 14.7587L23.9433 14.9537C24.1783 15.1658 24.3079 15.4499 24.3079 15.7543V18.0746C24.3079 18.5413 23.9904 18.9648 23.5348 19.1055L23.2095 19.2057L23.1048 19.5297C22.7186 20.7295 22.1688 21.8376 21.4711 22.8233C21.2996 23.0655 21.1327 23.2802 20.9893 23.4445L20.827 23.6297V26.0509C20.827 27.106 21.4135 28.0551 22.3573 28.5264L27.8993 31.2971C27.9347 31.3148 27.9694 31.3331 28.0041 31.3514C27.934 31.4044 27.862 31.4535 27.7913 31.5046Z" fill="currentColor"/>
</symbol><symbol id="vk" viewBox="0 0 31 18">
<path d="M27.6541 11.937L27.6373 11.9217C27.3726 11.6828 26.5619 10.9112 26.2885 10.574C25.9675 10.1533 26.0415 9.87756 26.2821 9.46447C26.586 8.94245 27.195 8.14173 27.8395 7.29382C29.9038 4.57894 31.2365 2.69947 30.9622 1.36447L30.8143 0.651401L23.1909 0.654639C23.1641 0.724951 22.7663 2.43395 21.0876 5.34404C19.8703 7.4541 19.0718 8.11698 18.7906 8.23401L18.7471 8.22106C18.6555 8.1105 18.4957 7.81214 18.4299 7.0431C18.3613 6.23752 18.4221 5.26217 18.481 4.31897C18.5498 3.21294 18.6092 2.25771 18.467 1.57425L18.2355 0.460818C17.9557 0.417104 16.9314 0.0306183 14.0774 0.00124448C11.6066 -0.0235036 10.8807 0.325513 10.5243 0.633129L9.34527 1.65057L10.8355 2.14091C11.4027 2.32756 11.5909 2.54289 11.7454 3.61029C11.8461 4.30601 11.8989 5.47518 11.7901 6.519C11.6338 8.01567 11.2589 8.29415 11.2395 8.30895C11.1749 8.28744 10.6274 8.05314 9.67686 6.08787C9.01746 4.72488 8.43943 3.11256 8.01702 1.93529C7.53359 0.587102 7.62063 0.874133 7.37537 0.23716L0 0.236929L0.47728 1.44426C2.46705 6.48245 4.29268 10.4169 6.73584 13.2428C9.43514 16.365 12.7898 17.9998 17.3086 17.9998H18.2168V17.1116C18.2168 16.2813 18.287 15.6834 18.4377 15.2301C18.5297 14.9539 18.652 14.7256 18.7804 14.4862C18.971 14.1338 19.1574 13.9827 19.2591 13.9603C19.3513 13.9397 19.5136 14.0059 19.6933 14.137C20.2094 14.5133 20.619 15.0078 21.0528 15.5314C21.6786 16.2871 22.3257 17.0681 23.3524 17.5795C23.9134 17.8589 24.9418 18 25.5077 18C25.6574 18 30.9934 17.9998 31 17.9998L30.961 17.0751C30.9028 15.6924 29.79 13.9635 27.6541 11.937ZM25.543 16.2235H25.5283C25.1381 16.2297 24.3933 16.1046 24.1767 15.9968C23.4941 15.6568 23.017 15.0807 22.4643 14.4136C21.9792 13.8278 21.4776 13.222 20.7792 12.7129C20.2144 12.301 19.7014 12.1805 19.2941 12.1805C19.1314 12.1805 18.9852 12.1997 18.8599 12.2275C18.3871 12.3315 17.7109 12.6641 17.1733 13.6585C17.0217 13.9413 16.8498 14.2617 16.7105 14.6808C16.5645 15.1193 16.4737 15.6066 16.4304 16.1994C13.0251 16.0102 10.3679 14.6928 8.12298 12.0961C6.03577 9.68165 4.39367 6.30459 2.6546 2.01254C2.78043 2.01254 5.93336 2.013 6.11949 2.013C6.17649 2.16959 6.23798 2.34121 6.30326 2.523C6.75854 3.79301 7.38223 5.53208 8.11707 7.01511C9.1693 9.13882 10.1302 10.0859 11.2326 10.0859C11.783 10.0859 12.2766 9.8579 12.66 9.42608C13.2066 8.81062 13.5239 7.79479 13.6304 6.32032C13.7143 5.15762 13.6363 3.99955 13.5441 3.36143C13.4679 2.8364 13.3593 2.28523 13.0944 1.79143C14.2233 1.7417 15.7349 1.82034 16.6925 1.95472C16.7795 2.41822 16.7228 3.32928 16.6679 4.21072C16.5352 6.33998 16.3983 8.53723 17.5508 9.56532C17.7535 9.74618 17.9685 9.84309 17.9746 9.84703L18.5612 10.023C18.7875 9.95481 20.0985 10.6052 22.5809 6.36866C23.3763 5.01122 24.1168 3.447 24.5156 2.42539C25.4403 2.42354 28.5909 2.42701 28.961 2.42748C28.4367 3.55594 27.1941 5.16549 26.3819 6.23382C25.6738 7.16499 25.0624 7.96918 24.7036 8.58534C24.0371 9.72999 24.1492 10.7502 24.8434 11.6502L24.8543 11.664C25.2417 12.1463 26.1983 13.0391 26.3968 13.219C27.8343 14.5838 28.527 15.5643 28.8567 16.2232H25.543V16.2235Z" fill="currentColor"/>
</symbol></svg>