<svg width="53" height="53" viewBox="0 0 53 53" fill="none" xmlns="http://www.w3.org/2000/svg">
<path d="M12.8054 51.4473H9.41895C8.42012 51.4473 7.60742 50.6346 7.60742 49.6357V3.36426C7.60742 2.36544 8.42012 1.55273 9.41895 1.55273H22.87C23.2987 1.55273 23.6463 1.20513 23.6463 0.776367C23.6463 0.347605 23.2987 0 22.87 0H9.41895C7.56395 0 6.05469 1.50926 6.05469 3.36426V49.6357C6.05469 51.4907 7.56395 53 9.41895 53H12.8054C13.2341 53 13.5817 52.6524 13.5817 52.2236C13.5817 51.7949 13.2341 51.4473 12.8054 51.4473Z" fill="#3990C8"/>
<path d="M46.7162 10.9413L36.0024 0.227424C35.9011 0.126082 35.7597 0.0457539 35.6049 0.0150098C35.5988 0.00890234 35.4634 0 35.4534 0H26.4933C26.0646 0 25.717 0.347605 25.717 0.776367C25.717 1.20513 26.0646 1.55273 26.4933 1.55273H34.6771V8.90234C34.6771 10.7573 36.1863 12.2666 38.0413 12.2666H45.3909V49.6357C45.3909 50.6346 44.5782 51.4473 43.5794 51.4473H16.4287C15.9999 51.4473 15.6523 51.7949 15.6523 52.2236C15.6523 52.6524 15.9999 53 16.4287 53H43.5794C45.4344 53 46.9437 51.4907 46.9437 49.6357V11.4902C46.9437 11.2944 46.8648 11.0897 46.7162 10.9413ZM38.0413 10.7139C37.0425 10.7139 36.2298 9.90117 36.2298 8.90234V2.65062L44.293 10.7139H38.0413Z" fill="#3990C8"/>
<path d="M39.9561 21H13.042C12.6132 21 12.2656 21.3476 12.2656 21.7764C12.2656 22.2051 12.6132 22.5527 13.042 22.5527H39.9561C40.3848 22.5527 40.7324 22.2051 40.7324 21.7764C40.7324 21.3476 40.3848 21 39.9561 21Z" fill="#1BC47D"/>
<path d="M39.9561 27.901H13.042C12.6132 27.901 12.2656 28.2486 12.2656 28.6774C12.2656 29.1061 12.6132 29.4537 13.042 29.4537H39.9561C40.3848 29.4537 40.7324 29.1061 40.7324 28.6774C40.7324 28.2486 40.3848 27.901 39.9561 27.901Z" fill="#1BC47D"/>
<path d="M39.9561 34.8021H13.042C12.6132 34.8021 12.2656 35.1497 12.2656 35.5785C12.2656 36.0073 12.6132 36.3549 13.042 36.3549H39.9561C40.3848 36.3549 40.7324 36.0073 40.7324 35.5785C40.7324 35.1497 40.3848 34.8021 39.9561 34.8021Z" fill="#1BC47D"/>
</svg>