<svg width="56" height="59" viewBox="0 0 56 59" fill="none" xmlns="http://www.w3.org/2000/svg">
<g clip-path="url(#clip0)">
<path d="M41.038 43.3592V48.1833C41.038 48.6343 40.6723 49 40.2213 49C39.7703 49 39.4047 48.6343 39.4047 48.1833V43.3592C39.4047 39.6031 36.3651 36.5633 32.6087 36.5634C30.8313 36.5634 29.2187 35.6579 28.2948 34.1412C28.0602 33.756 28.1822 33.2535 28.5674 33.0189C28.9525 32.7841 29.455 32.9063 29.6897 33.2914C30.3148 34.3175 31.4059 34.93 32.6087 34.93C37.2675 34.93 41.038 38.6999 41.038 43.3592ZM27.4129 37.0353L24.5005 39.29L19.5486 35.4563C20.6176 34.5977 21.3088 33.3488 21.4208 31.9303C22.398 32.218 23.4315 32.3731 24.5006 32.3731C30.5235 32.3731 35.4235 27.4731 35.4235 21.4502C35.4235 21.3867 35.425 15.7323 35.4209 15.669C35.3931 15.2272 35.0247 14.9041 34.6069 14.9041C34.467 14.9041 33.4608 15.1031 32.4758 14.5105C30.9396 13.5864 30.9318 11.5606 30.9319 11.5403C30.9358 10.8768 30.1855 10.4852 29.6434 10.8687C26.2795 13.25 22.3407 14.8648 18.0637 15.4635C17.6171 15.5261 17.3057 15.9388 17.3682 16.3855C17.4254 16.7938 17.7752 17.0891 18.176 17.0891C18.3047 17.0891 20.9527 16.7649 23.9628 15.6716C25.9022 14.9673 27.7604 14.0481 29.5027 12.9324C30.1047 15.1911 31.7928 16.4477 33.7903 16.5611V21.4502C33.7903 26.5725 29.623 30.7397 24.5007 30.7397C19.3784 30.7397 15.2111 26.5725 15.2111 21.4502V15.7208C15.2111 15.2698 14.8455 14.9042 14.3945 14.9042C13.9435 14.9042 13.5778 15.2698 13.5778 15.7208V21.4503C13.5778 25.7931 16.1256 29.5518 19.8049 31.311V31.5264C19.8049 33.4089 18.2793 34.93 16.3925 34.93C15.3594 34.93 14.3414 35.1169 13.3784 35.485L12.8512 35.0653C8.71362 31.7722 7.93871 25.9588 10.7604 21.7232C11.9629 19.9181 12.659 17.759 12.659 15.449V11.0254C12.659 5.84662 16.8721 1.63333 22.0507 1.63333H26.9507C32.1293 1.63333 36.3424 5.84641 36.3424 11.025V15.4486C36.3424 17.6955 36.9958 19.8607 38.232 21.71C40.493 25.0921 40.4885 29.531 38.1523 32.921C37.8964 33.2923 37.9899 33.8009 38.3613 34.0568C38.7327 34.3127 39.2411 34.2192 39.4971 33.8478C42.2167 29.9017 42.2198 24.7364 39.5899 20.8022C38.5338 19.2225 37.9756 17.3713 37.9756 15.4486V11.025C37.9756 4.94584 33.0298 0 26.9506 0H22.0506C15.9714 0 11.0256 4.94604 11.0256 11.0254V15.4486C11.0256 17.3657 10.4638 19.2223 9.40085 20.8179C6.10815 25.7609 7.04129 32.4837 11.7821 36.3009C9.45322 37.8287 7.96311 40.4233 7.96311 43.3592V48.1833C7.96311 48.6343 8.32877 49 8.77977 49C9.23078 49 9.59644 48.6343 9.59644 48.1833V43.3592C9.59644 39.603 12.636 36.5633 16.3924 36.5634C16.9337 36.5634 17.4684 36.4775 17.9812 36.3084L24.0006 40.9686C24.295 41.1964 24.7062 41.1964 25.0005 40.9686L28.4128 38.3268C28.7695 38.0506 28.8348 37.5378 28.5586 37.1811C28.2826 36.8246 27.7697 36.7592 27.4129 37.0353Z" fill="#3990C8"/>
</g>
<g clip-path="url(#clip1)">
<rect x="34" y="32" width="22" height="27" rx="2" fill="white"/>
</g>
<path d="M37.2804 57.2383H35.6191C35.1292 57.2383 34.7305 56.8396 34.7305 56.3496V33.6504C34.7305 33.1604 35.1292 32.7617 35.6191 32.7617H42.2178C42.4281 32.7617 42.5986 32.5912 42.5986 32.3809C42.5986 32.1705 42.4281 32 42.2178 32H35.6191C34.7091 32 33.9688 32.7404 33.9688 33.6504V56.3496C33.9688 57.2596 34.7091 58 35.6191 58H37.2804C37.4907 58 37.6613 57.8295 37.6613 57.6191C37.6613 57.4088 37.4907 57.2383 37.2804 57.2383Z" fill="#1BC47D" stroke="#1BC47D" stroke-width="0.3"/>
<path d="M53.9166 37.3674L48.6608 32.1116C48.6111 32.0619 48.5417 32.0224 48.4658 32.0074C48.4628 32.0044 48.3964 32 48.3915 32H43.996C43.7856 32 43.6151 32.1705 43.6151 32.3809C43.6151 32.5912 43.7856 32.7617 43.996 32.7617H48.0106V36.3672C48.0106 37.2772 48.751 38.0176 49.661 38.0176H53.2665V56.3496C53.2665 56.8396 52.8678 57.2383 52.3778 57.2383H39.0586C38.8483 57.2383 38.6777 57.4088 38.6777 57.6191C38.6777 57.8295 38.8483 58 39.0586 58H52.3778C53.2878 58 54.0282 57.2596 54.0282 56.3496V37.6367C54.0282 37.5406 53.9895 37.4402 53.9166 37.3674ZM49.661 37.2559C49.171 37.2559 48.7723 36.8572 48.7723 36.3672V33.3003L52.7279 37.2559H49.661Z" fill="#1BC47D" stroke="#1BC47D" stroke-width="0.3"/>
<path d="M50.5996 43H37.3965C37.1861 43 37.0156 43.1705 37.0156 43.3809C37.0156 43.5912 37.1861 43.7617 37.3965 43.7617H50.5996C50.8099 43.7617 50.9805 43.5912 50.9805 43.3809C50.9805 43.1705 50.8099 43 50.5996 43Z" fill="#1BC47D" stroke="#1BC47D" stroke-width="0.3"/>
<path d="M50.5996 46.3854H37.3965C37.1861 46.3854 37.0156 46.5559 37.0156 46.7662C37.0156 46.9766 37.1861 47.1471 37.3965 47.1471H50.5996C50.8099 47.1471 50.9805 46.9766 50.9805 46.7662C50.9805 46.5559 50.8099 46.3854 50.5996 46.3854Z" fill="#1BC47D" stroke="#1BC47D" stroke-width="0.3"/>
<path d="M50.5996 49.7709H37.3965C37.1861 49.7709 37.0156 49.9414 37.0156 50.1517C37.0156 50.3621 37.1861 50.5326 37.3965 50.5326H50.5996C50.8099 50.5326 50.9805 50.3621 50.9805 50.1517C50.9805 49.9414 50.8099 49.7709 50.5996 49.7709Z" fill="#1BC47D" stroke="#1BC47D" stroke-width="0.3"/>
<defs>
<clipPath id="clip0">
<rect width="49" height="49" fill="white"/>
</clipPath>
<clipPath id="clip1">
<rect width="28" height="30" fill="white" transform="translate(28 28)"/>
</clipPath>
</defs>
</svg>