<svg width="60" height="43" viewBox="0 0 60 43" fill="none" xmlns="http://www.w3.org/2000/svg">
<path d="M22.4336 42H50.5963C51.0552 42 51.4552 41.6877 51.5664 41.2425L58.4316 13.7772C58.6452 12.9227 57.7298 12.2294 56.9651 12.6666L45.1657 19.4124C44.7316 19.6606 44.1808 19.5499 43.8762 19.1532L30.7591 2.06874C30.3506 1.53662 29.5443 1.54978 29.1533 2.09494L16.6191 19.5723C16.3184 19.9917 15.748 20.1133 15.3023 19.8532L2.95647 12.6454C2.20608 12.2074 1.29249 12.8688 1.47446 13.7185L7.3625 41.2094C7.46126 41.6705 7.86874 42 8.34032 42H13.9752" stroke="#1BC47D" stroke-width="1.5" stroke-miterlimit="10" stroke-linecap="round"/>
<path d="M17.0039 42H19.5" stroke="#1BC47D" stroke-width="1.5" stroke-miterlimit="10" stroke-linecap="round"/>
</svg>