<svg width="50" height="50" viewBox="0 0 50 50" fill="none" xmlns="http://www.w3.org/2000/svg">
<path d="M11.2342 14.137H6.7125V5.07122C6.7125 4.61799 6.34521 4.25061 5.89189 4.25061C5.43857 4.25061 5.07129 4.61799 5.07129 5.07122V14.137H0.820605C0.367285 14.137 0 14.5044 0 14.9576V18.0967C0 18.5499 0.367285 18.9173 0.820605 18.9173C1.27393 18.9173 1.64121 18.5499 1.64121 18.0967V15.7782H10.4136V34.2216H1.64121V21.441C1.64121 20.9878 1.27393 20.6204 0.820605 20.6204C0.367285 20.6204 0 20.9878 0 21.441V35.0422C0 35.4954 0.367285 35.8628 0.820605 35.8628H5.07119V44.9286C5.07119 45.3819 5.43848 45.7492 5.8918 45.7492C6.34512 45.7492 6.7124 45.3819 6.7124 44.9286V35.8628H11.2342C11.6875 35.8628 12.0548 35.4954 12.0548 35.0422V14.9576C12.0548 14.5043 11.6874 14.137 11.2342 14.137Z" fill="#0F2746"/>
<path d="M30.2068 19.1583H25.6851V5.07122C25.6851 4.61799 25.3178 4.25061 24.8645 4.25061C24.4111 4.25061 24.0438 4.61799 24.0438 5.07122V19.1583H19.7933C19.3399 19.1583 18.9727 19.5257 18.9727 19.9789V30.6486C18.9727 31.1018 19.3399 31.4692 19.7933 31.4692C20.2466 31.4692 20.6139 31.1018 20.6139 30.6486V20.7996H29.3862V39.2429H20.6139V33.9929C20.6139 33.5397 20.2466 33.1723 19.7933 33.1723C19.3399 33.1723 18.9727 33.5397 18.9727 33.9929V40.0635C18.9727 40.5167 19.3399 40.8841 19.7933 40.8841H24.0438V44.9285C24.0438 45.3818 24.4111 45.7491 24.8645 45.7491C25.3178 45.7491 25.6851 45.3818 25.6851 44.9285V40.8841H30.2068C30.6602 40.8841 31.0274 40.5167 31.0274 40.0635V19.979C31.0274 19.5258 30.6602 19.1583 30.2068 19.1583Z" fill="#1BC47D"/>
<path d="M49.1794 9.74329H44.6578V5.07122C44.6578 4.61799 44.2905 4.25061 43.8372 4.25061C43.3839 4.25061 43.0166 4.61799 43.0166 5.07122V9.74338H38.7659C38.3126 9.74338 37.9453 10.1108 37.9453 10.564V16.4554C37.9453 16.9086 38.3126 17.276 38.7659 17.276C39.2192 17.276 39.5865 16.9086 39.5865 16.4554V11.3847H48.3589V29.8279H39.5865V19.7996C39.5865 19.3464 39.2192 18.979 38.7659 18.979C38.3126 18.979 37.9453 19.3464 37.9453 19.7996V30.6485C37.9453 31.1017 38.3126 31.4691 38.7659 31.4691H43.0166V44.9286C43.0166 45.3819 43.3839 45.7492 43.8372 45.7492C44.2905 45.7492 44.6578 45.3819 44.6578 44.9286V31.4691H49.1794C49.6327 31.4691 50 31.1017 50 30.6485V10.564C50 10.1108 49.6326 9.74329 49.1794 9.74329Z" fill="#0F2746"/>
</svg>