<svg width="84" height="84" viewBox="0 0 84 84" fill="none" xmlns="http://www.w3.org/2000/svg">
<path d="M35.7332 70.7738C35.6159 70.7738 35.4967 70.7571 35.3788 70.7231C29.0143 68.8768 23.3817 65.2155 19.0892 60.1347C14.6947 54.9328 12.021 48.5869 11.3571 41.784C10.8124 36.1931 11.6833 30.524 13.877 25.39C14.1526 24.7459 14.8973 24.446 15.5426 24.7215C16.1873 24.9971 16.4866 25.7431 16.211 26.3872C14.1846 31.1309 13.3803 36.3693 13.884 41.5373C14.4974 47.8249 16.9679 53.6895 21.0291 58.4966C24.9974 63.1942 30.2038 66.5786 36.0863 68.2846C36.7592 68.4801 37.147 69.1844 36.9515 69.8573C36.7906 70.4129 36.2837 70.7738 35.7332 70.7738Z" fill="#1BC47D"/>
<path d="M16.2972 59.713C16.9374 59.2092 17.4789 58.5741 17.8814 57.8653C17.9154 57.8057 18.2397 57.029 18.2749 57.0271C18.2397 57.029 17.8372 56.2888 17.7975 56.233C17.3251 55.5697 16.7208 54.993 16.0325 54.5572C12.0931 52.0642 7.46664 54.0611 5.16016 57.7C7.82681 61.0831 12.6333 62.5956 16.2972 59.713Z" fill="#1BC47D"/>
<path d="M5.16016 57.6993C7.82681 61.0831 12.6327 62.5962 16.2965 59.7129C16.6708 59.4181 17.0137 59.0778 17.3123 58.7042C13.5498 60.7377 9.10022 59.3592 6.22656 56.308C5.83371 56.7367 5.47546 57.2026 5.16016 57.6993Z" fill="#1BC47D"/>
<path d="M10.2751 47.5293C11.0217 47.2024 11.7055 46.7231 12.2726 46.1386C12.3201 46.0893 12.8296 45.4183 12.8635 45.4253C12.8296 45.4183 12.6258 44.6012 12.6014 44.5371C12.3105 43.7764 11.8702 43.0669 11.3133 42.4722C8.12558 39.0705 3.14603 39.8421 0 42.7856C1.73227 46.7301 6.00558 49.4006 10.2751 47.5293Z" fill="#1BC47D"/>
<path d="M0 42.785C1.73163 46.7296 6.0043 49.4007 10.2744 47.5294C10.7108 47.3377 11.1274 47.0942 11.5107 46.8077C7.35782 47.8318 3.39725 45.3812 1.38107 41.7064C0.893372 42.0224 0.429382 42.3838 0 42.785Z" fill="#1BC47D"/>
<path d="M26.6225 68.9799C27.0493 68.2858 27.339 67.5027 27.4717 66.6984C27.4826 66.6311 27.5191 65.7897 27.5511 65.7762C27.5191 65.7897 26.8859 65.234 26.8295 65.1956C26.1573 64.7354 25.3908 64.4028 24.5942 64.2317C20.037 63.2518 16.384 66.7228 15.4746 70.9339C19.1455 73.1891 24.1789 72.9494 26.6225 68.9799Z" fill="#1BC47D"/>
<path d="M15.4746 70.934C19.1455 73.1892 24.1789 72.9502 26.6219 68.98C26.8712 68.5737 27.075 68.1366 27.2269 67.6823C24.3974 70.8898 19.7454 71.1321 15.9956 69.2601C15.7745 69.7978 15.5996 70.3592 15.4746 70.934Z" fill="#1BC47D"/>
<path d="M9.25609 35.4817C10.0706 35.5086 10.8942 35.3708 11.6581 35.0876C11.7222 35.0639 12.4707 34.6781 12.4989 34.6992C12.4707 34.6781 12.6392 33.8526 12.6444 33.7841C12.7104 32.9727 12.6187 32.1422 12.3726 31.3661C10.9621 26.9223 6.13634 25.4726 2.02837 26.7723C1.89186 31.079 4.59697 35.3298 9.25609 35.4817Z" fill="#1BC47D"/>
<path d="M2.03037 26.7729C1.89322 31.0789 4.59769 35.3298 9.25681 35.4817C9.73361 35.4971 10.2143 35.4567 10.6834 35.3631C6.49466 34.498 3.97733 30.579 3.74149 26.3942C3.16535 26.4691 2.59113 26.596 2.03037 26.7729Z" fill="#1BC47D"/>
<path d="M13.1133 23.6474C13.3831 24.4158 13.8093 25.1342 14.3495 25.7437C14.395 25.795 15.0256 26.3532 15.016 26.3871C15.0256 26.3532 15.8562 26.2115 15.9216 26.1923C16.7021 25.9597 17.443 25.5739 18.0781 25.0631C21.7099 22.1407 21.3151 17.117 18.6177 13.7582C14.5533 15.1886 11.5688 19.2485 13.1133 23.6474Z" fill="#1BC47D"/>
<path d="M18.6176 13.7588C14.5539 15.1886 11.5687 19.2478 13.1132 23.6468C13.2715 24.0966 13.483 24.5305 13.74 24.9343C13.0312 20.7161 15.7735 16.951 19.5892 15.2174C19.3117 14.7066 18.9855 14.2177 18.6176 13.7588Z" fill="#1BC47D"/>
<path d="M48.267 70.7738C47.7171 70.7738 47.2102 70.4129 47.0487 69.8573C46.8532 69.1844 47.2409 68.4801 47.9139 68.2853C53.7964 66.5786 59.0028 63.1942 62.9711 58.4966C67.0323 53.6895 69.5028 47.8255 70.1161 41.5379C70.6198 36.3693 69.8156 31.1309 67.7891 26.3878C67.5136 25.7431 67.8128 24.9971 68.4576 24.7215C69.1023 24.446 69.8476 24.7459 70.1232 25.39C72.3169 30.524 73.1878 36.1931 72.6431 41.784C71.9791 48.5869 69.3054 54.9328 64.911 60.1347C60.6184 65.2155 54.9858 68.8774 48.6214 70.7231C48.5035 70.7571 48.3843 70.7738 48.267 70.7738Z" fill="#1BC47D"/>
<path d="M67.7043 59.713C67.0641 59.2092 66.5225 58.5741 66.1201 57.8653C66.0861 57.8057 65.7618 57.029 65.7266 57.0271C65.7618 57.029 66.1643 56.2888 66.204 56.233C66.6763 55.5697 67.2807 54.993 67.969 54.5572C71.9084 52.0642 76.5348 54.0611 78.8413 57.7C76.1747 61.0831 71.3681 62.5956 67.7043 59.713Z" fill="#1BC47D"/>
<path d="M78.8416 57.6993C76.175 61.0831 71.3691 62.5962 67.7052 59.7129C67.331 59.4181 66.9881 59.0778 66.6895 58.7042C70.452 60.7377 74.9015 59.3592 77.7752 56.308C78.1681 56.7367 78.5263 57.2026 78.8416 57.6993Z" fill="#1BC47D"/>
<path d="M73.7252 47.5293C72.9786 47.2024 72.2948 46.7231 71.7276 46.1386C71.6802 46.0893 71.1707 45.4183 71.1367 45.4253C71.1707 45.4183 71.3745 44.6012 71.3988 44.5371C71.6898 43.7764 72.1301 43.0669 72.687 42.4722C75.8747 39.0705 80.8542 39.8421 84.0002 42.7856C82.268 46.7301 77.9947 49.4006 73.7252 47.5293Z" fill="#1BC47D"/>
<path d="M83.9989 42.785C82.2673 46.7296 77.9946 49.4007 73.7245 47.5294C73.2881 47.3377 72.8715 47.0942 72.4883 46.8077C76.6411 47.8318 80.6017 45.3812 82.6179 41.7064C83.1056 42.0224 83.5695 42.3838 83.9989 42.785Z" fill="#1BC47D"/>
<path d="M57.3759 68.9799C56.9491 68.2858 56.6594 67.5027 56.5267 66.6984C56.5158 66.6311 56.4793 65.7897 56.4473 65.7762C56.4793 65.7897 57.1125 65.234 57.1689 65.1956C57.8418 64.7354 58.6076 64.4028 59.4042 64.2317C63.9615 63.2518 67.6151 66.7228 68.5238 70.9339C64.8529 73.1891 59.8195 72.9494 57.3759 68.9799Z" fill="#1BC47D"/>
<path d="M68.5257 70.934C64.8548 73.1892 59.8214 72.9502 57.3784 68.98C57.1291 68.5737 56.9253 68.1366 56.7734 67.6823C59.6029 70.8898 64.2549 71.1321 68.0047 69.2601C68.2258 69.7978 68.4007 70.3592 68.5257 70.934Z" fill="#1BC47D"/>
<path d="M74.7433 35.4817C73.9288 35.5086 73.1053 35.3708 72.3414 35.0876C72.2773 35.0639 71.5287 34.6781 71.5005 34.6992C71.5287 34.6781 71.3602 33.8526 71.3544 33.7841C71.289 32.9727 71.3807 32.1422 71.6268 31.3661C73.0373 26.9223 77.8631 25.4726 81.9704 26.7723C82.1076 31.079 79.4025 35.3298 74.7433 35.4817Z" fill="#1BC47D"/>
<path d="M81.9694 26.7729C82.1066 31.0789 79.4021 35.3298 74.743 35.4817C74.2662 35.4971 73.7855 35.4567 73.3164 35.3631C77.5051 34.498 80.0225 30.579 80.2583 26.3942C80.8344 26.4691 81.4087 26.596 81.9694 26.7729Z" fill="#1BC47D"/>
<path d="M70.5576 23.6474C70.2878 24.4158 69.8616 25.1342 69.3214 25.7437C69.2759 25.795 68.6453 26.3532 68.6549 26.3871C68.6453 26.3532 67.8147 26.2115 67.7493 26.1923C66.9687 25.9597 66.2279 25.5739 65.5928 25.0631C61.961 22.1407 62.3558 17.117 65.0532 13.7582C69.1169 15.1886 72.1021 19.2485 70.5576 23.6474Z" fill="#1BC47D"/>
<path d="M65.0542 13.7588C69.118 15.1886 72.1025 19.2478 70.558 23.6468C70.4004 24.0966 70.1889 24.5305 69.9319 24.9343C70.6407 20.7161 67.8984 16.951 64.082 15.2174C64.3602 14.7066 64.6864 14.2177 65.0542 13.7588Z" fill="#1BC47D"/>
<ellipse cx="58.4814" cy="69.1139" rx="11.6962" ry="11.6962" fill="#1BC47D" stroke="white" stroke-width="2"/>
<path d="M59.9508 67.7196H63.797V70.3377H59.9508V74.4304H57.0209V70.3377H53.1641V67.7196H57.0209V63.7975H59.9508V67.7196Z" fill="white"/>
<g clip-path="url(#clip0)">
<path d="M58.0132 51.0499V55.2833C58.0132 55.6791 57.6923 56 57.2966 56C56.9008 56 56.5799 55.6791 56.5799 55.2833V51.0499C56.5799 47.7538 53.9125 45.0862 50.6161 45.0862C49.0563 45.0862 47.6412 44.2916 46.8304 42.9606C46.6245 42.6226 46.7316 42.1817 47.0696 41.9757C47.4075 41.7697 47.8486 41.8769 48.0545 42.2149C48.603 43.1153 49.5606 43.6528 50.6161 43.6528C54.7044 43.6528 58.0132 46.9611 58.0132 51.0499ZM46.0565 45.5004L43.5007 47.479L39.1552 44.1147C40.0932 43.3612 40.6998 42.2653 40.7981 41.0205C41.6557 41.2729 42.5626 41.409 43.5008 41.409C48.7862 41.409 53.0862 37.109 53.0862 31.8236C53.0862 31.7679 53.0875 26.8059 53.0839 26.7503C53.0595 26.3626 52.7362 26.0791 52.3696 26.0791C52.2468 26.0791 51.3638 26.2538 50.4994 25.7337C49.1514 24.9227 49.1445 23.145 49.1446 23.1272C49.1481 22.5449 48.4896 22.2013 48.0138 22.5378C45.0619 24.6276 41.6054 26.0446 37.8521 26.57C37.4602 26.6249 37.1869 26.9871 37.2418 27.3791C37.292 27.7374 37.5989 27.9965 37.9507 27.9965C38.0636 27.9965 40.3873 27.7121 43.0289 26.7527C44.7308 26.1345 46.3615 25.3279 47.8904 24.3489C48.4187 26.331 49.9001 27.4337 51.653 27.5332V31.8236C51.653 36.3187 47.996 39.9757 43.5009 39.9757C39.0058 39.9757 35.3488 36.3187 35.3488 31.8236V26.7958C35.3488 26.4001 35.0279 26.0792 34.6322 26.0792C34.2364 26.0792 33.9155 26.4001 33.9155 26.7958V31.8237C33.9155 35.6348 36.1513 38.9332 39.3801 40.477V40.666C39.3801 42.318 38.0413 43.6528 36.3856 43.6528C35.4789 43.6528 34.5856 43.8168 33.7405 44.1399L33.2778 43.7716C29.6469 40.8817 28.9669 35.7801 31.4431 32.0632C32.4984 30.4791 33.1092 28.5845 33.1092 26.5573V22.6754C33.1092 18.1307 36.8064 14.4333 41.3509 14.4333H45.6509C50.1954 14.4333 53.8926 18.1305 53.8926 22.675V26.5569C53.8926 28.5287 54.466 30.4288 55.5508 32.0516C57.5349 35.0196 57.531 38.9149 55.4809 41.8898C55.2563 42.2157 55.3384 42.662 55.6643 42.8866C55.9902 43.1111 56.4364 43.029 56.661 42.7031C59.0476 39.2403 59.0503 34.7075 56.7424 31.255C55.8157 29.8687 55.3258 28.2442 55.3258 26.5569V22.675C55.3258 17.3402 50.9856 13 45.6508 13H41.3508C36.016 13 31.6758 17.3404 31.6758 22.6754V26.5569C31.6758 28.2393 31.1828 29.8685 30.25 31.2687C27.3605 35.6065 28.1794 41.5061 32.3397 44.8559C30.296 46.1966 28.9883 48.4735 28.9883 51.0499V55.2833C28.9883 55.6791 29.3092 56 29.705 56C30.1008 56 30.4216 55.6791 30.4216 55.2833V51.0499C30.4216 47.7537 33.089 45.0862 36.3855 45.0862C36.8604 45.0862 37.3297 45.0109 37.7797 44.8625L43.062 48.952C43.3204 49.152 43.6812 49.152 43.9395 48.952L46.934 46.6337C47.247 46.3914 47.3043 45.9413 47.0619 45.6283C46.8197 45.3155 46.3696 45.2581 46.0565 45.5004Z" fill="#3990C8"/>
</g>
<defs>
<clipPath id="clip0">
<rect width="43" height="43" fill="white" transform="translate(22 13)"/>
</clipPath>
</defs>
</svg>