<svg width="52" height="45" viewBox="0 0 52 45" fill="none" xmlns="http://www.w3.org/2000/svg">
    <path d="M44.2 8.67503H32.0667V7.80836C32.0616 3.50254 28.5725 0.0134399 24.2667 0.00836182H7.8C3.49417 0.0134399 0.00507812 3.50254 0 7.80836V18.2084C0.00507812 22.5142 3.49417 26.0033 7.8 26.0084H8.66667V32.9417C8.66667 33.2921 8.87783 33.6082 9.20156 33.7423C9.52529 33.8765 9.89811 33.802 10.1461 33.5545L17.6922 26.0084H19.9333V26.875C19.9384 31.1809 23.4275 34.67 27.7333 34.675H32.5745L41.8539 43.9545C42.1019 44.202 42.4747 44.2765 42.7984 44.1423C43.1222 44.0082 43.3333 43.6921 43.3333 43.3417V34.675H44.2C48.5058 34.67 51.9949 31.1809 52 26.875V16.475C51.9949 12.1692 48.5058 8.68011 44.2 8.67503ZM17.3333 24.275C17.1035 24.275 16.8831 24.3664 16.7206 24.5289L10.4 30.8495V25.1417C10.4 24.6631 10.0119 24.275 9.53333 24.275H7.8C4.45098 24.2712 1.73714 21.5574 1.73333 18.2084V7.80836C1.73714 4.45934 4.45098 1.7455 7.8 1.7417H24.2667C27.6157 1.7455 30.3295 4.45934 30.3333 7.80836V8.67503H27.7333C23.4275 8.68011 19.9384 12.1692 19.9333 16.475V24.275H17.3333ZM50.2667 26.875C50.2629 30.2241 47.549 32.9379 44.2 32.9417H42.4667C41.9881 32.9417 41.6 33.3298 41.6 33.8084V41.2495L33.5461 33.1956C33.3836 33.0331 33.1631 32.9417 32.9333 32.9417H27.7333C24.3843 32.9379 21.6705 30.2241 21.6667 26.875V16.475C21.6705 13.126 24.3843 10.4122 27.7333 10.4084H44.2C47.549 10.4122 50.2629 13.126 50.2667 16.475V26.875Z" fill="#3990C8"/>
    <path d="M45.9328 15.6083H25.9995C25.5209 15.6083 25.1328 15.9964 25.1328 16.475C25.1328 16.9536 25.5209 17.3417 25.9995 17.3417H45.9328C46.4114 17.3417 46.7995 16.9536 46.7995 16.475C46.7995 15.9964 46.4114 15.6083 45.9328 15.6083Z" fill="#3990C8"/>
    <path d="M45.9328 20.8083H25.9995C25.5209 20.8083 25.1328 21.1964 25.1328 21.675C25.1328 22.1536 25.5209 22.5417 25.9995 22.5417H45.9328C46.4114 22.5417 46.7995 22.1536 46.7995 21.675C46.7995 21.1964 46.4114 20.8083 45.9328 20.8083Z" fill="#3990C8"/>
    <path d="M45.9328 26.0084H25.9995C25.5209 26.0084 25.1328 26.3964 25.1328 26.875C25.1328 27.3536 25.5209 27.7417 25.9995 27.7417H45.9328C46.4114 27.7417 46.7995 27.3536 46.7995 26.875C46.7995 26.3964 46.4114 26.0084 45.9328 26.0084Z" fill="#3990C8"/>
    <ellipse cx="13" cy="20.0001" rx="1" ry="1" fill="#3990C8"/>
    <path d="M9.46094 8.06814C10.5982 6.14064 14.0992 4.82007 16.4555 7.2013C17.6191 8.37721 17.5537 10.3168 16.4555 11.5913C15.4573 12.7496 13.876 13.5507 13.3551 14.7661C13.0028 15.5882 13.0079 16.1402 13.0079 16.9735" stroke="#3990C8" stroke-width="2" stroke-linecap="round" stroke-linejoin="round"/>
</svg>