<svg width="40" height="40" viewBox="0 0 40 40" fill="none" xmlns="http://www.w3.org/2000/svg">
<path d="M10 0C8.625 0 7.5 1.125 7.5 2.5V37.5C7.5 38.875 8.625 40 10 40H35C36.375 40 37.5 38.875 37.5 37.5V10L27.5 0H10Z" fill="#EAEAEA"/>
<path d="M30 10H37.5L27.5 0V7.5C27.5 8.875 28.625 10 30 10Z" fill="#BAC0C7"/>
<path d="M33 32.75C33 33.4375 32.4375 34 31.75 34H4.25C3.5625 34 3 33.4375 3 32.75V16.25C3 15.5625 3.5625 15 4.25 15H31.75C32.4375 15 33 15.5625 33 16.25V32.75Z" fill="#EB5757"/>
<path fill-rule="evenodd" clip-rule="evenodd" d="M8.81641 24.0312H9.41406C9.97266 24.0312 10.3906 23.9209 10.668 23.7002C10.9453 23.4795 11.084 23.1582 11.084 22.7363C11.084 22.3105 10.9678 21.9961 10.7354 21.793C10.5029 21.5898 10.1387 21.4883 9.64258 21.4883H8.81641V24.0312ZM12.918 22.6719C12.918 23.5938 12.6299 24.2988 12.0537 24.7871C11.4775 25.2754 10.6582 25.5195 9.5957 25.5195H8.81641V28.5664H7V20H9.73633C10.7754 20 11.5654 20.2236 12.1064 20.6709C12.6475 21.1182 12.918 21.7852 12.918 22.6719ZM21.6426 24.2012C21.6426 25.6113 21.2412 26.6914 20.4385 27.4414C19.6357 28.1914 18.4766 28.5664 16.9609 28.5664H14.5352V20H17.2246C18.6231 20 19.709 20.3691 20.4824 21.1074C21.2559 21.8457 21.6426 22.8769 21.6426 24.2012ZM19.7559 24.248C19.7559 22.4082 18.9434 21.4883 17.3184 21.4883H16.3516V27.0664H17.1309C18.8809 27.0664 19.7559 26.127 19.7559 24.248ZM25.2051 28.5664H23.418V20H28.3281V21.4883H25.2051V23.6973H28.1113V25.1797H25.2051V28.5664Z" fill="white"/>
</svg>