<svg width="58" height="60" viewBox="0 0 58 60" fill="none" xmlns="http://www.w3.org/2000/svg">
<g filter="url(#filter0_d)">
<circle cx="28" cy="28" r="28" fill="url(#paint0_linear)"/>
</g>
<g clip-path="url(#clip0)">
<path d="M26.8049 34.8213C26.6067 35.0193 26.6067 35.3408 26.8049 35.5392C27.0034 35.7373 27.3248 35.7373 27.5228 35.5392C27.7213 35.3408 27.7213 35.0193 27.5228 34.8213C27.3248 34.6227 27.0034 34.6227 26.8049 34.8213Z" fill="white"/>
<path d="M39.8278 33.9392L35.9724 30.6609C35.9546 30.6458 35.9357 30.6319 35.9161 30.6194C34.9046 29.9755 33.6059 30.1181 32.7579 30.9659L30.6559 33.0678C30.5103 33.2136 30.293 33.2567 30.1026 33.1781C27.729 32.1962 25.7791 30.718 24.307 28.7849C23.1845 27.3109 22.7798 26.1395 22.7264 25.9745C22.7201 25.9392 22.71 25.9041 22.6957 25.8698C22.6169 25.6793 22.66 25.4625 22.806 25.3169L24.9079 23.2145C25.7559 22.3665 25.8983 21.0678 25.2544 20.0563C25.2492 20.0482 25.2439 20.0402 25.2383 20.0323L22.4541 16.1632C21.5781 14.8042 19.67 14.5989 18.5249 15.7439L18.104 16.1648C18.1038 16.1652 18.1034 16.1656 18.103 16.1658L16.6002 17.6686C14.8081 19.4608 14.515 22.1538 15.7525 25.457C16.8126 28.2864 18.9347 31.3831 21.7279 34.1763C24.5871 37.0355 27.7675 39.1969 30.683 40.2623C33.5688 41.3166 36.6385 41.4465 38.8112 39.2736L40.2285 37.8565C41.3685 36.7163 41.1696 34.8208 39.8278 33.9392ZM35.3432 31.4587L39.1952 34.7343C39.2129 34.7493 39.2317 34.7632 39.2514 34.7757C40.0742 35.2996 40.1988 36.4501 39.5102 37.1384L39.4051 37.2438L32.8351 32.3247L33.476 31.684C33.9769 31.183 34.7402 31.0923 35.3432 31.4587ZM21.6057 16.7212C21.6108 16.7293 21.6162 16.7375 21.6217 16.7452L24.4048 20.6129C24.7829 21.2181 24.6954 21.9908 24.1898 22.4964L23.5687 23.1177L19.1237 16.5812L19.243 16.462C19.9343 15.7707 21.0838 15.9014 21.6057 16.7212ZM31.0314 39.3083C28.2519 38.2927 25.2028 36.2151 22.446 33.4582C19.753 30.7654 17.7136 27.7973 16.7033 25.1007C15.945 23.0766 15.4362 20.2688 17.3182 18.3869L18.3928 17.3121L22.8377 23.8486L22.0881 24.5987C21.6616 25.0243 21.5275 25.6543 21.7404 26.2153C21.9006 26.8731 22.6382 28.2384 23.3822 29.2445C24.4772 30.7251 26.4646 32.7721 29.7144 34.1166C30.2855 34.3528 30.9367 34.2231 31.3739 33.7861L32.1097 33.0502L38.6797 37.9692L38.0931 38.5556C36.0756 40.5733 33.1394 40.0786 31.0314 39.3083Z" fill="white"/>
<path d="M25.8539 33.6088C25.3175 33.1384 24.3898 32.3295 23.9012 31.8269C22.7031 30.5956 21.446 29.1031 20.6986 28.0248C20.5389 27.7943 20.2225 27.7368 19.992 27.8967C19.7615 28.0564 19.7042 28.3728 19.8639 28.6033C20.8065 29.9632 22.1915 31.5259 23.1732 32.5348C23.6889 33.0656 24.6246 33.8817 25.1842 34.3723C25.3947 34.5567 25.7154 34.5365 25.9009 34.3253C26.0858 34.1146 26.0647 33.7936 25.8539 33.6088Z" fill="white"/>
</g>
<defs>
<filter id="filter0_d" x="0" y="0" width="58" height="60" filterUnits="userSpaceOnUse" color-interpolation-filters="sRGB">
<feFlood flood-opacity="0" result="BackgroundImageFix"/>
<feColorMatrix in="SourceAlpha" type="matrix" values="0 0 0 0 0 0 0 0 0 0 0 0 0 0 0 0 0 0 127 0"/>
<feMorphology radius="8" operator="erode" in="SourceAlpha" result="effect1_dropShadow"/>
<feOffset dx="2" dy="4"/>
<feGaussianBlur stdDeviation="4"/>
<feColorMatrix type="matrix" values="0 0 0 0 0 0 0 0 0 0 0 0 0 0 0 0 0 0 1 0"/>
<feBlend mode="normal" in2="BackgroundImageFix" result="effect1_dropShadow"/>
<feBlend mode="normal" in="SourceGraphic" in2="effect1_dropShadow" result="shape"/>
</filter>
<linearGradient id="paint0_linear" x1="0" y1="28" x2="56" y2="28" gradientUnits="userSpaceOnUse">
<stop stop-color="#61BF6A"/>
<stop offset="1" stop-color="#B0EE7F"/>
<stop offset="1" stop-color="#B0EE7F"/>
</linearGradient>
<clipPath id="clip0">
<rect width="26" height="26" fill="white" transform="translate(15 15)"/>
</clipPath>
</defs>
</svg>