<svg width="40" height="40" viewBox="0 0 40 40" fill="none" xmlns="http://www.w3.org/2000/svg">
<path d="M10 0C8.625 0 7.5 1.125 7.5 2.5V37.5C7.5 38.875 8.625 40 10 40H35C36.375 40 37.5 38.875 37.5 37.5V10L27.5 0H10Z" fill="#EAEAEA"/>
<path d="M30 10H37.5L27.5 0V7.5C27.5 8.875 28.625 10 30 10Z" fill="#BAC0C7"/>
<path d="M34 32.75C34 33.4375 33.3625 34 32.5833 34H1.41667C0.6375 34 0 33.4375 0 32.75V16.25C0 15.5625 0.6375 15 1.41667 15H32.5833C33.3625 15 34 15.5625 34 16.25V32.75Z" fill="#2F80ED"/>
<path fill-rule="evenodd" clip-rule="evenodd" d="M9.24481 24.4419C9.24481 25.5612 8.89216 26.4186 8.18685 27.014C7.48153 27.6093 6.46305 27.907 5.13137 27.907H3V21.107H5.36304C6.59176 21.107 7.54589 21.4 8.22546 21.986C8.90503 22.5721 9.24481 23.3907 9.24481 24.4419ZM7.58708 24.4791C7.58708 23.0186 6.87319 22.2884 5.44541 22.2884H4.59595V26.7163H5.28067C6.81828 26.7163 7.58708 25.9706 7.58708 24.4791ZM17.6364 24.4977C17.6364 25.6233 17.3275 26.4884 16.7097 27.093C16.092 27.6977 15.2065 28 14.0533 28C12.9 28 12.0146 27.6977 11.3968 27.093C10.779 26.4884 10.4701 25.6202 10.4701 24.4884C10.4701 23.3566 10.7798 22.4923 11.3993 21.8953C12.0189 21.2984 12.9069 21 14.0636 21C15.2202 21 16.1048 21.3008 16.7175 21.9023C17.3301 22.5039 17.6364 23.369 17.6364 24.4977ZM12.1433 24.4977C12.1433 25.2574 12.3029 25.8295 12.622 26.214C12.9412 26.5985 13.4183 26.7907 14.0533 26.7907C15.3266 26.7907 15.9633 26.0264 15.9633 24.4977C15.9633 22.9659 15.33 22.2 14.0636 22.2C13.4286 22.2 12.9498 22.393 12.6272 22.7791C12.3046 23.1651 12.1433 23.738 12.1433 24.4977ZM22.3934 22.2093C21.7928 22.2093 21.3277 22.4132 20.9982 22.8209C20.6687 23.2287 20.504 23.7969 20.504 24.5256C20.504 26.0419 21.1338 26.8 22.3934 26.8C22.922 26.8 23.562 26.6806 24.3137 26.4419V27.6512C23.6959 27.8837 23.006 28 22.2441 28C21.1492 28 20.3118 27.7 19.7318 27.1C19.1517 26.5 18.8617 25.6388 18.8617 24.5163C18.8617 23.8093 19.0041 23.1899 19.289 22.6581C19.5739 22.1264 19.9832 21.7186 20.5169 21.4349C21.0506 21.1512 21.6761 21.0093 22.3934 21.0093C23.1244 21.0093 23.8589 21.169 24.5968 21.4884L24.082 22.6605C23.8006 22.5395 23.5174 22.4341 23.2326 22.3442C22.9477 22.2543 22.668 22.2093 22.3934 22.2093ZM32 27.907H30.1775L28.4271 25.3349L26.6767 27.907H24.9675L27.4644 24.4L25.1271 21.107H26.8878L28.5095 23.5535L30.1003 21.107H31.8198L29.4568 24.4791L32 27.907Z" fill="white"/>
</svg>