<svg width="40" height="40" viewBox="0 0 40 40" fill="none" xmlns="http://www.w3.org/2000/svg">
<path d="M10 0C8.625 0 7.5 1.125 7.5 2.5V37.5C7.5 38.875 8.625 40 10 40H35C36.375 40 37.5 38.875 37.5 37.5V10L27.5 0H10Z" fill="#EAEAEA"/>
<path d="M30 10H37.5L27.5 0V7.5C27.5 8.875 28.625 10 30 10Z" fill="#BAC0C7"/>
<path d="M33 32.75C33 33.4375 32.4375 34 31.75 34H4.25C3.5625 34 3 33.4375 3 32.75V16.25C3 15.5625 3.5625 15 4.25 15H31.75C32.4375 15 33 15.5625 33 16.25V32.75Z" fill="#2F80ED"/>
<path fill-rule="evenodd" clip-rule="evenodd" d="M13.1074 24.3359C13.1074 25.7461 12.7061 26.8262 11.9033 27.5762C11.1006 28.3262 9.94141 28.7012 8.42578 28.7012H6V20.1348H8.68945C10.0879 20.1348 11.1738 20.5039 11.9473 21.2422C12.7207 21.9805 13.1074 23.0117 13.1074 24.3359ZM11.2207 24.3828C11.2207 22.543 10.4082 21.623 8.7832 21.623H7.81641V27.2012H8.5957C10.3457 27.2012 11.2207 26.2617 11.2207 24.3828ZM22.6582 24.4062C22.6582 25.8242 22.3066 26.9141 21.6035 27.6758C20.9004 28.4375 19.8926 28.8184 18.5801 28.8184C17.2676 28.8184 16.2598 28.4375 15.5566 27.6758C14.8535 26.9141 14.502 25.8203 14.502 24.3945C14.502 22.9687 14.8545 21.8799 15.5596 21.1279C16.2647 20.376 17.2754 20 18.5918 20C19.9082 20 20.915 20.3789 21.6123 21.1367C22.3096 21.8945 22.6582 22.9844 22.6582 24.4062ZM16.4062 24.4062C16.4062 25.3633 16.5879 26.084 16.9512 26.5684C17.3145 27.0527 17.8574 27.2949 18.5801 27.2949C20.0293 27.2949 20.7539 26.332 20.7539 24.4062C20.7539 22.4766 20.0332 21.5117 18.5918 21.5117C17.8691 21.5117 17.3242 21.7549 16.957 22.2412C16.5898 22.7275 16.4062 23.4492 16.4062 24.4062ZM28.0723 21.5234C27.3887 21.5234 26.8594 21.7803 26.4844 22.2939C26.1094 22.8076 25.9219 23.5234 25.9219 24.4414C25.9219 26.3516 26.6387 27.3066 28.0723 27.3066C28.6738 27.3066 29.4023 27.1563 30.2578 26.8555V28.3789C29.5547 28.6719 28.7695 28.8184 27.9023 28.8184C26.6562 28.8184 25.7031 28.4404 25.043 27.6846C24.3828 26.9287 24.0527 25.8438 24.0527 24.4297C24.0527 23.5391 24.2148 22.7588 24.5391 22.0889C24.8633 21.4189 25.3291 20.9053 25.9365 20.5479C26.5439 20.1904 27.2559 20.0117 28.0723 20.0117C28.9043 20.0117 29.7402 20.2129 30.5801 20.6152L29.9941 22.0918C29.6738 21.9395 29.3516 21.8066 29.0273 21.6934C28.7031 21.5801 28.3848 21.5234 28.0723 21.5234Z" fill="white"/>
</svg>