<svg width="24" height="24" viewBox="0 0 24 24" fill="none" xmlns="http://www.w3.org/2000/svg">
<g clip-path="url(#clip0)">
<path d="M23.5793 1.03236C23.344 0.855299 23.0394 0.798902 22.7565 0.880201C21.6705 1.19203 20.2864 1.10396 18.534 0.992628C17.4369 0.922865 16.1934 0.843763 14.7652 0.843763C13.646 0.843763 12.6404 1.33723 11.9527 2.11726C11.2649 1.33723 10.2595 0.843763 9.14016 0.843763C7.71212 0.843763 6.46847 0.922865 5.3713 0.992628C3.61898 1.10414 2.23488 1.19221 1.14888 0.880201C0.865981 0.798902 0.561293 0.855299 0.326185 1.03236C0.0908941 1.20961 -0.0473507 1.48683 -0.0473507 1.78126V17.3343C-0.0499142 18.3377 0.339002 19.2816 1.04762 19.992C1.75624 20.7025 2.69924 21.0938 3.70265 21.0938H10.4995C11.0174 21.0938 11.437 20.6741 11.437 20.1563C11.437 19.6385 11.0174 19.2188 10.4995 19.2188H3.70265C3.20094 19.2188 2.72945 19.0232 2.37514 18.668C2.02083 18.3128 1.82637 17.8407 1.82765 17.3366V16.8393C2.37972 17.1594 3.01985 17.3438 3.70265 17.3438H10.687C10.8954 17.3438 11.0381 17.4732 11.1021 17.5943C11.2704 17.912 11.5952 18.0932 11.9314 18.0932C12.0794 18.0932 12.2295 18.0583 12.3692 17.9841C12.6516 17.8347 12.8257 17.5615 12.8611 17.2669C12.8794 17.1938 12.8902 17.1178 12.8902 17.0391V4.59377C12.8902 3.55995 13.7312 2.71877 14.7652 2.71877C16.1337 2.71877 17.3457 2.79585 18.415 2.86379C19.8134 2.95278 20.9994 3.02821 22.0777 2.91121V9.65628C22.0777 10.1741 22.4974 10.5938 23.0152 10.5938C23.533 10.5938 23.9527 10.1741 23.9527 9.65628V1.78126C23.9527 1.48683 23.8144 1.20961 23.5793 1.03236ZM3.70265 15.4688C2.66884 15.4688 1.82765 14.6276 1.82765 13.5938V2.91121C2.90596 3.02821 4.09175 2.95278 5.49013 2.86379C6.55965 2.79585 7.77163 2.71877 9.14016 2.71877C10.174 2.71877 11.0152 3.55995 11.0152 4.59377V15.4919C10.9075 15.4767 10.798 15.4688 10.687 15.4688H3.70265ZM9.42141 6.14065C9.42141 6.65847 9.00173 7.07815 8.48391 7.07815H4.40578C3.88796 7.07815 3.46828 6.65847 3.46828 6.14065C3.46828 5.62282 3.88796 5.20314 4.40578 5.20314H8.48391C9.00173 5.20314 9.42141 5.62282 9.42141 6.14065ZM8.01516 9.89065C8.01516 10.4085 7.59548 10.8282 7.07766 10.8282H4.40578C3.88796 10.8282 3.46828 10.4085 3.46828 9.89065C3.46828 9.37283 3.88796 8.95315 4.40578 8.95315H7.07766C7.59548 8.95315 8.01516 9.37283 8.01516 9.89065ZM19.1522 12.7762L14.0053 17.9118C13.896 18.0209 13.8152 18.1553 13.7704 18.3031L12.6494 21.9932C12.5501 22.3204 12.6368 22.6758 12.8753 22.9205C13.0542 23.1037 13.2972 23.2034 13.5466 23.2034C13.6299 23.2034 13.7141 23.1922 13.7967 23.1691L17.5808 22.121C17.7364 22.0778 17.8783 21.9952 17.9928 21.881L23.1291 16.7546C24.2255 15.6579 24.2255 13.8736 23.1291 12.7769C22.0325 11.6803 20.2481 11.6803 19.1522 12.7762ZM16.8425 20.3797L14.9389 20.907L15.4959 19.073L18.9689 15.6078L20.295 16.9338L16.8425 20.3797ZM21.8038 15.4279L21.6221 15.6092L20.2962 14.2834L20.4773 14.1028C20.8428 13.7372 21.4375 13.7372 21.803 14.1028C22.1687 14.4683 22.1687 15.063 21.8038 15.4279Z" fill="#3FA4E6"/>
</g>
<defs>
<clipPath id="clip0">
<rect width="24" height="24" fill="white"/>
</clipPath>
</defs>
</svg>