<svg width="58" height="60" viewBox="0 0 58 60" fill="none" xmlns="http://www.w3.org/2000/svg">
<g filter="url(#filter0_d)">
<circle cx="28" cy="28" r="28" fill="url(#paint0_linear)"/>
</g>
<g clip-path="url(#clip0)">
<path d="M33.7045 31.9908C33.3548 31.9908 33.0712 32.2743 33.0712 32.6241V36.9933C33.0712 38.7391 31.6509 40.1594 29.9051 40.1594H23.0683C22.7187 40.1594 22.4354 40.4427 22.4351 40.7922L22.4342 42.0512L20.9228 40.5399C20.825 40.3153 20.6011 40.1594 20.3421 40.1594H16.2275C14.4817 40.1594 13.0614 38.7391 13.0614 36.9933V27.2416C13.0614 25.4959 14.4817 24.0755 16.2275 24.0755H22.623C22.9727 24.0755 23.2563 23.792 23.2563 23.4423C23.2563 23.0926 22.9727 22.8091 22.623 22.8091H16.2275C13.7834 22.8091 11.7949 24.7975 11.7949 27.2416V36.9933C11.7949 39.4374 13.7834 41.4259 16.2275 41.4259H20.0178L22.6186 44.0266C22.7397 44.1477 22.9016 44.212 23.0664 44.212C23.1479 44.212 23.2302 44.1963 23.3084 44.1639C23.545 44.066 23.6993 43.8353 23.6995 43.5793L23.701 41.4259H29.9051C32.3492 41.4259 34.3377 39.4374 34.3377 36.9933V32.6241C34.3377 32.2743 34.0541 31.9908 33.7045 31.9908Z" fill="white"/>
<path d="M35.0153 11.7896H33.4126C28.3377 11.7896 24.209 15.9183 24.209 20.9932C24.209 26.0681 28.3377 30.1968 33.4126 30.1968H35.0152C35.8073 30.1968 36.5913 30.0962 37.3512 29.8973L39.7186 32.2634C39.8397 32.3845 40.0016 32.4488 40.1663 32.4488C40.248 32.4488 40.3303 32.433 40.4086 32.4005C40.6452 32.3025 40.7994 32.0716 40.7994 31.8156V28.152C41.8018 27.3403 42.6344 26.3149 43.2187 25.1694C43.8824 23.8684 44.2189 22.4633 44.2189 20.9932C44.2189 15.9183 40.0901 11.7896 35.0153 11.7896ZM39.7852 27.3374C39.6265 27.457 39.533 27.6443 39.533 27.8432V30.2875L37.9834 28.7387C37.8629 28.6183 37.7011 28.5534 37.5357 28.5534C37.4737 28.5534 37.411 28.5626 37.3498 28.5814C36.5961 28.813 35.8107 28.9304 35.0153 28.9304H33.4126C29.036 28.9304 25.4754 25.3698 25.4754 20.9932C25.4754 16.6166 29.036 13.056 33.4126 13.056H35.0153C39.3919 13.056 42.9524 16.6166 42.9524 20.9932C42.9524 23.5091 41.798 25.8215 39.7852 27.3374Z" fill="white"/>
<path d="M37.0564 18.7164C36.965 17.3907 35.8964 16.3221 34.5707 16.2307C33.8192 16.1791 33.102 16.4326 32.553 16.945C32.0116 17.4504 31.7012 18.1648 31.7012 18.9051C31.7012 19.2548 31.9847 19.5383 32.3344 19.5383C32.6841 19.5383 32.9676 19.2548 32.9676 18.9051C32.9676 18.5088 33.1273 18.1414 33.4172 17.8709C33.7068 17.6005 34.0854 17.4667 34.4837 17.4942C35.182 17.5424 35.7449 18.1052 35.793 18.8035C35.8416 19.5087 35.3789 20.1319 34.6929 20.2854C34.1371 20.4098 33.7489 20.8928 33.7489 21.46V22.9813C33.7489 23.331 34.0325 23.6145 34.3821 23.6145C34.7318 23.6145 35.0153 23.331 35.0153 22.9813V21.5106C36.2912 21.2023 37.1473 20.0348 37.0564 18.7164Z" fill="white"/>
<path d="M34.8251 25.041C34.7073 24.9232 34.5439 24.8555 34.3774 24.8555C34.2108 24.8555 34.0475 24.9232 33.9297 25.041C33.8119 25.1588 33.7441 25.3222 33.7441 25.4887C33.7441 25.6559 33.812 25.8192 33.9297 25.937C34.0475 26.0548 34.2108 26.1219 34.3774 26.1219C34.5439 26.1219 34.7073 26.0548 34.8251 25.937C34.9428 25.8186 35.0106 25.6559 35.0106 25.4887C35.0106 25.3222 34.9428 25.1588 34.8251 25.041Z" fill="white"/>
<path d="M29.2149 31.418H15.8539C15.5043 31.418 15.2207 31.7015 15.2207 32.0512C15.2207 32.4009 15.5043 32.6844 15.8539 32.6844H29.2149C29.5647 32.6844 29.8482 32.4009 29.8482 32.0512C29.8482 31.7015 29.5646 31.418 29.2149 31.418Z" fill="white"/>
<path d="M29.6648 35.1489C29.5471 35.0311 29.3837 34.9634 29.2172 34.9634C29.0507 34.9634 28.8873 35.0311 28.7695 35.1489C28.6517 35.2667 28.584 35.4301 28.584 35.5966C28.584 35.7631 28.6517 35.9265 28.7695 36.0443C28.8873 36.1621 29.0507 36.2298 29.2172 36.2298C29.3837 36.2298 29.5471 36.1621 29.6648 36.0443C29.7827 35.9265 29.8504 35.7638 29.8504 35.5966C29.8504 35.4301 29.7826 35.2667 29.6648 35.1489Z" fill="white"/>
<path d="M26.7243 34.9634H15.8539C15.5043 34.9634 15.2207 35.2469 15.2207 35.5966C15.2207 35.9463 15.5043 36.2298 15.8539 36.2298H26.7243C27.074 36.2298 27.3575 35.9463 27.3575 35.5966C27.3575 35.2469 27.074 34.9634 26.7243 34.9634Z" fill="white"/>
<path d="M25.099 27.8726H15.8539C15.5043 27.8726 15.2207 28.1561 15.2207 28.5058C15.2207 28.8555 15.5043 29.139 15.8539 29.139H25.099C25.4487 29.139 25.7322 28.8555 25.7322 28.5058C25.7322 28.1561 25.4487 27.8726 25.099 27.8726Z" fill="white"/>
</g>
<defs>
<filter id="filter0_d" x="0" y="0" width="58" height="60" filterUnits="userSpaceOnUse" color-interpolation-filters="sRGB">
<feFlood flood-opacity="0" result="BackgroundImageFix"/>
<feColorMatrix in="SourceAlpha" type="matrix" values="0 0 0 0 0 0 0 0 0 0 0 0 0 0 0 0 0 0 127 0"/>
<feMorphology radius="8" operator="erode" in="SourceAlpha" result="effect1_dropShadow"/>
<feOffset dx="2" dy="4"/>
<feGaussianBlur stdDeviation="4"/>
<feColorMatrix type="matrix" values="0 0 0 0 0 0 0 0 0 0 0 0 0 0 0 0 0 0 1 0"/>
<feBlend mode="normal" in2="BackgroundImageFix" result="effect1_dropShadow"/>
<feBlend mode="normal" in="SourceGraphic" in2="effect1_dropShadow" result="shape"/>
</filter>
<linearGradient id="paint0_linear" x1="0" y1="28" x2="56" y2="28" gradientUnits="userSpaceOnUse">
<stop stop-color="#BB73F3"/>
<stop offset="1" stop-color="#8572FD"/>
</linearGradient>
<clipPath id="clip0">
<rect width="32.4211" height="32.4211" fill="white" transform="translate(11.7949 11.7896)"/>
</clipPath>
</defs>
</svg>