<svg width="40" height="40" viewBox="0 0 40 40" fill="none" xmlns="http://www.w3.org/2000/svg">
<path d="M10 0C8.625 0 7.5 1.125 7.5 2.5V37.5C7.5 38.875 8.625 40 10 40H35C36.375 40 37.5 38.875 37.5 37.5V10L27.5 0H10Z" fill="#EAEAEA"/>
<path d="M30 10H37.5L27.5 0V7.5C27.5 8.875 28.625 10 30 10Z" fill="#BAC0C7"/>
<path d="M33 32.75C33 33.4375 32.4375 34 31.75 34H4.25C3.5625 34 3 33.4375 3 32.75V16.25C3 15.5625 3.5625 15 4.25 15H31.75C32.4375 15 33 15.5625 33 16.25V32.75Z" fill="#51AA95"/>
<path fill-rule="evenodd" clip-rule="evenodd" d="M12.9336 28.5664H8V20H12.9336V21.4883H9.81641V23.3691H12.7168V24.8574H9.81641V27.0664H12.9336V28.5664ZM21.6465 28.5664H19.5723L17.5801 25.3262L15.5879 28.5664H13.6426L16.4844 24.1484L13.8242 20H15.8281L17.6738 23.082L19.4844 20H21.4414L18.752 24.248L21.6465 28.5664ZM22.7246 28.5664V20H24.541V27.0664H28.0156V28.5664H22.7246Z" fill="white"/>
</svg>