<svg width="377" height="181" viewBox="0 0 377 181" fill="none" xmlns="http://www.w3.org/2000/svg">
<mask id="mask0" mask-type="alpha" maskUnits="userSpaceOnUse" x="0" y="0" width="377" height="181">
<rect width="377" height="181" rx="10" fill="url(#paint0_linear)"/>
</mask>
<g mask="url(#mask0)">
<path d="M153.396 216.845C156.247 218.528 159.498 219.415 162.808 219.415H216.618H234.46C241.207 219.415 246.823 213.956 246.704 207.21C246.625 202.777 244.138 198.934 240.497 196.926C240.228 196.778 240.055 196.502 240.055 196.195V196.172C240.055 195.789 240.318 195.453 240.693 195.37C246.072 194.189 250.098 189.397 250.098 183.663C250.098 180.154 248.589 176.997 246.186 174.804C251.016 172.941 254.445 168.257 254.445 162.77C254.445 158.445 252.314 154.62 249.047 152.28C253.603 150.002 256.733 145.295 256.733 139.855C256.733 132.186 250.516 125.969 242.847 125.969H214.21C212.183 125.969 210.836 123.872 211.678 122.028L215.077 114.587C217.048 110.27 218.069 105.579 218.069 100.833V85.3582C218.069 83.1276 217.633 80.9184 216.785 78.8554C214.588 73.5135 209.384 70.0264 203.609 70.0264H203.579C199.65 70.0264 196.099 72.3725 194.558 75.9877L188.58 90.0137L166.069 103.12L162.379 104.688C157.305 106.844 153.197 110.785 150.832 115.764L124.244 170.557V200.615L153.396 216.845Z" fill="white"/>
<path d="M235.566 202.275H217.724H163.914C160.604 202.275 157.353 201.387 154.502 199.704L125.35 183.475V168.278L124.244 170.558V200.615L153.396 216.845C156.247 218.527 159.498 219.415 162.808 219.415H216.618H234.46C241.207 219.415 246.823 213.956 246.704 207.21C246.65 204.177 245.468 201.421 243.561 199.34C241.404 201.168 238.6 202.275 235.566 202.275Z" fill="#ECF0F7"/>
<path d="M91.026 224H135.874C141.361 224 145.809 219.552 145.809 214.065V122.84C145.809 117.353 141.361 112.905 135.874 112.905H91.026C87.698 112.905 85 115.603 85 118.931V217.973C85 221.302 87.698 224 91.026 224Z" fill="#F6F8FB"/>
<path d="M135.874 112.905H133.921V187.292C133.921 195.853 126.981 202.794 118.419 202.794H85V217.974C85 221.302 87.698 224 91.026 224H135.874C141.361 224 145.809 219.552 145.809 214.065V122.84C145.809 117.353 141.361 112.905 135.874 112.905Z" fill="#F6F8FB"/>
<path d="M214.311 52.0434L203.935 46.651C202.936 46.1317 201.746 46.1375 200.752 46.6661L190.428 52.1559C187.924 53.487 184.981 51.3699 185.447 48.5731L187.37 37.039C187.555 35.9287 187.181 34.7979 186.372 34.0158L177.96 25.8936C175.921 23.924 177.025 20.471 179.829 20.0501L191.392 18.3141C192.506 18.147 193.465 17.4425 193.959 16.4305L199.084 5.92128C200.327 3.37307 203.952 3.35579 205.219 5.89248L210.443 16.3534C210.946 17.3605 211.913 18.0557 213.028 18.2126L224.607 19.8396C227.415 20.234 228.551 23.6768 226.53 25.6654L218.196 33.8665C217.394 34.6561 217.031 35.79 217.226 36.899L219.257 48.4145C219.749 51.2064 216.826 53.351 214.311 52.0434Z" fill="white"/>
<path d="M154.098 70.0121L145.816 65.7075C145.018 65.2932 144.068 65.2976 143.274 65.7194L135.033 70.1016C133.035 71.1641 130.685 69.4742 131.058 67.2419L132.592 58.0349C132.74 57.1483 132.442 56.2462 131.795 55.6219L125.081 49.1381C123.453 47.566 124.334 44.8096 126.572 44.4733L135.803 43.0877C136.692 42.9544 137.458 42.3921 137.852 41.5843L141.943 33.1949C142.935 31.1606 145.829 31.1469 146.84 33.1718L151.011 41.5223C151.412 42.3265 152.184 42.8813 153.074 43.0062L162.317 44.3049C164.558 44.6199 165.466 47.368 163.852 48.9556L157.199 55.5022C156.558 56.1327 156.269 57.038 156.425 57.9228L158.046 67.1152C158.439 69.3435 156.106 71.0556 154.098 70.0121Z" fill="white"/>
<path d="M249.821 70.0121L258.103 65.7075C258.901 65.2932 259.851 65.2976 260.645 65.7194L268.886 70.1016C270.884 71.1641 273.234 69.4742 272.861 67.2419L271.327 58.0349C271.179 57.1483 271.477 56.2462 272.124 55.6219L278.838 49.1381C280.466 47.566 279.585 44.8096 277.347 44.4733L268.116 43.0877C267.228 42.9544 266.461 42.3921 266.067 41.5843L261.976 33.1949C260.984 31.1606 258.09 31.1469 257.079 33.1718L252.908 41.5223C252.507 42.3265 251.735 42.8813 250.845 43.0062L241.602 44.3049C239.361 44.6199 238.453 47.368 240.067 48.9556L246.72 55.5022C247.361 56.1327 247.65 57.038 247.494 57.9228L245.873 67.1152C245.48 69.3435 247.813 71.0556 249.821 70.0121Z" fill="white"/>
</g>
<defs>
<linearGradient id="paint0_linear" x1="0" y1="90.5" x2="377" y2="90.5" gradientUnits="userSpaceOnUse">
<stop stop-color="#BB73F3"/>
<stop offset="1" stop-color="#8572FD"/>
</linearGradient>
</defs>
</svg>