<svg width="376" height="181" viewBox="0 0 376 181" fill="none" xmlns="http://www.w3.org/2000/svg">
<mask id="mask0" mask-type="alpha" maskUnits="userSpaceOnUse" x="0" y="0" width="376" height="181">
<rect width="376" height="181" rx="10" fill="url(#paint0_linear)"/>
</mask>
<g mask="url(#mask0)">
<g filter="url(#filter0_d)">
<path d="M46.1641 11.0585C46.1641 5.53562 50.6412 1.05847 56.1641 1.05847H319.837C325.359 1.05847 329.837 5.53562 329.837 11.0585V217.573C329.837 223.096 325.359 227.573 319.837 227.573H56.164C50.6412 227.573 46.1641 223.096 46.1641 217.573V11.0585Z" fill="white"/>
</g>
<rect x="117.082" y="89.9707" width="129.135" height="12.7018" rx="2" fill="#ECF0F7"/>
<rect x="117.082" y="121.725" width="129.135" height="12.7018" rx="2" fill="#ECF0F7"/>
<rect x="117.082" y="153.479" width="129.135" height="12.7018" rx="2" fill="#ECF0F7"/>
<path d="M46.1641 11.0585C46.1641 5.53562 50.6412 1.05847 56.1641 1.05847H93.7956V217.573C93.7956 223.096 89.3185 227.573 83.7956 227.573H56.1641C50.6412 227.573 46.1641 223.096 46.1641 217.573V11.0585Z" fill="#F6F8FB"/>
<circle cx="138.251" cy="45.5146" r="23.2866" fill="#ECF0F7"/>
<mask id="mask1" mask-type="alpha" maskUnits="userSpaceOnUse" x="116" y="22" width="43" height="43">
<circle cx="137.193" cy="43.3976" r="21.1696" fill="#ECF0F7"/>
</mask>
<g mask="url(#mask1)">
</g>
<path d="M121.581 69.8596C121.581 69.8596 118.141 69.8596 118.141 66.4195C118.141 62.9794 121.581 52.6593 138.781 52.6593C155.981 52.6593 159.421 62.9794 159.421 66.4195C159.421 69.8596 155.981 69.8596 155.981 69.8596H121.581ZM138.781 49.2192C141.518 49.2192 144.143 48.1319 146.078 46.1965C148.014 44.2611 149.101 41.6361 149.101 38.899C149.101 36.162 148.014 33.537 146.078 31.6016C144.143 29.6662 141.518 28.5789 138.781 28.5789C136.044 28.5789 133.419 29.6662 131.484 31.6016C129.548 33.537 128.461 36.162 128.461 38.899C128.461 41.6361 129.548 44.2611 131.484 46.1965C133.419 48.1319 136.044 49.2192 138.781 49.2192Z" fill="white"/>
</g>
<defs>
<filter id="filter0_d" x="43.1641" y="1.05847" width="289.673" height="248.515" filterUnits="userSpaceOnUse" color-interpolation-filters="sRGB">
<feFlood flood-opacity="0" result="BackgroundImageFix"/>
<feColorMatrix in="SourceAlpha" type="matrix" values="0 0 0 0 0 0 0 0 0 0 0 0 0 0 0 0 0 0 127 0"/>
<feMorphology radius="2" operator="erode" in="SourceAlpha" result="effect1_dropShadow"/>
<feOffset dy="19"/>
<feGaussianBlur stdDeviation="2.5"/>
<feColorMatrix type="matrix" values="0 0 0 0 0 0 0 0 0 0 0 0 0 0 0 0 0 0 0.25 0"/>
<feBlend mode="normal" in2="BackgroundImageFix" result="effect1_dropShadow"/>
<feBlend mode="normal" in="SourceGraphic" in2="effect1_dropShadow" result="shape"/>
</filter>
<linearGradient id="paint0_linear" x1="0" y1="90.5" x2="376" y2="90.5" gradientUnits="userSpaceOnUse">
<stop stop-color="#61BF6A"/>
<stop offset="1" stop-color="#B0EE7F"/>
</linearGradient>
</defs>
</svg>