<svg width="377" height="181" viewBox="0 0 377 181" fill="none" xmlns="http://www.w3.org/2000/svg">
<mask id="mask0" mask-type="alpha" maskUnits="userSpaceOnUse" x="0" y="0" width="377" height="181">
<rect width="377" height="181" rx="10" fill="url(#paint0_linear)"/>
</mask>
<g mask="url(#mask0)">
<path d="M46 67C46 61.4772 50.4772 57 56 57H169.548C175.071 57 179.548 61.4772 179.548 67V252C179.548 257.523 175.071 262 169.548 262H56C50.4772 262 46 257.523 46 252V67Z" fill="#F6F8FB"/>
<path d="M200 67C200 61.4772 204.477 57 210 57H323.548C329.071 57 333.548 61.4772 333.548 67V252C333.548 257.523 329.071 262 323.548 262H210C204.477 262 200 257.523 200 252V67Z" fill="#F6F8FB"/>
<g filter="url(#filter0_d)">
<path d="M110 12C110 6.47715 114.477 2 120 2H257C262.523 2 267 6.47715 267 12V233C267 238.523 262.523 243 257 243H120C114.477 243 110 238.523 110 233V12Z" fill="white"/>
</g>
<path d="M182.5 63H205.468C205.927 63 206.327 62.6877 206.438 62.2425L212.188 39.2402C212.402 38.3857 211.486 37.6924 210.721 38.1295L201.057 43.6545C200.623 43.9027 200.073 43.792 199.768 43.3953L188.768 29.0687C188.36 28.5366 187.554 28.5498 187.163 29.0949L176.655 43.7462C176.354 44.1655 175.784 44.2872 175.338 44.027L165.201 38.1084C164.45 37.6703 163.537 38.3318 163.719 39.1814L168.651 62.2094C168.75 62.6705 169.157 63 169.629 63H174.321" stroke="#ECF0F7" stroke-width="2" stroke-miterlimit="10" stroke-linecap="round"/>
<path d="M177 63H179.496" stroke="#ECF0F7" stroke-width="2" stroke-miterlimit="10" stroke-linecap="round"/>
<rect x="128" y="120" width="122" height="4" rx="2" fill="#ECF0F7"/>
<rect x="128" y="135" width="122" height="4" rx="2" fill="#ECF0F7"/>
<rect x="128" y="150" width="122" height="4" rx="2" fill="#ECF0F7"/>
<rect x="146" y="83" width="85" height="11" rx="3" fill="#ECF0F7"/>
</g>
<defs>
<filter id="filter0_d" x="107" y="2" width="163" height="263" filterUnits="userSpaceOnUse" color-interpolation-filters="sRGB">
<feFlood flood-opacity="0" result="BackgroundImageFix"/>
<feColorMatrix in="SourceAlpha" type="matrix" values="0 0 0 0 0 0 0 0 0 0 0 0 0 0 0 0 0 0 127 0"/>
<feMorphology radius="2" operator="erode" in="SourceAlpha" result="effect1_dropShadow"/>
<feOffset dy="19"/>
<feGaussianBlur stdDeviation="2.5"/>
<feColorMatrix type="matrix" values="0 0 0 0 0 0 0 0 0 0 0 0 0 0 0 0 0 0 0.25 0"/>
<feBlend mode="normal" in2="BackgroundImageFix" result="effect1_dropShadow"/>
<feBlend mode="normal" in="SourceGraphic" in2="effect1_dropShadow" result="shape"/>
</filter>
<linearGradient id="paint0_linear" x1="0.502669" y1="96.4173" x2="377.549" y2="92.0613" gradientUnits="userSpaceOnUse">
<stop stop-color="#FA8921"/>
<stop offset="1" stop-color="#F2C94C"/>
</linearGradient>
</defs>
</svg>