<svg width="21" height="21" viewBox="0 0 21 21" fill="none" xmlns="http://www.w3.org/2000/svg">
<path d="M0.239187 12.2603C1.76136 13.7616 7.00442 18.7658 9.03399 20.7675C9.37225 21.1011 10.0488 21.1011 10.2179 20.6007C11.7401 17.9318 16.3066 9.2578 20.8732 3.75316C21.0423 3.41955 21.0423 3.08593 20.8732 2.75232C20.0275 1.91828 19.0127 0.917439 18.1671 0.250211C17.8288 -0.0834036 17.3214 -0.0834036 17.1523 0.250211C13.4314 4.25358 10.0488 10.0918 8.86486 12.2603C8.69573 12.7607 8.01921 12.7607 7.68094 12.4271C6.15877 11.0927 4.29833 9.4246 2.94528 8.09015C2.60702 7.92334 1.9305 7.92334 1.76137 8.42376C1.25397 9.2578 0.74658 10.4254 0.0700562 11.4263C-0.0990746 11.7599 0.0700565 12.0935 0.239187 12.2603Z" fill="#3FA4E6"/>
</svg>